<?xml version="1.0" encoding="utf-8" ?><svg xmlns="http://www.w3.org/2000/svg" xmlns:xlink="http://www.w3.org/1999/xlink" width="209" height="209" viewBox="0 0 209 209"><path fill="#090808" transform="scale(0.203949 0.203949)" d="M487.061 164.57C490.92 160.906 496.574 157.243 501.141 154.528C541.959 130.264 593.635 129.277 636.609 147.941C725.519 186.556 766.052 304.808 752.284 395.195C765.645 410.226 776.098 427.449 784.081 445.781C820.329 529.029 777.871 625.062 712.29 680.248C699.172 691.287 686.816 700.202 672.104 709.274L671.473 708.451C675.062 705.519 680.826 700.066 684.062 696.778C717.03 663.281 740.805 624.004 750.386 577.697C753.021 564.96 755.563 552.821 755.496 539.604L755.669 537.479C756.1 534.92 755.927 533.215 756.11 530.718L755.566 529.977C755.052 532.519 754.549 535.168 754.339 537.752C754.303 538.004 754.267 538.255 754.231 538.507L751.887 547.447C748.11 549.518 746.554 557.423 747.982 561.145C746.922 566.136 742.409 578.215 740.416 583.152C723.976 622.948 698.38 658.304 665.707 686.348C657.845 693.079 649.373 699.967 640.919 705.906C621.584 719.484 596.462 732.401 593.259 758.491C589.632 788.033 620.613 801.046 645.105 802.1C659.566 802.723 673.756 802.332 686.588 809.88C693.448 813.915 696.411 817.139 701.278 823.37C689.516 821.206 674.923 822.079 662.757 821.995C637.214 821.818 611.661 822.757 586.101 822.993C560.873 823.226 535.983 822.104 510.838 822.027C498.435 821.988 476.196 821.37 464.419 824.399C477.624 809.979 491.845 807.557 510.434 805.832C501.331 783.507 474.1 769.309 452.188 762.931C445.607 774.442 438.708 784.658 432.324 796.842C415.024 829.858 401.708 875.086 361.725 886.603C345.664 891.229 326.277 887.485 313.786 876.66C293.705 886.121 269.711 894.967 248.696 882.4C240.625 877.555 234.853 869.655 232.692 860.493C226.954 836.731 241.663 816.754 253.361 797.847C243.708 800.043 236.067 802.452 226.684 805.661C238.995 790.486 251.339 770.58 262.216 754.304C270.481 741.935 277.388 732.13 284.476 718.934C275.892 722.459 268.047 726.488 259.67 730.449C267.994 718.24 273.437 708.605 280.124 695.334C289.25 677.223 300.155 653.105 312.047 636.934C302.594 640.351 295.764 644.317 286.734 648.039C296.544 627.639 304.243 610.821 311.993 589.408C317.451 574.331 322.749 557.747 328.656 543.196C342.169 509.912 360.654 478.176 383.678 450.577C389.024 444.169 398.772 431.861 405.397 427.818C381.981 455.715 363.224 498.037 352.435 532.566C378.184 523.796 404.681 510.322 427.791 495.972C431.948 493.39 436.38 490.043 440.596 487.738L441.403 487.302C444.607 486.355 463.617 472.306 463.755 470.63C463.78 470.637 463.808 470.638 463.83 470.651C463.992 470.748 463.993 470.81 464.078 471.004C464.124 471.111 464.17 471.367 464.329 471.395C464.575 471.438 464.944 471.108 465.089 470.974C465.305 470.776 465.483 470.539 465.687 470.328C466.038 469.962 466.573 469.513 466.642 468.971C466.81 467.649 467.07 467.344 468.058 466.355C468.774 465.638 469.653 464.977 469.968 463.969C470.03 463.769 470.074 463.563 470.135 463.363C470.223 463.071 470.321 462.782 470.414 462.492C471.404 460.853 479.061 451.593 481.188 448.58C479.261 452.488 477.277 456.368 475.236 460.219C452.311 502.892 414.466 528.244 372.124 549.745C365.295 553.213 347.168 561.96 340.294 564.026C336.124 572.554 334.423 578.044 331.441 587.077C367.637 573.888 402.625 557.597 436.016 538.384C464.589 521.833 498.138 494.578 513.123 464.952C518.009 455.294 520.925 446.377 523.669 436.033C524.383 437.502 524.362 437.69 524.733 439.312C523.519 447.958 522.566 456.652 519.877 464.949C506.939 504.868 475.368 538.964 441.914 563.399C404.793 590.513 360.552 616.261 317.918 633.335C314.624 644.706 311.507 652.859 308.031 663.624C325.996 656.963 351.81 644.062 368.79 635.253C429.251 603.886 507.21 552.196 536.555 488.473C541.325 478.134 545.241 467.422 548.261 456.443C550.14 456.04 549.728 450.892 550.721 449.291C551.15 448.89 551.084 446.54 551.211 446.238C551.9 444.584 552.281 443.574 552.022 441.5C551.738 439.233 552.985 433.835 554.216 439.209C554.756 441.57 553.193 444.926 554.547 447.494C555.037 448.649 554.828 452.774 555.292 453.354C555.396 453.157 555.5 452.96 555.604 452.763L555.697 452.749C556.067 453.259 556.107 456.661 556.066 457.502C555.85 461.917 556.432 465.396 556.98 469.517C556.903 475.696 554.541 486.639 552.912 492.425C542.877 528.08 518.94 559.038 492.311 584.302C443.254 630.842 382.838 667.393 323.441 699.249C311.711 705.541 299.46 711.09 287.648 717.291C284.618 726.377 280.352 733.886 276.361 742.512C298.616 733.254 320.518 723.169 342.021 712.278C410.474 676.92 504.22 615.997 544.591 549.313L545.13 550.078C507.198 628.157 435.843 684.129 365.287 731.504C342.639 746.711 313.789 765.723 289.948 778.885C288.458 779.609 285.021 781.699 283.525 782.636L284.673 783.755C286.287 783.184 290.56 781.627 291.893 780.82C327.253 767.674 361.272 751.168 393.481 731.528C463.082 689.159 555.921 612.921 575.748 529.936C583.998 496.572 580.148 458.39 561.335 428.856C524.792 371.488 470.255 379.973 420.223 411.705L418.971 411.112C428.215 401.789 444.151 385.908 454.777 379.727C519.487 342.082 598.169 386.835 619.489 453.747C626.972 477.234 626.323 496.633 621.075 519.727C629.495 508.261 634.859 496.492 638.508 482.719C656.187 415.992 618.925 351.912 552.16 334.447C568.905 346.146 581.447 359.281 586.329 379.611L585.15 381.23C581.924 375.231 574.3 368.655 568.765 364.777C545.8 348.687 505.149 344.812 479.2 355.404C491.147 346.103 502.226 333.473 504.266 317.739C512.735 252.407 372.831 237.441 333.973 257.7C342.145 227.687 368.159 202.079 394.686 187.187C424.968 170.187 452.609 164.045 487.061 164.57ZM528.825 193.173C544.181 181.701 556.57 174.275 577.094 176.747C603.804 179.965 619.593 203.646 646.744 206.389C639.12 207.629 633.132 208.791 626.103 212.436C616.133 217.605 608.366 226.815 599.174 232.749C580.842 244.585 559.608 248.483 541.418 235.456C550.782 257.019 564.685 272.943 586.909 281.549C603.349 287.915 616.653 289.039 633.752 291.85C661.471 296.407 689.888 308.272 710.784 327.319C716.787 332.791 722.656 340.882 727.893 347.161C721.512 313.429 703.139 276.009 666.921 266.732C670.811 266.534 674.497 266.633 678.232 266.42C695.136 268.386 704.443 272.228 718.065 282.18C704.271 232.753 678.432 192.177 632.926 166.605C605.121 150.979 574.213 142.481 542.714 151.784C530.829 155.294 517.823 160.716 511.506 172.162C519.606 178.426 523.736 184.158 528.825 193.173ZM713.174 456.766C711.816 460.365 712.883 460.916 712.364 464.75C711.429 471.653 713.516 479.763 711.432 486.257C710.811 488.192 711.762 491.829 712.054 493.696C711.879 495.08 711.779 495.381 711.931 496.747L712.807 496.522C724.271 483.969 731.64 459.536 731.928 442.955C733.463 354.673 650.85 309.432 573.704 306.795C573.133 306.822 571.387 306.673 571.218 307.293C571.505 307.787 573.177 308.4 573.755 308.655C589.088 315.893 604.714 323.166 619.305 331.803C667.725 360.463 703.885 399.646 713.174 456.766ZM349.535 243.275C356.11 239.679 361.823 235.575 368.519 232.042C386.063 222.788 409.521 217.4 429.394 216.072C463.741 215.256 477.365 215.315 509.238 229.397C498.535 212.532 486.947 205.188 467.257 200.877C465.194 200.447 463.119 200.077 461.035 199.768C472.764 194.85 485.74 196.8 497.541 200.11C487.942 184.814 472.026 177.395 454.057 178.704C419.75 181.486 384.088 197.96 361.365 224.234C356.701 229.628 351.877 236.486 349.535 243.275ZM356.243 788.434C324.547 788.985 297.519 810.757 298.421 843.929C298.461 845.827 298.554 847.724 298.698 849.618C310.397 824.997 334.832 802.233 358.752 789.438C358.928 789.343 359.812 789.08 359.698 788.69C359.314 788.342 356.912 788.454 356.243 788.434ZM402.917 792.271C374.305 794.12 356.99 816.559 356.642 844.287L356.996 844.639C357.599 843.644 358.182 842.698 358.746 841.678C365.968 829.145 376.054 817.171 387.047 807.805C393.424 802.373 400.653 797.505 406.991 792.258C405.635 792.241 404.269 792.197 402.917 792.271ZM596.507 808.505C590.841 798.184 583.893 787.738 575.018 779.946C559.178 766.041 533.046 765.723 544.264 737.479L543.911 737.081C523.976 746.946 506.564 775.744 527.824 793.299C541.645 804.712 560.955 804.208 577.625 805.514C584.715 806.091 589.493 806.669 596.507 808.505Z"/><path fill="#C3C4C8" transform="scale(0.203949 0.203949)" d="M277.868 785.502C279.894 784.561 281.41 783.456 283.525 782.636L284.673 783.755C282.934 784.459 280.208 785.376 278.708 786.173L277.868 785.502Z"/><path fill="#464547" transform="scale(0.203949 0.203949)" d="M755.566 529.977C755.38 526.515 757.127 527.045 756.11 530.718L755.566 529.977Z"/><path fill="#6B6E70" transform="scale(0.203949 0.203949)" d="M278.708 786.173C278.145 786.379 276.434 787.241 275.843 786.859C275.774 786.323 276.619 786.059 277.063 785.871L277.868 785.502L278.708 786.173Z"/><path fill="#090808" fill-opacity="0.97254902" transform="scale(0.203949 0.203949)" d="M713.174 456.766C714.853 467.307 714.393 483.348 712.054 493.696C711.762 491.829 710.811 488.192 711.432 486.257C713.516 479.763 711.429 471.653 712.364 464.75C712.883 460.916 711.816 460.365 713.174 456.766Z"/><path fill="#464547" fill-opacity="0.65882355" transform="scale(0.203949 0.203949)" d="M666.921 266.732C666.437 266.579 666.588 266.609 666.278 266.38C666.779 265.526 676.641 266.151 678.232 266.42C674.497 266.633 670.811 266.534 666.921 266.732Z"/><path fill="#FDFEFD" fill-opacity="0.019607844" transform="scale(0.203949 0.203949)" d="M573.755 308.655C573.177 308.4 571.505 307.787 571.218 307.293C571.387 306.673 573.133 306.822 573.704 306.795L573.755 308.655Z"/><path fill="#FDFEFD" fill-opacity="0.06666667" transform="scale(0.203949 0.203949)" d="M356.243 788.434C356.912 788.454 359.314 788.342 359.698 788.69C359.812 789.08 358.928 789.343 358.752 789.438C357.918 789.096 357.082 788.761 356.243 788.434Z"/><path fill="#090808" fill-opacity="0.89019608" transform="scale(0.203949 0.203949)" d="M548.261 456.443C548.408 454.182 549.498 449.737 550.015 447.254C551.822 438.592 551.796 430.702 552.121 421.954C555.658 434.58 559.273 456.739 556.98 469.517C556.432 465.396 555.85 461.917 556.066 457.502C556.107 456.661 556.067 453.259 555.697 452.749L555.604 452.763C555.5 452.96 555.396 453.157 555.292 453.354C554.828 452.774 555.037 448.649 554.547 447.494C553.193 444.926 554.756 441.57 554.216 439.209C552.985 433.835 551.738 439.233 552.022 441.5C552.281 443.574 551.9 444.584 551.211 446.238C551.084 446.54 551.15 448.89 550.721 449.291C549.728 450.892 550.14 456.04 548.261 456.443Z"/><path fill="#090808" fill-opacity="0.88235295" transform="scale(0.203949 0.203949)" d="M441.403 487.302C445.85 482.935 452.806 478.779 457.728 474.469C462.045 470.689 466.185 466.066 470.414 462.492C470.321 462.782 470.223 463.071 470.135 463.363C470.074 463.563 470.03 463.769 469.968 463.969C469.653 464.977 468.774 465.638 468.058 466.355C467.07 467.344 466.81 467.649 466.642 468.971C466.573 469.513 466.038 469.962 465.687 470.328C465.483 470.539 465.305 470.776 465.089 470.974C464.944 471.108 464.575 471.438 464.329 471.395C464.17 471.367 464.124 471.111 464.078 471.004C463.993 470.81 463.992 470.748 463.83 470.651C463.808 470.638 463.78 470.637 463.755 470.63C463.617 472.306 444.607 486.355 441.403 487.302Z"/><path fill="#090808" fill-opacity="0.96470588" transform="scale(0.203949 0.203949)" d="M747.982 561.145C746.554 557.423 748.11 549.518 751.887 547.447C750.803 551.974 749.31 556.673 747.982 561.145Z"/><path fill="#FDFEFD" fill-opacity="0.25882354" transform="scale(0.203949 0.203949)" d="M283.525 782.636C285.021 781.699 288.458 779.609 289.948 778.885L290.2 779.476C290.606 780.474 290.902 780.517 291.893 780.82C290.56 781.627 286.287 783.184 284.673 783.755L283.525 782.636Z"/><path fill="#1E1D1F" fill-opacity="0.80000001" transform="scale(0.203949 0.203949)" d="M544.591 549.313C545.163 548.042 550.468 538.145 550.881 537.926C551.329 538.794 545.906 548.64 545.13 550.078L544.591 549.313Z"/><path fill="#C3C4C8" fill-opacity="0.98431373" transform="scale(0.203949 0.203949)" d="M755.566 529.977L756.11 530.718C755.927 533.215 756.1 534.92 755.669 537.479L754.339 537.752C754.549 535.168 755.052 532.519 755.566 529.977Z"/><path fill="#090808" fill-opacity="0.89411765" transform="scale(0.203949 0.203949)" d="M524.776 430.96C524.995 432.669 525.009 434.049 525.105 435.755C524.948 437.072 524.942 437.948 524.733 439.312C524.362 437.69 524.383 437.502 523.669 436.033C523.909 434.407 524.441 432.635 524.776 430.96Z"/><path fill="#090808" fill-opacity="0.40392157" transform="scale(0.203949 0.203949)" d="M524.776 430.96C524.753 430.089 524.952 428.165 525.119 427.316L525.255 427.444C525.249 427.368 525.243 427.292 525.237 427.216C526.019 427.507 525.278 434.741 525.105 435.755C525.009 434.049 524.995 432.669 524.776 430.96Z"/><path fill="#090808" fill-opacity="0.96470588" transform="scale(0.203949 0.203949)" d="M586.329 379.611C586.453 380.244 587.408 383.187 586.865 383.654C586.383 383.665 585.428 381.685 585.15 381.23L586.329 379.611Z"/><path fill="#1E1D1F" fill-opacity="0.85882354" transform="scale(0.203949 0.203949)" d="M671.473 708.451L672.104 709.274C669.493 711.549 667.29 711.81 671.473 708.451Z"/><path fill="#FDFEFD" fill-opacity="0.1254902" transform="scale(0.203949 0.203949)" d="M754.339 537.752L755.669 537.479L755.496 539.604L754.231 538.507C754.267 538.255 754.303 538.004 754.339 537.752Z"/><path fill="#090808" fill-opacity="0.9137255" transform="scale(0.203949 0.203949)" d="M420.223 411.705L419.945 411.883L419.385 412.233C419.101 412.41 418.194 413.115 417.821 412.912C417.769 412.884 417.733 412.834 417.724 412.776C417.665 412.436 418.777 411.328 418.971 411.112L420.223 411.705Z"/></svg>