<?xml version="1.0" encoding="utf-8" ?><svg xmlns="http://www.w3.org/2000/svg" xmlns:xlink="http://www.w3.org/1999/xlink" width="179" height="242" viewBox="0 0 179 242"><path fill="#233C5F" transform="scale(0.199303 0.199303)" d="M517.337 355.424C524.193 355.39 530.863 355.127 537.785 355.182C537.118 361.779 537.374 370.871 537.448 377.68C556.859 377.675 576.773 377.87 596.145 377.602C596.95 384.635 596.523 391.884 596.703 398.967L597.869 399.087C603.741 398.993 609.614 398.975 615.486 399.034L615.85 418.066C621.69 418.072 628.943 417.875 634.666 418.144L634.81 587.043L650.578 587.101C650.98 611.979 650.476 637.017 650.739 661.88C650.851 672.525 650.311 687.929 651.146 698.249L669.778 698.343C670.008 716.046 669.951 733.867 669.904 751.577C669.878 761.157 670.441 772.648 669.739 782.069C663.456 782.244 657.17 782.231 650.889 782.029C650.883 788.211 651.092 796.082 650.755 802.127L567.042 801.824L566.981 910.423C566.984 928.631 567.396 948.926 566.85 966.918C566.973 977.2 567.028 987.484 567.013 997.767C567.014 1003.27 566.773 1012.56 567.408 1017.84C568.634 1019.24 573.172 1018.61 575.143 1018.51C575.368 1024.67 575.569 1032.81 575.203 1038.96L599.807 1039.16C600.409 1046.51 599.703 1053.5 600.33 1060.59C606.119 1060.54 611.909 1060.55 617.698 1060.61C617.738 1065.98 617.575 1073.82 617.986 1078.98L618.582 1080.31C622.712 1080.72 632.038 1080.5 636.556 1080.53L636.613 1114.62C636.68 1121.56 637.095 1130.9 636.452 1137.64L460.02 1137.62C459.205 1127.41 460.009 1101.08 460.165 1089.4C460.466 1066.76 459.15 1040.45 460.119 1018.28L474.25 1018.28L474.422 972.943L474.278 901.415C474.247 892.377 474.757 875.803 473.866 867.352L473.741 866.988C469.543 866.675 462.897 866.827 458.494 866.813C457.725 846.718 458.399 822.2 458.444 801.78C451.344 801.596 443.921 801.733 436.795 801.764C437.091 823.36 436.947 845.257 436.959 866.88C432.025 866.771 427.09 866.707 422.155 866.688C421.208 900.523 421.571 939.099 421.891 973.123C421.856 984.5 421.257 1007.32 422.317 1018.17C426.157 1018.16 429.997 1018.17 433.837 1018.2C434.317 1043.9 433.822 1070.4 433.831 1096.18C433.835 1106.48 434.472 1127.96 433.694 1137.57L262.414 1137.65C261.782 1120.99 262.444 1104.31 262.162 1087.64C262.123 1085.29 262.061 1082.93 262.179 1080.58C268.168 1080.09 274.237 1080.24 280.253 1080.27C280.271 1073.99 280.123 1066.89 280.338 1060.67C286.041 1060.64 292.482 1060.73 298.113 1060.42C298.208 1054.08 297.74 1044.9 298.409 1039.05C306.009 1038.99 313.609 1039 321.209 1039.1C321.598 1032.73 321.132 1025.69 321.546 1018.78C323.946 1018.82 326.35 1019.08 328.552 1018.27C330.084 1016.59 329.592 1016.88 329.882 1014.05C329.362 1001.2 329.732 986.115 329.773 973.164C330.578 954.611 329.838 931.143 329.765 912.348L329.543 801.711C302.212 801.706 271.561 802.645 244.709 801.771C244.576 795.203 245.255 789.017 244.628 782.383C238.046 782.073 232.525 782.194 225.922 782.38C225.554 754.538 225.975 726.529 225.544 698.725C232.126 698.686 238.707 698.597 245.288 698.457L245.253 586.929C250.861 586.905 255.755 586.98 261.353 587.273C262.221 574.277 261.765 555.454 261.79 541.919L261.66 459.081C261.587 447.184 260.899 429.654 261.622 418.116C268.128 417.985 274.894 418.062 281.423 418.045C281.337 411.697 281.207 405.381 281.38 399.034L299.205 398.905C299.196 391.836 299.264 384.767 299.409 377.7L359.584 377.69C360 370.622 359.654 362.362 359.469 355.28L378.803 355.347L378.782 377.482L401.788 377.548L401.633 396.602L493.99 396.667L493.992 377.523L517.392 377.441L517.337 355.424ZM600.33 1060.59C599.703 1053.5 600.409 1046.51 599.807 1039.16L575.203 1038.96C574.806 1041.33 575.161 1041.89 573.652 1043.18L571.208 1043.25C557.853 1042.56 539.821 1043.01 526.097 1043.05L525.977 1025.11L525.832 1018.25L489.893 1018.22C489.722 1003.17 489.709 988.114 489.855 973.06C484.711 973.169 479.564 973.13 474.422 972.943L474.25 1018.28L460.119 1018.28C459.15 1040.45 460.466 1066.76 460.165 1089.4C460.009 1101.08 459.205 1127.41 460.02 1137.62L636.452 1137.64C637.095 1130.9 636.68 1121.56 636.613 1114.62L636.556 1080.53C632.038 1080.5 622.712 1080.72 618.582 1080.31L617.986 1078.98C617.575 1073.82 617.738 1065.98 617.698 1060.61C611.909 1060.55 606.119 1060.54 600.33 1060.59ZM298.409 1039.05C297.74 1044.9 298.208 1054.08 298.113 1060.42C292.482 1060.73 286.041 1060.64 280.338 1060.67C280.123 1066.89 280.271 1073.99 280.253 1080.27C274.237 1080.24 268.168 1080.09 262.179 1080.58C262.061 1082.93 262.123 1085.29 262.162 1087.64C262.444 1104.31 261.782 1120.99 262.414 1137.65L433.694 1137.57C434.472 1127.96 433.835 1106.48 433.831 1096.18C433.822 1070.4 434.317 1043.9 433.837 1018.2C429.997 1018.17 426.157 1018.16 422.317 1018.17C421.257 1007.32 421.856 984.5 421.891 973.123C416.864 973.049 411.837 973.038 406.811 973.089L406.812 1018.07C394.94 1018.25 383.066 1018.3 371.193 1018.22L371.067 1024.95L371.022 1043.77C356.679 1043.75 339.53 1043.26 325.417 1043.81C324.237 1043.88 323.253 1043.79 322.082 1043.71C320.802 1042.19 321.24 1041.5 321.209 1039.1C313.609 1039 306.009 1038.99 298.409 1039.05ZM353.259 650.027L353.278 629.372L353.265 608.438C353.329 602.594 353.295 596.75 353.163 590.908L351.148 591.09C349.43 590.114 349.996 590.578 349.161 588.249L349.001 587.735C343.964 587.625 338.925 587.567 333.887 587.56C334.63 595.127 333.985 604.428 334.189 612.147C334.716 632.026 333.246 654.409 333.969 673.995C339.978 673.957 347.828 673.702 353.682 674.082L353.267 670.305L353.305 666.793L353.259 650.027ZM541.924 667.285C541.963 669.285 541.792 671.849 542.574 673.582C547.99 673.603 553.407 673.515 558.82 673.318C559.558 671.622 559.328 669.735 559.307 667.826L559.355 665.756C558.956 644.203 559.618 622.197 559.242 600.501L559.316 595.419L559.333 593.341C559.457 589.1 559.464 587.174 554.069 587.345C551.225 587.436 548.371 587.635 545.522 587.741L545.192 587.879C544.065 592.25 542.428 590.933 541.981 594.713L541.561 594.871C541.622 598.787 541.869 604.194 541.653 607.994C542.915 623.868 541.69 649.358 542.072 666.26L541.924 667.285ZM577.61 781.69C579.987 781.427 579.708 781.84 581.158 780.544L581.204 777.483C579.913 775.623 580.135 775.206 578.49 774.773C577.355 776.106 577.569 779.873 577.61 781.69Z"/><path fill="#FBFBFA" fill-opacity="0.06666667" transform="scale(0.199303 0.199303)" d="M333.887 587.56C338.925 587.567 343.964 587.625 349.001 587.735L349.161 588.249C349.996 590.578 349.43 590.114 351.148 591.09L353.163 590.908C353.295 596.75 353.329 602.594 353.265 608.438L353.278 629.372L353.259 650.027L353.305 666.793L353.267 670.305L353.682 674.082C347.828 673.702 339.978 673.957 333.969 673.995C333.246 654.409 334.716 632.026 334.189 612.147C333.985 604.428 334.63 595.127 333.887 587.56ZM338.923 636.605L338.429 638.289L338.01 638.28L337.919 637.832C337.665 640.777 336.817 648.604 338.861 651.178C340.955 648.142 340.49 648.07 341.182 644.743C341.885 650.747 337.363 658.588 345.469 663.725C351.852 662.617 347.602 646.804 348.495 642.594C349.917 635.889 352.318 608.525 346.452 604.519C345.577 604.501 344.738 604.421 343.895 604.584L343.335 604.851C341.457 605.728 341.189 605.971 339.202 606.077L339.082 606.802C343.534 610.308 344.371 607.311 346.817 609.221C347.152 614.023 348.036 624.218 347.817 628.628C346.389 628.682 345.326 628.698 343.897 628.931C346.051 630.666 349.075 628.394 347.616 631.939C346.631 634.333 348.193 637.815 346.791 639.511C344.537 639.504 343.424 639.911 341.873 638.784C341.671 632.733 343.576 631.141 337.554 627.725C336.694 622.848 338.605 610.796 336.832 608.743C334.082 623.449 336.5 624.286 338.923 636.605Z"/><path fill="#FBFBFA" fill-opacity="0.12156863" transform="scale(0.199303 0.199303)" d="M343.895 604.584C344.738 604.421 345.577 604.501 346.452 604.519C352.318 608.525 349.917 635.889 348.495 642.594C347.602 646.804 351.852 662.617 345.469 663.725C337.363 658.588 341.885 650.747 341.182 644.743C340.49 648.07 340.955 648.142 338.861 651.178C336.817 648.604 337.665 640.777 337.919 637.832L338.01 638.28L338.429 638.289L338.923 636.605C336.5 624.286 334.082 623.449 336.832 608.743C338.605 610.796 336.694 622.848 337.554 627.725C343.576 631.141 341.671 632.733 341.873 638.784C343.424 639.911 344.537 639.504 346.791 639.511C348.193 637.815 346.631 634.333 347.616 631.939C349.075 628.394 346.051 630.666 343.897 628.931C345.326 628.698 346.389 628.682 347.817 628.628C348.036 624.218 347.152 614.023 346.817 609.221C344.371 607.311 343.534 610.308 339.082 606.802L339.202 606.077C341.189 605.971 341.457 605.728 343.335 604.851L343.895 604.584Z"/><path fill="#FBFBFA" fill-opacity="0.3764706" transform="scale(0.199303 0.199303)" d="M541.561 594.871L541.981 594.713L542.234 600.97C542.91 604.416 544.518 605.108 547.395 606.716C552.511 606.649 553.206 600.496 553.807 596.385L555.443 595.438C557.701 595.492 556.95 595.144 558.382 596.528L559.316 595.419L559.242 600.501C557.85 605.864 553.906 604.76 553.986 607.584C554.201 615.159 549.668 661.973 557.86 664.113L558.522 663.793L559.355 665.756L559.307 667.826L558.499 667.125C554.994 670.93 552.115 665.903 547.646 665.579C545.773 665.443 543.897 665.886 542.072 666.26C541.69 649.358 542.915 623.868 541.653 607.994C541.869 604.194 541.622 598.787 541.561 594.871Z"/><path fill="#FBFBFA" fill-opacity="0.52156866" transform="scale(0.199303 0.199303)" d="M559.355 665.756L558.522 663.793L557.86 664.113C549.668 661.973 554.201 615.159 553.986 607.584C553.906 604.76 557.85 605.864 559.242 600.501C559.618 622.197 558.956 644.203 559.355 665.756Z"/><path fill="#FBFBFA" fill-opacity="0.23529412" transform="scale(0.199303 0.199303)" d="M542.234 600.97C547.386 596.877 549.936 587.627 558.467 593.677L559.333 593.341L559.316 595.419L558.382 596.528C556.95 595.144 557.701 595.492 555.443 595.438L553.807 596.385C553.206 600.496 552.511 606.649 547.395 606.716C544.518 605.108 542.91 604.416 542.234 600.97Z"/><path fill="#E3DBD2" fill-opacity="0.61176473" transform="scale(0.199303 0.199303)" d="M577.61 781.69C577.569 779.873 577.355 776.106 578.49 774.773C580.135 775.206 579.913 775.623 581.204 777.483L581.158 780.544C579.708 781.84 579.987 781.427 577.61 781.69Z"/><path fill="#E3DBD2" transform="scale(0.199303 0.199303)" d="M517.337 355.424C524.193 355.39 530.863 355.127 537.785 355.182C537.118 361.779 537.374 370.871 537.448 377.68C556.859 377.675 576.773 377.87 596.145 377.602C596.95 384.635 596.523 391.884 596.703 398.967L597.869 399.087C603.741 398.993 609.614 398.975 615.486 399.034L615.85 418.066C617.085 473.833 616.01 531.267 616.258 587.235L631.853 587.259L632.232 698.62C638.443 698.591 644.831 698.643 651.025 698.517C650.952 725.148 651.033 751.78 651.268 778.411L650.099 778.732L649.336 780.346C646.498 781.128 634.76 780.747 631.264 780.695L631.113 762.552C623.677 762.511 616.24 762.525 608.804 762.592C608.742 754.402 608.727 746.212 608.758 738.022C605.455 738.039 601.874 737.931 598.66 738.553C595.189 738.85 589.336 738.712 585.688 738.74C585.224 720.589 585.569 701.098 585.568 682.831L585.43 587.747C581.405 587.575 578.326 587.502 574.311 587.664L564.653 587.724L564.73 472.207L545.675 472.268C545.709 478.843 545.681 485.418 545.59 491.992C545.838 503.03 545.898 514.504 545.714 525.546C545.37 546.154 546.221 567.18 545.522 587.741L545.192 587.879C541.435 587.615 525.438 586.898 522.812 588.294L522.787 589.838C522.261 604.27 522.696 619.047 522.531 633.496C522.49 637.101 522.814 650.649 522.148 653.242L374.588 653.189L374.634 608.66L374.693 587.766C370.072 587.727 352.784 587.322 349.161 588.249L349.001 587.735C349.193 585.528 349.115 582.791 349.138 580.546C349.357 559.601 348.781 538.579 349.206 517.643C349.048 502.517 349.01 487.391 349.094 472.265L331.135 472.231C331.138 510.223 330.616 549.62 331.12 587.51C324.508 587.05 316.489 587.245 309.755 587.251C309.255 637.079 309.831 687.683 309.846 737.59C306.561 737.577 301.345 737.398 298.238 737.838C293.67 738.104 289.46 738.374 284.867 738.313L284.763 761.715L269.073 761.736C269.095 765.15 269.353 778.756 268.792 781.222L245.422 781.344L245.481 698.814L266.221 698.876L266.137 587.451L281.57 587.501L281.423 418.045C281.337 411.697 281.207 405.381 281.38 399.034L299.205 398.905C299.196 391.836 299.264 384.767 299.409 377.7L359.584 377.69C360 370.622 359.654 362.362 359.469 355.28L378.803 355.347L378.782 377.482L401.788 377.548L401.633 396.602L493.99 396.667L493.992 377.523L517.392 377.441L517.337 355.424Z"/><path fill="#233C5F" transform="scale(0.199303 0.199303)" d="M517.337 355.424C524.193 355.39 530.863 355.127 537.785 355.182C537.118 361.779 537.374 370.871 537.448 377.68C556.859 377.675 576.773 377.87 596.145 377.602C596.95 384.635 596.523 391.884 596.703 398.967C586.315 399.379 573.599 399.055 563.006 399.077L494.262 399.132L494.226 416.979L401.343 416.948L401.33 399.183C375.55 398.725 349.583 399.345 323.787 399.015C316.959 398.927 309.765 398.845 302.968 399.183L299.205 398.905C299.196 391.836 299.264 384.767 299.409 377.7L359.584 377.69C360 370.622 359.654 362.362 359.469 355.28L378.803 355.347L378.782 377.482L401.788 377.548L401.633 396.602L493.99 396.667L493.992 377.523L517.392 377.441L517.337 355.424Z"/><path fill="#C5BEB5" transform="scale(0.199303 0.199303)" d="M494.262 399.132L563.006 399.077C573.599 399.055 586.315 399.379 596.703 398.967L597.869 399.087L597.292 399.676L536.841 399.738L536.852 417.142C525.923 417.004 514.993 417.025 504.064 417.206L504.058 438.218L394.986 438.362L394.87 417.326L361.208 417.357L361.092 399.729C355.262 399.729 304.777 400.121 302.968 399.183C309.765 398.845 316.959 398.927 323.787 399.015C349.583 399.345 375.55 398.725 401.33 399.183L401.343 416.948L494.226 416.979L494.262 399.132Z"/><path fill="#C5BEB5" transform="scale(0.199303 0.199303)" d="M545.194 527.234C545.056 517.894 544.957 500.962 545.59 491.992C545.838 503.03 545.898 514.504 545.714 525.546C545.37 546.154 546.221 567.18 545.522 587.741L545.192 587.879C541.435 587.615 525.438 586.898 522.812 588.294L522.787 589.838C522.261 604.27 522.696 619.047 522.531 633.496C522.49 637.101 522.814 650.649 522.148 653.242C521.362 647.929 521.776 614.351 522.216 608.04L508.192 608.079L508.065 584.815L532.075 584.833C533.094 567.929 532.535 544.561 532.449 527.305L545.194 527.234Z"/><path fill="#C5BEB5" transform="scale(0.199303 0.199303)" d="M349.206 517.643C349.468 521.026 349.586 523.712 349.601 527.103C353.743 527.043 358.223 527.068 362.331 526.887L362.485 587.158C370.535 587.385 372.582 586.542 380.342 584.894C381.655 584.615 388.369 584.746 390.1 584.777L389.965 608.566C386.623 608.549 377.5 608.311 374.634 608.66L374.693 587.766C370.072 587.727 352.784 587.322 349.161 588.249L349.001 587.735C349.193 585.528 349.115 582.791 349.138 580.546C349.357 559.601 348.781 538.579 349.206 517.643Z"/><path fill="#233C5F" transform="scale(0.199303 0.199303)" d="M597.869 399.087C603.741 398.993 609.614 398.975 615.486 399.034L615.85 418.066L597.373 418.096L597.292 399.676L597.869 399.087Z"/><path fill="#233C5F" transform="scale(0.199303 0.199303)" d="M281.38 399.034L299.205 398.905L299.116 418.063L281.423 418.045C281.337 411.697 281.207 405.381 281.38 399.034Z"/><path fill="#131F34" transform="scale(0.199303 0.199303)" d="M474.422 972.943C479.564 973.13 484.711 973.169 489.855 973.06C489.709 988.114 489.722 1003.17 489.893 1018.22L525.832 1018.25L525.977 1025.11L526.097 1043.05C539.821 1043.01 557.853 1042.56 571.208 1043.25L573.652 1043.18C575.161 1041.89 574.806 1041.33 575.203 1038.96L599.807 1039.16C600.409 1046.51 599.703 1053.5 600.33 1060.59C606.119 1060.54 611.909 1060.55 617.698 1060.61C617.738 1065.98 617.575 1073.82 617.986 1078.98L618.582 1080.31C622.712 1080.72 632.038 1080.5 636.556 1080.53L636.613 1114.62C636.68 1121.56 637.095 1130.9 636.452 1137.64L460.02 1137.62C459.205 1127.41 460.009 1101.08 460.165 1089.4C460.466 1066.76 459.15 1040.45 460.119 1018.28L474.25 1018.28L474.422 972.943ZM585.895 1118.6C586.329 1115.08 586.107 1104.68 586.102 1100.84C568.824 1100.37 548.474 1100.89 530.907 1100.89C521.643 1100.96 512.379 1100.98 503.115 1100.92C503.213 1106.56 503.238 1112.36 503.418 1117.98C507.18 1117.97 528.708 1117.58 530.089 1118.51C539.345 1118.64 548.602 1118.64 557.857 1118.51C565.693 1118.64 573.531 1118.66 581.367 1118.56L585.895 1118.6ZM506.625 1084.24L503.846 1084.5C503.015 1085.72 503.118 1085.69 503.021 1087.19C502.632 1088.55 502.82 1088.39 501.945 1089.45C500.495 1091.21 500.436 1095.12 500.326 1097.33L509.883 1097.2C513.266 1096.52 526.423 1094.1 525.671 1089.23C523.417 1087.57 520.575 1087.88 517.81 1087.94C516.561 1087.38 516.482 1087.47 515.657 1086.42C516.529 1083.97 519.44 1083.04 522.007 1081.7L521.797 1081.08C519.389 1080.55 516.269 1080.62 513.337 1080.11L512.787 1080C509.953 1079.88 509.43 1079.37 507.327 1080.68C506.835 1082.24 506.796 1082.6 506.625 1084.24Z"/><path fill="#E3DBD2" fill-opacity="0.85882354" transform="scale(0.199303 0.199303)" d="M530.907 1100.89C548.474 1100.89 568.824 1100.37 586.102 1100.84C586.107 1104.68 586.329 1115.08 585.895 1118.6L581.367 1118.56C579.719 1118.35 579.303 1118.27 577.712 1117.82C577.992 1117.08 582.382 1115.64 584.288 1114.38L584.207 1113.79C583.688 1113.45 583.187 1113.18 582.586 1113.01C573.871 1110.48 539.959 1109.55 532.377 1113.94L532.225 1115.7L532.908 1116.18L533.398 1114.81L533.866 1114.92L533.997 1116.84C535.126 1117.98 536.776 1117.76 538.742 1117.99L531.031 1118.03L530.907 1100.89Z"/><path fill="#C5BEB5" fill-opacity="0.98823529" transform="scale(0.199303 0.199303)" d="M503.115 1100.92C512.379 1100.98 521.643 1100.96 530.907 1100.89L531.031 1118.03L538.742 1117.99C545.028 1118.69 551.331 1117.73 557.857 1118.51C548.602 1118.64 539.345 1118.64 530.089 1118.51C528.708 1117.58 507.18 1117.97 503.418 1117.98C503.238 1112.36 503.213 1106.56 503.115 1100.92Z"/><path fill="#E3DBD2" fill-opacity="0.79607844" transform="scale(0.199303 0.199303)" d="M538.742 1117.99C536.776 1117.76 535.126 1117.98 533.997 1116.84L533.866 1114.92L533.398 1114.81L532.908 1116.18L532.225 1115.7L532.377 1113.94C539.959 1109.55 573.871 1110.48 582.586 1113.01C583.187 1113.18 583.688 1113.45 584.207 1113.79L584.288 1114.38C582.382 1115.64 577.992 1117.08 577.712 1117.82C579.303 1118.27 579.719 1118.35 581.367 1118.56C573.531 1118.66 565.693 1118.64 557.857 1118.51C551.331 1117.73 545.028 1118.69 538.742 1117.99Z"/><path fill="#E3DBD2" fill-opacity="0.7764706" transform="scale(0.199303 0.199303)" d="M506.625 1084.24L508.863 1081.64L509.686 1081.59C510.534 1083.68 511.03 1085.51 512.646 1087.03C514.938 1087.8 515.383 1087.83 517.81 1087.94C520.575 1087.88 523.417 1087.57 525.671 1089.23C526.423 1094.1 513.266 1096.52 509.883 1097.2L500.326 1097.33C500.436 1095.12 500.495 1091.21 501.945 1089.45C502.82 1088.39 502.632 1088.55 503.021 1087.19C503.118 1085.69 503.015 1085.72 503.846 1084.5L506.625 1084.24Z"/><path fill="#E3DBD2" fill-opacity="0.92941177" transform="scale(0.199303 0.199303)" d="M506.625 1084.24C506.796 1082.6 506.835 1082.24 507.327 1080.68C509.43 1079.37 509.953 1079.88 512.787 1080L513.337 1080.11C516.269 1080.62 519.389 1080.55 521.797 1081.08L522.007 1081.7C519.44 1083.04 516.529 1083.97 515.657 1086.42C516.482 1087.47 516.561 1087.38 517.81 1087.94C515.383 1087.83 514.938 1087.8 512.646 1087.03C511.03 1085.51 510.534 1083.68 509.686 1081.59L508.863 1081.64L506.625 1084.24Z"/><path fill="#E3DBD2" transform="scale(0.199303 0.199303)" d="M600.33 1060.59C606.119 1060.54 611.909 1060.55 617.698 1060.61C617.738 1065.98 617.575 1073.82 617.986 1078.98C616.602 1080.57 614.677 1080.16 612.534 1080.16C608.843 1081.21 603.187 1080.84 599.277 1080.59L599.821 1083.47C601.05 1084.04 602.489 1084.35 602.581 1085.62C602.843 1089.2 602.823 1093.72 602.824 1097.24L509.883 1097.2C513.266 1096.52 526.423 1094.1 525.671 1089.23C523.417 1087.57 520.575 1087.88 517.81 1087.94C516.561 1087.38 516.482 1087.47 515.657 1086.42C516.529 1083.97 519.44 1083.04 522.007 1081.7L521.797 1081.08C519.389 1080.55 516.269 1080.62 513.337 1080.11L512.787 1080C516.88 1079.83 521.524 1079.89 525.665 1079.86L525.766 1060.47L559.738 1060.53C569.97 1060.2 589.48 1060.04 599.723 1060.59L600.33 1060.59Z"/><path fill="#131F34" transform="scale(0.199303 0.199303)" d="M600.33 1060.59C606.119 1060.54 611.909 1060.55 617.698 1060.61C617.738 1065.98 617.575 1073.82 617.986 1078.98C616.602 1080.57 614.677 1080.16 612.534 1080.16C608.404 1080.03 603.832 1080.1 599.668 1080.08L599.723 1060.59L600.33 1060.59Z"/><path fill="#94989C" transform="scale(0.199303 0.199303)" d="M559.738 1060.53C569.97 1060.2 589.48 1060.04 599.723 1060.59L599.668 1080.08C603.832 1080.1 608.404 1080.03 612.534 1080.16C608.843 1081.21 603.187 1080.84 599.277 1080.59C597.495 1079.99 591.051 1080.23 588.806 1080.24C589.393 1069.02 587.668 1074.87 582.081 1067.36C581.38 1062.85 579.943 1066.65 577.098 1064.34L576.884 1061.75C575.009 1060.04 563.699 1060.84 559.738 1060.53Z"/><path fill="#94989C" transform="scale(0.199303 0.199303)" d="M617.986 1078.98L618.582 1080.31L617.986 1080.99C618.296 1085.49 617.841 1093.83 618.375 1097.17C619.483 1097.61 620.143 1097.83 621.261 1098.16C622.046 1100.78 622.045 1116.26 621.506 1118.63C613.691 1118.66 605.205 1118.86 597.448 1118.54L585.895 1118.6C586.329 1115.08 586.107 1104.68 586.102 1100.84C568.824 1100.37 548.474 1100.89 530.907 1100.89C521.643 1100.96 512.379 1100.98 503.115 1100.92C503.213 1106.56 503.238 1112.36 503.418 1117.98C507.18 1117.97 528.708 1117.58 530.089 1118.51C512.826 1118.96 494.141 1118.52 476.795 1118.47C476.747 1115.48 476.182 1106.03 477.22 1104.17C478.131 1104.16 479.042 1104.18 479.952 1104.21C485.531 1093.78 489.368 1096.23 500.057 1096.56C500.234 1092.31 498.181 1087.67 503.021 1087.19C502.632 1088.55 502.82 1088.39 501.945 1089.45C500.495 1091.21 500.436 1095.12 500.326 1097.33L509.883 1097.2L602.824 1097.24C602.823 1093.72 602.843 1089.2 602.581 1085.62C602.489 1084.35 601.05 1084.04 599.821 1083.47L599.277 1080.59C603.187 1080.84 608.843 1081.21 612.534 1080.16C614.677 1080.16 616.602 1080.57 617.986 1078.98Z"/><path fill="#394E6C" transform="scale(0.199303 0.199303)" d="M617.986 1078.98L618.582 1080.31L617.986 1080.99C618.296 1085.49 617.841 1093.83 618.375 1097.17C619.483 1097.61 620.143 1097.83 621.261 1098.16C622.046 1100.78 622.045 1116.26 621.506 1118.63C620.988 1114.68 621.203 1104.86 621.196 1100.44C591.363 1099.78 532.745 1100.97 501.152 1100.19C500.874 1099.92 500.595 1099.64 500.317 1099.37L500.326 1097.33L509.883 1097.2L602.824 1097.24C602.823 1093.72 602.843 1089.2 602.581 1085.62C602.489 1084.35 601.05 1084.04 599.821 1083.47L599.277 1080.59C603.187 1080.84 608.843 1081.21 612.534 1080.16C614.677 1080.16 616.602 1080.57 617.986 1078.98Z"/><path fill="#C5BEB5" transform="scale(0.199303 0.199303)" d="M617.986 1078.98L618.582 1080.31L617.986 1080.99C617.372 1085.6 617.601 1092.43 617.614 1097.23L602.824 1097.24C602.823 1093.72 602.843 1089.2 602.581 1085.62C602.489 1084.35 601.05 1084.04 599.821 1083.47L599.277 1080.59C603.187 1080.84 608.843 1081.21 612.534 1080.16C614.677 1080.16 616.602 1080.57 617.986 1078.98Z"/><path fill="#C5BEB5" transform="scale(0.199303 0.199303)" d="M586.102 1100.84L603.067 1100.94C602.682 1106.74 602.832 1112.35 603.064 1118.15C601.731 1118.19 598.506 1118.13 597.448 1118.54L585.895 1118.6C586.329 1115.08 586.107 1104.68 586.102 1100.84Z"/><path fill="#233C5F" transform="scale(0.199303 0.199303)" d="M480.032 1035.95C483.338 1035.89 487.964 1035.62 491.271 1036.1C492.487 1035.6 492.271 1039.39 492.713 1039.66C499.827 1043.88 501.845 1048.28 498.678 1056.42C494.525 1058.73 493.328 1058.72 492.991 1063.29C489.003 1063.22 483.026 1063.72 479.069 1063.09C477.992 1062.92 477.58 1060.7 477.127 1059.37C471.26 1054.52 468.759 1050.67 472.6 1043.2C476.459 1041.22 478.806 1040.06 480.032 1035.95Z"/><path fill="#131F34" transform="scale(0.199303 0.199303)" d="M406.811 973.089C411.837 973.038 416.864 973.049 421.891 973.123C421.856 984.5 421.257 1007.32 422.317 1018.17C426.157 1018.16 429.997 1018.17 433.837 1018.2C434.317 1043.9 433.822 1070.4 433.831 1096.18C433.835 1106.48 434.472 1127.96 433.694 1137.57L262.414 1137.65C261.782 1120.99 262.444 1104.31 262.162 1087.64C262.123 1085.29 262.061 1082.93 262.179 1080.58C268.168 1080.09 274.237 1080.24 280.253 1080.27C280.271 1073.99 280.123 1066.89 280.338 1060.67C286.041 1060.64 292.482 1060.73 298.113 1060.42C298.208 1054.08 297.74 1044.9 298.409 1039.05C306.009 1038.99 313.609 1039 321.209 1039.1C321.24 1041.5 320.802 1042.19 322.082 1043.71C323.253 1043.79 324.237 1043.88 325.417 1043.81C339.53 1043.26 356.679 1043.75 371.022 1043.77L371.067 1024.95L371.193 1018.22C383.066 1018.3 394.94 1018.25 406.812 1018.07L406.811 973.089ZM353.04 1100.83C342.248 1100.68 331.456 1100.69 320.665 1100.88L320.089 1100.53C306.06 1099.88 290.293 1100.33 276.063 1100.34C276.072 1105.08 276.33 1113.52 275.952 1117.95L276.826 1118.24C281.991 1118.93 298.901 1118.76 305.202 1118.64C318.965 1118.36 334.618 1119.04 348.169 1118.48L348.042 1118.28L351.299 1118.23C355.435 1118.23 361.106 1118.38 365.092 1117.91L395.282 1117.93L395.275 1100.93C389.957 1100.9 368.384 1099.75 364.947 1101.98L364.735 1101.96C360.32 1100.62 358.099 1100.68 353.466 1100.58L353.04 1100.83ZM312.121 1117.47C309.951 1118.36 308.069 1118.02 305.688 1117.89C302.833 1118.07 298.862 1118.64 296.386 1117.58C294.902 1115.75 295.371 1115.74 295.321 1112.99L295.323 1111.52C295.046 1108.97 295.128 1103.53 295.086 1100.78C299.079 1100.82 309.67 1100.57 312.98 1101.24C310.803 1102.98 311.665 1114.42 312.121 1117.47Z"/><path fill="#E3DBD2" fill-opacity="0.3019608" transform="scale(0.199303 0.199303)" d="M353.466 1100.58C358.099 1100.68 360.32 1100.62 364.735 1101.96C364.74 1104.84 365.2 1104.42 363.816 1106.26C358.873 1108.25 348.994 1104.68 346.654 1109.79C348.587 1112.39 350.266 1111.1 351.064 1113.52C350.137 1115.23 349.884 1115.3 348.252 1116.48C347.92 1117.43 347.986 1117.45 347.23 1118.16C339.833 1118.31 318.711 1118.42 312.121 1117.47C311.665 1114.42 310.803 1102.98 312.98 1101.24L320.089 1100.53L320.665 1100.88C321.353 1102.15 321.577 1102.92 321.883 1104.33C325.669 1107.97 346.223 1108.85 350.737 1104.11C351.238 1103.59 352.574 1101.54 353.04 1100.83L353.466 1100.58ZM334.046 1115.61C338.077 1115.85 341.661 1116.44 345.263 1114.49L345.807 1113.37C343.913 1110.48 336.534 1110.2 333.534 1110.92C329.988 1112.16 321.817 1112.9 320.359 1113.54C326.911 1113.6 327.778 1113.86 334.046 1115.61Z"/><path fill="#E3DBD2" fill-opacity="0.25098041" transform="scale(0.199303 0.199303)" d="M333.534 1110.92C336.534 1110.2 343.913 1110.48 345.807 1113.37L345.263 1114.49C341.661 1116.44 338.077 1115.85 334.046 1115.61C327.778 1113.86 326.911 1113.6 320.359 1113.54C321.817 1112.9 329.988 1112.16 333.534 1110.92Z"/><path fill="#C5BEB5" fill-opacity="0.98431373" transform="scale(0.199303 0.199303)" d="M364.947 1101.98C368.384 1099.75 389.957 1100.9 395.275 1100.93L395.282 1117.93L365.092 1117.91L365.028 1117.2C365.26 1115.19 365.687 1113.68 364.877 1111.9C362.772 1109.85 362.245 1111.09 360.225 1109.69L360.459 1108.61C361.927 1108.03 363.053 1107.52 364.477 1106.83C365.591 1104.77 365.151 1104.58 364.947 1101.98Z"/><path fill="#94989C" fill-opacity="0.98431373" transform="scale(0.199303 0.199303)" d="M276.063 1100.34C290.293 1100.33 306.06 1099.88 320.089 1100.53L312.98 1101.24C309.67 1100.57 299.079 1100.82 295.086 1100.78C295.128 1103.53 295.046 1108.97 295.323 1111.52C287.516 1111.77 276.877 1107.08 276.826 1118.24L275.952 1117.95C276.33 1113.52 276.072 1105.08 276.063 1100.34Z"/><path fill="#94989C" fill-opacity="0.94117647" transform="scale(0.199303 0.199303)" d="M276.826 1118.24C276.877 1107.08 287.516 1111.77 295.323 1111.52L295.321 1112.99C295.371 1115.74 294.902 1115.75 296.386 1117.58C298.862 1118.64 302.833 1118.07 305.688 1117.89C308.069 1118.02 309.951 1118.36 312.121 1117.47C318.711 1118.42 339.833 1118.31 347.23 1118.16L348.042 1118.28L348.169 1118.48C334.618 1119.04 318.965 1118.36 305.202 1118.64C298.901 1118.76 281.991 1118.93 276.826 1118.24Z"/><path fill="#E3DBD2" fill-opacity="0.44705883" transform="scale(0.199303 0.199303)" d="M364.735 1101.96L364.947 1101.98C365.151 1104.58 365.591 1104.77 364.477 1106.83C363.053 1107.52 361.927 1108.03 360.459 1108.61L360.225 1109.69C362.245 1111.09 362.772 1109.85 364.877 1111.9C365.687 1113.68 365.26 1115.19 365.028 1117.2C359.795 1117.3 360.741 1114.5 356.427 1114.3C353.758 1115.32 352.855 1115.85 351.299 1118.23L348.042 1118.28L347.23 1118.16C347.986 1117.45 347.92 1117.43 348.252 1116.48C349.884 1115.3 350.137 1115.23 351.064 1113.52C350.266 1111.1 348.587 1112.39 346.654 1109.79C348.994 1104.68 358.873 1108.25 363.816 1106.26C365.2 1104.42 364.74 1104.84 364.735 1101.96Z"/><path fill="#E3DBD2" fill-opacity="0.50980395" transform="scale(0.199303 0.199303)" d="M351.299 1118.23C352.855 1115.85 353.758 1115.32 356.427 1114.3C360.741 1114.5 359.795 1117.3 365.028 1117.2L365.092 1117.91C361.106 1118.38 355.435 1118.23 351.299 1118.23Z"/><path fill="#E3DBD2" transform="scale(0.199303 0.199303)" d="M321.039 1060.45L369.763 1060.51L369.716 1079.85C373.356 1079.81 386.112 1079.06 388.104 1080.92C388.413 1083.54 387.935 1082.8 389.561 1084.29L391.639 1084.77C392.011 1085.7 392.377 1086.63 392.738 1087.57C392.01 1087.33 391.315 1087.08 390.624 1086.75C387.714 1088.12 386.213 1089.64 387.043 1092.81C388.289 1094.1 389.156 1094.94 390.522 1096.09C387.919 1097.82 317.158 1095.63 305.036 1097.16L295.456 1097.2C295.404 1094.21 295.28 1090.66 295.471 1087.68C295.632 1085.15 296.344 1085.05 298.077 1083.67L298.322 1080.58C300.716 1080.28 306.093 1080.32 308.706 1080.27C308.796 1076.3 307.984 1076.11 310.344 1072.5C312.997 1068.45 316.198 1067.23 320.16 1064.67C321.416 1063.86 321.023 1061.92 321.039 1060.45Z"/><path fill="#94989C" transform="scale(0.199303 0.199303)" d="M305.036 1097.16C317.158 1095.63 387.919 1097.82 390.522 1096.09C389.156 1094.94 388.289 1094.1 387.043 1092.81C386.213 1089.64 387.714 1088.12 390.624 1086.75C391.315 1087.08 392.01 1087.33 392.738 1087.57C393.537 1088.17 393.877 1088.42 394.613 1089.11C393.893 1092.11 393.342 1091.87 392.164 1094.47L392.805 1095.29L395.057 1094.44C395.433 1095.16 395.809 1095.84 396.299 1096.49C400.723 1096.58 407.659 1095.94 411.458 1096.75C413.359 1099.21 410.813 1099.31 413.245 1100.83L415.67 1100.9C417.643 1103.33 414.504 1104.19 419.427 1104.42C420.479 1106.3 420.053 1115.61 420.015 1118.45C397.103 1118.54 370.916 1119.22 348.169 1118.48L348.042 1118.28L351.299 1118.23C355.435 1118.23 361.106 1118.38 365.092 1117.91L395.282 1117.93L395.275 1100.93C389.957 1100.9 368.384 1099.75 364.947 1101.98L364.735 1101.96C360.32 1100.62 358.099 1100.68 353.466 1100.58L353.04 1100.83C342.248 1100.68 331.456 1100.69 320.665 1100.88L320.089 1100.53C306.06 1099.88 290.293 1100.33 276.063 1100.34C276.072 1105.08 276.33 1113.52 275.952 1117.95C275.267 1115.24 274.878 1099.64 276.658 1097.51L280.285 1097.23L295.456 1097.2L305.036 1097.16Z"/><path fill="#394E6C" transform="scale(0.199303 0.199303)" d="M280.285 1097.23L295.456 1097.2L305.036 1097.16C315.039 1097.55 392.171 1096.45 395.342 1098.23C393.041 1101.74 382.06 1100.34 378.124 1100.37C369.906 1100.44 361.689 1100.12 353.466 1100.58L353.04 1100.83C342.248 1100.68 331.456 1100.69 320.665 1100.88L320.089 1100.53C306.06 1099.88 290.293 1100.33 276.063 1100.34C276.072 1105.08 276.33 1113.52 275.952 1117.95C275.267 1115.24 274.878 1099.64 276.658 1097.51L280.285 1097.23Z"/><path fill="#C5BEB5" transform="scale(0.199303 0.199303)" d="M298.113 1060.42L321.039 1060.45C321.023 1061.92 321.416 1063.86 320.16 1064.67C316.198 1067.23 312.997 1068.45 310.344 1072.5C307.984 1076.11 308.796 1076.3 308.706 1080.27C306.093 1080.32 300.716 1080.28 298.322 1080.58L298.143 1080.27C298.237 1073.65 298.227 1067.03 298.113 1060.42Z"/><path fill="#94989C" transform="scale(0.199303 0.199303)" d="M298.143 1080.27L298.322 1080.58L298.077 1083.67C296.344 1085.05 295.632 1085.15 295.471 1087.68C295.28 1090.66 295.404 1094.21 295.456 1097.2L280.285 1097.23L280.275 1080.43C285.494 1080.46 293.151 1080.72 298.143 1080.27Z"/><path fill="#233C5F" transform="scale(0.199303 0.199303)" d="M402.146 1036.14C404.766 1036.04 412.582 1035.4 414.367 1036.71C414.428 1038.09 414.313 1038.4 415.008 1039.59C416.39 1039.62 417.01 1039.5 418.202 1040.22C417.983 1041.61 417.892 1041.59 418.287 1042.92L421.222 1043.39C422.189 1045.91 421.945 1052.46 421.79 1055.3C418.833 1058.2 415.472 1058.77 414.124 1062.24L413.985 1062.73C412.362 1063.52 404.334 1063.4 402.548 1062.77C402.311 1061.9 402.129 1061.11 401.934 1060.23C399.547 1058.83 398.222 1058.14 396.697 1055.62C395.174 1053.1 395.381 1045.23 396.243 1042.72L398.569 1042.4C400.931 1036.94 399.555 1041.56 402.415 1038.78L402.146 1036.14Z"/><path fill="#E3DBD2" transform="scale(0.199303 0.199303)" d="M347.922 765.662L389.778 765.899L389.896 784.329C396.684 784.427 403.474 784.375 410.26 784.173L413.798 784.247L413.826 841.269C413.827 845.39 414.106 862.672 413.462 865.93C411.279 866.743 410.081 866.674 407.78 866.804C412.571 866.948 417.366 866.909 422.155 866.688C421.208 900.523 421.571 939.099 421.891 973.123C416.864 973.049 411.837 973.038 406.811 973.089L370.205 973.251C363.825 973.271 352.965 973.543 346.884 972.918L346.847 868.385L346.804 837.533C346.8 831.193 346.55 822.61 347.479 816.508C347.992 813.25 347.882 803.987 347.905 800.316L347.922 765.662Z"/><path fill="#233C5F" transform="scale(0.199303 0.199303)" d="M407.78 866.804C412.571 866.948 417.366 866.909 422.155 866.688C421.208 900.523 421.571 939.099 421.891 973.123C416.864 973.049 411.837 973.038 406.811 973.089C407.225 944.25 406.61 915.267 406.902 886.418C406.962 880.436 406.489 872.665 407.198 866.896L407.78 866.804Z"/><path fill="#C5BEB5" transform="scale(0.199303 0.199303)" d="M393.49 867.017C398.058 866.878 402.629 866.837 407.198 866.896C406.489 872.665 406.962 880.436 406.902 886.418C406.61 915.267 407.225 944.25 406.811 973.089L370.205 973.251C363.825 973.271 352.965 973.543 346.884 972.918C360.509 971.926 384.703 972.701 399.123 972.694C399.495 942.739 398.915 912.135 399.026 882.127C399.035 879.714 399.354 878.881 398.073 877.672C396.435 877.807 395.329 878.08 393.846 877.416C393.243 875.467 393.479 869.378 393.49 867.017Z"/><path fill="#E3DBD2" transform="scale(0.199303 0.199303)" d="M505.926 765.946C520.299 765.756 535.088 765.954 549.495 765.974C549.455 771.048 549.333 776.003 549.747 781.065C550.338 845.014 550.575 908.967 550.458 972.919C547.498 973.43 534.351 973.224 530.56 973.217L489.911 973.099L489.864 866.587C487.962 866.15 483.865 866.526 481.75 866.637L482.034 784.257L486.721 784.195C492.452 784.486 500.09 784.274 505.968 784.287L505.926 765.946Z"/><path fill="#C5BEB5" transform="scale(0.199303 0.199303)" d="M489.864 866.587C494.478 866.568 499.501 866.64 504.076 866.493C504.117 869.22 504.527 875.47 503.6 877.666C500.596 878.551 500.188 877.371 498.727 878.797C498.275 889.659 498.69 901.714 498.716 912.729L498.68 972.542L532.14 972.534C536.529 972.538 546.436 972.368 550.458 972.919C547.498 973.43 534.351 973.224 530.56 973.217L489.911 973.099L489.864 866.587Z"/><path fill="#C82E3B" transform="scale(0.199303 0.199303)" d="M480.896 673.836C488.631 673.806 496.366 673.82 504.101 673.876L504.106 694.087C504.133 698.728 504.471 713.548 503.885 717.383L504.171 718.057C504.346 725.715 504.377 733.376 504.263 741.035C497.056 740.929 488.477 741.013 481.388 740.546C481.442 748.221 481.441 755.898 481.387 763.574C474.907 763.553 465.7 763.807 459.443 763.401L459.246 782.653L436.059 782.649L435.98 763.276C428.78 763.448 421.25 763.347 414.022 763.353C414.016 756.143 414.214 747.5 413.722 740.424C406.754 740.731 399.025 740.622 391.996 740.661L391.974 717.673L382.019 717.729C378.953 717.382 373.511 717.368 370.263 717.256C370.55 709.769 370.375 701.689 370.529 694.109L391.956 694.072L391.933 673.808L414.158 673.89L413.97 694.169L435.947 694.109L435.923 673.837C443.729 673.854 451.747 673.771 459.533 673.898L459.473 694.101L481.016 694.057L480.896 673.836Z"/><path fill="#233C5F" transform="scale(0.199303 0.199303)" d="M436.042 740.476C443.869 740.563 451.697 740.55 459.523 740.438C459.472 746.856 459.054 757.306 459.443 763.401C451.87 762.841 443.686 763.191 436.011 763.157C435.98 755.597 435.99 748.036 436.042 740.476Z"/><path fill="#233C5F" transform="scale(0.199303 0.199303)" d="M504.106 694.087C504.133 698.728 504.471 713.548 503.885 717.383C496.994 717.053 488.426 717.27 481.408 717.259C481.472 709.548 481.456 701.836 481.36 694.125C488.942 694.17 496.525 694.157 504.106 694.087Z"/><path fill="#233C5F" transform="scale(0.199303 0.199303)" d="M413.97 694.169C413.908 701.917 413.894 709.666 413.928 717.414L392.049 717.425C391.853 709.994 392.065 701.714 392.095 694.219C399.386 694.4 406.68 694.383 413.97 694.169Z"/><path fill="#233C5F" transform="scale(0.199303 0.199303)" d="M413.928 717.414L435.966 717.487L435.944 740.262C431.154 740.274 417.97 740.607 413.856 740.072C414.105 732.568 413.978 724.933 413.928 717.414Z"/><path fill="#233C5F" transform="scale(0.199303 0.199303)" d="M436.107 694.239C443.79 694.272 451.473 694.246 459.156 694.159C458.97 701.902 459.332 709.763 458.985 717.516C451.425 717.387 443.709 717.428 436.134 717.387C436.174 709.671 436.165 701.955 436.107 694.239Z"/><path fill="#233C5F" transform="scale(0.199303 0.199303)" d="M459.593 717.452C466.759 717.616 473.927 717.618 481.093 717.457L481.057 740.19C475.206 740.537 465.719 740.222 459.579 740.224L459.593 717.452Z"/><path fill="#C5BEB5" transform="scale(0.199303 0.199303)" d="M574.311 587.664C578.326 587.502 581.405 587.575 585.43 587.747L585.568 682.831C585.569 701.098 585.224 720.589 585.688 738.74C583.751 738.794 582.999 738.506 581.489 739.412C580.636 745.565 581.209 769.773 581.204 777.483C579.913 775.623 580.135 775.206 578.49 774.773C577.355 776.106 577.569 779.873 577.61 781.69C575.673 781.353 570.708 781.413 568.498 781.389C568.401 773.513 567.401 719.726 569.314 717.504C570.89 717.513 572.023 717.481 573.595 717.367C574.781 715.652 574.267 693.177 574.264 689.568L574.311 587.664Z"/><path fill="#C5BEB5" transform="scale(0.199303 0.199303)" d="M309.755 587.251C316.489 587.245 324.508 587.05 331.12 587.51C327.308 588.003 323.312 587.837 319.455 587.79L319.571 717.369L328.245 717.458L328.303 780.67L314.149 780.59C314.153 775.23 314.445 740.933 313.756 738.134C312.161 737.377 311.68 737.533 309.846 737.59C309.831 687.683 309.255 637.079 309.755 587.251Z"/><path fill="#C5BEB5" transform="scale(0.199303 0.199303)" d="M347.374 741.325L386.185 741.233L386.24 763.066L410.074 763.181C410.306 769.951 410.22 777.368 410.26 784.173C403.474 784.375 396.684 784.427 389.896 784.329L389.778 765.899L347.922 765.662L347.905 800.316C347.882 803.987 347.992 813.25 347.479 816.508C347.051 807.994 347.319 797.709 347.329 789.003L347.374 741.325Z"/><path fill="#C5BEB5" transform="scale(0.199303 0.199303)" d="M510.209 740.923L549.734 740.979C549.814 754.201 550.059 767.887 549.747 781.065C549.333 776.003 549.455 771.048 549.495 765.974C535.088 765.954 520.299 765.756 505.926 765.946L505.968 784.287C500.09 784.274 492.452 784.486 486.721 784.195C487.154 778.79 486.856 768.863 486.865 763.121C494.696 763.06 502.344 762.968 510.18 763.274L510.209 740.923Z"/><path fill="#6E212E" transform="scale(0.199303 0.199303)" d="M370.116 694.046C370.084 689.243 370.018 684.954 370.389 680.152C370.496 684.803 370.543 689.456 370.529 694.109C370.375 701.689 370.55 709.769 370.263 717.256C373.511 717.368 378.953 717.382 382.019 717.729C378.519 718.018 373.633 717.813 370.026 717.766L370.005 719.371C366.247 719.691 350.628 720.044 347.322 719.184C344.799 718.43 336.723 718.862 333.716 718.93C333.95 710.7 333.806 701.847 333.823 693.57C336.677 693.662 345.607 694.199 347.845 693.555C349.939 694.744 366.473 694.125 370.116 694.046Z"/><path fill="#233C5F" transform="scale(0.199303 0.199303)" d="M347.959 694.397C355.524 694.685 362.32 694.647 369.9 694.523C369.924 702.012 370.063 709.84 369.834 717.296L366.414 717.14C360.357 716.559 354.015 716.819 347.909 716.948L347.959 694.397Z"/><path fill="#C82E3B" transform="scale(0.199303 0.199303)" d="M366.414 717.14L369.834 717.296L370.026 717.766L370.005 719.371C364.341 718.717 351.749 719.805 347.843 718.645L347.674 717.709C348.998 716.954 363.444 717.199 366.414 717.14Z"/><path fill="#C5BEB5" transform="scale(0.199303 0.199303)" d="M598.66 738.553C601.874 737.931 605.455 738.039 608.758 738.022C608.727 746.212 608.742 754.402 608.804 762.592C616.24 762.525 623.677 762.511 631.113 762.552L631.264 780.695C634.76 780.747 646.498 781.128 649.336 780.346L650.099 778.732L651.268 778.411C650.755 779.542 650.411 780.164 649.806 781.223C636.445 782.145 612.758 781.344 598.64 781.31L598.66 738.553Z"/><path fill="#C5BEB5" transform="scale(0.199303 0.199303)" d="M284.867 738.313C289.46 738.374 293.67 738.104 298.238 737.838L298.341 780.984C288.944 780.991 278.071 780.741 268.792 781.222C269.353 778.756 269.095 765.15 269.073 761.736L284.763 761.715L284.867 738.313Z"/><path fill="#94989C" transform="scale(0.199303 0.199303)" d="M325.382 1024.89L371.067 1024.95L371.022 1043.77C356.679 1043.75 339.53 1043.26 325.417 1043.81C325.146 1038.23 325.382 1030.63 325.382 1024.89Z"/><path fill="#94989C" transform="scale(0.199303 0.199303)" d="M525.977 1025.11C541.058 1025.19 556.139 1025.18 571.22 1025.07L571.208 1043.25C557.853 1042.56 539.821 1043.01 526.097 1043.05L525.977 1025.11Z"/><path fill="#C5BEB5" transform="scale(0.199303 0.199303)" d="M413.798 784.247L422.163 784.195L422.155 866.688C417.366 866.909 412.571 866.948 407.78 866.804C410.081 866.674 411.279 866.743 413.462 865.93C414.106 862.672 413.827 845.39 413.826 841.269L413.798 784.247Z"/><path fill="#C5BEB5" transform="scale(0.199303 0.199303)" d="M473.821 784.256L482.034 784.257L481.75 866.637C483.865 866.526 487.962 866.15 489.864 866.587C485.346 867.163 476.83 866.464 473.866 867.352L473.741 866.988C474.29 839.981 473.77 811.459 473.821 784.256Z"/><path fill="#131F34" transform="scale(0.199303 0.199303)" d="M329.773 973.164C334.143 973.04 339.631 972.731 343.917 972.915C343.903 987.924 343.713 1003.29 343.903 1018.26C339.997 1018.34 332.867 1019.35 330.294 1017.12L329.882 1014.05C329.362 1001.2 329.732 986.115 329.773 973.164Z"/><path fill="#131F34" transform="scale(0.199303 0.199303)" d="M553.74 973.193C557.706 973.117 562.508 974.096 565.603 972.551C567.141 970.451 566.67 969.898 566.85 966.918C566.973 977.2 567.028 987.484 567.013 997.767C567.014 1003.27 566.773 1012.56 567.408 1017.84C565.373 1019.69 556.873 1018.91 553.541 1018.87C553.404 1004.2 553.288 987.774 553.74 973.193Z"/><path fill="#233C5F" transform="scale(0.199303 0.199303)" d="M525.942 694.082C533.315 694.156 540.689 694.189 548.062 694.183C548.597 696.625 548.171 713.214 548.322 717.368C543.813 717.246 528.542 717.644 525.966 717.257L525.942 694.082Z"/><path fill="#C82E3B" transform="scale(0.199303 0.199303)" d="M504.106 694.087C511.185 694.08 518.921 693.909 525.942 694.082L525.966 717.257C518.791 717.439 510.648 717.111 503.885 717.383C504.471 713.548 504.133 698.728 504.106 694.087Z"/><path fill="#131F34" transform="scale(0.199303 0.199303)" d="M541.653 607.994C542.915 623.868 541.69 649.358 542.072 666.26L541.924 667.285L541.71 667.317C538.894 666.023 532.693 666.209 529.355 666.117L529.067 665.677C528.72 660.666 528.814 655.26 529.074 650.247C529.249 644.278 529.297 636.28 528.749 630.42C530.95 629.442 538.717 629.834 541.518 629.878C541.351 623.937 540.965 613.616 541.653 607.994Z"/><path fill="#81232E" transform="scale(0.199303 0.199303)" d="M541.653 607.994C542.915 623.868 541.69 649.358 542.072 666.26L541.924 667.285L541.71 667.317C538.894 666.023 532.693 666.209 529.355 666.117L529.067 665.677C528.72 660.666 528.814 655.26 529.074 650.247L541.647 650.126L541.518 629.878C541.351 623.937 540.965 613.616 541.653 607.994Z"/><path fill="#C82E3B" transform="scale(0.199303 0.199303)" d="M525.938 673.683C530.634 673.717 536.614 673.556 541.139 674.337C543.929 677.739 545.104 676.898 549.201 676.853L549.153 686.833C549.035 688.755 549.048 692.906 548.062 694.183C540.689 694.189 533.315 694.156 525.942 694.082L525.938 673.683Z"/><path fill="#C82E3B" transform="scale(0.199303 0.199303)" d="M353.682 674.082C359.374 673.82 364.894 673.924 370.587 673.987L370.389 680.152C370.018 684.954 370.084 689.243 370.116 694.046C366.473 694.125 349.939 694.744 347.845 693.555L347.905 676.718C350.284 676.835 351.223 677.279 353.087 676.264L353.682 674.082Z"/><path fill="#81232E" transform="scale(0.199303 0.199303)" d="M549.153 686.833C549.141 689.268 548.807 691.36 550.09 693.292C552.834 695.063 557.469 694.026 560.902 694.094C560.687 701.545 560.541 710.822 561.122 718.283C557.999 718.266 552.339 717.959 549.608 718.917L549.083 719.001C548.776 719.165 548.268 719.466 547.946 719.455C542.842 719.288 529.314 720.862 525.315 718.346C523.98 717.396 506.742 717.732 504.171 718.057L503.885 717.383C510.648 717.111 518.791 717.439 525.966 717.257C528.542 717.644 543.813 717.246 548.322 717.368C548.171 713.214 548.597 696.625 548.062 694.183C549.048 692.906 549.035 688.755 549.153 686.833Z"/><path fill="#C82E3B" transform="scale(0.199303 0.199303)" d="M548.895 717.915C548.889 712.349 548.723 706.233 549.255 700.732C549.471 705.324 550.098 714.792 549.083 719.001C548.776 719.165 548.268 719.466 547.946 719.455C542.842 719.288 529.314 720.862 525.315 718.346C531.375 717.321 542.631 717.731 548.895 717.915Z"/><path fill="#131F34" transform="scale(0.199303 0.199303)" d="M333.716 718.93C336.723 718.862 344.799 718.43 347.322 719.184L347.284 741.202C342.993 740.92 337.985 740.981 333.632 740.929C333.435 733.597 333.463 726.26 333.716 718.93Z"/><path fill="#6E212E" transform="scale(0.199303 0.199303)" d="M365.977 607.597L366.915 608.724C366.963 615.315 366.976 621.907 366.952 628.499L366.401 629.484C364.543 629.173 355.66 629.362 353.278 629.372L353.265 608.438C356.124 608.477 363.96 609.01 365.977 607.597Z"/><path fill="#6E212E" transform="scale(0.199303 0.199303)" d="M529.097 607.955C533.282 608.001 537.467 608.014 541.653 607.994C540.965 613.616 541.351 623.937 541.518 629.878C538.717 629.834 530.95 629.442 528.749 630.42L527.739 628.588L528.265 627.832C528.443 624.052 529.653 611.024 528.161 608.726L526.098 608.399L526.157 608.138L529.097 607.955Z"/><path fill="#131F34" transform="scale(0.199303 0.199303)" d="M527.219 591.822C530.51 590.347 538.065 589.458 541.178 591.731C541.361 592.871 541.503 593.702 541.561 594.871C541.622 598.787 541.869 604.194 541.653 607.994C537.467 608.014 533.282 608.001 529.097 607.955L526.157 608.138C525.86 604.842 525.298 594.026 527.219 591.822Z"/><path fill="#81232E" transform="scale(0.199303 0.199303)" d="M527.219 591.822L528.601 592.419C529.483 595.402 529.135 604.234 529.097 607.955L526.157 608.138C525.86 604.842 525.298 594.026 527.219 591.822Z"/><path fill="#131F34" transform="scale(0.199303 0.199303)" d="M353.278 629.372C355.66 629.362 364.543 629.173 366.401 629.484C365.976 636.036 366.14 642.876 366.196 649.465C363.158 650.077 356.603 649.979 353.259 650.027L353.278 629.372Z"/><path fill="#131F34" transform="scale(0.199303 0.199303)" d="M561.122 718.283C561.171 725.798 561.159 733.314 561.086 740.829L549.869 740.927C549.846 734.705 550.106 724.847 549.608 718.917C552.339 717.959 557.999 718.266 561.122 718.283Z"/><path fill="#131F34" transform="scale(0.199303 0.199303)" d="M333.771 676.862L347.905 676.718L347.845 693.555C345.607 694.199 336.677 693.662 333.823 693.57C333.722 688.075 333.785 682.376 333.771 676.862Z"/><path fill="#6E212E" transform="scale(0.199303 0.199303)" d="M353.259 650.027C356.603 649.979 363.158 650.077 366.196 649.465L369.252 649.549C368.184 649.935 367.175 650.019 367.011 650.853C366.053 655.728 367.108 660.774 366.631 666.055L366.526 666.716C362.436 666.88 357.47 666.778 353.305 666.793L353.259 650.027Z"/><path fill="#131F34" transform="scale(0.199303 0.199303)" d="M353.163 590.908C357.377 590.781 361.594 590.74 365.81 590.784C365.811 595.793 365.629 602.772 365.977 607.597C363.96 609.01 356.124 608.477 353.265 608.438C353.329 602.594 353.295 596.75 353.163 590.908Z"/><path fill="#131F34" transform="scale(0.199303 0.199303)" d="M549.201 676.853C553.291 676.714 556.849 676.596 560.96 676.753C560.957 682.039 561.156 688.94 560.902 694.094C557.469 694.026 552.834 695.063 550.09 693.292C548.807 691.36 549.141 689.268 549.153 686.833L549.201 676.853Z"/><path fill="#81232E" transform="scale(0.199303 0.199303)" d="M366.952 628.499L371.105 628.612C371.138 635.737 371.125 642.862 371.066 649.986L369.252 649.549L366.196 649.465C366.14 642.876 365.976 636.036 366.401 629.484L366.952 628.499Z"/><path fill="#C82E3B" transform="scale(0.199303 0.199303)" d="M365.81 590.784C368.334 590.866 368.542 590.456 370.365 591.767C371.834 596.279 370.24 602.614 370.542 608.699L366.915 608.724L365.977 607.597C365.629 602.772 365.811 595.793 365.81 590.784Z"/><path fill="#131F34" transform="scale(0.199303 0.199303)" d="M366.915 608.724L370.542 608.699C370.788 615.335 370.976 621.973 371.105 628.612L366.952 628.499C366.976 621.907 366.963 615.315 366.915 608.724Z"/><path fill="#131F34" transform="scale(0.199303 0.199303)" d="M526.098 608.399L528.161 608.726C529.653 611.024 528.443 624.052 528.265 627.832L527.739 628.588C525.977 629.918 525.814 629.773 525.776 632.243C524.867 625.02 524.962 618.128 525.221 610.882L526.098 608.399Z"/><path fill="#131F34" transform="scale(0.199303 0.199303)" d="M369.252 649.549L371.066 649.986C371.09 654.127 372.054 662.845 369.913 665.511C368.802 665.719 367.758 665.93 366.631 666.055C367.108 660.774 366.053 655.728 367.011 650.853C367.175 650.019 368.184 649.935 369.252 649.549Z"/><path fill="#81232E" transform="scale(0.199303 0.199303)" d="M525.776 632.243C525.814 629.773 525.977 629.918 527.739 628.588L528.749 630.42C529.297 636.28 529.249 644.278 529.074 650.247L525.964 650.21C526.079 644.238 525.897 638.218 525.776 632.243Z"/><path fill="#131F34" transform="scale(0.199303 0.199303)" d="M525.964 650.21L529.074 650.247C528.814 655.26 528.72 660.666 529.067 665.677C528.222 665.577 527.314 665.411 526.468 665.276C524.413 662.296 525.582 653.967 525.964 650.21Z"/><path fill="#131F34" transform="scale(0.199303 0.199303)" d="M353.305 666.793C357.47 666.778 362.436 666.88 366.526 666.716L366.504 669.513C363.903 671.969 356.982 670.318 353.267 670.305L353.305 666.793Z"/><path fill="#131F34" transform="scale(0.199303 0.199303)" d="M529.355 666.117C532.693 666.209 538.894 666.023 541.71 667.317C541.568 667.948 541.316 668.623 541.111 669.247C537.755 670.487 533.427 670.956 530.168 669.211C529.467 668.836 529.475 666.959 529.355 666.117Z"/><path fill="#E3DBD2" transform="scale(0.199303 0.199303)" d="M380.148 126.692C425.172 126.335 472.431 126.231 517.452 126.805C518.005 134.248 517.198 141.517 517.674 149.139C524.31 149.131 530.946 149.169 537.582 149.253C537.88 153.015 537.809 156.403 537.767 160.16C537.792 162.39 537.939 165.847 537.806 167.97C544.161 168.114 550.517 168.171 556.874 168.142C556.862 187.344 556.122 212.932 557.008 231.688L574.067 231.618C574.16 235.368 574.155 239.837 574.457 243.519C576.961 243.548 579.58 243.279 581.702 244.395C596.611 262.228 592.072 254.664 593.208 276.517C594.317 297.841 585.415 291.045 582.141 301.706C580.769 302.693 576.723 302.755 574.843 302.857L574.041 311.117C568.745 310.896 563.445 310.753 558.145 310.691C557.718 325.459 558.226 340.311 557.953 355.064C554.448 355.012 541.736 355.005 538.787 354.466L537.785 355.182C530.863 355.127 524.193 355.39 517.337 355.424L517.392 377.441L493.992 377.523L493.99 396.667L401.633 396.602L401.788 377.548L378.782 377.482L378.803 355.347L359.469 355.28L355.827 355.247C350.109 354.614 343.782 354.938 337.989 355.058C337.938 340.458 337.536 325.61 337.72 311.062L320.825 311.073C320.806 308.247 320.784 306.001 320.519 303.177C319.717 303 316.078 302.243 315.56 301.931C310.346 298.788 309.864 291.906 303.876 290.068C302.625 286.879 303.312 261.771 303.37 256.582C311.342 253.59 309.349 243.855 321.362 244.053C321.347 239.934 321.39 235.814 321.491 231.696C326.888 231.535 332.806 231.655 338.244 231.663C338.071 210.535 338.012 189.406 338.066 168.278C344.703 168.069 352.714 168.725 359.173 168.067C359.107 161.814 359.154 155.56 359.316 149.309C366.246 149.013 373.187 149.008 380.118 149.294L380.148 126.692Z"/><path fill="#233C5F" transform="scale(0.199303 0.199303)" d="M380.148 126.692C425.172 126.335 472.431 126.231 517.452 126.805C518.005 134.248 517.198 141.517 517.674 149.139C524.31 149.131 530.946 149.169 537.582 149.253C537.88 153.015 537.809 156.403 537.767 160.16C537.792 162.39 537.939 165.847 537.806 167.97C544.161 168.114 550.517 168.171 556.874 168.142C556.862 187.344 556.122 212.932 557.008 231.688L574.067 231.618C574.16 235.368 574.155 239.837 574.457 243.519C576.961 243.548 579.58 243.279 581.702 244.395C596.611 262.228 592.072 254.664 593.208 276.517C594.317 297.841 585.415 291.045 582.141 301.706C580.769 302.693 576.723 302.755 574.843 302.857L574.041 311.117C568.745 310.896 563.445 310.753 558.145 310.691C557.718 325.459 558.226 340.311 557.953 355.064C554.448 355.012 541.736 355.005 538.787 354.466C539.617 351.456 539.276 328.641 539.272 323.971L539.218 250.024L524.698 250.014C524.789 246.06 525.462 231.559 524.034 228.494C521.572 228.594 517.227 228.956 515.11 228.041L514.555 227.376L515.078 225.119C514.68 223.323 514.714 209.351 514.744 206.695C514.892 193.824 514.411 180.348 514.877 167.533C509.395 167.276 501.353 167.903 496.172 167.118L496.147 147.729L398.467 147.775L398.476 167.118C393.109 167.922 386.59 167.038 381.23 167.457L381.58 224.417L381.766 228.573L377.456 228.649C374.557 228.669 373.711 228.691 370.826 228.114C370.234 234.484 370.536 243.438 370.547 250.03L355.79 250.098C355.787 284.802 355.326 320.675 355.827 355.247C350.109 354.614 343.782 354.938 337.989 355.058C337.938 340.458 337.536 325.61 337.72 311.062L320.825 311.073C320.806 308.247 320.784 306.001 320.519 303.177C319.717 303 316.078 302.243 315.56 301.931C310.346 298.788 309.864 291.906 303.876 290.068C302.625 286.879 303.312 261.771 303.37 256.582C311.342 253.59 309.349 243.855 321.362 244.053C321.347 239.934 321.39 235.814 321.491 231.696C326.888 231.535 332.806 231.655 338.244 231.663C338.071 210.535 338.012 189.406 338.066 168.278C344.703 168.069 352.714 168.725 359.173 168.067C359.107 161.814 359.154 155.56 359.316 149.309C366.246 149.013 373.187 149.008 380.118 149.294L380.148 126.692Z"/><path fill="#394E6C" transform="scale(0.199303 0.199303)" d="M515.11 228.041L517.055 227.675C517.791 226.434 517.788 226.139 518.142 224.765C529.663 214.449 537.102 203.527 541.723 188.578C543.106 184.104 541.3 177.558 545.492 175.184C554.532 178.835 536.377 217.358 529.466 221.155C528.543 221.663 523.408 227.17 523.442 228.027L524.034 228.494C521.572 228.594 517.227 228.956 515.11 228.041Z"/><path fill="#394E6C" transform="scale(0.199303 0.199303)" d="M370.826 228.114C368.721 225.11 364.151 222.802 361.735 219.813C353.944 210.171 350.77 197.742 350.154 185.554C349.987 182.249 348.818 177.558 351.245 175.018C352.432 174.735 353.039 174.435 354.131 174.935C355.369 178.161 354.742 184.533 355.036 188.178C355.838 198.121 358.445 208.115 365.234 215.717C369.483 220.475 372.202 221.672 374.788 227.693C375.902 228.175 376.255 228.36 377.456 228.649C374.557 228.669 373.711 228.691 370.826 228.114Z"/><path fill="#394E6C" transform="scale(0.199303 0.199303)" d="M537.806 167.97C536.641 172.081 536.515 176.453 534.787 180.752C533.177 184.76 527.454 200.8 521.135 197.183C521.188 195.497 527.686 187.675 529.111 183.69C530.935 178.589 531.539 171.544 533.6 167.557C535.09 167.591 535.187 167.704 536.537 166.991C537.853 164.983 537.648 162.664 537.767 160.16C537.792 162.39 537.939 165.847 537.806 167.97Z"/><path fill="#394E6C" transform="scale(0.199303 0.199303)" d="M359.173 168.067C361.152 168.108 362.291 167.788 363.724 168.751C365.381 173.928 364.824 176.016 367.181 181.694C368.682 185.308 375.22 196.243 375.496 198.291C373.049 198.186 372.249 198.446 370.368 196.288C364.327 189.357 360.817 176.813 359.173 168.067Z"/><path fill="#394E6C" transform="scale(0.199303 0.199303)" d="M510.01 166.925C509.927 164.493 509.506 162.192 510.738 160.258C512.649 158.938 511.839 159.096 513.885 159.235C516.372 161.323 516.4 164.879 514.877 167.533C509.395 167.276 501.353 167.903 496.172 167.118C500.557 166.528 505.543 166.817 510.01 166.925Z"/><path fill="#394E6C" transform="scale(0.199303 0.199303)" d="M381.23 167.457C381.049 163.974 380.286 161.736 382.996 159.237C384.894 158.844 383.97 158.723 385.807 159.924C387.162 161.922 386.789 164.208 386.768 166.757C390.729 166.727 394.539 166.595 398.476 167.118C393.109 167.922 386.59 167.038 381.23 167.457Z"/><path fill="#394E6C" transform="scale(0.199303 0.199303)" d="M546.9 223.002C547.984 223.259 548.362 223.535 549.34 224.056C551.824 231.583 537.909 243.007 532.311 246.428C531.546 246.045 530.744 245.579 529.99 245.163C529.513 241.86 537.199 237.635 539.33 234.894C542.2 231.201 544.523 226.994 546.9 223.002Z"/><path fill="#394E6C" transform="scale(0.199303 0.199303)" d="M344.251 225.579C347.749 226.563 355.587 237.517 358.844 240.613C360.501 242.188 360.923 243.131 360.77 245.109C355.113 245.22 343.155 231.456 344.251 225.579Z"/><path fill="#394E6C" transform="scale(0.199303 0.199303)" d="M550.494 193.742C553.159 194.617 552.759 194.043 554.192 195.902C554.513 200.964 549.7 207.522 546.929 211.963L545.026 212.35L544.265 211.603C543.893 208.083 548.883 198.719 550.494 193.742Z"/><path transform="scale(0.199303 0.199303)" d="M389.812 230.971L420.877 230.965C421.225 245.411 421.027 260.439 421.022 274.928C415.814 274.919 393.958 274.555 389.846 275.303C389.975 260.526 389.963 245.748 389.812 230.971Z"/><path transform="scale(0.199303 0.199303)" d="M474.868 231.011L505.802 231.017L505.724 275.45C501.036 274.665 480.436 275.154 474.786 275.194L474.868 231.011Z"/><path fill="#FBFBFA" transform="scale(0.199303 0.199303)" d="M381.58 224.417C387.324 224.441 415.95 224.117 420.125 224.834C421.132 226.73 420.876 228.743 420.877 230.965L389.812 230.971C389.963 245.748 389.975 260.526 389.846 275.303C392.667 276.025 416.828 275.618 421.048 275.586C421.096 278.028 421.178 279.028 420.64 281.481C418.641 283.13 386.807 282.452 382.039 282.397C382.158 264.455 382.067 246.513 381.766 228.573L381.58 224.417Z"/><path fill="#FBFBFA" transform="scale(0.199303 0.199303)" d="M474.868 231.011C474.838 228.721 474.544 226.741 475.595 224.792C479.509 224.23 511.323 224.373 515.078 225.119L514.555 227.376C513.103 241.67 513.61 267.38 513.672 282.468C501.171 282.444 487.416 282.674 475.023 282.244L475.025 275.725C479.615 275.74 502.348 276.085 505.724 275.45L505.802 231.017L474.868 231.011Z"/><path fill="#C5BEB5" fill-opacity="0.96470588" transform="scale(0.199303 0.199303)" d="M295.086 1100.78C299.079 1100.82 309.67 1100.57 312.98 1101.24C310.803 1102.98 311.665 1114.42 312.121 1117.47C309.951 1118.36 308.069 1118.02 305.688 1117.89L307.16 1117.13C308.571 1114.97 308.496 1115.79 308.216 1113.69C305.141 1109.95 299.175 1111.01 295.321 1112.99L295.323 1111.52C295.046 1108.97 295.128 1103.53 295.086 1100.78Z"/><path fill="#C5BEB5" fill-opacity="0.83529413" transform="scale(0.199303 0.199303)" d="M295.321 1112.99C299.175 1111.01 305.141 1109.95 308.216 1113.69C308.496 1115.79 308.571 1114.97 307.16 1117.13L305.688 1117.89C302.833 1118.07 298.862 1118.64 296.386 1117.58C294.902 1115.75 295.371 1115.74 295.321 1112.99Z"/></svg>