<?xml version="1.0" encoding="utf-8" ?><svg xmlns="http://www.w3.org/2000/svg" xmlns:xlink="http://www.w3.org/1999/xlink" width="179" height="242" viewBox="0 0 179 242"><path transform="scale(0.199303 0.199303)" d="M348.083 97.3786L474.667 97.274C497.324 97.2684 523.054 96.7514 545.491 97.4562C546.215 111.542 545.614 126.02 546.241 140.229L587.859 140.238C588.188 155.036 588.32 169.837 588.256 184.639C602.612 185.056 617.14 184.316 631.168 184.719C631.932 198.457 631.344 215.291 631.627 229.408C642.682 230.239 660.458 229.656 672.009 229.616C673.162 257.209 672.49 291.49 672.371 319.401L672.6 421.422L672.534 457.052C672.497 462.474 672.132 469.707 672.355 474.879L712.759 475.038C712.621 488.399 712.134 504.133 712.678 517.401L713.099 517.638C726.67 517.927 740.935 517.267 754.129 517.701C754.199 532.351 754.187 547.001 754.092 561.651L754.595 562.342C764.586 563.637 784.714 562.536 795.578 562.879C795.932 568.645 795.787 574.237 795.842 580.001C796.084 605.475 795.32 631.131 795.849 656.583L796.412 656.926C804.921 658.095 827.925 657.093 837.899 657.391C839.168 669.732 838.201 689.333 838.282 702.398C838.615 735.363 838.554 768.332 838.101 801.296C837.67 834.801 838.213 868.537 838.008 902.06C837.936 913.935 838.472 927.035 838.18 938.715C824.219 938.704 809.86 938.517 795.931 938.728C795.623 951.673 796.345 968.095 795.506 980.534C774.063 981.116 752.331 980.412 730.86 980.65C725.223 980.713 718.485 980.897 712.92 980.531C712.327 967.151 712.627 952.202 712.537 938.689L672.492 938.803C671.788 949.857 672.039 963.386 672.293 974.557C672.984 1004.92 671.058 1036.77 672.669 1066.99C679.027 1066.99 707.108 1065.5 711.104 1068.04C711.937 1069.16 712.609 1070.24 712.606 1071.72C712.583 1083.97 712.01 1096.7 712.555 1108.95C722.047 1109.89 743.41 1109.24 753.943 1109.25C754.076 1113.79 754.083 1118.51 754.039 1123.05C753.8 1147.67 754.421 1172.44 753.885 1197.05C741.677 1197.55 728.101 1197.2 715.789 1197.15L657.964 1197.04L469.088 1197.1C468.435 1166.77 469.799 1134.93 469.201 1104.44C468.963 1092.28 469.541 1079.14 468.762 1067.08C455.28 1066.96 441.797 1066.96 428.316 1067.06C427.9 1110.53 427.825 1154 428.092 1197.47L219.965 1197C192.973 1197.01 164.804 1196.69 137.904 1197.09C137.031 1185.52 137.633 1164.35 137.673 1152.29C137.716 1139.6 136.932 1121.33 137.573 1109.21C151.211 1109.05 165.221 1109.55 178.814 1109.12L179.053 1107.98C179.355 1094.46 178.805 1080.79 179.134 1067.12C192.888 1066.89 207.102 1067.4 220.762 1067C221.84 1026.11 220.963 980.186 220.349 939.255L178.842 939.063C178.444 950.962 180.072 969.475 178.71 980.52C169.729 980.973 157.811 980.618 148.652 980.616L94.6852 980.718C93.9038 968.883 94.5055 951.079 94.4006 938.767C80.7698 938.616 67.1375 938.655 53.5077 938.884C52.3925 870.3 54.4778 801.067 53.6627 732.434C53.3669 707.523 53.2699 681.999 53.5284 657.111C62.0404 657.162 86.8428 657.867 94.51 656.945C94.2012 646.107 95.2065 635.078 94.9936 624.212C94.5969 603.964 95.8112 582.965 94.6237 562.803C106.817 562.845 125.151 563.418 137.018 562.55L137.297 561.83C137.409 547.791 136.649 531.345 137.383 517.558C151.209 517.673 165.036 517.644 178.861 517.47C178.806 504.84 178.595 487.136 179.252 474.895C193.022 474.732 206.794 474.748 220.563 474.941C220.789 465.806 220.465 455.654 220.567 446.305L220.824 273.611C220.982 259.133 219.936 244.343 220.669 229.72C234.272 229.442 249.214 230.221 262.566 229.484C263.418 215.862 263.01 198.822 263.069 184.91C276.951 184.433 291.324 185.242 305.494 184.75C305.814 172.798 304.579 150.621 305.696 140.258C318.578 140.058 335.701 140.872 347.994 140.157C348.05 126.383 347.715 110.941 348.083 97.3786Z"/><path fill="#F4F4F3" transform="scale(0.199303 0.199303)" d="M348.083 97.3786L474.667 97.274C497.324 97.2684 523.054 96.7514 545.491 97.4562C546.215 111.542 545.614 126.02 546.241 140.229L587.859 140.238C588.188 155.036 588.32 169.837 588.256 184.639C602.612 185.056 617.14 184.316 631.168 184.719C631.932 198.457 631.344 215.291 631.627 229.408C642.682 230.239 660.458 229.656 672.009 229.616C673.162 257.209 672.49 291.49 672.371 319.401L672.6 421.422L672.534 457.052C672.497 462.474 672.132 469.707 672.355 474.879L712.759 475.038C712.621 488.399 712.134 504.133 712.678 517.401C686.54 518.13 657.889 517.529 631.512 517.597L588.285 517.509C588.287 531.9 588.501 546.849 588.237 561.194L546.112 561.183L427.545 561.236L390.001 561.224L333.403 561.085C327.247 561.072 311.244 560.701 305.703 561.477C305.713 547.288 306.014 531.868 305.531 517.775L305.384 517.604L220.878 517.511L179.237 517.425L179.279 561.654L150.193 561.601C147.562 561.61 139.375 561.517 137.297 561.83C137.409 547.791 136.649 531.345 137.383 517.558C151.209 517.673 165.036 517.644 178.861 517.47C178.806 504.84 178.595 487.136 179.252 474.895C193.022 474.732 206.794 474.748 220.563 474.941C220.789 465.806 220.465 455.654 220.567 446.305L220.824 273.611C220.982 259.133 219.936 244.343 220.669 229.72C234.272 229.442 249.214 230.221 262.566 229.484C263.418 215.862 263.01 198.822 263.069 184.91C276.951 184.433 291.324 185.242 305.494 184.75C305.814 172.798 304.579 150.621 305.696 140.258C318.578 140.058 335.701 140.872 347.994 140.157C348.05 126.383 347.715 110.941 348.083 97.3786Z"/><path transform="scale(0.199303 0.199303)" d="M305.494 184.75C305.528 197.252 306.211 217.367 305.387 229.296L305.272 229.591L305.294 473.783C305.401 488.39 305.431 502.997 305.384 517.604L220.878 517.511L179.237 517.425L179.279 561.654L150.193 561.601C147.562 561.61 139.375 561.517 137.297 561.83C137.409 547.791 136.649 531.345 137.383 517.558C151.209 517.673 165.036 517.644 178.861 517.47C178.806 504.84 178.595 487.136 179.252 474.895C193.022 474.732 206.794 474.748 220.563 474.941C220.789 465.806 220.465 455.654 220.567 446.305L220.824 273.611C220.982 259.133 219.936 244.343 220.669 229.72C234.272 229.442 249.214 230.221 262.566 229.484C263.418 215.862 263.01 198.822 263.069 184.91C276.951 184.433 291.324 185.242 305.494 184.75Z"/><path fill="#DAD9D9" transform="scale(0.199303 0.199303)" d="M262.772 229.675C276.938 229.763 291.105 229.735 305.272 229.591L305.294 473.783C291.842 473.348 276.428 473.691 262.817 473.663L262.772 229.675Z"/><path transform="scale(0.199303 0.199303)" d="M631.627 229.408C642.682 230.239 660.458 229.656 672.009 229.616C673.162 257.209 672.49 291.49 672.371 319.401L672.6 421.422L672.534 457.052C672.497 462.474 672.132 469.707 672.355 474.879L712.759 475.038C712.621 488.399 712.134 504.133 712.678 517.401C686.54 518.13 657.889 517.529 631.512 517.597L588.285 517.509C588.287 531.9 588.501 546.849 588.237 561.194L546.112 561.183L546.261 517.55L588.049 517.396C587.982 502.89 588.004 488.385 588.114 473.88L631.628 473.82L631.67 311.905C631.489 284.406 631.475 256.906 631.627 229.408Z"/><path transform="scale(0.199303 0.199303)" d="M348.083 97.3786L474.667 97.274C497.324 97.2684 523.054 96.7514 545.491 97.4562C546.215 111.542 545.614 126.02 546.241 140.229L587.859 140.238C588.188 155.036 588.32 169.837 588.256 184.639C574.31 184.785 560.175 184.663 546.214 184.657L546.262 140.559L390.178 140.64C389.801 155.115 390.01 170.205 390.024 184.727C376.972 184.723 361.28 184.277 348.461 184.742C336.88 185.435 317.614 184.765 305.494 184.75C305.814 172.798 304.579 150.621 305.696 140.258C318.578 140.058 335.701 140.872 347.994 140.157C348.05 126.383 347.715 110.941 348.083 97.3786Z"/><path fill="#DAD9D9" transform="scale(0.199303 0.199303)" d="M348.495 140.635L390.178 140.64C389.801 155.115 390.01 170.205 390.024 184.727C376.972 184.723 361.28 184.277 348.461 184.742C348.84 170.606 348.496 154.898 348.495 140.635Z"/><path transform="scale(0.199303 0.199303)" d="M348.564 517.301L389.956 517.265L390.001 561.224L333.403 561.085C327.247 561.072 311.244 560.701 305.703 561.477C305.713 547.288 306.014 531.868 305.531 517.775C309.162 516.541 342.399 517.303 348.564 517.301Z"/><path transform="scale(0.199303 0.199303)" d="M588.256 184.639C602.612 185.056 617.14 184.316 631.168 184.719C631.932 198.457 631.344 215.291 631.627 229.408C628.23 229.672 620.773 229.417 617.112 229.398L588.162 229.279C588.022 214.399 588.054 199.518 588.256 184.639Z"/><path fill="#DAD9D9" transform="scale(0.199303 0.199303)" d="M305.494 184.75C317.614 184.765 336.88 185.435 348.461 184.742C348.301 199.217 348.781 215.001 348.281 229.185L305.387 229.296C306.211 217.367 305.528 197.252 305.494 184.75Z"/><path fill="#DAD9D9" transform="scale(0.199303 0.199303)" d="M305.294 473.783C319.803 473.923 334.313 473.939 348.822 473.832C348.662 488.321 348.577 502.811 348.564 517.301C342.399 517.303 309.162 516.541 305.531 517.775L305.384 517.604C305.431 502.997 305.401 488.39 305.294 473.783Z"/><path fill="#DAD9D9" transform="scale(0.199303 0.199303)" d="M389.956 517.265L427.862 517.17C427.665 531.858 427.559 546.547 427.545 561.236L390.001 561.224L389.956 517.265Z"/><path transform="scale(0.199303 0.199303)" d="M347.865 298.645L427.637 298.602L427.592 396.229C401.257 395.897 374.308 396.19 347.924 396.187L347.865 298.645Z"/><path transform="scale(0.199303 0.199303)" d="M509.115 298.652L588.276 298.642L588.007 396.147L509.302 396.337C509.244 363.93 508.79 331.014 509.115 298.652Z"/><path transform="scale(0.199303 0.199303)" d="M503.605 440.266L546.275 440.396L546.292 473.136L432.117 472.916L390.163 472.979L390.198 440.295L503.605 440.266Z"/><path fill="#F4F4F3" transform="scale(0.199303 0.199303)" d="M712.678 517.401L713.099 517.638C726.67 517.927 740.935 517.267 754.129 517.701C754.199 532.351 754.187 547.001 754.092 561.651L754.595 562.342C764.586 563.637 784.714 562.536 795.578 562.879C795.932 568.645 795.787 574.237 795.842 580.001C796.084 605.475 795.32 631.131 795.849 656.583L796.412 656.926C794.892 660.742 796.162 776.907 796.09 790.421L712.81 790.372L673.196 790.34L673.311 657.35L631.68 657.325C631.74 722.983 632.365 789.974 631.54 855.537L489.478 855.655L444.796 855.658C438.607 855.655 428.003 856.004 422.272 855.538C413.891 854.678 392.828 855.222 383.669 855.19L305.22 855.008L305.237 657.3L262.665 657.365L220.468 657.35L220.456 743.895L178.769 743.887L178.745 790.349L137.594 790.415C138.128 746.578 137.284 700.775 137.287 656.714C123.632 656.784 107.872 656.29 94.51 656.945C94.2012 646.107 95.2065 635.078 94.9936 624.212C94.5969 603.964 95.8112 582.965 94.6237 562.803C106.817 562.845 125.151 563.418 137.018 562.55L137.297 561.83C139.375 561.517 147.562 561.61 150.193 561.601L179.279 561.654L179.237 517.425L220.878 517.511L305.384 517.604L305.531 517.775C306.014 531.868 305.713 547.288 305.703 561.477C311.244 560.701 327.247 561.072 333.403 561.085L390.001 561.224L427.545 561.236L546.112 561.183L588.237 561.194C588.501 546.849 588.287 531.9 588.285 517.509L631.512 517.597C657.889 517.529 686.54 518.13 712.678 517.401Z"/><path fill="#DAD9D9" transform="scale(0.199303 0.199303)" d="M179.237 517.425L220.878 517.511L220.84 562.066C207.709 562.087 192.364 562.167 179.272 561.679C178.728 592.946 179.198 625.503 179.247 656.916C167.877 656.82 147.579 657.549 137.287 656.714C123.632 656.784 107.872 656.29 94.51 656.945C94.2012 646.107 95.2065 635.078 94.9936 624.212C94.5969 603.964 95.8112 582.965 94.6237 562.803C106.817 562.845 125.151 563.418 137.018 562.55L137.297 561.83C139.375 561.517 147.562 561.61 150.193 561.601L179.279 561.654L179.237 517.425Z"/><path transform="scale(0.199303 0.199303)" d="M137.018 562.55C137.425 568.517 137.209 574.54 137.263 580.519C137.494 605.881 136.912 631.362 137.287 656.714C123.632 656.784 107.872 656.29 94.51 656.945C94.2012 646.107 95.2065 635.078 94.9936 624.212C94.5969 603.964 95.8112 582.965 94.6237 562.803C106.817 562.845 125.151 563.418 137.018 562.55Z"/><path transform="scale(0.199303 0.199303)" d="M427.545 561.236L546.112 561.183C546.699 574.947 546.289 591.067 546.262 605.003L390.189 605.019C389.75 590.92 390.024 575.394 390.001 561.224L427.545 561.236Z"/><path fill="#DAD9D9" transform="scale(0.199303 0.199303)" d="M673.311 657.35L712.845 657.271C712.524 701.637 712.512 746.006 712.81 790.372L673.196 790.34L673.311 657.35Z"/><path transform="scale(0.199303 0.199303)" d="M754.595 562.342C764.586 563.637 784.714 562.536 795.578 562.879C795.932 568.645 795.787 574.237 795.842 580.001C796.084 605.475 795.32 631.131 795.849 656.583C793.215 656.921 784.764 656.756 781.789 656.752L754.559 656.694C754.604 625.402 754.191 593.578 754.595 562.342Z"/><path fill="#DAD9D9" transform="scale(0.199303 0.199303)" d="M588.285 517.509L631.512 517.597C631.177 531.694 631.564 546.84 631.564 561.057C617.26 561.04 602.536 561.214 588.27 561.002C588.201 574.856 588.795 591.556 588.095 605.006L546.262 605.003C546.289 591.067 546.699 574.947 546.112 561.183L588.237 561.194C588.501 546.849 588.287 531.9 588.285 517.509Z"/><path fill="#DAD9D9" transform="scale(0.199303 0.199303)" d="M305.703 561.477C311.244 560.701 327.247 561.072 333.403 561.085L390.001 561.224C390.024 575.394 389.75 590.92 390.189 605.019C377.61 604.465 360.82 604.996 347.905 605.005L347.962 561.829C341.06 561.845 311.468 562.378 305.703 561.477Z"/><path transform="scale(0.199303 0.199303)" d="M713.099 517.638C726.67 517.927 740.935 517.267 754.129 517.701C754.199 532.351 754.187 547.001 754.092 561.651C741.209 561.21 726.14 561.589 713.086 561.59L713.099 517.638Z"/><path transform="scale(0.199303 0.199303)" d="M390.76 1023.55C403.136 1023.44 415.513 1023.48 427.888 1023.67L477.909 1023.78C486.102 1023.79 496.814 1023.51 504.815 1023.89L504.657 1024.32L504.674 1066.86C518.268 1066.83 533.205 1066.47 546.682 1066.79C564.118 1067.37 582.976 1066.56 600.603 1066.93C604.783 1067.01 628.333 1067.22 631.358 1066.47L631.745 1066.48C636.673 1067.53 665.105 1066.71 672.669 1066.99C679.027 1066.99 707.108 1065.5 711.104 1068.04C711.937 1069.16 712.609 1070.24 712.606 1071.72C712.583 1083.97 712.01 1096.7 712.555 1108.95C722.047 1109.89 743.41 1109.24 753.943 1109.25C754.076 1113.79 754.083 1118.51 754.039 1123.05C753.8 1147.67 754.421 1172.44 753.885 1197.05C741.677 1197.55 728.101 1197.2 715.789 1197.15L657.964 1197.04L469.088 1197.1C468.435 1166.77 469.799 1134.93 469.201 1104.44C468.963 1092.28 469.541 1079.14 468.762 1067.08C455.28 1066.96 441.797 1066.96 428.316 1067.06C427.9 1110.53 427.825 1154 428.092 1197.47L219.965 1197C192.973 1197.01 164.804 1196.69 137.904 1197.09C137.031 1185.52 137.633 1164.35 137.673 1152.29C137.716 1139.6 136.932 1121.33 137.573 1109.21C151.211 1109.05 165.221 1109.55 178.814 1109.12L179.053 1107.98C179.355 1094.46 178.805 1080.79 179.134 1067.12C192.888 1066.89 207.102 1067.4 220.762 1067C231.512 1066.22 251.394 1066.91 262.58 1066.95C262.731 1053.1 262.351 1038.45 262.89 1024.68C263.371 1038.22 263.033 1053.23 262.993 1066.88C276.979 1066.75 290.966 1066.73 304.952 1066.81L356.481 1066.83C364.9 1066.85 375.621 1067.18 383.892 1066.81L390.771 1066.86C390.708 1052.66 390.73 1038.47 390.838 1024.28L390.76 1023.55Z"/><path fill="#D4443E" transform="scale(0.199303 0.199303)" d="M390.838 1024.28C391.537 1027.81 391.174 1046.47 391.156 1050.99L391.039 1109.22C362.613 1109.4 334.186 1109.43 305.76 1109.31L305.98 1157.1C277.555 1156.86 249.13 1156.78 220.705 1156.86C206.754 1156.78 192.803 1156.79 178.852 1156.87C178.693 1141.14 179.341 1124.73 178.814 1109.12L179.053 1107.98C179.355 1094.46 178.805 1080.79 179.134 1067.12C192.888 1066.89 207.102 1067.4 220.762 1067C231.512 1066.22 251.394 1066.91 262.58 1066.95C262.731 1053.1 262.351 1038.45 262.89 1024.68C263.371 1038.22 263.033 1053.23 262.993 1066.88C276.979 1066.75 290.966 1066.73 304.952 1066.81L356.481 1066.83C364.9 1066.85 375.621 1067.18 383.892 1066.81L390.771 1066.86C390.708 1052.66 390.73 1038.47 390.838 1024.28Z"/><path fill="#B2312E" transform="scale(0.199303 0.199303)" d="M262.89 1024.68C263.371 1038.22 263.033 1053.23 262.993 1066.88C276.979 1066.75 290.966 1066.73 304.952 1066.81C304.829 1079.41 304.334 1096.91 305.11 1109.11C286.347 1108.75 267.487 1109.23 248.739 1109.06C240.262 1108.99 229.098 1109.35 220.816 1108.77C220.631 1123.46 220.038 1142.38 220.705 1156.86C206.754 1156.78 192.803 1156.79 178.852 1156.87C178.693 1141.14 179.341 1124.73 178.814 1109.12L179.053 1107.98C179.355 1094.46 178.805 1080.79 179.134 1067.12C192.888 1066.89 207.102 1067.4 220.762 1067C231.512 1066.22 251.394 1066.91 262.58 1066.95C262.731 1053.1 262.351 1038.45 262.89 1024.68Z"/><path transform="scale(0.199303 0.199303)" d="M179.134 1067.12C192.888 1066.89 207.102 1067.4 220.762 1067C220.835 1080.92 220.823 1094.84 220.726 1108.76C216.581 1108.75 180.606 1109.19 179.053 1107.98C179.355 1094.46 178.805 1080.79 179.134 1067.12Z"/><path fill="#D4443E" transform="scale(0.199303 0.199303)" d="M631.745 1066.48C636.673 1067.53 665.105 1066.71 672.669 1066.99C679.027 1066.99 707.108 1065.5 711.104 1068.04C711.937 1069.16 712.609 1070.24 712.606 1071.72C712.583 1083.97 712.01 1096.7 712.555 1108.95L712.612 1156.91L588.061 1156.82C587.782 1141.24 588.006 1124.97 587.986 1109.34C574.571 1108.97 560.016 1109.22 546.512 1109.19L546.682 1066.79C564.118 1067.37 582.976 1066.56 600.603 1066.93C604.783 1067.01 628.333 1067.22 631.358 1066.47L631.745 1066.48Z"/><path transform="scale(0.199303 0.199303)" d="M672.669 1066.99C679.027 1066.99 707.108 1065.5 711.104 1068.04C711.937 1069.16 712.609 1070.24 712.606 1071.72C712.583 1083.97 712.01 1096.7 712.555 1108.95L672.755 1109.07L672.669 1066.99Z"/><path fill="#B2312E" transform="scale(0.199303 0.199303)" d="M504.657 1024.32L504.674 1066.86C518.268 1066.83 533.205 1066.47 546.682 1066.79L546.512 1109.19L504.363 1109.08L504.255 1049.94C504.253 1045.34 504.008 1027.54 504.657 1024.32Z"/><path fill="#D4443E" transform="scale(0.199303 0.199303)" d="M348.031 898.248L504.316 898.305C531.401 898.297 561.337 898.931 588.16 898.158C588.026 911.736 587.976 925.315 588.01 938.894L546.357 938.731C546.368 951.975 546.065 966.547 546.433 979.675C535.996 980.644 517.404 980.112 506.525 980.084C506.53 990.795 505.945 1013.68 506.96 1023.78L504.815 1023.89C496.814 1023.51 486.102 1023.79 477.909 1023.78L427.888 1023.67C415.513 1023.48 403.136 1023.44 390.76 1023.55C391.43 1014.78 390.975 989.457 390.647 980.22L390.774 979.868C390.397 966.726 390.714 952.045 390.709 938.782L348.66 938.72C348.29 937.248 348.302 935.202 348.242 933.643L348.031 898.248Z"/><path fill="#173996" transform="scale(0.199303 0.199303)" d="M390.774 979.868C395.738 980.752 421.478 980.213 427.657 980.165L506.525 980.084C506.53 990.795 505.945 1013.68 506.96 1023.78L504.815 1023.89C496.814 1023.51 486.102 1023.79 477.909 1023.78L427.888 1023.67C415.513 1023.48 403.136 1023.44 390.76 1023.55C391.43 1014.78 390.975 989.457 390.647 980.22L390.774 979.868Z"/><path fill="#0F2870" transform="scale(0.199303 0.199303)" d="M390.774 979.868C395.738 980.752 421.478 980.213 427.657 980.165C428.454 993.309 427.958 1010.32 427.888 1023.67C415.513 1023.48 403.136 1023.44 390.76 1023.55C391.43 1014.78 390.975 989.457 390.647 980.22L390.774 979.868Z"/><path fill="#DB7D71" transform="scale(0.199303 0.199303)" d="M94.3343 830.064L218.906 830.157L218.887 900.557C205.566 900.534 192.023 900.645 178.722 900.481L178.915 938.743C150.978 938.747 122.285 938.389 94.4006 938.767L94.3343 830.064Z"/><path transform="scale(0.199303 0.199303)" d="M136.62 859.232C150.473 859.175 164.328 859.213 178.181 859.345C178.21 864.457 178.976 896.375 177.815 899.788C164.094 899.912 150.373 899.914 136.653 899.794L136.62 859.232Z"/><path fill="#DB7D71" transform="scale(0.199303 0.199303)" d="M756.1 830.082L795.671 830.088L795.764 938.737L740.988 938.717C732.208 938.703 721.132 938.37 712.537 938.689C712.608 925.918 712.608 913.146 712.537 900.374C699.417 900.48 686.296 900.471 673.175 900.347L672.993 830.124L756.1 830.082Z"/><path transform="scale(0.199303 0.199303)" d="M712.617 859.203L754.025 859.248L754.022 899.694L712.595 899.764C712.467 886.305 712.597 872.676 712.617 859.203Z"/><path fill="#FEDA13" transform="scale(0.199303 0.199303)" d="M546.433 979.675L546.724 979.761C568.982 980.591 591.73 979.361 614.028 979.734C616.828 979.781 619.95 979.663 622.72 979.857L631.737 979.829L631.745 1066.48L631.358 1066.47C628.333 1067.22 604.783 1067.01 600.603 1066.93C582.976 1066.56 564.118 1067.37 546.682 1066.79C533.205 1066.47 518.268 1066.83 504.674 1066.86L504.657 1024.32L504.815 1023.89L506.96 1023.78C505.945 1013.68 506.53 990.795 506.525 980.084C517.404 980.112 535.996 980.644 546.433 979.675Z"/><path fill="#D6B315" transform="scale(0.199303 0.199303)" d="M546.433 979.675L546.724 979.761C568.982 980.591 591.73 979.361 614.028 979.734C616.828 979.781 619.95 979.663 622.72 979.857C620.765 980.966 592.235 980.391 587.8 980.433L587.753 1023.75L546.482 1023.78C533.308 1023.68 520.133 1023.68 506.96 1023.78C505.945 1013.68 506.53 990.795 506.525 980.084C517.404 980.112 535.996 980.644 546.433 979.675Z"/><path fill="#0F2870" transform="scale(0.199303 0.199303)" d="M546.433 979.675L546.724 979.761C545.561 987.93 546.668 1014.1 546.482 1023.78C533.308 1023.68 520.133 1023.68 506.96 1023.78C505.945 1013.68 506.53 990.795 506.525 980.084C517.404 980.112 535.996 980.644 546.433 979.675Z"/><path fill="#D6B315" transform="scale(0.199303 0.199303)" d="M506.96 1023.78C520.133 1023.68 533.308 1023.68 546.482 1023.78C546.582 1037.96 546.598 1052.14 546.53 1066.32C574.663 1066.33 603.263 1066.08 631.358 1066.47C628.333 1067.22 604.783 1067.01 600.603 1066.93C582.976 1066.56 564.118 1067.37 546.682 1066.79C533.205 1066.47 518.268 1066.83 504.674 1066.86L504.657 1024.32L504.815 1023.89L506.96 1023.78Z"/><path fill="#FEDA13" transform="scale(0.199303 0.199303)" d="M262.699 980.15L304.813 980.157L348.245 980.23C348.086 994.666 348.085 1009.1 348.243 1023.54L390.76 1023.55L390.838 1024.28C390.73 1038.47 390.708 1052.66 390.771 1066.86L383.892 1066.81C375.621 1067.18 364.9 1066.85 356.481 1066.83L304.952 1066.81C290.966 1066.73 276.979 1066.75 262.993 1066.88C263.033 1053.23 263.371 1038.22 262.89 1024.68L262.699 980.15Z"/><path fill="#D6B315" transform="scale(0.199303 0.199303)" d="M262.699 980.15L304.813 980.157C304.795 1008.57 304.403 1037.98 304.847 1066.32L358.432 1066.32C363.296 1066.33 380.164 1066.08 383.892 1066.81C375.621 1067.18 364.9 1066.85 356.481 1066.83L304.952 1066.81C290.966 1066.73 276.979 1066.75 262.993 1066.88C263.033 1053.23 263.371 1038.22 262.89 1024.68L262.699 980.15Z"/><path fill="#DAD9D9" transform="scale(0.199303 0.199303)" d="M262.665 657.365L305.237 657.3L305.22 855.008L383.669 855.19C392.828 855.222 413.891 854.678 422.272 855.538C405.346 856.228 384.31 855.665 367.12 855.656L262.736 855.593L262.665 657.365Z"/><path fill="#DAD9D9" transform="scale(0.199303 0.199303)" d="M94.51 656.945C107.872 656.29 123.632 656.784 137.287 656.714C137.284 700.775 138.128 746.578 137.594 790.415L94.7291 790.397L94.51 656.945Z"/><path fill="#173996" transform="scale(0.199303 0.199303)" d="M588.16 898.158C601.047 897.609 618.68 897.862 631.773 898.165L631.737 979.829L622.72 979.857C619.95 979.663 616.828 979.781 614.028 979.734C591.73 979.361 568.982 980.591 546.724 979.761L546.433 979.675C546.065 966.547 546.368 951.975 546.357 938.731L588.01 938.894C587.976 925.315 588.026 911.736 588.16 898.158Z"/><path fill="#173996" transform="scale(0.199303 0.199303)" d="M348.66 938.72L390.709 938.782C390.714 952.045 390.397 966.726 390.774 979.868L390.647 980.22L348.333 980.233C348.683 966.793 348.42 952.628 348.538 939.074L348.66 938.72Z"/><path fill="#173996" transform="scale(0.199303 0.199303)" d="M317.968 898.244C327.256 898.105 338.762 897.873 348.031 898.248L348.242 933.643C348.212 935.665 348.281 935.907 347.574 937.751C342.207 938.989 311.908 938.059 304.186 938.066C304.331 924.808 304.536 911.775 304.137 898.521C308.965 898.548 313.135 898.572 317.968 898.244Z"/><path fill="#0F2870" transform="scale(0.199303 0.199303)" d="M262.878 898.239C279.244 898.062 301.883 897.278 317.968 898.244C313.135 898.572 308.965 898.548 304.137 898.521C304.536 911.775 304.331 924.808 304.186 938.066C311.908 938.059 342.207 938.989 347.574 937.751C348.281 935.907 348.212 935.665 348.242 933.643C348.302 935.202 348.29 937.248 348.66 938.72L348.538 939.074C345.892 938.049 271.744 938.469 262.988 938.457C262.612 925.536 262.89 911.241 262.878 898.239Z"/></svg>