<?xml version="1.0" encoding="utf-8" ?><svg xmlns="http://www.w3.org/2000/svg" xmlns:xlink="http://www.w3.org/1999/xlink" width="179" height="242" viewBox="0 0 179 242"><path transform="scale(0.199303 0.199303)" d="M337.867 319.25C337.823 314.995 338.957 290.879 336.787 288.755C331.214 283.299 314.328 291.175 308.507 283.866C308.022 275.535 307.458 174.568 308.8 170.816C310.04 170.938 309.588 171.049 310.666 170.593L310.921 168.887C315.22 166.5 327.039 168.665 333.172 168.112C345.594 166.991 334.875 145.472 340.109 137.765C343.703 132.47 362.059 136.325 367.667 135.386C377.205 133.603 369.1 107.607 374.585 103.65C377.848 101.296 403.965 102.233 408.722 102.238L464.256 102.286L510.803 102.24C518.871 102.231 529.364 102.1 537.512 102.435C547.398 102.843 538.219 129.216 543.604 133.775C548.042 137.531 563.124 134.64 568.978 135.116C582.148 135.892 570.94 161.474 576.542 166.647C582.045 171.73 601.949 165.088 607.856 170.803C609.616 174.437 608.799 206.138 608.791 211.957L608.732 284.828C608.696 295.153 608.632 305.65 609.09 315.952C609.502 325.221 587.891 322.165 581.387 322.233C579.419 325.003 578.07 326.058 575.288 328.06C575.201 332.593 576.571 349.317 573.536 352.519C569.147 357.149 548.639 352.029 544.249 355.255C541.243 357.464 542.508 387.536 542.556 391.798C546.998 391.761 572.213 390.648 574.103 393.425C579.159 402.247 572.638 417.03 576.825 426.034C579.354 431.47 606.155 424.976 607.823 430.132C610.268 437.687 608.861 465.57 608.879 473.027L609.051 564.792C609.089 572.475 607.973 602.505 611.289 607.065C615.899 607.962 631.077 607.547 636.634 607.494C638.591 609.683 639.512 610.44 639.982 613.342L640.058 613.79C641.369 621.82 637.376 637.944 642.222 642.88C646.523 647.261 669.115 639.778 670.652 648.029C671.36 651.833 671.096 661.079 671.076 664.887L670.894 696.15C670.879 701.278 672.033 714.976 670.071 718.965C667.406 721.459 663.655 721.195 660.232 721.078C655.718 720.924 645.898 719.266 642.397 722.562C640.471 724.375 640.719 728.825 640.727 731.314C640.747 737.931 642.476 751.547 637.662 756.512C633.939 760.35 588.57 755.313 578.814 757.888C577.489 758.238 577.217 758.995 576.462 760.04C573.739 765.161 576.631 956.936 575.502 980.828C574.85 991.718 575.102 1010.5 575.373 1021.75L585.207 1021.81C585.24 1025.09 585.036 1032.33 585.457 1035.41C586.045 1039.71 597.238 1046.83 600.198 1050.43C602.717 1053.5 599.147 1054.09 603.862 1055.43C593.044 1055.8 580.741 1055.45 569.834 1055.39L514.093 1055.27C514.069 1061.51 514.194 1068.59 513.702 1074.73C513.82 1080.22 513.821 1085.71 513.706 1091.2L513.491 1125.22L476.132 1125.27C441.114 1124.72 404.344 1125.22 369.202 1125.22C363.581 1125.23 344.227 1126.01 340.095 1124.19C334.682 1118.52 340.718 1097.97 337.117 1091.73C333.825 1086.02 314.098 1093.05 309.651 1087.34C309.571 1087.24 308.54 1086.06 308.539 1085.97C307.866 1038.5 308.195 990.948 308.331 943.468C308.352 936.317 331.161 942.653 337.096 938.138C339.046 935.203 338.292 908.683 338.279 903.192L338.389 850.274L338.351 792.567C338.335 782.621 338.416 772.659 338.128 762.72C338.082 761.134 336.339 757.674 334.899 757.609C310.656 756.511 286.112 758.054 261.815 757.424C259.293 757.359 259.873 756.439 259.318 754.788C257.972 754.332 253.522 753.17 252.732 751.412C250.008 745.344 254.683 727.834 250.615 722.787C248.229 719.826 228.505 720.945 223.707 720.935C222.764 719.981 221.316 718.913 220.225 718.055C219.616 701.336 219.408 665.33 220.159 647.599C220.427 641.27 245.949 645.959 249.592 642.931C253.137 639.984 251.941 624.896 251.909 619.692L251.902 592.612L251.984 495.821C252.03 454.717 245.877 465.11 278.604 461.32C284.692 460.615 279.302 435.178 281.977 430.645C285.878 424.032 300.529 429.986 306.902 427.056C313.854 419.759 304.576 398.681 312.377 392.145C313.082 391.555 325.535 391.83 328.255 391.849L374.294 391.891C380.447 391.891 399.427 392.746 403.825 390.242C405.479 387.165 404.515 363.303 404.628 358.81C404.858 349.697 380.458 357.926 372.438 351.995C368.681 346.523 375.045 328.595 369.58 323.1C364.586 320.898 347.23 322.121 341.109 322.268L337.867 319.25Z"/><path fill="#242323" transform="scale(0.199303 0.199303)" d="M405.606 416.953C406.13 409.906 404.187 399.057 408.996 393.707C409.918 392.682 412.802 393.078 414.166 392.884C437.971 392.672 461.71 392.701 485.534 392.639C502.737 392.595 520.39 392.292 537.566 392.824C539.359 392.88 540.045 394.021 541.345 395.567C543.088 397.642 543.511 398.188 545.718 399.909L545.713 415.756C550.076 418.401 554.697 421.731 555.461 426.945C559.933 426.97 565.62 426.858 569.991 427.072C571.838 428.906 573.814 430.762 575.399 432.814L575.592 440.12C576.755 442.236 575.765 593.904 575.921 606.804C582.453 606.775 589.677 606.872 596.134 606.755C605.883 606.578 603.478 607.703 609.961 613.818L610.345 634.801C612.855 637.643 615.159 640.183 617.381 643.283C621.106 643.31 624.833 643.299 628.557 643.184C634.292 643.006 635.728 644.944 639.175 648.816L640.12 648.412C640.653 654.012 640.223 714.486 639.508 716.774C638.162 718.096 637.723 718.15 635.922 718.883C634.622 722.565 635.432 733.009 635.266 737.675C630.11 743.201 624.631 747.502 619.228 753.202C613.522 753.353 607.813 753.393 602.106 753.322C601.788 744.229 600.741 745.415 605.789 739.59C607.912 737.14 607.057 722.215 606.954 717.817L576.091 717.822C576.124 729.809 575.631 748.703 576.462 760.04C573.739 765.161 576.631 956.936 575.502 980.828C546.832 980.441 514.879 980.316 486.267 980.869L485.831 980.849C487.389 974.907 486.211 936.978 486.221 928.346L486.304 772.192C490.944 767.437 497.749 763.387 497.422 756.424L447.607 756.384C440.48 756.356 433.341 756.259 426.216 756.392C421.683 756.477 416.72 757.095 412.229 756.489C410.69 756.281 409.186 755.848 408.053 754.732C404.206 750.942 406.061 724.113 406.104 717.828C393.697 717.901 381.289 717.881 368.882 717.768C368.158 711.872 368.622 688.378 368.79 681.639L339.099 681.666L338.199 681.47C336.116 678.738 338.63 652.895 336.957 647.332L336.647 646.453C335.629 645.227 335.024 644.425 334.123 643.108C330.483 642.41 320.387 642.659 316.308 642.686L284.849 642.96L284.512 642.864C283.955 624.631 284.538 604.369 284.553 585.924L284.526 473.594C287.584 469.7 290.189 467.027 294.131 464.074C298.534 463.776 303.962 463.865 308.447 463.82C308.423 452.097 308.222 446.226 310.27 434.558C313.456 431.905 316.612 429.214 319.736 426.486C324.012 426.34 332.657 425.905 336.435 427.106L337.294 428.77C339.692 425.386 366.94 426.886 372.568 426.817C378.929 425.767 389.788 426.688 396.657 426.265C399.333 423.486 403.158 419.78 405.606 416.953Z"/><path fill="#E3DBD1" transform="scale(0.199303 0.199303)" d="M368.79 681.639C385.907 681.586 571.842 680.399 573.886 682.335C577.495 685.755 575.914 708.86 575.874 715.134C575.223 715.699 574.412 716.401 573.442 717.242C565.077 718.8 548.22 717.824 540.288 717.904C540.272 728.641 540.416 739.471 540.193 750.183C540.003 759.337 525.967 756.619 519.785 756.504C512.331 756.435 504.876 756.408 497.422 756.424L447.607 756.384C440.48 756.356 433.341 756.259 426.216 756.392C421.683 756.477 416.72 757.095 412.229 756.489C410.69 756.281 409.186 755.848 408.053 754.732C404.206 750.942 406.061 724.113 406.104 717.828C393.697 717.901 381.289 717.881 368.882 717.768C368.158 711.872 368.622 688.378 368.79 681.639Z"/><path fill="#E3DBD1" transform="scale(0.199303 0.199303)" d="M555.461 426.945C559.933 426.97 565.62 426.858 569.991 427.072C571.838 428.906 573.814 430.762 575.399 432.814L575.592 440.12C575.648 445.563 576.584 457.597 573.778 461.652C573.025 462.243 571.724 463.093 570.79 463.067C562.369 462.831 553.391 462.685 545.001 462.68C544.777 504.485 553.619 501.227 510.877 500.835C510.654 510.864 510.733 520.897 511.114 530.921C511.487 542.941 504.063 540.468 494.928 540.674C489.856 540.789 484.587 540.51 479.5 540.415C478.541 538.979 478.024 538.535 476.78 537.309L476.795 501.019L407.261 501.012C407.232 492.913 406.056 470.379 409.206 464.123C414.308 462.318 499.978 463.309 510.237 463.307L510.217 429.642C511.142 428.803 512.791 427.7 513.848 426.94L555.461 426.945Z"/><path transform="scale(0.199303 0.199303)" d="M345.195 486.273C350.996 486.174 359.482 485.054 363.105 489.242C367.697 494.549 368.71 494.392 368.72 501.049C368.752 522.19 368.692 543.31 368.663 564.427L368.61 681.144C364.196 681.113 341.381 680.505 339.099 681.666L338.199 681.47C336.116 678.738 338.63 652.895 336.957 647.332L336.647 646.453C337.569 634.909 337.294 619.314 337.36 607.562L337.65 540.338C337.62 526.534 337.103 509.51 337.788 495.932C340.408 492.174 342.128 489.752 345.195 486.273Z"/><path fill="#E3DBD1" transform="scale(0.199303 0.199303)" d="M337.294 428.77C339.692 425.386 366.94 426.886 372.568 426.817C414.356 427.754 406.571 419.383 406.738 462.663L365.875 462.803C358.957 462.822 343.334 463.816 337.871 460.862C336.192 458.487 336.483 451.503 336.707 448.47C336.944 445.271 335.985 430.711 337.294 428.77Z"/><path fill="#E3DBD1" transform="scale(0.199303 0.199303)" d="M576.535 643.04C590.151 643.009 603.767 643.09 617.381 643.283C621.106 643.31 624.833 643.299 628.557 643.184C634.292 643.006 635.728 644.944 639.175 648.816C640.502 652.303 639.636 676.046 637.879 679.644C635.934 681.168 627.929 680.491 625.175 680.507C619.436 680.538 581.001 681.831 578.565 679.248C577.728 678.36 576.941 677.273 576.71 676.054C575.503 669.67 576.514 650.69 576.535 643.04Z"/><path fill="#E3DBD1" transform="scale(0.199303 0.199303)" d="M412.046 539.877C427.817 539.491 443.819 540.01 459.613 539.717C464.583 539.624 472.455 539.178 476.44 542.536C477.872 545.908 477.66 571.321 476.897 574.326C474.968 576.501 475.149 577.098 472.79 577.391L431.933 577.43C415.753 577.441 404.614 581.036 405.708 560.688C406.47 546.53 402.222 551.255 412.046 539.877Z"/><path fill="#E3DBD1" transform="scale(0.199303 0.199303)" d="M513.541 540.003C522.747 539.706 533.247 539.902 542.55 539.875L545.647 542.84L545.807 565.357C545.798 571.976 544.65 571.789 539.803 576.616C539.582 577.25 539.788 576.917 538.931 577.4C534.335 577.45 516.453 578.005 513.205 576.808C508.775 570.572 510.822 553.086 510.724 545.25C510.692 542.774 511.809 541.685 513.541 540.003Z"/><path fill="#242323" transform="scale(0.199303 0.199303)" d="M403.158 169.484C403.083 162.642 401.636 141.101 405.225 136.42C409.876 134.426 520.789 135.312 534.96 135.322C537.655 138.129 539.204 139.177 542.048 142.533L541.944 168.217C546.876 168.255 564.523 167.797 567.969 168.565C569.061 169.817 568.377 169.168 568.951 170.249C569.653 171.572 572.258 172.751 574.016 174.382C575.814 178.315 575.097 205.291 575.227 211.852C585.385 211.464 598.412 211.905 608.791 211.957L608.732 284.828C603.529 284.731 579.59 285.057 576.321 283.515L575.442 284.51C575.378 289.075 576.695 316.643 573.56 318.887C563.184 323.999 557.509 315.948 547.2 324.435C537.64 332.305 545.183 348.756 540.799 353.2C534.689 355.208 497.692 354.513 488.382 354.516L407.955 354.467C406.698 353.618 405.399 352.821 404.115 352.012C404.249 341.947 404.175 331.881 403.892 321.82L371.667 322.08C370.889 321.219 369.902 320.242 369.345 319.223C367.863 316.509 367.975 193.667 368.637 178.914C368.771 175.922 369.168 173.141 370.107 170.295C371.931 168.679 398.41 169.467 403.158 169.484Z"/><path fill="#E3DBD1" transform="scale(0.199303 0.199303)" d="M545.834 212.242C552.213 211.537 572.136 210.89 577.175 214.64C578.427 219.149 577.99 274.32 577.472 281.604C575.445 283.212 575.769 282.458 575.442 284.51C569.814 284.929 551.317 285.131 546.057 284.49C543.228 281.95 542.762 281.798 542.75 277.658C542.691 256.843 542.412 235.956 542.977 215.152C542.99 214.683 545.372 212.621 545.834 212.242Z"/><path fill="#E3DBD1" transform="scale(0.199303 0.199303)" d="M408.738 212.721C412.934 211.219 437.098 212.017 441.232 214.351C441.68 216.089 441.751 218.96 441.753 220.826C441.781 241.004 442.073 261.22 441.669 281.393C441.67 281.327 439.182 284.163 438.982 284.391C429.854 285.063 417.166 285.109 408.103 283.732C408.103 283.732 405.79 281.518 405.587 281.324C405.601 260.641 405.595 239.845 405.692 219.156C405.712 214.741 405.625 215.596 408.738 212.721Z"/><path transform="scale(0.199303 0.199303)" d="M447.607 756.384L497.422 756.424C497.749 763.387 490.944 767.437 486.304 772.192L486.221 928.346C486.211 936.978 487.389 974.907 485.831 980.849L486.267 980.869C514.879 980.316 546.832 980.441 575.502 980.828C574.85 991.718 575.102 1010.5 575.373 1021.75L585.207 1021.81C585.24 1025.09 585.036 1032.33 585.457 1035.41C586.045 1039.71 597.238 1046.83 600.198 1050.43C602.717 1053.5 599.147 1054.09 603.862 1055.43C593.044 1055.8 580.741 1055.45 569.834 1055.39L514.093 1055.27C514.069 1061.51 514.194 1068.59 513.702 1074.73C513.82 1080.22 513.821 1085.71 513.706 1091.2L513.491 1125.22L476.132 1125.27C441.114 1124.72 404.344 1125.22 369.202 1125.22C368.375 1118.82 368.532 1096.61 369.228 1090.05C367.73 1085.78 367.869 1066.16 368.826 1061.44C369.916 1060.97 370.23 1060.85 371.221 1060.21L371.249 1058.69C372.455 1057.85 372.687 1057.85 373.282 1056.5L372.794 1055.43C370.576 1054.36 369.932 1054.45 367.48 1054.27C367.062 1046.7 368.402 1049.84 369.965 1045.09L368.86 1044.79C367.751 1042.74 368.264 986.988 368.238 980.752L422.35 980.646C430.465 980.604 439.821 980.287 447.951 980.887C449.047 980.968 450.552 982.919 451.784 983.765C453.974 971.393 452.189 764.497 452.083 764.183C451.189 761.519 448.464 760.074 447.705 756.85C447.669 756.695 447.64 756.539 447.607 756.384Z"/><path fill="#E3DBD1" transform="scale(0.199303 0.199303)" d="M368.238 980.752L422.35 980.646C430.465 980.604 439.821 980.287 447.951 980.887C449.047 980.968 450.552 982.919 451.784 983.765C451.749 988.941 452.579 1017.04 450.661 1018.84C450.414 1019.07 449.922 1019.28 449.612 1019.43L449.42 1021.25C449.483 1029.83 449.5 1038.41 449.473 1046.99C452.651 1051.11 453.727 1051.63 457.66 1054.93C460.483 1054.93 473.733 1054.57 475.392 1055.49C476.722 1058.05 479.477 1061.24 481.359 1063.58C481.47 1066.99 482.027 1085.69 481.1 1087.62C482 1094.01 481.894 1114.13 481.525 1120.89C479.624 1122.24 477.587 1123.49 476.132 1125.27C441.114 1124.72 404.344 1125.22 369.202 1125.22C368.375 1118.82 368.532 1096.61 369.228 1090.05C367.73 1085.78 367.869 1066.16 368.826 1061.44C369.916 1060.97 370.23 1060.85 371.221 1060.21L371.249 1058.69C372.455 1057.85 372.687 1057.85 373.282 1056.5L372.794 1055.43C370.576 1054.36 369.932 1054.45 367.48 1054.27C367.062 1046.7 368.402 1049.84 369.965 1045.09L368.86 1044.79C367.751 1042.74 368.264 986.988 368.238 980.752Z"/><path fill="#242323" transform="scale(0.199303 0.199303)" d="M481.1 1087.62C482 1094.01 481.894 1114.13 481.525 1120.89C479.624 1122.24 477.587 1123.49 476.132 1125.27C441.114 1124.72 404.344 1125.22 369.202 1125.22C368.375 1118.82 368.532 1096.61 369.228 1090.05C371.876 1092.09 393.543 1091.17 398.301 1091.14L444.092 1090.93L468.257 1090.86C471.336 1090.86 474.859 1090.87 477.951 1090.81C479.394 1090.79 480.143 1089.02 481.1 1087.62Z"/><path fill="#E3DBD1" transform="scale(0.199303 0.199303)" d="M368.238 980.752L422.35 980.646C430.465 980.604 439.821 980.287 447.951 980.887C449.047 980.968 450.552 982.919 451.784 983.765C451.749 988.941 452.579 1017.04 450.661 1018.84C450.414 1019.07 449.922 1019.28 449.612 1019.43L449.42 1021.25C446.223 1022.13 430.455 1021.8 426.127 1021.76C412.067 1021.66 397.734 1021.76 383.681 1021.51C379.088 1026.19 375.679 1032.84 375.9 1039.49C373.488 1041.59 372.799 1042.24 370.973 1044.88L369.965 1045.09L368.86 1044.79C367.751 1042.74 368.264 986.988 368.238 980.752Z"/><path fill="#242323" transform="scale(0.199303 0.199303)" d="M449.42 1021.25C449.483 1029.83 449.5 1038.41 449.473 1046.99C452.651 1051.11 453.727 1051.63 457.66 1054.93C460.483 1054.93 473.733 1054.57 475.392 1055.49C461.273 1056.39 380.039 1053.62 374.479 1056.21C372.84 1058.49 373.718 1057.88 371.249 1058.69C372.455 1057.85 372.687 1057.85 373.282 1056.5L372.794 1055.43C370.576 1054.36 369.932 1054.45 367.48 1054.27C367.062 1046.7 368.402 1049.84 369.965 1045.09L370.973 1044.88C372.799 1042.24 373.488 1041.59 375.9 1039.49C375.679 1032.84 379.088 1026.19 383.681 1021.51C397.734 1021.76 412.067 1021.66 426.127 1021.76C430.455 1021.8 446.223 1022.13 449.42 1021.25Z"/><path fill="#E3DBD1" transform="scale(0.199303 0.199303)" d="M486.267 980.869C514.879 980.316 546.832 980.441 575.502 980.828C574.85 991.718 575.102 1010.5 575.373 1021.75L585.207 1021.81C585.24 1025.09 585.036 1032.33 585.457 1035.41C586.045 1039.71 597.238 1046.83 600.198 1050.43C602.717 1053.5 599.147 1054.09 603.862 1055.43C593.044 1055.8 580.741 1055.45 569.834 1055.39L514.093 1055.27C514.069 1061.51 514.194 1068.59 513.702 1074.73C513.12 1069.5 513.426 1060.26 513.464 1054.69C508.883 1054.7 490.848 1055.33 487.552 1054.1L486.736 1054.03C486.946 1031.51 487.201 1003.17 486.267 980.869Z"/><path fill="#242323" transform="scale(0.199303 0.199303)" d="M575.373 1021.75L585.207 1021.81C585.24 1025.09 585.036 1032.33 585.457 1035.41C586.045 1039.71 597.238 1046.83 600.198 1050.43C602.717 1053.5 599.147 1054.09 603.862 1055.43C593.044 1055.8 580.741 1055.45 569.834 1055.39L514.093 1055.27C514.069 1061.51 514.194 1068.59 513.702 1074.73C513.12 1069.5 513.426 1060.26 513.464 1054.69C508.883 1054.7 490.848 1055.33 487.552 1054.1C495.305 1053.9 503.983 1054.12 511.812 1054.13C511.693 1050.65 511.037 1042.7 513.855 1040.87C517.352 1038.6 516.202 1037.27 518.439 1034.97C521.407 1031.93 520.602 1033.31 520.898 1028.95C523.579 1025.7 524.62 1024.53 527.8 1021.83L575.373 1021.75Z"/><path fill="#BEB6AB" transform="scale(0.199303 0.199303)" d="M485.831 980.849L486.267 980.869C487.201 1003.17 486.946 1031.51 486.736 1054.03C485.439 1053.77 483.825 1052.01 482.758 1051.05L482.69 1006.64C482.686 999.623 482.423 991.611 483.224 984.613C483.368 983.357 484.949 981.763 485.831 980.849Z"/><path fill="#242323" transform="scale(0.199303 0.199303)" d="M368.882 717.768C381.289 717.881 393.697 717.901 406.104 717.828C406.061 724.113 404.206 750.942 408.053 754.732C409.186 755.848 410.69 756.281 412.229 756.489C416.72 757.095 421.683 756.477 426.216 756.392C433.341 756.259 440.48 756.356 447.607 756.384C447.64 756.539 447.669 756.695 447.705 756.85C448.464 760.074 451.189 761.519 452.083 764.183C452.189 764.497 453.974 971.393 451.784 983.765C450.552 982.919 449.047 980.968 447.951 980.887C439.821 980.287 430.465 980.604 422.35 980.646L368.238 980.752C362.77 980.695 341.867 980.003 338.064 981.639C334.639 976.776 339.847 954.899 339.702 946.95C342.465 944.46 345.706 941.703 348.096 938.912C354.567 938.626 362.127 938.767 368.682 938.732L368.615 785.974L368.67 741.394C368.679 735.878 368.981 722.936 368.363 717.862L368.882 717.768Z"/><path fill="#242323" transform="scale(0.199303 0.199303)" d="M284.849 642.96L316.308 642.686C320.387 642.659 330.483 642.41 334.123 643.108C335.024 644.425 335.629 645.227 336.647 646.453L336.957 647.332C338.63 652.895 336.116 678.738 338.199 681.47L339.099 681.666L368.79 681.639C368.622 688.378 368.158 711.872 368.882 717.768L368.363 717.862L366.533 717.923C361.001 718.783 343.114 718.467 336.785 718.477C336.718 721.394 337.154 725.969 335.99 728.45C334.282 732.092 329.971 736.668 326.545 738.748C318.258 739.235 306.218 740.969 300.17 733.949C295.727 728.791 296.148 726.041 296.351 719.717C289.464 719.653 271.221 720.513 263.725 719.374C263.368 719.319 256.128 712.739 254.939 711.757C254.875 706.108 255.49 684.316 254.168 680.7C253.419 679.842 252.919 679.645 251.95 679.022C251.179 677.561 250.893 675.84 250.88 674.153C250.605 637.265 251.199 643.683 284.512 642.864L284.849 642.96Z"/><path fill="#E3DBD1" transform="scale(0.199303 0.199303)" d="M284.849 642.96L316.308 642.686C320.387 642.659 330.483 642.41 334.123 643.108C335.024 644.425 335.629 645.227 336.647 646.453L336.957 647.332L336.854 681.177C330.443 682.165 258.782 681.882 254.168 680.7C253.419 679.842 252.919 679.645 251.95 679.022C251.179 677.561 250.893 675.84 250.88 674.153C250.605 637.265 251.199 643.683 284.512 642.864L284.849 642.96Z"/><path fill="#BEB6AB" transform="scale(0.199303 0.199303)" d="M284.512 642.864L284.849 642.96C284.254 645.82 284.797 645.597 282.33 647.236C281.982 647.463 281.631 647.684 281.276 647.9C280.393 654.957 279.5 674.268 283.736 679.911C287.581 682.342 328.637 679.935 336.854 681.177C330.443 682.165 258.782 681.882 254.168 680.7C253.419 679.842 252.919 679.645 251.95 679.022C251.179 677.561 250.893 675.84 250.88 674.153C250.605 637.265 251.199 643.683 284.512 642.864Z"/><path fill="#BEB6AB" transform="scale(0.199303 0.199303)" d="M339.099 681.666L368.79 681.639C368.622 688.378 368.158 711.872 368.882 717.768L368.363 717.862L366.533 717.923C358.913 717.417 345.192 717.834 337.184 717.852C337.169 708.083 337.104 698.339 337.367 688.575C337.47 684.742 338.256 685.117 339.01 682.043L339.099 681.666Z"/><path fill="#BEB6AB" transform="scale(0.199303 0.199303)" d="M338.064 981.639C341.867 980.003 362.77 980.695 368.238 980.752C368.264 986.988 367.751 1042.74 368.86 1044.79L369.965 1045.09C368.402 1049.84 367.062 1046.7 367.48 1054.27C363.461 1054.9 344.36 1054.47 339.376 1054.44L336.692 1051.31L336.626 1006.61C336.619 1001.55 335.77 984.771 338.064 981.639Z"/><path fill="#E3DBD1" fill-opacity="0.98823529" transform="scale(0.199303 0.199303)" d="M514.093 1055.27L569.834 1055.39C580.741 1055.45 593.044 1055.8 603.862 1055.43C604.322 1058.26 607.914 1060.86 610.144 1063.19C610.279 1067.76 611.092 1086.24 609.444 1089.9C606.513 1091.78 524.211 1091.73 513.706 1091.2C513.821 1085.71 513.82 1080.22 513.702 1074.73C514.194 1068.59 514.069 1061.51 514.093 1055.27Z"/><path fill="#242323" transform="scale(0.199303 0.199303)" d="M513.706 1091.2C524.211 1091.73 606.513 1091.78 609.444 1089.9C610.423 1093.48 610.664 1116.78 609.323 1121.14C608.975 1122.27 606.211 1122.5 604.891 1125.1C575.124 1125.74 543.412 1125.18 513.491 1125.22L513.706 1091.2Z"/><path transform="scale(0.199303 0.199303)" d="M585.207 1021.81C589.185 1021.74 604.984 1020.62 607.603 1023.2C612.755 1028.27 607.762 1044.91 609.964 1050.83C612.584 1057.87 631.326 1052.73 637.276 1054.73C639.925 1057.29 640.387 1067.23 640.006 1070.58C639.088 1078.66 641.522 1118.46 638.993 1122.93C634.117 1126.7 612.028 1125.18 604.891 1125.1C606.211 1122.5 608.975 1122.27 609.323 1121.14C610.664 1116.78 610.423 1093.48 609.444 1089.9C611.092 1086.24 610.279 1067.76 610.144 1063.19C607.914 1060.86 604.322 1058.26 603.862 1055.43C599.147 1054.09 602.717 1053.5 600.198 1050.43C597.238 1046.83 586.045 1039.71 585.457 1035.41C585.036 1032.33 585.24 1025.09 585.207 1021.81Z"/></svg>