<?xml version="1.0" encoding="utf-8" ?><svg xmlns="http://www.w3.org/2000/svg" xmlns:xlink="http://www.w3.org/1999/xlink" width="179" height="242" viewBox="0 0 179 242"><path fill="#0E0D0D" transform="scale(0.199303 0.199303)" d="M383.52 113.836C426.96 114.64 470.4 113.428 513.8 113.8C514.552 124.732 513.41 139.214 513.823 150.766L514.282 151.88C526.082 152.181 539.322 151.793 551.235 151.71C551.101 163.047 550.614 178.244 551.279 189.459L552.02 190.505C553.494 190.693 554.205 190.763 555.682 190.791C566.594 190.448 578.102 190.616 589.072 190.622C589.945 202.763 589.187 221.703 589.211 234.764L589.233 331.818L666.405 331.79C666.659 343.169 665.952 358.172 666.665 368.811C679.879 368.901 693.743 369.195 706.905 368.937C706.902 382.066 706.665 396.071 707.134 409.114L743.482 409.11L743.41 565.125C731.461 565.088 718.798 564.858 706.91 565.157C706.63 575.18 706.507 594.53 707.128 604.438C719.23 604.559 731.332 604.577 743.434 604.491L743.443 819.327C731.817 819.239 718.691 818.844 707.185 819.15C706.512 830.087 707 846.183 707.028 857.339L626.065 857.237C625.53 845.456 625.953 831.023 626.011 819.042C616.002 818.486 603.351 818.891 592.94 818.669C592.738 815.381 592.891 811.892 592.925 808.585C593.151 786.713 592.58 764.877 592.731 742.999C603.419 742.426 615.83 743.534 625.837 742.639C626.254 732.158 625.867 718.855 625.856 708.191L625.861 642.055C626.084 629.813 625.85 616.865 625.832 604.567C625.763 581.916 625.048 554.417 626.024 532.155L625.852 525.56L589.427 525.55L589.429 532.423C588.888 531.239 589.035 527.311 589.013 525.736C576.843 526.233 563.932 525.763 551.549 526.091L551.252 526.006C539.451 525.539 525.768 525.886 513.825 525.925C513.876 533.694 514.555 557.399 513.758 563.93C513.453 564.185 512.869 564.725 512.55 564.873L513.97 565.604C514.378 569.689 514.169 577.402 514.175 581.718L514.211 610.43L514.286 702.876L398.97 702.921L365.115 702.897C360.206 702.892 350.676 702.643 346.115 703.183L345.927 673.618C345.405 669.068 345.599 661.213 345.594 656.387L345.596 625.764L345.622 525.814L305.772 526.054L305.1 525.694C293.58 525.532 282.058 525.547 270.539 525.741L270.306 525.97L270.002 597.424C270.118 614.354 270.099 631.285 269.946 648.215C270.154 679.37 269.56 711.311 270.198 742.348L270.237 742.719C279.788 742.757 293.513 742.07 302.48 743.382L302.265 789.495C302.309 798.736 302.897 809.866 302.628 818.844L270.113 818.8C269.308 831.151 270.756 845.611 269.908 857.291L189.077 857.256C188.958 844.944 189.599 831.415 188.926 819.345C178.867 818.757 163.202 819.3 152.721 819.332C152.382 810.856 152.503 801.667 152.566 793.156C153.031 730.423 151.724 667.438 152.658 604.73C164.644 604.437 176.746 604.783 188.847 604.463C189.325 593.803 189.41 575.512 188.985 565.043C184.483 564.074 159.05 565.027 152.637 565.061C152.273 513.6 152.08 460.59 152.582 409.162C164.685 409.192 176.788 409.145 188.89 409.02C189.114 395.618 189.144 382.214 188.979 368.811C199.43 369.306 219.217 369.19 229.37 368.687C229.278 356.45 229.292 344.212 229.411 331.976C253.493 331.95 282.223 332.712 305.973 331.894C306.995 322.691 306.306 295.89 306.307 285.86L306.28 190.678C318.465 190.609 330.652 190.632 342.837 190.747L346.139 190.465C346.655 187.03 346.338 179.219 346.293 175.463C346.156 167.595 346.155 159.725 346.292 151.857C358.615 151.956 370.939 151.977 383.262 151.92L383.609 151.664C383.439 139.056 383.41 126.446 383.52 113.836ZM707.009 409.496C697.678 408.659 680.793 409.177 671.115 409.251C669.423 409.476 667.81 409.358 666.824 410.363C666.233 423.855 666.622 439.442 666.594 453.129C666.573 463.226 666.189 477.225 666.794 486.899C680.037 486.81 693.961 486.488 707.128 486.954C707.277 461.135 707.237 435.314 707.009 409.496ZM227.163 409.155C214.745 409.101 201.623 408.86 189.276 409.307C188.809 416.384 188.762 423.889 188.89 430.986C189.223 449.485 188.334 468.417 189.216 486.866C202.484 486.561 216.238 487.088 229.264 486.61C229.038 461.689 229.979 435.371 228.798 410.426C228.77 409.835 227.752 409.502 227.163 409.155ZM229.271 408.885C232.605 409.499 264.165 409.162 269.434 409.161C269.889 399.481 269.774 378.303 269.266 368.791L229.439 368.826C228.932 381.569 228.993 396.076 229.271 408.885ZM666.285 409.057L666.229 369.327C654.632 368.568 638.066 369.191 625.799 369.035C625.826 378.441 624.967 401.125 625.785 409.159C637.979 409.172 654.438 409.688 666.285 409.057ZM229.445 604.683L189.43 604.96C188.61 615.142 188.818 631.431 189.378 641.824C202.675 641.61 215.974 641.596 229.272 641.781L229.445 604.683ZM666.319 604.531C666.376 616.464 666.125 630.149 666.634 641.919L666.744 642.13C675.613 640.919 696.99 642.093 707.116 641.829C707.222 629.496 707.169 617.161 706.958 604.829C694.543 604.235 678.911 604.593 666.319 604.531Z"/><path fill="#FD6B48" transform="scale(0.199303 0.199303)" d="M383.52 113.836C426.96 114.64 470.4 113.428 513.8 113.8C514.552 124.732 513.41 139.214 513.823 150.766L514.282 151.88C526.082 152.181 539.322 151.793 551.235 151.71C551.101 163.047 550.614 178.244 551.279 189.459L552.02 190.505C553.494 190.693 554.205 190.763 555.682 190.791C553.752 190.976 552.876 190.684 551.78 191.818C551.025 201.98 551.585 218.691 551.631 229.344L551.613 332.096C539.385 332.072 526.294 332.293 514.142 331.999C458.42 331.269 401.766 331.749 346.008 331.818L345.928 313.388C345.198 311.272 345.582 294.193 345.583 290.616L345.719 208.405C345.723 205.133 346.281 193.215 345.213 191.258L342.837 190.747L346.139 190.465C346.655 187.03 346.338 179.219 346.293 175.463C346.156 167.595 346.155 159.725 346.292 151.857C358.615 151.956 370.939 151.977 383.262 151.92L383.609 151.664C383.439 139.056 383.41 126.446 383.52 113.836Z"/><path fill="#0E0D0D" transform="scale(0.199303 0.199303)" d="M383.52 113.836C426.96 114.64 470.4 113.428 513.8 113.8C514.552 124.732 513.41 139.214 513.823 150.766C508.514 150.635 478.158 149.805 475.206 151.127C460.35 152.116 438.182 151.448 422.831 151.469C410.314 151.19 396.249 151.592 383.609 151.664C383.439 139.056 383.41 126.446 383.52 113.836Z"/><path fill="#262E5E" transform="scale(0.199303 0.199303)" d="M383.609 151.664C396.249 151.592 410.314 151.19 422.831 151.469L422.796 190.317L383.1 190.34L383.191 229.259L345.994 229.243L345.902 285.302C345.903 293.854 346.252 305.064 345.928 313.388C345.198 311.272 345.582 294.193 345.583 290.616L345.719 208.405C345.723 205.133 346.281 193.215 345.213 191.258L342.837 190.747L346.139 190.465C346.655 187.03 346.338 179.219 346.293 175.463C346.156 167.595 346.155 159.725 346.292 151.857C358.615 151.956 370.939 151.977 383.262 151.92L383.609 151.664Z"/><path fill="#0E0D0D" transform="scale(0.199303 0.199303)" d="M346.292 151.857C358.615 151.956 370.939 151.977 383.262 151.92L383.138 190.407C373.323 190.432 355.031 189.796 346.139 190.465C346.655 187.03 346.338 179.219 346.293 175.463C346.156 167.595 346.155 159.725 346.292 151.857Z"/><path fill="#262E5E" transform="scale(0.199303 0.199303)" d="M513.823 150.766L514.282 151.88C526.082 152.181 539.322 151.793 551.235 151.71C551.101 163.047 550.614 178.244 551.279 189.459L552.02 190.505C553.494 190.693 554.205 190.763 555.682 190.791C553.752 190.976 552.876 190.684 551.78 191.818C551.025 201.98 551.585 218.691 551.631 229.344L514.246 229.344C514.35 216.32 514.373 203.295 514.312 190.27C501.559 190.529 488.359 190.371 475.571 190.371C475.512 184.666 476.095 154.573 475.206 151.127C478.158 149.805 508.514 150.635 513.823 150.766Z"/><path fill="#0E0D0D" transform="scale(0.199303 0.199303)" d="M514.282 151.88C526.082 152.181 539.322 151.793 551.235 151.71C551.101 163.047 550.614 178.244 551.279 189.459C549.833 190.639 518.146 190.056 514.25 190.036C514.123 178.662 513.586 163.002 514.282 151.88Z"/><path fill="#CB3C19" transform="scale(0.199303 0.199303)" d="M514.246 229.344L551.631 229.344L551.613 332.096C539.385 332.072 526.294 332.293 514.142 331.999L514.128 296.958C504.177 296.835 485.165 297.504 475.855 296.535C481.886 295.75 506.78 296.328 514.206 296.363C514.236 282.787 514.424 268.821 514.13 255.28C514.075 246.718 514.207 237.923 514.246 229.344Z"/><path fill="#0E0D0D" transform="scale(0.199303 0.199303)" d="M475.761 255.326L514.13 255.28C514.424 268.821 514.236 282.787 514.206 296.363C506.78 296.328 481.886 295.75 475.855 296.535C475.717 282.799 475.685 269.063 475.761 255.326Z"/><path fill="#0E0D0D" transform="scale(0.199303 0.199303)" d="M383.523 255.265L423.355 255.318L423.417 296.373L383.514 296.464L383.523 255.265Z"/><path fill="#0E0D0D" transform="scale(0.199303 0.199303)" d="M666.794 486.899C680.037 486.81 693.961 486.488 707.128 486.954L706.91 565.157C706.63 575.18 706.507 594.53 707.128 604.438C719.23 604.559 731.332 604.577 743.434 604.491L743.443 819.327C731.817 819.239 718.691 818.844 707.185 819.15C706.512 830.087 707 846.183 707.028 857.339L626.065 857.237C625.53 845.456 625.953 831.023 626.011 819.042C616.002 818.486 603.351 818.891 592.94 818.669C592.738 815.381 592.891 811.892 592.925 808.585C593.151 786.713 592.58 764.877 592.731 742.999C603.419 742.426 615.83 743.534 625.837 742.639C626.254 732.158 625.867 718.855 625.856 708.191L625.861 642.055C626.084 629.813 625.85 616.865 625.832 604.567C625.763 581.916 625.048 554.417 626.024 532.155C626.142 530.33 626.052 527.409 627.089 526.272C635.543 525.382 656.873 526.011 666.263 526.036C666.352 519.516 665.671 491.461 666.794 486.899ZM666.634 641.919L666.744 642.13C675.613 640.919 696.99 642.093 707.116 641.829C707.222 629.496 707.169 617.161 706.958 604.829C694.543 604.235 678.911 604.593 666.319 604.531C666.376 616.464 666.125 630.149 666.634 641.919Z"/><path fill="#0E0D0D" transform="scale(0.199303 0.199303)" d="M592.731 742.999C603.419 742.426 615.83 743.534 625.837 742.639L625.794 781.5L666.262 781.433L666.259 819.345C679.141 819.32 694.508 819.695 707.185 819.15C706.512 830.087 707 846.183 707.028 857.339L626.065 857.237C625.53 845.456 625.953 831.023 626.011 819.042C616.002 818.486 603.351 818.891 592.94 818.669C592.738 815.381 592.891 811.892 592.925 808.585C593.151 786.713 592.58 764.877 592.731 742.999Z"/><path fill="#FD6B48" transform="scale(0.199303 0.199303)" d="M666.794 486.899C680.037 486.81 693.961 486.488 707.128 486.954L706.91 565.157C694.092 565.69 679.231 565.329 666.261 565.305L666.263 526.036C666.352 519.516 665.671 491.461 666.794 486.899Z"/><path fill="#FD6B48" transform="scale(0.199303 0.199303)" d="M707.098 742.613C707.159 768.035 707.413 793.751 707.185 819.15C694.508 819.695 679.141 819.32 666.259 819.345L666.262 781.433C666.502 768.91 666.224 755.471 666.198 742.873C678.399 742.867 695.277 743.373 707.098 742.613Z"/><path fill="#FD6B48" transform="scale(0.199303 0.199303)" d="M666.744 642.13C675.613 640.919 696.99 642.093 707.116 641.829L707.252 703.292C693.579 703.395 679.906 703.416 666.233 703.357C666.218 694.824 665.284 646.901 666.744 642.13Z"/><path fill="#CB3C19" transform="scale(0.199303 0.199303)" d="M625.837 742.639C644.522 742.719 662.975 742.397 681.629 742.255C687.047 742.214 702.328 741.908 707.098 742.613C695.277 743.373 678.399 742.867 666.198 742.873C666.224 755.471 666.502 768.91 666.262 781.433L625.794 781.5L625.837 742.639Z"/><path fill="#262E5E" transform="scale(0.199303 0.199303)" d="M625.832 604.567C639.742 605.321 652.898 604.208 666.319 604.531C666.376 616.464 666.125 630.149 666.634 641.919C657.483 641.558 634.201 640.674 625.861 642.055C626.084 629.813 625.85 616.865 625.832 604.567Z"/><path fill="#0E0D0D" transform="scale(0.199303 0.199303)" d="M189.216 486.866C202.484 486.561 216.238 487.088 229.264 486.61C229.695 499.533 229.512 513.085 229.507 526.064C243.049 526.026 256.78 525.864 270.306 525.97L270.002 597.424C270.118 614.354 270.099 631.285 269.946 648.215C270.154 679.37 269.56 711.311 270.198 742.348L270.237 742.719C279.788 742.757 293.513 742.07 302.48 743.382L302.265 789.495C302.309 798.736 302.897 809.866 302.628 818.844L270.113 818.8C269.308 831.151 270.756 845.611 269.908 857.291L189.077 857.256C188.958 844.944 189.599 831.415 188.926 819.345C178.867 818.757 163.202 819.3 152.721 819.332C152.382 810.856 152.503 801.667 152.566 793.156C153.031 730.423 151.724 667.438 152.658 604.73C164.644 604.437 176.746 604.783 188.847 604.463C189.325 593.803 189.41 575.512 188.985 565.043L188.946 513.995C188.94 507.051 188.544 493.295 189.216 486.866ZM189.378 641.824C202.675 641.61 215.974 641.596 229.272 641.781L229.445 604.683L189.43 604.96C188.61 615.142 188.818 631.431 189.378 641.824Z"/><path fill="#0E0D0D" transform="scale(0.199303 0.199303)" d="M270.198 742.348L270.237 742.719C279.788 742.757 293.513 742.07 302.48 743.382L302.265 789.495C302.309 798.736 302.897 809.866 302.628 818.844L270.113 818.8C269.308 831.151 270.756 845.611 269.908 857.291L189.077 857.256C188.958 844.944 189.599 831.415 188.926 819.345L189.231 742.473L229.233 742.532L270.198 742.348Z"/><path fill="#FD6B48" transform="scale(0.199303 0.199303)" d="M189.231 742.473L229.233 742.532C229.399 757.743 229.4 772.956 229.238 788.167C229.155 795.172 228.653 813.025 229.389 819.278L188.926 819.345L189.231 742.473Z"/><path fill="#CB3C19" transform="scale(0.199303 0.199303)" d="M270.198 742.348L270.237 742.719C270.026 755.657 269.985 768.598 270.112 781.537L229.739 781.441C229.756 787.173 230.118 815.495 229.389 819.278C228.653 813.025 229.155 795.172 229.238 788.167C229.4 772.956 229.399 757.743 229.233 742.532L270.198 742.348Z"/><path fill="#FD6B48" transform="scale(0.199303 0.199303)" d="M189.216 486.866C202.484 486.561 216.238 487.088 229.264 486.61C229.695 499.533 229.512 513.085 229.507 526.064L229.538 565.308L202.304 565.359C199.149 565.35 191.595 565.49 188.985 565.043L188.946 513.995C188.94 507.051 188.544 493.295 189.216 486.866Z"/><path fill="#FD6B48" transform="scale(0.199303 0.199303)" d="M189.378 641.824C202.675 641.61 215.974 641.596 229.272 641.781L229.55 646.582L229.588 703.205L189.303 703.202L189.378 641.824Z"/><path fill="#262E5E" transform="scale(0.199303 0.199303)" d="M269.786 604.823C269.712 602.191 269.528 600.024 270.002 597.424C270.118 614.354 270.099 631.285 269.946 648.215C269.561 647.018 269.743 643.401 269.755 641.923C256.722 642.174 243.472 641.653 230.534 642.079C229.472 643.5 229.723 644.576 229.55 646.582L229.272 641.781L229.445 604.683C242.814 604.894 256.4 604.8 269.786 604.823Z"/><path fill="#FD6B48" transform="scale(0.199303 0.199303)" d="M345.883 525.816L373.194 525.837L384.253 525.897C384.273 538.756 384.164 551.837 384.325 564.676L468.449 564.685C481.627 564.689 499.985 564.111 512.55 564.873L513.97 565.604C514.378 569.689 514.169 577.402 514.175 581.718L514.211 610.43L514.286 702.876L398.97 702.921L365.115 702.897C360.206 702.892 350.676 702.643 346.115 703.183L345.927 673.618L345.883 525.816Z"/><path fill="#262E5E" transform="scale(0.199303 0.199303)" d="M269.266 368.791C281.582 368.664 293.9 368.663 306.217 368.79L305.931 485.99C319.298 485.897 332.665 485.903 346.031 486.008C345.946 499.182 345.94 512.356 346.011 525.529C351.591 525.508 368.359 525.124 373.194 525.837L345.883 525.816L345.927 673.618C345.405 669.068 345.599 661.213 345.594 656.387L345.596 625.764L345.622 525.814L305.772 526.054L305.1 525.694C293.58 525.532 282.058 525.547 270.539 525.741L270.306 525.97C256.78 525.864 243.049 526.026 229.507 526.064C229.512 513.085 229.695 499.533 229.264 486.61C229.038 461.689 229.979 435.371 228.798 410.426C228.77 409.835 227.752 409.502 227.163 409.155L229.271 408.885C232.605 409.499 264.165 409.162 269.434 409.161C269.889 399.481 269.774 378.303 269.266 368.791Z"/><path fill="#0E0D0D" transform="scale(0.199303 0.199303)" d="M270.137 486.471C281.776 486.486 294.157 486.693 305.735 486.378C305.769 491.767 306.406 523.474 305.1 525.694C293.58 525.532 282.058 525.547 270.539 525.741C269.506 519.638 270.088 493.607 270.137 486.471Z"/><path fill="#262E5E" transform="scale(0.199303 0.199303)" d="M589.015 368.987C597.685 368.763 617.824 368.164 625.799 369.035C625.826 378.441 624.967 401.125 625.785 409.159C637.979 409.172 654.438 409.688 666.285 409.057L671.115 409.251C669.423 409.476 667.81 409.358 666.824 410.363C666.233 423.855 666.622 439.442 666.594 453.129C666.573 463.226 666.189 477.225 666.794 486.899C665.671 491.461 666.352 519.516 666.263 526.036C656.873 526.011 635.543 525.382 627.089 526.272C626.052 527.409 626.142 530.33 626.024 532.155L625.852 525.56L589.427 525.55C588.793 512.929 589.064 498.896 589.083 486.147C588.617 473.918 588.977 459.373 588.968 446.996L589.015 368.987Z"/><path fill="#0E0D0D" transform="scale(0.199303 0.199303)" d="M589.083 486.147C601.081 486.511 613.738 486.331 625.795 486.322L625.852 525.56L589.427 525.55C588.793 512.929 589.064 498.896 589.083 486.147Z"/><path fill="#262E5E" transform="scale(0.199303 0.199303)" d="M551.05 486.083C562.104 485.792 578.225 485.518 589.083 486.147C589.064 498.896 588.793 512.929 589.427 525.55L589.429 532.423C588.888 531.239 589.035 527.311 589.013 525.736C576.843 526.233 563.932 525.763 551.549 526.091L551.252 526.006C551.112 512.699 551.045 499.391 551.05 486.083Z"/><path fill="#0E0D0D" transform="scale(0.199303 0.199303)" d="M305.772 526.054L345.622 525.814L345.596 625.764L345.594 656.387C345.599 661.213 345.405 669.068 345.927 673.618L346.115 703.183C350.676 702.643 360.206 702.892 365.115 702.897L398.97 702.921L514.286 702.876L514.211 610.43L514.175 581.718C514.169 577.402 514.378 569.689 513.97 565.604L512.55 564.873C512.869 564.725 513.453 564.185 513.758 563.93C514.555 557.399 513.876 533.694 513.825 525.925C525.768 525.886 539.451 525.539 551.252 526.006L551.549 526.091C563.932 525.763 576.843 526.233 589.013 525.736C589.035 527.311 588.888 531.239 589.429 532.423L589.399 1026.13C599.011 1027 616.581 1026.28 627.043 1026.29C627.145 1039.14 626.574 1053.99 627.092 1066.48L666.279 1066.43C666.785 1075.78 666.793 1096.56 666.311 1106.07L466.297 1106.05C465.805 1081.07 466.324 1054.22 466.327 1029.08L466.325 857.366C454.8 857.033 441.02 857.163 429.374 857.381C428.433 870.399 429.048 889.866 429.056 903.418L429.013 975.114C429.395 1018.68 428.424 1062.32 428.913 1106L229.532 1106.17C229.278 1099.14 229.051 1073.24 229.807 1066.55C242.659 1066.41 255.513 1066.4 268.366 1066.52C268.315 1054.89 267.738 1037.85 268.498 1026.65C280.919 1026.4 293.344 1026.37 305.767 1026.56C306.707 1018.59 306.328 1004.48 306.329 996.062L306.327 944.043L306.26 781.949C305.727 772.665 305.785 751.487 306.139 742.184C307.144 719.752 306.299 690.802 306.297 667.964C306.553 620.66 306.378 573.355 305.772 526.054ZM346.282 782.034C373.181 781.114 404.551 781.96 431.873 781.908C457.386 781.86 489.251 780.906 514.238 782.054C514.457 768.871 514.512 755.685 514.403 742.5C500.799 741.937 484.319 742.697 470.423 742.48C429.229 741.838 387.309 743.257 346.193 742.577C346.097 755.729 346.126 768.882 346.282 782.034ZM346.696 1026.44C336.573 1025.75 316.625 1026.56 305.98 1026.65C305.861 1039.95 305.833 1053.25 305.896 1066.55C317.834 1066.49 335.137 1067.09 346.388 1066.45C346.866 1053.12 346.968 1039.78 346.696 1026.44ZM551.612 1066.46C563.637 1066.74 576.791 1066.46 588.907 1066.45C589.303 1054.47 588.651 1038.85 588.493 1026.7C576.215 1026.57 563.935 1026.54 551.656 1026.62C551.545 1038.7 551.03 1054.57 551.612 1066.46Z"/><path fill="#CB3C19" transform="scale(0.199303 0.199303)" d="M513.825 525.925C525.768 525.886 539.451 525.539 551.252 526.006L551.549 526.091L551.505 703.248L403.062 703.452L364.839 703.491C361.243 703.496 349.099 703.704 346.115 703.183C350.676 702.643 360.206 702.892 365.115 702.897L398.97 702.921L514.286 702.876L514.211 610.43L514.175 581.718C514.169 577.402 514.378 569.689 513.97 565.604L512.55 564.873C512.869 564.725 513.453 564.185 513.758 563.93C514.555 557.399 513.876 533.694 513.825 525.925Z"/><path fill="#FD6B48" transform="scale(0.199303 0.199303)" d="M346.282 782.034C373.181 781.114 404.551 781.96 431.873 781.908C457.386 781.86 489.251 780.906 514.238 782.054C514.365 794.453 514.355 806.853 514.208 819.252L506.468 819.302L391.364 819.249L346.08 819.327C345.856 807.269 346.076 794.521 346.084 782.406L346.282 782.034Z"/><path fill="#262E5E" transform="scale(0.199303 0.199303)" d="M514.403 742.5C526.826 742.285 539.252 742.258 551.677 742.417L551.666 857.968L506.491 857.964L506.468 819.302L514.208 819.252C514.355 806.853 514.365 794.453 514.238 782.054C514.457 768.871 514.512 755.685 514.403 742.5Z"/><path fill="#262E5E" transform="scale(0.199303 0.199303)" d="M346.08 819.327L391.364 819.249L391.511 857.889L345.924 857.963C345.455 847.777 345.704 829.419 346.08 819.327Z"/><path fill="#262E5E" transform="scale(0.199303 0.199303)" d="M306.139 742.184C316.04 742.372 337.858 741.658 346.193 742.577C346.097 755.729 346.126 768.882 346.282 782.034L346.084 782.406C343.452 781.17 310.9 781.524 306.26 781.949C305.727 772.665 305.785 751.487 306.139 742.184Z"/><path fill="#FD6B48" transform="scale(0.199303 0.199303)" d="M345.855 897.281C361.019 897.229 376.184 897.299 391.347 897.493L391.413 957.996C391.427 966.824 391.857 980.223 391.207 988.681L345.916 988.593C345.56 958.346 345.852 927.569 345.855 897.281Z"/><path fill="#CB3C19" transform="scale(0.199303 0.199303)" d="M506.519 897.299C521.54 897.239 536.563 897.281 551.584 897.425L551.645 988.674C536.753 988.422 521.383 988.602 506.454 988.589L506.519 897.299Z"/><path fill="#262E5E" transform="scale(0.199303 0.199303)" d="M346.696 1026.44C361.9 1026.48 377.323 1026.37 392.509 1026.59C392.516 1039.77 392.385 1053.2 392.549 1066.35C377.465 1066.36 361.39 1066.08 346.388 1066.45C346.866 1053.12 346.968 1039.78 346.696 1026.44Z"/><path fill="#262E5E" transform="scale(0.199303 0.199303)" d="M506.372 1026.51C521.467 1026.42 536.562 1026.45 551.656 1026.62C551.545 1038.7 551.03 1054.57 551.612 1066.46L506.338 1066.47L506.372 1026.51Z"/></svg>