<?xml version="1.0" encoding="utf-8" ?><svg xmlns="http://www.w3.org/2000/svg" xmlns:xlink="http://www.w3.org/1999/xlink" width="211" height="211" viewBox="0 0 211 211"><path fill="#5484CD" transform="scale(0.205961 0.205961)" d="M406.515 330.145C417.917 323.333 440.367 323.178 452.589 327.106C473.993 333.984 489.262 341.222 512.832 341.097C524.333 340.967 535.77 339.349 546.857 336.284C553.876 334.341 560.578 330.673 567.341 328.405C580.162 324.106 606.035 322.428 617.797 329.977C628.538 336.492 634.047 342.882 632.809 356.044L631.597 361.907C643.248 371.449 655.09 375.834 645.867 392.09C647.747 394.22 649.343 396.045 651.51 397.959C656.14 402.049 665.966 406.004 665.467 413.289C665.035 419.601 654.582 427.684 649.943 431.34C649.634 431.581 649.322 431.82 649.008 432.055C650.099 437.473 653.441 446.486 655.732 451.856C674.721 495.401 708.504 534.733 746.88 562.383C752.529 566.453 758.52 568.457 764.726 571.149C768.38 572.734 779.153 573.565 780.254 575.735C779.129 581.132 771.58 587.374 767.176 590.357C757.287 597.057 751.254 596.608 741.098 598.922C754.582 610.34 767.909 609.697 783.803 610.103C773.462 631.082 746.369 651.186 724.279 658.163C699.949 665.849 684.229 664.959 660.566 657.63C659.725 659.055 658.806 660.782 657.791 662.046C648.564 676.978 630.643 688.521 613.738 692.524C587.126 698.827 573.103 679.57 558.002 682.205C548.922 683.79 542.508 693.59 533.403 696.436C516.892 703.627 497.89 702.168 482.671 692.539C476.154 688.435 471.855 682.327 463.472 681.995C447.764 681.373 437.776 697.844 412.501 693.075C392.398 689.282 374.436 674.698 363.167 658.133C362.449 658.071 352.953 660.644 351.491 660.975C334.659 664.794 318.578 664.504 302.083 659.171C280.949 652.11 262.233 639.233 248.085 622.019C246.287 619.826 240.258 613.064 241.226 610.533C242.892 609.88 248.814 609.839 250.963 609.981C258.237 610.463 276.92 605.191 281.615 600.237L281.253 599.082C271.655 599.659 242.021 584.289 244.85 574.745C246.554 573.758 252.684 573.19 255.358 572.395C270.92 567.768 283.048 558.37 295.389 548.143C306.679 538.604 317.188 528.177 326.816 516.963C350.472 489.77 364.725 466.386 375.758 431.761C372.233 429.433 368.928 426.786 365.887 423.853C349.415 408.054 367.819 403.284 379.191 392.494C369.431 375.888 381.483 371.633 392.728 361.027C388.672 347.791 394.939 336.521 406.515 330.145ZM384.888 402.873C385.319 402.849 387.197 402.88 387.328 402.27C387.119 401.57 381.091 395.251 380.158 394.228C378.955 395.247 378.11 396.124 377.057 397.278C380.259 400.264 381.749 399.71 384.888 402.873Z"/><path fill="#092865" transform="scale(0.205961 0.205961)" d="M512.005 444.533C515.604 455.083 519.366 467.312 524.694 477.05C558.632 539.08 634.484 592.818 707.381 567.748C717.014 564.434 725.396 560.106 734.136 555.078C748.861 566.14 760.152 573.396 778.439 576.455C771.836 586.316 762.114 593.31 750.388 595.652C746.489 596.466 742.483 596.64 738.527 596.17C739.028 597.718 738.951 597.666 739.968 598.914L741.098 598.922C754.582 610.34 767.909 609.697 783.803 610.103C773.462 631.082 746.369 651.186 724.279 658.163C699.949 665.849 684.229 664.959 660.566 657.63C659.725 659.055 658.806 660.782 657.791 662.046C648.564 676.978 630.643 688.521 613.738 692.524C587.126 698.827 573.103 679.57 558.002 682.205C548.922 683.79 542.508 693.59 533.403 696.436C516.892 703.627 497.89 702.168 482.671 692.539C476.154 688.435 471.855 682.327 463.472 681.995C447.764 681.373 437.776 697.844 412.501 693.075C392.398 689.282 374.436 674.698 363.167 658.133C362.449 658.071 352.953 660.644 351.491 660.975C334.659 664.794 318.578 664.504 302.083 659.171C280.949 652.11 262.233 639.233 248.085 622.019C246.287 619.826 240.258 613.064 241.226 610.533C242.892 609.88 248.814 609.839 250.963 609.981C258.237 610.463 276.92 605.191 281.615 600.237L281.253 599.082C283.713 597.717 283.79 598.752 286.56 596.106C274.78 597.508 264.729 594.278 255.382 586.899C251.577 583.936 248.33 580.318 245.794 576.216C263.863 572.867 275.716 566.615 290.17 554.903C295.597 558.047 300.876 561.088 306.578 563.735C390.295 602.595 490.79 525.614 512.005 444.533Z"/><path fill="#E0B169" transform="scale(0.205961 0.205961)" d="M512.005 444.533C515.604 455.083 519.366 467.312 524.694 477.05C558.632 539.08 634.484 592.818 707.381 567.748C717.014 564.434 725.396 560.106 734.136 555.078C748.861 566.14 760.152 573.396 778.439 576.455C771.836 586.316 762.114 593.31 750.388 595.652C746.489 596.466 742.483 596.64 738.527 596.17C730.693 594.45 725.402 591.408 719.506 586.026L717.506 587.26C721.725 598.464 719.826 612.053 707.195 616.105C688.235 622.188 662.459 605.141 653.695 589.304C651.548 588.559 651.573 588.452 650.664 590.519C649.7 609.732 634.611 617.475 618.261 607.472C599.55 596.025 593.741 581.585 588.329 561.494C581.538 585.716 560.76 580.805 550.86 562.516C543.092 548.165 542.225 537.809 547.259 522.532C506.254 542.084 516.31 462.861 512.032 460.17C510.794 462.331 510.618 470.856 510.556 473.874C510.155 493.52 507.878 538.758 476.182 521.446C491.869 561.448 450.532 597.7 437.182 565.832C436.383 565.778 435.583 565.728 434.783 565.682C430.094 582.999 421.401 598.583 405.75 608.025C395.167 614.409 382.086 613.598 376.33 601.519C373.228 595.01 373.987 589.452 373.334 582.614C366.803 598.631 356.144 606.476 340.898 614.053C321.52 623.682 295.602 611.891 306.372 587.833L304.136 586.683C297.837 591.905 294.316 593.543 286.56 596.106C274.78 597.508 264.729 594.278 255.382 586.899C251.577 583.936 248.33 580.318 245.794 576.216C263.863 572.867 275.716 566.615 290.17 554.903C295.597 558.047 300.876 561.088 306.578 563.735C390.295 602.595 490.79 525.614 512.005 444.533Z"/><path fill="#1A1E2D" transform="scale(0.205961 0.205961)" d="M304.136 586.683C304.748 585.908 308.191 580.804 308.219 580.791C311.851 579.19 306.888 587.044 306.372 587.833L304.136 586.683Z"/><path fill="#1A1E2D" transform="scale(0.205961 0.205961)" d="M717.506 587.26C716.909 586.299 711.705 579.011 715.7 580.631C715.585 580.584 718.914 585.29 719.506 586.026L717.506 587.26Z"/><path fill="#092865" transform="scale(0.205961 0.205961)" d="M650.664 590.519C650.496 586.868 650.381 581.532 653.302 588.414L653.695 589.304C651.548 588.559 651.573 588.452 650.664 590.519Z"/><path fill="#092865" transform="scale(0.205961 0.205961)" d="M434.783 565.682C435.72 561.747 436.149 563.426 437.182 565.832C436.383 565.778 435.583 565.728 434.783 565.682Z"/><path fill="#5484CD" transform="scale(0.205961 0.205961)" d="M523.512 543.872C523.488 546.324 523.473 548.782 523.465 551.233C523.377 578.221 536.515 604.973 565.106 610.031C571.358 641.699 604.843 664.736 635.274 646.441C644.046 651.619 649.398 654.021 659.093 657.282L656.405 661.836L657.791 662.046C648.564 676.978 630.643 688.521 613.738 692.524C587.126 698.827 573.103 679.57 558.002 682.205C548.922 683.79 542.508 693.59 533.403 696.436C516.892 703.627 497.89 702.168 482.671 692.539C476.154 688.435 471.855 682.327 463.472 681.995C447.764 681.373 437.776 697.844 412.501 693.075C392.398 689.282 374.436 674.698 363.167 658.133L364.482 658.174C365.556 656.509 371.727 654.839 373.925 653.962C379.34 651.8 384.199 649.248 389.256 646.385C397.711 652.36 408.517 654.288 418.624 652.493C439.581 648.77 455.277 629.739 459.837 609.752C480.174 607.515 492.892 590.007 498.335 571.496C501.229 561.651 501.434 554.069 500.82 543.912C509.34 548.597 514.777 549.035 523.512 543.872Z"/><path fill="#092865" transform="scale(0.205961 0.205961)" d="M363.167 658.133L364.482 658.174C384.67 684.008 414.306 703.18 446.877 685.671C461.964 677.561 469.719 679.383 482.1 690.375C496.722 701.125 517.452 701.784 534.319 694.618L533.403 696.436C516.892 703.627 497.89 702.168 482.671 692.539C476.154 688.435 471.855 682.327 463.472 681.995C447.764 681.373 437.776 697.844 412.501 693.075C392.398 689.282 374.436 674.698 363.167 658.133Z"/><path fill="#092865" transform="scale(0.205961 0.205961)" d="M656.405 661.836L657.791 662.046C648.564 676.978 630.643 688.521 613.738 692.524C587.126 698.827 573.103 679.57 558.002 682.205C548.922 683.79 542.508 693.59 533.403 696.436L534.319 694.618C544.952 690.225 546.861 684.804 555.424 681.46C566.542 678.003 577.748 686.628 587.63 689.729C614.798 698.254 640.463 683.261 656.405 661.836Z"/><path fill="#1A1E2D" transform="scale(0.205961 0.205961)" d="M631.868 354.182L632.809 356.044L631.597 361.907C643.248 371.449 655.09 375.834 645.867 392.09C647.747 394.22 649.343 396.045 651.51 397.959C656.14 402.049 665.966 406.004 665.467 413.289C665.035 419.601 654.582 427.684 649.943 431.34C649.634 431.581 649.322 431.82 649.008 432.055C650.099 437.473 653.441 446.486 655.732 451.856C674.721 495.401 708.504 534.733 746.88 562.383C752.529 566.453 758.52 568.457 764.726 571.149C768.38 572.734 779.153 573.565 780.254 575.735C779.129 581.132 771.58 587.374 767.176 590.357C757.287 597.057 751.254 596.608 741.098 598.922L739.968 598.914C738.951 597.666 739.028 597.718 738.527 596.17C742.483 596.64 746.489 596.466 750.388 595.652C762.114 593.31 771.836 586.316 778.439 576.455C760.152 573.396 748.861 566.14 734.136 555.078C725.396 560.106 717.014 564.434 707.381 567.748C634.484 592.818 558.632 539.08 524.694 477.05C519.366 467.312 515.604 455.083 512.005 444.533C490.79 525.614 390.295 602.595 306.578 563.735C300.876 561.088 295.597 558.047 290.17 554.903C275.716 566.615 263.863 572.867 245.794 576.216C248.33 580.318 251.577 583.936 255.382 586.899C264.729 594.278 274.78 597.508 286.56 596.106C283.79 598.752 283.713 597.717 281.253 599.082C271.655 599.659 242.021 584.289 244.85 574.745C246.554 573.758 252.684 573.19 255.358 572.395C270.92 567.768 283.048 558.37 295.389 548.143C306.679 538.604 317.188 528.177 326.816 516.963C350.472 489.77 364.725 466.386 375.758 431.761C372.233 429.433 368.928 426.786 365.887 423.853C349.415 408.054 367.819 403.284 379.191 392.494C369.431 375.888 381.483 371.633 392.728 361.027L393.457 362.913C401.286 380.172 415.677 389.291 432.899 396.106C444.604 400.739 453.045 401.385 464.718 403.716C463.039 412.473 462.733 419.778 464.093 428.669L463.964 430.069L464.249 430.875C465.726 435.159 466.488 446.709 471.737 447.5C472.076 447.647 472.964 447.957 473.183 448.273C473.203 448.511 473.14 448.557 473.035 448.832L474.563 449.155C471.116 450.844 465.43 452.035 461.692 452.772C443.94 456.274 426.202 455.196 409.075 449.285C398 445.462 386.042 439.534 376.75 432.279C365.118 470.54 349.813 491.245 325.248 521.142C365.574 530.924 394.545 529.241 431.635 507.088C442.887 500.368 452.979 492.106 462.787 483.345C467.362 479.258 472.457 471.991 477.234 467.85C477.776 467.38 478.206 467.61 479.083 467.687C480.638 468.846 481.996 469.942 483.716 470.858C486.906 467.293 492.569 458.593 496.054 454.29C499.412 450.144 506.561 441.644 508.975 437.569L511.404 437.665C513.005 437.225 513.282 437.389 515.013 437.698L515.752 437.699L516.043 438.101C523.408 448.438 533.78 460.662 540.368 470.592C540.645 471.094 540.431 470.832 541.167 471.22C542.671 470.238 544.193 469.284 545.732 468.36C547.089 468.163 552.387 474.392 553.668 475.742C566.352 489.216 580.985 500.712 597.079 509.846C630.147 528.273 662.825 531.231 698.928 520.997C696.69 517.939 694.001 514.747 691.583 511.793C672.811 488.866 654.973 461.44 647.884 432.228C641.729 436.644 635.213 440.533 628.405 443.856C603.702 456.227 575.045 458.078 548.956 448.986L550.688 448.497C552.11 447.764 554.327 446.977 555.874 446.369C558.587 440.337 558.142 436.22 559.966 430.371L560.132 428.473C560.964 416.546 560.16 414.386 559.451 403.684L559.535 402.371C565.293 401.268 570.277 400.707 576.208 399.297C596.05 394.578 616.49 384.793 627.619 366.99C629.968 361.923 630.885 359.649 631.868 354.182ZM384.888 402.873C385.319 402.849 387.197 402.88 387.328 402.27C387.119 401.57 381.091 395.251 380.158 394.228C378.955 395.247 378.11 396.124 377.057 397.278C380.259 400.264 381.749 399.71 384.888 402.873Z"/><path fill="#D86A3D" transform="scale(0.205961 0.205961)" d="M511.404 437.665C513.005 437.225 513.282 437.389 515.013 437.698C514.434 439.288 513.784 440.85 513.063 442.381C512.611 444.228 512.38 445.971 510.284 444.659C506.406 455.522 501.619 469.621 495.906 479.615C461.681 539.482 387.315 591.154 316.325 565.772C307.583 562.723 299.228 558.664 291.43 553.674C302.778 543.928 314.135 533.582 323.947 522.262C382.997 539.268 431.843 518.587 472.656 475.164C474.29 473.426 478.031 469.65 479.083 467.687C480.638 468.846 481.996 469.942 483.716 470.858C486.906 467.293 492.569 458.593 496.054 454.29C499.412 450.144 506.561 441.644 508.975 437.569L511.404 437.665Z"/><path fill="#092865" transform="scale(0.205961 0.205961)" d="M511.404 437.665C513.005 437.225 513.282 437.389 515.013 437.698C514.434 439.288 513.784 440.85 513.063 442.381C512.611 444.228 512.38 445.971 510.284 444.659C510.662 441.448 510.619 440.819 511.404 437.665Z"/><path fill="#D86A3D" transform="scale(0.205961 0.205961)" d="M515.013 437.698L515.752 437.699L516.043 438.101C523.408 448.438 533.78 460.662 540.368 470.592C540.645 471.094 540.431 470.832 541.167 471.22C542.671 470.238 544.193 469.284 545.732 468.36C546.501 470.575 550.045 474.204 551.827 476.058C592.928 518.838 641.055 539.235 700.168 522.188C708.217 531.54 722.857 545.613 732.415 553.446C725.708 558.635 715.235 563.101 707.275 565.923C637.35 590.712 563.478 539.921 528.963 481.304C522.25 469.902 517.475 454.872 513.063 442.381C513.784 440.85 514.434 439.288 515.013 437.698Z"/><path fill="#EFECDE" transform="scale(0.205961 0.205961)" d="M644.558 393.65C657.303 407.443 675.51 408.845 652.01 427.122C619.298 452.564 590.236 458.434 550.688 448.497C552.11 447.764 554.327 446.977 555.874 446.369C558.587 440.337 558.142 436.22 559.966 430.371C591.816 427.815 622.936 418.801 644.558 393.65Z"/><path fill="#EFECDE" transform="scale(0.205961 0.205961)" d="M473.035 448.832C467.639 449.589 461.939 451.246 456.328 452.207C433.139 456.176 408.097 450.078 388.142 438.063C380.412 433.409 348.755 415.346 366.107 404.817C368.059 403.633 375.968 397.659 377.057 397.278C380.259 400.264 381.749 399.71 384.888 402.873C387.073 404.024 388.472 402.819 389.402 403.563C410.155 420.174 437.059 429.427 463.964 430.069L464.249 430.875C465.726 435.159 466.488 446.709 471.737 447.5C472.076 447.647 472.964 447.957 473.183 448.273C473.203 448.511 473.14 448.557 473.035 448.832Z"/><path fill="#D86A3D" transform="scale(0.205961 0.205961)" d="M628.78 367.719L631.002 363.327C635.782 368.262 647.924 375.07 647.656 382.07C647.415 388.339 640.242 396.311 635.731 400.405C612.597 419.525 589.116 426.518 560.132 428.473C560.964 416.546 560.16 414.386 559.451 403.684L559.535 402.371C565.293 401.268 570.277 400.707 576.208 399.297C596.05 394.578 616.49 384.793 627.619 366.99L628.78 367.719Z"/><path fill="#010518" transform="scale(0.205961 0.205961)" d="M627.619 366.99L628.78 367.719C612.308 392.167 587.163 399.497 559.451 403.684L559.535 402.371C565.293 401.268 570.277 400.707 576.208 399.297C596.05 394.578 616.49 384.793 627.619 366.99Z"/><path fill="#D86A3D" transform="scale(0.205961 0.205961)" d="M464.093 428.669C435.502 425.836 409.539 419.647 387.897 399.467C366.762 379.761 379.255 376.669 393.457 362.913C401.286 380.172 415.677 389.291 432.899 396.106C444.604 400.739 453.045 401.385 464.718 403.716C463.039 412.473 462.733 419.778 464.093 428.669Z"/><path fill="#092865" transform="scale(0.205961 0.205961)" d="M406.515 330.145C417.917 323.333 440.367 323.178 452.589 327.106C473.993 333.984 489.262 341.222 512.832 341.097C524.333 340.967 535.77 339.349 546.857 336.284C553.876 334.341 560.578 330.673 567.341 328.405C580.162 324.106 606.035 322.428 617.797 329.977L617.132 330.894C616.856 331.274 616.559 332.083 616.391 332.471C601.561 366.692 534.388 368.657 519.091 413.794C515.805 412.735 510.007 411.607 506.941 413.249C506.308 413.588 506.561 413.48 505.695 413.256C504.644 412.317 503.948 410.669 503.613 409.318C502.607 405.248 499.102 401.24 496.496 397.815C475.697 370.469 438.212 365.702 414.727 342.532C411.653 339.499 409.45 334.459 407.198 330.748L406.515 330.145Z"/><path fill="#092865" transform="scale(0.205961 0.205961)" d="M465.038 402.298C466.61 399.318 467.727 396.084 470.999 395.11C475.745 393.698 481.492 396.502 485.572 398.776C492.5 402.638 498.466 408.06 503.58 414.066C504.066 414.637 503.941 414.485 504.583 414.983C503.63 418.281 503.35 419.533 502.91 422.956C500.302 422.721 492.065 421.764 490.059 422.444C490.059 424.031 489.85 423.311 490.77 424.662C494.146 426.122 499.061 425.409 503.029 425.631C503.462 428.444 503.833 431.276 504.508 434.037C496.893 440.609 487.175 446.077 477.205 447.93C476.111 448.372 475.605 448.603 474.563 449.155L473.035 448.832C473.14 448.557 473.203 448.511 473.183 448.273C472.964 447.957 472.076 447.647 471.737 447.5C466.488 446.709 465.726 435.159 464.249 430.875L463.964 430.069L464.093 428.669C462.733 419.778 463.039 412.473 464.718 403.716L465.038 402.298Z"/><path fill="#8B96B7" transform="scale(0.205961 0.205961)" d="M471.737 447.5C473.931 447.54 475.03 447.645 477.205 447.93C476.111 448.372 475.605 448.603 474.563 449.155L473.035 448.832C473.14 448.557 473.203 448.511 473.183 448.273C472.964 447.957 472.076 447.647 471.737 447.5Z"/><path fill="#092865" transform="scale(0.205961 0.205961)" d="M519.829 414.903C527.407 406.045 539.673 394.733 552.25 394.977C557.611 395.081 556.897 399.883 559.535 402.371L559.451 403.684C560.16 414.386 560.964 416.546 560.132 428.473L559.966 430.371C558.142 436.22 558.587 440.337 555.874 446.369C554.327 446.977 552.11 447.764 550.688 448.497L548.956 448.986C537.875 445.212 529.444 442.367 520.349 434.739C520.763 431.743 520.775 428.949 520.85 425.931C524.92 425.505 531.375 426.491 533.84 424.16C534.282 422.626 534.327 423.343 533.838 421.934C531.378 421.635 523.577 422.835 520.708 423.15C520.605 419.82 520.356 418.165 519.829 414.903Z"/><path fill="#092865" transform="scale(0.205961 0.205961)" d="M515.752 437.699C518.173 436.328 518.929 437.184 521.195 438.673C525.489 441.496 530.304 443.52 534.748 445.999C536.913 447.207 539.183 450.226 541.422 451.615C545.504 454.747 549.268 457.049 553.661 459.709C547.292 463.342 545.215 465.233 540.368 470.592C533.78 460.662 523.408 448.438 516.043 438.101L515.752 437.699Z"/><path fill="#092865" transform="scale(0.205961 0.205961)" d="M470.981 459.635C476.504 456.394 481.801 452.782 486.835 448.824C492.221 444.656 500.052 441.427 506.025 437.682C506.578 437.335 508.348 437.519 508.975 437.569C506.561 441.644 499.412 450.144 496.054 454.29C492.569 458.593 486.906 467.293 483.716 470.858C482.016 467.181 474.376 462.317 470.981 459.635Z"/><path fill="#010518" transform="scale(0.205961 0.205961)" d="M392.728 361.027C388.672 347.791 394.939 336.521 406.515 330.145L407.198 330.748C391.436 342.305 387.764 356.343 400.549 372.318C416.355 392.067 441.021 398.554 465.038 402.298L464.718 403.716C453.045 401.385 444.604 400.739 432.899 396.106C415.677 389.291 401.286 380.172 393.457 362.913L392.728 361.027Z"/><path fill="#010518" transform="scale(0.205961 0.205961)" d="M617.797 329.977C628.538 336.492 634.047 342.882 632.809 356.044L631.868 354.182C632.266 342.351 626.465 337.144 617.132 330.894L617.797 329.977Z"/><path fill="#092865" transform="scale(0.205961 0.205961)" d="M508.97 415.686C510.925 415.652 517.299 415.071 517.724 417.72C518.363 421.707 518.223 428.734 518.199 432.959C518.195 433.661 515.16 434.746 514.619 434.937C512.891 434.962 506.058 435.72 506.149 432.998C506.318 427.967 503.034 417.557 508.97 415.686Z"/></svg>