<?xml version="1.0" encoding="utf-8" ?><svg xmlns="http://www.w3.org/2000/svg" xmlns:xlink="http://www.w3.org/1999/xlink" width="237" height="237" viewBox="0 0 237 237"><path fill="#5F251A" transform="scale(0.231164 0.231164)" d="M512.409 76.3508C512.865 78.4626 513.207 80.5973 513.434 82.7457C513.815 86.5141 518.055 99.6369 520.212 102.569C523.011 108.927 525.724 114.385 529.673 120.137C530.382 121.17 533.788 126.203 534.078 126.98C559.291 152.846 563.947 156.225 598.812 168.421C590.418 173.533 582.031 179.801 580.104 189.944C575.856 212.316 595.485 203.854 605.326 196.337C606.676 206.948 608.03 215.23 617.214 222.358C623.567 227.252 633.587 229.228 641.487 227.708C646.215 226.799 652.302 225.349 656.964 223.801C669.623 219.597 692.604 226.975 698.882 239.406C699.73 240.536 700.674 241.646 701.236 242.927C705.497 248.563 708.08 258.056 707.003 264.978C704.946 278.207 698.326 282.686 702.432 297.236C702.839 297.689 703.927 298.833 704.195 299.28C711.907 303.363 715.577 302.999 724.043 303.158C719.411 310.81 714.111 319.86 716.143 329.295C718.244 339.053 734.079 340.645 742.359 343.355C767.961 351.735 787.742 370.093 785.483 398.6C783.906 410.484 777.686 421.259 768.184 428.569C764.11 431.742 759.149 434.484 754.633 436.994C761.858 443.773 770.43 450.84 777.306 457.606C776.692 458.41 775.122 460.644 774.417 461.082C769.562 468.475 765.409 472.76 760.797 479.226C782.237 491.137 801.041 503.378 808.189 528.873C812.476 544.135 810.489 560.477 802.669 574.268C800.552 577.94 795.722 584.928 792.027 587.12C783.008 596.669 766.642 599.607 754.233 596.444L752.055 596.553L753.932 598.409C809.091 652.815 760.935 737.098 717.213 781.662C715.206 783.709 710.474 788.718 708.414 790.065C701.423 798.386 675.711 816.682 666.365 821.943C673.65 813.88 680.275 804.043 686.244 794.941C723.335 738.379 728.322 655.724 649.505 633.26C656.042 622.517 661.476 612.61 663.141 600.099C667.105 570.319 643.768 548.113 617.503 539.328C609.214 536.556 603.56 535.731 595.008 534.572C610.468 530.521 620.721 526.213 633.017 515.702C669.599 484.428 662.97 423.383 612.387 412.342C607.118 411.192 602.063 411.078 596.695 410.787C600.217 407.072 603.117 403.43 605.567 398.907C610.97 388.818 612.161 377.001 608.882 366.036C597.586 329.513 540.025 323.741 522.693 357.588C538.58 366.723 533.591 380.52 534.188 396.426C534.688 409.756 530.691 414.966 518.479 419.304C518.433 426.536 518.456 433.769 518.548 441C535.085 447.406 533.883 454.656 533.878 470.839C533.877 475.42 534.157 480.328 533.603 484.869L532.52 487.215C533.133 478.414 534.118 461.332 531.626 452.965C529.855 447.021 524.063 444.36 518.892 442.05C518.98 444.516 519.133 445.997 518.7 448.452L517.734 450.245C517.868 453.249 518.116 454.652 517.172 457.563L517.617 458.156C515.911 460.928 514.86 460.047 511.591 460.128C506.763 459.057 507.454 455.417 507.163 450.808C505.767 452.068 504.109 453.618 502.648 454.74C503.796 452.489 505.448 451.081 507.236 449.27L507.427 441.161C508.356 433.899 507.968 426.361 507.556 419.048C493.007 415.38 492.118 405.023 492.438 392.082C492.76 379.074 489.829 365.682 503.058 358.17C495.836 346.674 485.27 339.18 471.964 336.224C458.513 333.209 444.413 335.796 432.908 343.39C407.965 359.647 407.464 390.016 427.661 410.552C415.891 411.073 407.717 412.238 397.055 417.65C358.717 437.111 359.91 489.437 390.683 515.358C403.477 526.135 415.005 531.025 431.405 534.354C396.326 536.894 357.345 559.608 361.278 599.469C362.623 613.098 368.149 621.786 375.173 633.111C354.897 637.781 335.987 650.833 324.709 668.489C310.563 690.636 310.153 719.558 315.834 744.5C321.692 770.216 340.73 804.495 359.579 823.41C320.837 797.584 293.346 773.224 269.318 732.348C247.664 695.51 233.786 649.424 259.787 610.584C260.806 609.086 263.495 605.134 265.075 604.484C266.659 601.809 269.249 599.346 271.277 596.802C268.428 597.161 267.215 597.327 264.312 597.448C243.76 600.253 222.398 584.646 217.679 564.761C214.731 557.968 213.068 545.093 214.497 537.801C214.587 534.629 216.173 528.365 217.275 525.356C225.473 502.985 243.454 489.325 264.13 479.409C259.044 472.953 254.686 467.974 249.813 461.079C248.556 459.818 248.388 459.812 247.745 458.104C248.55 455.38 266.531 440.487 270.263 436.902C259.123 431.226 251.036 426.683 244.623 415.299C238.718 404.722 237.304 392.219 240.697 380.59C246.32 361.285 264.656 348.294 283.106 342.944C289.432 340.743 297.143 339.722 302.948 336.343C315.295 329.157 304.903 310.804 299.759 302.651C314.253 302.969 324.871 302.364 323.587 284.126C319.665 272.294 315.199 265.966 318.764 252.863C320.83 245.267 326.062 235.858 332.984 231.865C340.47 223.379 357.712 220.712 368.101 223.663C373.029 225.063 378.203 226.752 383.219 227.646C391.126 229.055 400.029 227.303 406.505 222.471C416.477 214.893 417.036 206.992 418.743 196.069C427.984 202.217 448.086 213.433 444.287 190.461C442.754 181.194 435.678 174.695 428.001 169.732C427.521 169.552 425.711 169.106 425.883 168.347C426.59 167.59 432.931 165.729 434.324 165.637C438.628 164.071 442.864 162.328 447.023 160.411C479.419 145.548 495.522 125.935 507.862 92.5901C510.288 88.9558 511.385 80.9247 512.409 76.3508ZM481.297 279.063C466.393 275.49 455.971 274.725 440.674 276.235C391.537 281.086 342.66 325.604 348.813 378.001C337.67 382.772 330.659 388.905 322.944 398.027C322.222 382.19 313.364 375.237 300.193 369.7C260.214 352.895 230.625 389.836 279.031 409.339C289.646 413.616 303.161 411.991 313.437 406.821C302.163 430.732 297.184 448.141 304.154 474.997C308.974 493.568 322.974 513.391 339.773 522.963C324.965 531.282 315.744 540.462 308.473 555.876C297.468 579.21 304.048 601.82 327.981 612.835L327.876 612.389C326.916 608.431 324.635 602.666 324.049 599.061C321.782 585.107 325.674 569.088 333.073 557.216C341.743 543.305 351.823 534.393 366.004 526.838C348.65 515.708 336.43 498.137 332.034 477.994C327.577 457.962 330.809 438.584 341.961 421.319C351.643 406.33 361.721 398.918 377.338 391.101C372.857 373.383 375.645 354.608 385.08 338.957C406.68 302.809 452.964 292.081 489.548 311.832C495.235 303.304 503.89 294.172 511.93 287.771C520.626 294.816 528.382 302.946 535.011 311.963C569.823 291.236 618.067 303.374 638.452 338.643C648.906 356.728 650.277 371.787 646.791 392.014C666.468 400.6 680.896 413.668 688.872 434.014C696.351 452.85 695.853 473.916 687.492 492.377C681.715 505.439 670.259 519.353 658.178 526.977C684.564 540.9 702.958 565.217 700.563 596.035C700.284 599.63 696.316 611.066 696.997 612.962C722.945 598.714 726.824 576.151 713.4 550.454C707.879 539.886 695.972 527.014 684.192 523.555C724.28 497.702 734.296 447.813 710.447 407.148C728.031 414.162 748.955 412.858 762.913 398.625C781.871 378.423 761.412 364.071 740.665 365.695C723.688 367.024 700.078 377.805 701.713 397.933C693.566 388.478 686.87 383.046 675.469 377.97C676.298 369.98 675.953 361.912 674.443 354.022C664.457 302.615 607.965 269.596 558.072 276.263C552.858 276.96 548.119 277.776 542.982 278.825C537 270.682 532.894 266.56 523.897 261.858C537.4 248.555 542.475 234.553 542.917 215.395C543.025 196.758 539.653 174.809 526.697 160.516C518.386 151.348 505.691 151.716 497.495 160.691C485.195 174.16 481.269 196.71 481.383 214.263C481.502 232.548 487.054 248.644 500.162 261.459C491.681 267.682 487.531 270.536 481.297 279.063ZM254.856 524.649C247.347 525.791 238.638 528.493 234.019 534.974C231.602 538.31 230.694 542.505 231.514 546.542C234.443 560.576 254.285 564.057 266.244 562.622C306.299 554.622 285.987 520.222 254.856 524.649ZM506.137 409.176L506.595 409.604C508.408 407.739 507.401 403.224 508.811 402.312C518.174 396.261 518.212 405.709 518.711 409.516C522.073 406.922 521.411 407.722 524.12 404.484C524.128 404.402 524.41 401.883 524.395 401.75C523.437 393.176 526.562 375.881 522.338 369.17C522.15 368.796 519.888 367.561 519.756 367.719C518.14 369.505 518.247 375.34 514.922 375.806C507.815 376.803 508.099 372.677 506.798 367.82C506.265 365.828 502.232 371.282 501.964 373.741C501.063 382.019 501.886 390.894 501.412 399.253C501.05 405.252 502.057 405.382 506.137 409.176Z"/><path fill="#DE6A29" transform="scale(0.231164 0.231164)" d="M512.409 76.3508C512.865 78.4626 513.207 80.5973 513.434 82.7457C513.815 86.5141 518.055 99.6369 520.212 102.569C523.011 108.927 525.724 114.385 529.673 120.137C530.382 121.17 533.788 126.203 534.078 126.98C559.291 152.846 563.947 156.225 598.812 168.421C590.418 173.533 582.031 179.801 580.104 189.944C575.856 212.316 595.485 203.854 605.326 196.337C606.676 206.948 608.03 215.23 617.214 222.358C623.567 227.252 633.587 229.228 641.487 227.708C646.215 226.799 652.302 225.349 656.964 223.801C669.623 219.597 692.604 226.975 698.882 239.406C699.73 240.536 700.674 241.646 701.236 242.927C705.497 248.563 708.08 258.056 707.003 264.978C704.946 278.207 698.326 282.686 702.432 297.236C702.839 297.689 703.927 298.833 704.195 299.28C711.907 303.363 715.577 302.999 724.043 303.158C719.411 310.81 714.111 319.86 716.143 329.295C718.244 339.053 734.079 340.645 742.359 343.355C767.961 351.735 787.742 370.093 785.483 398.6C783.906 410.484 777.686 421.259 768.184 428.569C764.11 431.742 759.149 434.484 754.633 436.994C761.858 443.773 770.43 450.84 777.306 457.606C776.692 458.41 775.122 460.644 774.417 461.082C769.562 468.475 765.409 472.76 760.797 479.226C782.237 491.137 801.041 503.378 808.189 528.873C812.476 544.135 810.489 560.477 802.669 574.268C800.552 577.94 795.722 584.928 792.027 587.12C783.008 596.669 766.642 599.607 754.233 596.444L752.055 596.553L753.932 598.409C809.091 652.815 760.935 737.098 717.213 781.662C715.206 783.709 710.474 788.718 708.414 790.065C706.723 790.831 703.08 793.901 701.541 795.129C695.085 800.278 688.746 806.659 681.171 810.032C684.726 804.394 692.631 796.561 697.419 791.243C728.815 756.375 754.818 705.412 736.478 658.275C728.003 636.495 715.013 624.886 694.07 615.83C704.033 610.559 713.866 603.997 718.58 593.366C730.073 567.444 710.828 534.031 686.566 523.288C724.768 497.151 734.706 450.07 713.022 409.691C727.079 414.097 738.416 413.814 752.049 407.889C762.717 403.253 777.151 387.789 769.867 376.016C759.574 359.381 730.821 362.788 716.638 371.949C707.006 378.17 702.48 383.168 699.715 394.03C692.792 386.177 686.569 381.776 677.176 377.27C677.208 367.289 676.936 359.215 674.545 349.397C668.457 324.405 649.914 302.599 627.925 289.715C602.442 274.874 572.16 270.598 543.563 277.805C538.477 270.324 533.57 266.034 525.922 261.485L526.411 260.999C539.713 247.644 544.165 231.549 544.139 212.793C543.866 194.618 540.23 172.835 527.173 159.224C517.753 149.405 504.352 150.834 495.746 160.788C483.237 175.256 479.774 198.515 480.337 216.963C480.826 232.99 486.528 250.542 498.511 261.577C491.81 265.47 485.381 271.411 480.73 277.591C437.267 267.402 392.327 282.067 365.086 318.092C351.585 335.946 346.069 354.695 347.345 377.039C336.977 382.106 331.933 386.497 324.107 394.715C321.983 382.373 315.456 375.457 304.422 370.191C293.467 365.157 279.2 361.97 267.554 366.46C240.44 376.912 254.543 400.399 273.7 408.675C287.07 414.451 297.852 414.262 311.036 409.411C300.901 430.651 296.823 448.269 302.144 471.967C306.48 491.281 320.308 512.476 337.353 522.844C322.695 532.49 314.005 540.202 306.889 556.593C295.068 583.822 305.214 604.365 331.485 615.784L331.058 615.9L330.35 616.102C306.593 622.697 288.945 647.745 284.026 670.996C275.115 713.121 295.418 753.185 321.402 784.909C328.39 793.441 340.284 803.612 345.744 812.217L346.149 812.864C342.111 810.452 338.051 807.244 334.244 804.414C308.758 785.538 288.582 761.665 271.795 734.879C249.367 699.092 233.98 649.037 260.512 611.231C261.725 609.503 264.415 606.329 265.075 604.484C266.659 601.809 269.249 599.346 271.277 596.802C268.428 597.161 267.215 597.327 264.312 597.448C243.76 600.253 222.398 584.646 217.679 564.761C214.731 557.968 213.068 545.093 214.497 537.801C214.587 534.629 216.173 528.365 217.275 525.356C225.473 502.985 243.454 489.325 264.13 479.409C259.044 472.953 254.686 467.974 249.813 461.079C248.556 459.818 248.388 459.812 247.745 458.104C248.55 455.38 266.531 440.487 270.263 436.902C259.123 431.226 251.036 426.683 244.623 415.299C238.718 404.722 237.304 392.219 240.697 380.59C246.32 361.285 264.656 348.294 283.106 342.944C289.432 340.743 297.143 339.722 302.948 336.343C315.295 329.157 304.903 310.804 299.759 302.651C314.253 302.969 324.871 302.364 323.587 284.126C319.665 272.294 315.199 265.966 318.764 252.863C320.83 245.267 326.062 235.858 332.984 231.865C340.47 223.379 357.712 220.712 368.101 223.663C373.029 225.063 378.203 226.752 383.219 227.646C391.126 229.055 400.029 227.303 406.505 222.471C416.477 214.893 417.036 206.992 418.743 196.069C427.984 202.217 448.086 213.433 444.287 190.461C442.754 181.194 435.678 174.695 428.001 169.732C427.521 169.552 425.711 169.106 425.883 168.347C426.59 167.59 432.931 165.729 434.324 165.637C438.628 164.071 442.864 162.328 447.023 160.411C479.419 145.548 495.522 125.935 507.862 92.5901C510.288 88.9558 511.385 80.9247 512.409 76.3508ZM266.244 562.622C306.299 554.622 285.987 520.222 254.856 524.649C247.347 525.791 238.638 528.493 234.019 534.974C231.602 538.31 230.694 542.505 231.514 546.542C234.443 560.576 254.285 564.057 266.244 562.622Z"/><path fill="#792915" transform="scale(0.231164 0.231164)" d="M534.078 126.98C559.291 152.846 563.947 156.225 598.812 168.421C590.418 173.533 582.031 179.801 580.104 189.944C575.856 212.316 595.485 203.854 605.326 196.337C606.676 206.948 608.03 215.23 617.214 222.358C623.567 227.252 633.587 229.228 641.487 227.708C646.215 226.799 652.302 225.349 656.964 223.801C669.623 219.597 692.604 226.975 698.882 239.406C694.558 236.272 691.406 232.525 686.206 229.031C662.73 213.256 641.376 238.432 618.314 224.415C608.489 218.443 606.483 208.751 604.25 198.463C593.317 206.239 575.362 211.724 579.004 189.862C580.603 180.264 588.644 173.519 596.642 168.584L593.75 167.651C574.758 161.432 557.524 152.502 543.229 138.279C540.292 135.357 535.932 130.637 534.078 126.98Z"/><path fill="#882D10" transform="scale(0.231164 0.231164)" d="M323.587 284.126C325.057 285.83 324.699 288.033 324.568 290.122C323.766 302.848 311.323 303.947 301.508 303.929C306.607 311.704 315.458 329.566 304.203 336.804C298.19 340.671 289.147 341.579 282.462 344.095C264.292 349.418 245.934 363.096 241.093 382.271C238.21 393.726 240.029 405.858 246.145 415.964C252.65 426.72 261.388 431.891 272.779 436.315C269.562 438.904 250.354 455.489 248.748 457.922C248.984 459.5 249.149 459.664 249.813 461.079C248.556 459.818 248.388 459.812 247.745 458.104C248.55 455.38 266.531 440.487 270.263 436.902C259.123 431.226 251.036 426.683 244.623 415.299C238.718 404.722 237.304 392.219 240.697 380.59C246.32 361.285 264.656 348.294 283.106 342.944C289.432 340.743 297.143 339.722 302.948 336.343C315.295 329.157 304.903 310.804 299.759 302.651C314.253 302.969 324.871 302.364 323.587 284.126Z"/><path fill="#882D10" transform="scale(0.231164 0.231164)" d="M428.001 169.732L429.62 169.752C450.883 180.923 454.503 219.948 421.334 198.891L419.783 197.897C417.889 208.49 416.446 216.152 407.125 223.252C401.046 227.883 389.946 230.407 382.639 228.534C368.74 224.97 359.719 220.314 345.06 225.664C341.446 226.984 335.077 231.135 332.984 231.865C340.47 223.379 357.712 220.712 368.101 223.663C373.029 225.063 378.203 226.752 383.219 227.646C391.126 229.055 400.029 227.303 406.505 222.471C416.477 214.893 417.036 206.992 418.743 196.069C427.984 202.217 448.086 213.433 444.287 190.461C442.754 181.194 435.678 174.695 428.001 169.732Z"/><path fill="#792915" transform="scale(0.231164 0.231164)" d="M704.195 299.28C711.907 303.363 715.577 302.999 724.043 303.158C719.411 310.81 714.111 319.86 716.143 329.295C718.244 339.053 734.079 340.645 742.359 343.355C767.961 351.735 787.742 370.093 785.483 398.6L784.453 398.958C784.586 394.097 784.806 388.886 783.739 384.102C779.261 364.029 761.725 350.615 742.941 344.555C735.768 342.004 727.039 341.072 720.63 336.836C708.756 328.986 716.646 312.473 722.917 303.856C717.101 304.251 708.018 304.243 704.195 299.28Z"/><path fill="#260806" transform="scale(0.231164 0.231164)" d="M784.453 398.958L785.483 398.6C783.906 410.484 777.686 421.259 768.184 428.569C764.11 431.742 759.149 434.484 754.633 436.994C761.858 443.773 770.43 450.84 777.306 457.606C776.692 458.41 775.122 460.644 774.417 461.082C774.556 459.749 775.662 458.717 776.557 457.606C768.118 451.234 760.697 443.106 752.389 436.438C769.296 430.853 781.765 416.594 784.453 398.958Z"/><path fill="#792915" transform="scale(0.231164 0.231164)" d="M701.236 242.927C705.497 248.563 708.08 258.056 707.003 264.978C704.946 278.207 698.326 282.686 702.432 297.236C694.628 288.934 706.618 271.746 706.403 262.155C706.22 254.017 703.723 250.299 701.236 242.927Z"/><path fill="#A94A13" transform="scale(0.231164 0.231164)" d="M754.233 596.444C759.391 596.015 763.504 597.575 768.5 596.448C769.345 596.47 770.186 596.268 771.006 596.148C776.145 595.394 781.016 593.716 785.486 591.03C787.42 589.867 789.336 588.2 791.549 587.309L792.027 587.12C783.008 596.669 766.642 599.607 754.233 596.444Z"/><path fill="#882D10" transform="scale(0.231164 0.231164)" d="M217.679 564.761C214.731 557.968 213.068 545.093 214.497 537.801C215.162 544.219 214.73 551.338 216.451 557.771C217.156 560.407 217.61 562.046 217.679 564.761Z"/><path fill="#260806" transform="scale(0.231164 0.231164)" d="M264.312 597.448C265.926 596.742 265.794 596.817 267.495 596.607C271.02 596.171 274.534 594.336 277.774 593.035C272.171 597.489 269.378 600.977 265.075 604.484C266.659 601.809 269.249 599.346 271.277 596.802C268.428 597.161 267.215 597.327 264.312 597.448Z"/><path fill="#A94A13" transform="scale(0.231164 0.231164)" d="M428.001 169.732C427.521 169.552 425.711 169.106 425.883 168.347C426.59 167.59 432.931 165.729 434.324 165.637C432.01 168.153 426.83 166.838 429.62 169.752L428.001 169.732Z"/><path fill="#260806" transform="scale(0.231164 0.231164)" d="M745.774 592.635C746.682 593.034 752.057 595.177 752.233 595.493C752.122 596.009 751.895 595.829 751.688 596.196C751.81 596.315 751.933 596.434 752.055 596.553L753.932 598.409C751.674 598.159 747.72 594.219 745.774 592.635Z"/><path fill="#5F251A" transform="scale(0.231164 0.231164)" d="M254.856 524.649C285.987 520.222 306.299 554.622 266.244 562.622C254.285 564.057 234.443 560.576 231.514 546.542C230.694 542.505 231.602 538.31 234.019 534.974C238.638 528.493 247.347 525.791 254.856 524.649ZM233.351 549.299C235.377 547.914 235.807 547.911 235.527 545.306C235.292 543.128 236.025 540.079 235.813 538.174C235.121 538.205 234.596 538.722 233.928 538.843L233.241 538.962C231.806 542.719 232.19 545.589 233.351 549.299ZM237.275 533.214C237.364 534.126 236.988 535.994 237.181 536.258C238.017 536.569 240.235 534.453 239.856 533.563C238.738 533.236 238.601 533.329 237.555 532.827C237.462 532.956 237.368 533.085 237.275 533.214Z"/><path fill="#D6B18F" transform="scale(0.231164 0.231164)" d="M237.555 532.827C245.827 526.387 253.88 525.075 263.96 525.795C280.015 526.942 297.994 543.094 279.965 556.261C266.843 565.845 242.336 563.324 233.351 549.299C235.377 547.914 235.807 547.911 235.527 545.306C235.292 543.128 236.025 540.079 235.813 538.174C235.121 538.205 234.596 538.722 233.928 538.843L233.241 538.962C234.294 536.32 235.268 535.139 237.275 533.214C237.364 534.126 236.988 535.994 237.181 536.258C238.017 536.569 240.235 534.453 239.856 533.563C238.738 533.236 238.601 533.329 237.555 532.827Z"/><path fill="#D6B18F" fill-opacity="0.8392157" transform="scale(0.231164 0.231164)" d="M233.241 538.962L233.928 538.843C234.596 538.722 235.121 538.205 235.813 538.174C236.025 540.079 235.292 543.128 235.527 545.306C235.807 547.911 235.377 547.914 233.351 549.299C232.19 545.589 231.806 542.719 233.241 538.962Z"/><path fill="#D6B18F" fill-opacity="0.68235296" transform="scale(0.231164 0.231164)" d="M237.555 532.827C238.601 533.329 238.738 533.236 239.856 533.563C240.235 534.453 238.017 536.569 237.181 536.258C236.988 535.994 237.364 534.126 237.275 533.214C237.368 533.085 237.462 532.956 237.555 532.827Z"/><path fill="#5F251A" transform="scale(0.231164 0.231164)" d="M760.768 524.656C794.463 519.959 809.044 557.652 769.127 562.771C761.043 563.704 752.308 562.503 745.257 558.156C737.065 553.104 733.443 543.201 739.548 534.984C744.437 528.403 752.972 525.846 760.768 524.656Z"/><path fill="#D6B18F" transform="scale(0.231164 0.231164)" d="M760.908 525.657C796.498 523.022 804.647 556.863 770.124 561.477C761.512 562.27 753.305 561.745 745.775 557.03C733.371 549.263 735.516 535.278 748.241 529.33C752.793 527.202 755.908 526.463 760.908 525.657Z"/><path fill="#5F251A" transform="scale(0.231164 0.231164)" d="M353.447 247.143C355.294 247.126 355.514 247.186 357.255 247.377C360.537 247.708 363.713 248.721 366.579 250.353C375.612 255.401 383.62 264.076 386.004 274.249C388.392 284.434 384.987 289.588 375.262 291.571C369.244 291.145 365.044 289.837 359.506 286.596C349.449 280.709 336.945 264.611 343.623 252.564C345.526 249.13 349.698 247.791 353.447 247.143Z"/><path fill="#D6B18F" transform="scale(0.231164 0.231164)" d="M351.062 248.576C359.969 247.999 361.868 249.045 369.5 253.498C379.394 259.27 395.207 284.612 377.486 289.972C352.771 291.686 330.191 256.702 351.062 248.576Z"/><path fill="#5F251A" transform="scale(0.231164 0.231164)" d="M667.395 247.099C684.741 245.597 685.451 262.375 677.881 273.496C671.179 283.341 665.045 287.616 653.881 290.842C649.958 291.414 646.789 291.869 643.118 289.728C634.062 284.447 638.341 271.303 642.811 264.328C648.485 255.475 657.071 249.248 667.395 247.099Z"/><path fill="#D6B18F" transform="scale(0.231164 0.231164)" d="M665.927 248.621C681.355 247.214 684.315 257.124 678.411 270.16C674.178 279.507 664.885 286.101 655.244 289.362L654.807 289.513C637.474 292.013 635.603 279.617 642.617 266.997C647.628 258.011 656.019 251.396 665.927 248.621Z"/><path fill="#DE6A29" transform="scale(0.231164 0.231164)" d="M511.266 459.507C510.535 459.01 509.746 458.519 509.234 457.775C507.974 455.943 508.079 409.392 509.021 404.732C509.269 403.507 509.718 403.055 510.762 402.406C512.162 401.535 513.986 401.433 515.515 401.912C516.441 402.803 517.284 403.922 517.344 405.256C518.014 420.133 517.053 435.391 517.734 450.245C517.868 453.249 518.116 454.652 517.172 457.563L517.617 458.156C515.911 460.928 514.86 460.047 511.591 460.128L511.266 459.507Z"/><path fill="#A94A13" transform="scale(0.231164 0.231164)" d="M511.266 459.507C514.666 458.417 514.375 459.926 517.172 457.563L517.617 458.156C515.911 460.928 514.86 460.047 511.591 460.128L511.266 459.507Z"/><path fill="#D6B18F" transform="scale(0.231164 0.231164)" d="M500.162 261.459C487.054 248.644 481.502 232.548 481.383 214.263C481.269 196.71 485.195 174.16 497.495 160.691C505.691 151.716 518.386 151.348 526.697 160.516C539.653 174.809 543.025 196.758 542.917 215.395C542.475 234.553 537.4 248.555 523.897 261.858C532.894 266.56 537 270.682 542.982 278.825C548.119 277.776 552.858 276.96 558.072 276.263C607.965 269.596 664.457 302.615 674.443 354.022C675.953 361.912 676.298 369.98 675.469 377.97C686.87 383.046 693.566 388.478 701.713 397.933C700.078 377.805 723.688 367.024 740.665 365.695C761.412 364.071 781.871 378.423 762.913 398.625C748.955 412.858 728.031 414.162 710.447 407.148C734.296 447.813 724.28 497.702 684.192 523.555C695.972 527.014 707.879 539.886 713.4 550.454C726.824 576.151 722.945 598.714 696.997 612.962C695.301 613.826 691.03 615.636 689.812 616.434C704.075 619.669 716.448 628.416 725.003 640.109C760.844 689.095 732.193 751.66 695.906 791.125C691.318 796.114 685.878 803.055 680.483 807.045C695.843 782.217 710.207 757.68 712.971 727.873C717.486 679.198 697.388 648.258 651.975 632.184C654.576 627.555 656.984 623.052 659.219 618.335C673.861 587.433 658.822 557.026 629.186 542.716C619.858 538.213 612.675 536.461 602.861 533.489C678.753 510.992 673.212 411.103 600.003 409.466C616.572 389.609 616.88 362.316 596.219 345.283C585.59 336.626 571.96 332.541 558.322 333.925C540.208 335.746 525.243 345.549 518.374 362.737C516.917 366.381 516.834 371.292 515.446 372.978C513.725 373.897 509.796 374.117 509.431 371.782C506.326 351.914 489.245 337.75 469.757 334.282C456.07 331.975 442.027 335.169 430.684 343.168C415.619 353.769 408.474 371.906 413.636 389.762C415.862 397.463 419.2 402.506 423.781 408.985C411.889 410.355 403.99 412.139 393.47 418.072C364.345 434.497 359.544 472.608 375.875 499.875C385.865 516.554 403.394 528.743 422.229 533.446C395.653 540.406 367.604 552.888 360.712 582.843C356.435 601.43 363.255 616.673 373.163 632.088C369.099 633.221 365.121 634.641 361.26 636.339C296.406 664.874 302.731 738.787 333.238 790.23C335.555 794.135 338.46 798.549 340.203 802.689C335.464 799.295 331.014 793.974 327.107 789.592C292.603 750.899 265.775 693.234 296.479 644.332C304.852 630.996 318.409 619.743 333.995 616.247C333.424 615.135 329.504 613.596 327.981 612.835C304.048 601.82 297.468 579.21 308.473 555.876C315.744 540.462 324.965 531.282 339.773 522.963C322.974 513.391 308.974 493.568 304.154 474.997C297.184 448.141 302.163 430.732 313.437 406.821C303.161 411.991 289.646 413.616 279.031 409.339C230.625 389.836 260.214 352.895 300.193 369.7C313.364 375.237 322.222 382.19 322.944 398.027C330.659 388.905 337.67 382.772 348.813 378.001C342.66 325.604 391.537 281.086 440.674 276.235C455.971 274.725 466.393 275.49 481.297 279.063C487.531 270.536 491.681 267.682 500.162 261.459ZM481.297 279.063C466.393 275.49 455.971 274.725 440.674 276.235C391.537 281.086 342.66 325.604 348.813 378.001C337.67 382.772 330.659 388.905 322.944 398.027C322.222 382.19 313.364 375.237 300.193 369.7C260.214 352.895 230.625 389.836 279.031 409.339C289.646 413.616 303.161 411.991 313.437 406.821C302.163 430.732 297.184 448.141 304.154 474.997C308.974 493.568 322.974 513.391 339.773 522.963C324.965 531.282 315.744 540.462 308.473 555.876C297.468 579.21 304.048 601.82 327.981 612.835L327.876 612.389C326.916 608.431 324.635 602.666 324.049 599.061C321.782 585.107 325.674 569.088 333.073 557.216C341.743 543.305 351.823 534.393 366.004 526.838C348.65 515.708 336.43 498.137 332.034 477.994C327.577 457.962 330.809 438.584 341.961 421.319C351.643 406.33 361.721 398.918 377.338 391.101C372.857 373.383 375.645 354.608 385.08 338.957C406.68 302.809 452.964 292.081 489.548 311.832C495.235 303.304 503.89 294.172 511.93 287.771C520.626 294.816 528.382 302.946 535.011 311.963C569.823 291.236 618.067 303.374 638.452 338.643C648.906 356.728 650.277 371.787 646.791 392.014C666.468 400.6 680.896 413.668 688.872 434.014C696.351 452.85 695.853 473.916 687.492 492.377C681.715 505.439 670.259 519.353 658.178 526.977C684.564 540.9 702.958 565.217 700.563 596.035C700.284 599.63 696.316 611.066 696.997 612.962C722.945 598.714 726.824 576.151 713.4 550.454C707.879 539.886 695.972 527.014 684.192 523.555C724.28 497.702 734.296 447.813 710.447 407.148C728.031 414.162 748.955 412.858 762.913 398.625C781.871 378.423 761.412 364.071 740.665 365.695C723.688 367.024 700.078 377.805 701.713 397.933C693.566 388.478 686.87 383.046 675.469 377.97C676.298 369.98 675.953 361.912 674.443 354.022C664.457 302.615 607.965 269.596 558.072 276.263C552.858 276.96 548.119 277.776 542.982 278.825C537 270.682 532.894 266.56 523.897 261.858C537.4 248.555 542.475 234.553 542.917 215.395C543.025 196.758 539.653 174.809 526.697 160.516C518.386 151.348 505.691 151.716 497.495 160.691C485.195 174.16 481.269 196.71 481.383 214.263C481.502 232.548 487.054 248.644 500.162 261.459C491.681 267.682 487.531 270.536 481.297 279.063Z"/><path fill="#D6B18F" transform="scale(0.231164 0.231164)" d="M500.162 261.459C487.054 248.644 481.502 232.548 481.383 214.263C481.269 196.71 485.195 174.16 497.495 160.691C505.691 151.716 518.386 151.348 526.697 160.516C539.653 174.809 543.025 196.758 542.917 215.395C542.475 234.553 537.4 248.555 523.897 261.858C532.894 266.56 537 270.682 542.982 278.825C548.119 277.776 552.858 276.96 558.072 276.263C607.965 269.596 664.457 302.615 674.443 354.022C675.953 361.912 676.298 369.98 675.469 377.97C686.87 383.046 693.566 388.478 701.713 397.933C700.078 377.805 723.688 367.024 740.665 365.695C761.412 364.071 781.871 378.423 762.913 398.625C748.955 412.858 728.031 414.162 710.447 407.148C734.296 447.813 724.28 497.702 684.192 523.555C695.972 527.014 707.879 539.886 713.4 550.454C726.824 576.151 722.945 598.714 696.997 612.962C696.316 611.066 700.284 599.63 700.563 596.035C702.958 565.217 684.564 540.9 658.178 526.977C670.259 519.353 681.715 505.439 687.492 492.377C695.853 473.916 696.351 452.85 688.872 434.014C680.896 413.668 666.468 400.6 646.791 392.014C650.277 371.787 648.906 356.728 638.452 338.643C618.067 303.374 569.823 291.236 535.011 311.963C528.382 302.946 520.626 294.816 511.93 287.771C503.89 294.172 495.235 303.304 489.548 311.832C452.964 292.081 406.68 302.809 385.08 338.957C375.645 354.608 372.857 373.383 377.338 391.101C361.721 398.918 351.643 406.33 341.961 421.319C330.809 438.584 327.577 457.962 332.034 477.994C336.43 498.137 348.65 515.708 366.004 526.838C351.823 534.393 341.743 543.305 333.073 557.216C325.674 569.088 321.782 585.107 324.049 599.061C324.635 602.666 326.916 608.431 327.876 612.389L327.981 612.835C304.048 601.82 297.468 579.21 308.473 555.876C315.744 540.462 324.965 531.282 339.773 522.963C322.974 513.391 308.974 493.568 304.154 474.997C297.184 448.141 302.163 430.732 313.437 406.821C303.161 411.991 289.646 413.616 279.031 409.339C230.625 389.836 260.214 352.895 300.193 369.7C313.364 375.237 322.222 382.19 322.944 398.027C330.659 388.905 337.67 382.772 348.813 378.001C342.66 325.604 391.537 281.086 440.674 276.235C455.971 274.725 466.393 275.49 481.297 279.063C487.531 270.536 491.681 267.682 500.162 261.459ZM258.808 377.003C260.463 375.687 264.219 373.759 260.619 372.763C259.942 373.304 256.181 376.512 258.808 377.003ZM268.387 370.679C268.562 368.48 266.24 369.369 264.579 369.636C264.769 372.124 266.14 371.123 268.387 370.679Z"/><path fill="#D6B18F" fill-opacity="0.9137255" transform="scale(0.231164 0.231164)" d="M260.619 372.763C264.219 373.759 260.463 375.687 258.808 377.003C256.181 376.512 259.942 373.304 260.619 372.763Z"/><path fill="#D6B18F" fill-opacity="0.82352942" transform="scale(0.231164 0.231164)" d="M264.579 369.636C266.24 369.369 268.562 368.48 268.387 370.679C266.14 371.123 264.769 372.124 264.579 369.636Z"/><path fill="#DE6A29" transform="scale(0.231164 0.231164)" d="M489.548 311.832C495.235 303.304 503.89 294.172 511.93 287.771C520.626 294.816 528.382 302.946 535.011 311.963C569.823 291.236 618.067 303.374 638.452 338.643C648.906 356.728 650.277 371.787 646.791 392.014C666.468 400.6 680.896 413.668 688.872 434.014C696.351 452.85 695.853 473.916 687.492 492.377C681.715 505.439 670.259 519.353 658.178 526.977C684.564 540.9 702.958 565.217 700.563 596.035C700.284 599.63 696.316 611.066 696.997 612.962C695.301 613.826 691.03 615.636 689.812 616.434L688.871 616.591L688.434 616.218L688.699 615.684C696.019 600.883 697.372 586.583 691.855 570.996C684.102 549.089 668.498 537.213 648.463 527.482C666.309 515.895 678.306 504.34 685.22 483.726C691.083 466.247 690.04 446.598 681.584 430.095C672.91 413.214 657.823 400.522 639.707 394.865C640.194 393.509 640.638 392.137 641.04 390.754C645.674 374.246 643.437 357.781 635.119 342.865C625.817 326.492 610.412 314.467 592.271 309.419C571.078 303.476 551.994 307.624 533.206 318.099C527.571 308.658 521.371 301.291 511.809 295.455C502.369 302.791 497.804 308.104 491.409 318.006C468.953 307.499 452.196 302.484 427.688 310.822C392.916 322.653 371.416 358.872 384.332 394.471C371.09 399.664 360.929 405.635 351.74 416.711C320.995 453.771 335.825 504.711 375.741 527.436C345.418 541.742 323.498 566.674 330.598 602.308C331.236 605.509 335.331 613.61 335.113 616.062L333.995 616.247C333.424 615.135 329.504 613.596 327.981 612.835L327.876 612.389C326.916 608.431 324.635 602.666 324.049 599.061C321.782 585.107 325.674 569.088 333.073 557.216C341.743 543.305 351.823 534.393 366.004 526.838C348.65 515.708 336.43 498.137 332.034 477.994C327.577 457.962 330.809 438.584 341.961 421.319C351.643 406.33 361.721 398.918 377.338 391.101C372.857 373.383 375.645 354.608 385.08 338.957C406.68 302.809 452.964 292.081 489.548 311.832Z"/><path fill="#DE6A29" transform="scale(0.231164 0.231164)" d="M522.058 358.686C525.671 359.742 528.493 362.56 530.396 365.729C531.784 368.052 532.723 370.615 533.166 373.284C534.161 378.986 533.927 399.441 532.212 405.726C530.652 411.442 527.519 413.827 522.622 416.623C521.07 417.202 521.131 417.228 519.493 417.296L518.785 416.602C518.477 414.584 518.653 412.873 518.749 410.847C524.506 406.464 526.261 403.519 525.551 396.142C524.396 384.13 529.853 372.992 518.744 365.301L522.058 358.686Z"/><path fill="#DE6A29" transform="scale(0.231164 0.231164)" d="M507.401 418.371C493.582 413.533 493.501 405.318 493.473 391.972C493.459 385.018 492.903 376.814 494.548 370.108C495.476 366.322 499.481 359.035 504.359 360.663C505.691 362.046 505.958 363.754 506.488 365.621C497.456 373.998 500.313 392.181 500.547 404.145C502.461 407.19 502.77 408.278 506.137 409.176L506.595 409.604C507.765 411.609 507.396 415.83 507.401 418.371Z"/><path fill="#5F251A" transform="scale(0.231164 0.231164)" d="M494.678 451.848C497.301 445.642 501.495 443.432 507.427 441.161L507.236 449.27C505.448 451.081 503.796 452.489 502.648 454.74C501.033 465.586 501.528 475.261 501.194 486.266C503.325 490.517 503.369 490.273 506.882 493.493C507.577 489.14 507.61 482.05 514.492 483.63C515.807 483.921 516.947 484.736 517.649 485.886C518.48 487.259 518.842 491.704 519.116 493.508C521.915 491.519 522.225 491.273 524.449 488.57C525.375 479.469 524.821 469.91 525.055 460.747C525.207 454.792 523.568 454.109 519.346 450.915C518.888 453.821 518.869 455.498 517.617 458.156L517.172 457.563C518.116 454.652 517.868 453.249 517.734 450.245L518.7 448.452C519.133 445.997 518.98 444.516 518.892 442.05C524.063 444.36 529.855 447.021 531.626 452.965C534.118 461.332 533.133 478.414 532.52 487.215L533.603 484.869C533.188 495.257 528.299 500.061 519.017 503.357C519.005 509.902 519.014 516.875 519.19 523.41C530.397 527.18 536.795 534.669 536.492 546.802C536.748 559.028 539.148 574.765 530.659 583.627C530.055 584.26 529.439 584.88 528.81 585.488L578.812 646.877C584.706 654.153 593.644 663.776 598.752 670.99C597.325 678.406 593.969 688.027 591.646 695.455C587.635 708.21 583.718 720.994 579.893 733.806L560.587 798.632C553.742 822.02 546.847 846.105 539.211 869.225C531.504 892.555 520.725 916.524 512.832 939.713L487.421 874.948C487.994 874.538 488.34 874.256 488.534 873.56L488.712 872.983L488.866 873.027C489.681 875.306 490.602 877.418 491.415 879.684C491.517 879.817 491.62 879.949 491.722 880.081C492.321 881.387 492.681 882.287 493.173 883.644C493.567 884.962 494.342 887.413 495.192 888.484L498.606 897.229C500.929 902.04 503.473 911.343 506.117 915.231C506.031 916.916 508.675 923.933 509.432 925.91C509.489 924.133 509.544 914.938 508.709 913.977C507.873 914.189 508.143 914.256 507.175 914.278C508.756 913.46 508.475 913.263 508.381 911.256C507.947 902.078 506.935 893.046 505.949 883.924C506.072 881.252 504.478 870.585 504.038 867.396C504.019 862.966 503.083 857.486 503.015 852.675L501.845 841.458C501.85 840.724 501.902 840.77 501.708 840.138C501.585 837.991 501.384 836.606 501.048 834.471C500.86 829.51 500.186 821.792 497.94 817.509L497.512 816.678C497.029 816.431 496.313 815.974 495.787 815.959C495.813 815.941 490.63 848.478 490.472 850.964C490.017 853.344 489.623 855.735 489.292 858.135C488.663 859.787 488.185 864.442 487.773 866.518L487.176 866.638C486.368 866.793 485.769 868.892 485.426 869.658C478.401 850.847 471.69 824.298 465.87 804.486C452.598 760.085 439.878 715.521 427.715 670.804C432.121 664.543 439.782 656.777 444.831 650.473C462.194 628.795 480.722 607.27 497.532 585.232C490.418 578.203 489.148 573.299 489.294 563.491C489.557 545.916 485.941 529.924 507.071 523.384C507.83 519.187 507.439 507.398 507.198 502.978C506.733 502.797 506.269 502.612 505.807 502.423C501.024 500.462 496.413 498.187 494.519 493.024C491.512 484.825 491.459 459.012 494.678 451.848ZM513.738 562.752C514.561 563.958 515.284 564.915 515.772 566.303C518.169 569.875 519.039 571.456 521.902 574.935C523.005 573.799 525.049 571.898 525.129 570.241C525.501 562.517 525.445 553.76 525.43 546.032C524.573 540.06 523.617 539.301 519.313 535.391C519.027 537.061 518.381 542.713 516.824 543.291C511.136 545.404 508.311 543.103 507.427 538.007L506.876 534.997C503.098 538.331 503.158 538.192 500.555 542.562C500.262 551.511 500.279 560.951 500.731 569.849C500.792 571.036 503.054 574.813 504.067 574.42C506.248 573.573 512.134 565.088 513.304 563.377L513.738 562.752ZM515.561 585.327L514.343 585.889C513.351 589.035 515.33 595.638 516.095 598.978C517.796 606.406 519.401 613.974 521.52 621.286C528.408 636.909 537.167 652.193 544.537 667.631C547.497 673.834 551.233 679.705 554.211 685.814C553.908 691.824 549.566 713.752 548.171 720.402L546.622 718.776L545.894 722.666L544.577 730.148C541.391 748.037 538.328 765.946 535.389 783.877C534.192 791.093 531.827 807.53 529.804 813.804C524.288 817.199 519.323 820.04 512.991 821.696C507.823 820.053 501.799 816.821 497.909 815.669L497.512 816.678L497.94 817.509C500.186 821.792 500.86 829.51 501.048 834.471C501.384 836.606 501.585 837.991 501.708 840.138C501.902 840.77 501.85 840.724 501.845 841.458L503.015 852.675C503.083 857.486 504.019 862.966 504.038 867.396C504.478 870.585 506.072 881.252 505.949 883.924C506.935 893.046 507.947 902.078 508.381 911.256C508.475 913.263 508.756 913.46 507.175 914.278C508.143 914.256 507.873 914.189 508.709 913.977C509.544 914.938 509.489 924.133 509.432 925.91C508.675 923.933 506.031 916.916 506.117 915.231C503.473 911.343 500.929 902.04 498.606 897.229L495.192 888.484C494.342 887.413 493.567 884.962 493.173 883.644C492.681 882.287 492.321 881.387 491.722 880.081C491.62 879.949 491.517 879.817 491.415 879.684C490.602 877.418 489.681 875.306 488.866 873.027L488.712 872.983L488.534 873.56C488.34 874.256 487.994 874.538 487.421 874.948L512.832 939.713C520.725 916.524 531.504 892.555 539.211 869.225C546.847 846.105 553.742 822.02 560.587 798.632L579.893 733.806C583.718 720.994 587.635 708.21 591.646 695.455C593.969 688.027 597.325 678.406 598.752 670.99C593.644 663.776 584.706 654.153 578.812 646.877L528.81 585.488C529.439 584.88 530.055 584.26 530.659 583.627C539.148 574.765 536.748 559.028 536.492 546.802L535.496 543.118C535.708 553.758 537.218 568.086 533.558 578.107C532.608 580.708 528.868 583.251 527.333 585.394C523.172 587.612 519.467 588.335 515.561 585.327ZM516.812 609.484C516.64 608.832 516.52 608.174 516.396 607.511L515.948 605.51L515.498 603.507C515.129 601.869 514.924 600.167 514.417 598.566C513.997 599.304 513.852 599.383 513.205 600.102C512.409 601.092 511.982 606.629 511.862 608.025C512.222 609.679 512.503 610.701 513.019 612.322C517.692 611.679 514.065 610.056 516.812 609.484ZM439.695 669.88L440.093 670.547C440.941 672.026 441.708 672.208 443.194 673.014C442.249 670.616 442.137 670.407 439.695 669.88ZM432.401 670.486C433.222 670.754 433.952 671.004 434.762 671.311C435.807 669.997 435.568 670.473 436.949 669.311C436.81 667.712 433.755 669.632 433.223 669.977L432.401 670.486ZM511.012 578.849L511.699 579.102C513.63 578.774 514.251 578.174 514.38 576.006C514.554 573.064 513.696 567.047 510.186 571.671C505.984 577.206 510.082 575.444 511.012 578.849Z"/><path fill="#1F1F57" transform="scale(0.231164 0.231164)" d="M535.496 543.118L536.492 546.802C536.748 559.028 539.148 574.765 530.659 583.627C530.055 584.26 529.439 584.88 528.81 585.488L578.812 646.877C584.706 654.153 593.644 663.776 598.752 670.99C597.325 678.406 593.969 688.027 591.646 695.455C587.635 708.21 583.718 720.994 579.893 733.806L560.587 798.632C553.742 822.02 546.847 846.105 539.211 869.225C531.504 892.555 520.725 916.524 512.832 939.713L487.421 874.948C487.994 874.538 488.34 874.256 488.534 873.56L488.712 872.983L488.866 873.027C489.681 875.306 490.602 877.418 491.415 879.684C491.517 879.817 491.62 879.949 491.722 880.081C492.321 881.387 492.681 882.287 493.173 883.644C493.567 884.962 494.342 887.413 495.192 888.484L498.606 897.229C500.929 902.04 503.473 911.343 506.117 915.231C506.031 916.916 508.675 923.933 509.432 925.91C509.489 924.133 509.544 914.938 508.709 913.977C507.873 914.189 508.143 914.256 507.175 914.278C508.756 913.46 508.475 913.263 508.381 911.256C507.947 902.078 506.935 893.046 505.949 883.924C506.072 881.252 504.478 870.585 504.038 867.396C504.019 862.966 503.083 857.486 503.015 852.675L501.845 841.458C501.85 840.724 501.902 840.77 501.708 840.138C501.585 837.991 501.384 836.606 501.048 834.471C500.86 829.51 500.186 821.792 497.94 817.509L497.512 816.678L497.909 815.669C501.799 816.821 507.823 820.053 512.991 821.696C519.323 820.04 524.288 817.199 529.804 813.804C531.827 807.53 534.192 791.093 535.389 783.877C538.328 765.946 541.391 748.037 544.577 730.148L545.894 722.666L546.622 718.776L548.171 720.402C549.566 713.752 553.908 691.824 554.211 685.814C551.233 679.705 547.497 673.834 544.537 667.631C537.167 652.193 528.408 636.909 521.52 621.286C519.401 613.974 517.796 606.406 516.095 598.978C515.33 595.638 513.351 589.035 514.343 585.889L515.561 585.327C519.467 588.335 523.172 587.612 527.333 585.394C528.868 583.251 532.608 580.708 533.558 578.107C537.218 568.086 535.708 553.758 535.496 543.118ZM570.863 680.618L572.625 681.109C575.908 680.826 576.697 683.678 578.206 686.248C578.833 682.816 578.696 680.809 580.876 678.256C580.55 677.539 580.286 676.971 579.919 676.271C577.914 675.406 577.781 674.961 577.029 672.934C576.965 672.575 576.476 669.593 576.41 669.493C575.101 667.501 575.552 672.653 575.552 672.651C574.135 677.12 574.703 677.67 570.863 680.618Z"/><path fill="#7F7DA4" fill-opacity="0.96862745" transform="scale(0.231164 0.231164)" d="M575.552 672.651C575.552 672.653 575.101 667.501 576.41 669.493C576.476 669.593 576.965 672.575 577.029 672.934C576.517 672.828 576.07 672.736 575.552 672.651Z"/><path fill="#5F251A" transform="scale(0.231164 0.231164)" d="M535.496 543.118L536.492 546.802C536.748 559.028 539.148 574.765 530.659 583.627C530.055 584.26 529.439 584.88 528.81 585.488L578.812 646.877C584.706 654.153 593.644 663.776 598.752 670.99C597.325 678.406 593.969 688.027 591.646 695.455C587.635 708.21 583.718 720.994 579.893 733.806L560.587 798.632C553.742 822.02 546.847 846.105 539.211 869.225C531.504 892.555 520.725 916.524 512.832 939.713L487.421 874.948C487.994 874.538 488.34 874.256 488.534 873.56L488.712 872.983L488.866 873.027C489.681 875.306 490.602 877.418 491.415 879.684C491.517 879.817 491.62 879.949 491.722 880.081C492.321 881.387 492.681 882.287 493.173 883.644C493.567 884.962 494.342 887.413 495.192 888.484L498.606 897.229C500.929 902.04 503.473 911.343 506.117 915.231C506.031 916.916 508.675 923.933 509.432 925.91C509.489 924.133 509.544 914.938 508.709 913.977C507.873 914.189 508.143 914.256 507.175 914.278C508.756 913.46 508.475 913.263 508.381 911.256C507.947 902.078 506.935 893.046 505.949 883.924C506.072 881.252 504.478 870.585 504.038 867.396C504.019 862.966 503.083 857.486 503.015 852.675L501.845 841.458C501.85 840.724 501.902 840.77 501.708 840.138C501.585 837.991 501.384 836.606 501.048 834.471C500.86 829.51 500.186 821.792 497.94 817.509L497.512 816.678L497.909 815.669C501.799 816.821 507.823 820.053 512.991 821.696C519.323 820.04 524.288 817.199 529.804 813.804C531.827 807.53 534.192 791.093 535.389 783.877C538.328 765.946 541.391 748.037 544.577 730.148L545.894 722.666L546.622 718.776L548.171 720.402L547.943 721.661C547.418 724.629 546.922 727.698 546.294 730.639L533.157 806.994C531.151 819.052 535.61 835.571 537.16 847.7C537.54 850.675 537.667 859.098 538.997 860.957C541.041 859.769 548.286 833.057 549.479 829.114L585.234 709.084C587.164 702.586 596.017 677.277 596.01 672.471L595.916 671.651C595.189 667.238 549.463 615.555 544.719 608.1C541.369 602.835 529.845 591.561 527.333 585.394C528.868 583.251 532.608 580.708 533.558 578.107C537.218 568.086 535.708 553.758 535.496 543.118Z"/><path fill="#1461AE" transform="scale(0.231164 0.231164)" d="M513.299 823.256C519.697 821.299 522.629 819.465 528.39 815.91C527.571 822.844 525.725 830.918 524.791 838.309C522.895 853.315 521.341 868.268 519.272 883.241C519.733 884.646 519.805 884.778 520.543 886.087C520.53 886.572 519.735 896.544 519.827 896.248C517.995 902.146 518.196 909.167 517.178 914.946C517.697 916.449 517.604 916.388 518.659 917.481C518.428 918.284 518.594 917.811 518.218 918.65C517.709 919.797 517.222 920.954 516.757 922.12C516.287 923.415 515.779 923.773 515.18 924.83C514.46 926.101 514.066 928.738 513.524 930.31L512.871 931.32C511.243 929.003 505.993 869.416 504.767 861.03C503 848.945 503.575 831.891 499.574 817.817C503.672 819.745 509.025 821.977 513.299 823.256Z"/><path fill="#552B43" transform="scale(0.231164 0.231164)" d="M519.272 883.241C519.733 884.646 519.805 884.778 520.543 886.087C520.53 886.572 519.735 896.544 519.827 896.248C517.995 902.146 518.196 909.167 517.178 914.946C517.697 916.449 517.604 916.388 518.659 917.481C518.428 918.284 518.594 917.811 518.218 918.65C517.709 919.797 517.222 920.954 516.757 922.12C516.287 923.415 515.779 923.773 515.18 924.83C514.46 926.101 514.066 928.738 513.524 930.31C513.982 918.627 515.718 907.771 517.479 896.249C518.14 891.92 518.311 887.573 519.272 883.241Z"/><path fill="#272443" transform="scale(0.231164 0.231164)" d="M517.178 914.946C517.697 916.449 517.604 916.388 518.659 917.481C518.428 918.284 518.594 917.811 518.218 918.65C517.709 919.797 517.222 920.954 516.757 922.12C516.215 919.847 516.413 918.515 516.891 916.251C516.983 915.815 517.073 915.379 517.178 914.946Z"/><path fill="#1F1F57" transform="scale(0.231164 0.231164)" d="M520.543 886.087C522.182 876.87 522.554 865.759 523.863 856.28C525.751 842.617 527.746 828.15 531.019 814.794C531.647 818.198 532.883 827.614 533.232 831.374C534.052 840.209 538.389 859.794 537.326 867.775C536.654 872.815 529.87 888.826 527.797 894.274C525.721 899.732 521.29 912.64 518.659 917.481C517.604 916.388 517.697 916.449 517.178 914.946C518.196 909.167 517.995 902.146 519.827 896.248C519.735 896.544 520.53 886.572 520.543 886.087Z"/><path fill="#7F7DA4" transform="scale(0.231164 0.231164)" d="M595.916 671.651L596.01 672.471C592.643 674.057 588.713 675.326 585.234 676.801L584.812 675.789C588.244 674.179 592.276 673.504 595.916 671.651Z"/><path fill="#696376" transform="scale(0.231164 0.231164)" d="M572.625 681.109C569.752 681.951 566.91 683.163 564.018 683.958C564.005 683.962 561.175 684.466 562.466 683.81C564.587 682.733 568.626 680.885 570.863 680.618L572.625 681.109Z"/><path fill="#F3F7FA" transform="scale(0.231164 0.231164)" d="M584.812 675.789L585.234 676.801C583.567 677.158 582.478 677.831 580.876 678.256C580.55 677.539 580.286 676.971 579.919 676.271C581.619 676.13 583.111 676.004 584.812 675.789Z"/><path fill="#1461AE" transform="scale(0.231164 0.231164)" d="M473.726 687.298C486.357 687.772 501.092 687.442 513.815 687.493C525.099 687.537 541.097 687.822 552.207 686.943C551.963 693.563 548.019 711.078 546.622 718.776L545.894 722.666L544.577 730.148C541.391 748.037 538.328 765.946 535.389 783.877C534.192 791.093 531.827 807.53 529.804 813.804C524.288 817.199 519.323 820.04 512.991 821.696C507.823 820.053 501.799 816.821 497.909 815.669C497.742 815.551 497.562 815.449 497.409 815.314C497.395 815.301 496.486 814.342 496.455 814.282C495.69 812.784 474.09 694.858 473.726 687.298Z"/><path fill="#DE6A29" transform="scale(0.231164 0.231164)" d="M519.193 524.425C527.815 527.465 534.859 533.463 535.496 543.118C535.708 553.758 537.218 568.086 533.558 578.107C532.608 580.708 528.868 583.251 527.333 585.394C523.172 587.612 519.467 588.335 515.561 585.327C515.556 583.204 515.651 581.149 515.737 579.031C517.224 578.594 518.175 578.697 519.464 577.875C520.499 576.022 520.586 576.442 521.902 574.935C523.005 573.799 525.049 571.898 525.129 570.241C525.501 562.517 525.445 553.76 525.43 546.032L526.568 544.493C524.54 538.838 523.129 537.79 519.086 533.193C519.032 530.302 519.136 527.322 519.193 524.425Z"/><path fill="#882D10" transform="scale(0.231164 0.231164)" d="M526.568 544.493C525.938 553.012 527.171 562.273 526.138 570.744C525.793 573.571 521.944 576.75 519.464 577.875C520.499 576.022 520.586 576.442 521.902 574.935C523.005 573.799 525.049 571.898 525.129 570.241C525.501 562.517 525.445 553.76 525.43 546.032L526.568 544.493Z"/><path fill="#DE6A29" transform="scale(0.231164 0.231164)" d="M494.678 451.848C497.301 445.642 501.495 443.432 507.427 441.161L507.236 449.27C505.448 451.081 503.796 452.489 502.648 454.74C498.916 457.846 500.531 479.65 500.473 484.997C500.424 489.586 503.776 492.274 507.015 495.015L507.049 501.557C493.314 496.807 493.316 489.145 493.413 476.196C493.478 467.644 493.295 460.376 494.678 451.848Z"/><path fill="#DE6A29" transform="scale(0.231164 0.231164)" d="M518.892 442.05C524.063 444.36 529.855 447.021 531.626 452.965C534.118 461.332 533.133 478.414 532.52 487.215C530.852 495.619 526.595 499.219 519.026 502.57L519.067 495.061C525.915 490.048 526.241 486.372 526.24 478.058C526.24 470.809 526.399 463.549 526.001 456.3C524.1 453.313 521.289 450.905 518.7 448.452C519.133 445.997 518.98 444.516 518.892 442.05Z"/><path fill="#792915" transform="scale(0.231164 0.231164)" d="M515.737 579.031C518.141 571.152 513.212 570.03 515.772 566.303C518.169 569.875 519.039 571.456 521.902 574.935C520.586 576.442 520.499 576.022 519.464 577.875C518.175 578.697 517.224 578.594 515.737 579.031Z"/><path fill="#0F98CA" transform="scale(0.231164 0.231164)" d="M429.894 671.147C431.407 671.362 438.481 674.312 440.254 674.986C450.821 679.004 461.221 683.572 471.845 687.438C472.09 694.817 476.836 718.25 478.374 726.402L489.093 784.725C490.81 793.652 493.36 805.127 494.182 814.036C494.499 817.469 492.286 828.567 491.654 832.465C490.178 841.44 488.856 850.441 487.69 859.462C487.456 862.128 487.013 864.843 486.627 867.497C475.609 835.153 466.234 799.405 456.721 766.322L441.918 713.973C437.913 700.123 433.228 685.112 429.894 671.147Z"/><path fill="#D0EAF8" transform="scale(0.231164 0.231164)" d="M511.012 578.849L511.699 579.102C513.438 585.792 506.489 612.698 504.916 620.801C504.235 624.312 495.73 639.717 493.624 643.772C486.336 657.716 479.153 671.715 472.077 685.768C460.143 681.013 446.225 676.163 434.762 671.311C435.807 669.997 435.568 670.473 436.949 669.311C436.81 667.712 433.755 669.632 433.223 669.977L432.401 670.486L431.922 669.729C432.832 667.385 450.337 647.139 453.365 643.451L499.626 586.623C507.377 588.958 510.623 587.17 511.012 578.849ZM443.194 673.014C442.249 670.616 442.137 670.407 439.695 669.88L440.093 670.547C440.941 672.026 441.708 672.208 443.194 673.014Z"/><path fill="#D0EAF8" fill-opacity="0.9137255" transform="scale(0.231164 0.231164)" d="M439.695 669.88C442.137 670.407 442.249 670.616 443.194 673.014C441.708 672.208 440.941 672.026 440.093 670.547L439.695 669.88Z"/><path fill="#1461AE" transform="scale(0.231164 0.231164)" d="M511.991 615.335C517.29 616.024 520.012 622.736 522.147 627.014C525.402 633.537 528.688 640.047 531.917 646.582L551.908 686.113C539.48 686.181 527.053 686.188 514.625 686.132C500.944 686.117 487.263 686.187 473.583 686.344C480.14 673.242 486.794 660.189 493.546 647.186C497.904 638.747 505.871 621.634 511.991 615.335Z"/><path fill="#DE6A29" transform="scale(0.231164 0.231164)" d="M490.093 551.431C490.088 543.747 490.224 536.682 496.195 530.987C498.873 528.432 502.388 525.131 506.259 525.461C507.61 527.099 507.067 531.662 506.987 534.049C504.024 536.086 500.291 538.891 499.706 542.877C499.171 546.53 499.175 551.237 499.275 554.791C499.414 559.722 498.786 569.686 501.458 573.891C503.739 577.482 514.278 578.181 506.984 585.584C505.292 587.345 501.44 585.567 499.567 584.631C494.219 581.957 491.086 576.332 490.498 570.525C489.676 566.751 489.799 555.441 490.093 551.431Z"/><path fill="#882D10" transform="scale(0.231164 0.231164)" d="M490.093 551.431C490.509 554.988 490.528 566.468 490.498 570.525C489.676 566.751 489.799 555.441 490.093 551.431Z"/><path fill="#DE6A29" transform="scale(0.231164 0.231164)" d="M511.065 484.574C515.431 484.368 517.625 485.279 517.704 490.158C517.974 506.683 518.256 523.304 517.559 539.814C517.503 541.129 516.757 542.069 515.947 543.009C509.166 543.449 508.501 541.715 508.518 535.274C508.56 519.405 508.119 503.421 508.709 487.579C508.731 486.981 510.59 485.071 511.065 484.574Z"/><path fill="#F3F7FA" transform="scale(0.231164 0.231164)" d="M512.146 594.95C513.288 589.21 514.23 597.443 514.417 598.566C513.997 599.304 513.852 599.383 513.205 600.102C512.409 601.092 511.982 606.629 511.862 608.025C512.222 609.679 512.503 610.701 513.019 612.322C517.692 611.679 514.065 610.056 516.812 609.484C517.656 612.543 518.169 615.651 518.75 618.768C516.042 615.21 516.115 615.015 512.547 612.621C510.691 614.409 509.161 615.964 507.385 617.838L507.807 615.499C508.664 610.515 509.857 605.68 510.87 600.743L511.402 598.243C511.653 597.013 511.836 596.19 512.146 594.95Z"/><path fill="#1461AE" fill-opacity="0.98823529" transform="scale(0.231164 0.231164)" d="M511.012 578.849C510.082 575.444 505.984 577.206 510.186 571.671C513.696 567.047 514.554 573.064 514.38 576.006C514.251 578.174 513.63 578.774 511.699 579.102L511.012 578.849Z"/><path fill="#F3F7FA" fill-opacity="0.83529413" transform="scale(0.231164 0.231164)" d="M514.417 598.566C514.924 600.167 515.129 601.869 515.498 603.507L515.948 605.51L516.396 607.511C516.52 608.174 516.64 608.832 516.812 609.484C514.065 610.056 517.692 611.679 513.019 612.322C517.333 609.721 514.506 605.688 511.862 608.025C511.982 606.629 512.409 601.092 513.205 600.102C513.852 599.383 513.997 599.304 514.417 598.566Z"/><path fill="#F3F7FA" fill-opacity="0.47843137" transform="scale(0.231164 0.231164)" d="M511.862 608.025C514.506 605.688 517.333 609.721 513.019 612.322C512.503 610.701 512.222 609.679 511.862 608.025Z"/><path fill="#F3F7FA" fill-opacity="0.78823531" transform="scale(0.231164 0.231164)" d="M432.401 670.486L433.223 669.977C433.755 669.632 436.81 667.712 436.949 669.311C435.568 670.473 435.807 669.997 434.762 671.311C433.952 671.004 433.222 670.754 432.401 670.486Z"/><path fill="#D0EAF8" fill-opacity="0.30588236" transform="scale(0.231164 0.231164)" d="M501.048 834.471C501.384 836.606 501.585 837.991 501.708 840.138C501.589 840.465 501.5 840.808 501.289 841.069L501.249 841.043L501.252 840.908C500.973 840.593 500.8 840.363 500.474 840.132C499.207 840.289 496.409 849.546 499.826 849.726C502.147 848.343 501.387 844.143 501.845 841.458L503.015 852.675C499.97 855.54 496.301 878.756 503.801 873.46C504.198 873.18 503.973 868.489 504.038 867.396C504.478 870.585 506.072 881.252 505.949 883.924C504.208 891.436 501.908 890.821 498.606 897.229L495.192 888.484C495.37 884.897 497.966 881.666 500.759 886.242C498.681 898.441 505.878 888.421 503.722 878.319C502.445 877.155 501.257 880.815 499.568 875.783C499.31 871.523 498.989 865.681 498.159 861.697C497.9 860.449 490.332 859.519 489.626 858.584L489.292 858.135C489.623 855.735 490.017 853.344 490.472 850.964C490.494 852.063 490.488 853.111 490.393 854.202C490.606 854.525 490.486 854.42 490.701 854.567C490.939 854.567 491.582 854.2 491.759 854.075C492.87 853.285 494.015 854.887 494.979 853.998C495.833 853.209 495.704 852.219 495.902 851.249C496.625 847.715 495.201 843.528 496.906 840.294C497.414 839.337 498.36 838.698 499.333 838.338C499.423 838.306 500.31 838.127 500.526 838.102C500.556 838.113 500.585 838.125 500.615 838.136C501.159 837.471 501.005 835.266 501.048 834.471Z"/><path fill="#D0EAF8" fill-opacity="0.78823531" transform="scale(0.231164 0.231164)" d="M489.292 858.135L489.626 858.584C490.332 859.519 497.9 860.449 498.159 861.697C498.989 865.681 499.31 871.523 499.568 875.783L499.565 876.275C499.578 879.955 500.079 879.373 496.513 879.192C496.535 877.859 496.791 871.561 493.756 873.489C492.07 874.559 491.813 877.828 491.415 879.684C490.602 877.418 489.681 875.306 488.866 873.027C489.864 871.435 492.59 865.791 488.042 868.719L487.513 869.041C487.594 868.189 487.672 867.368 487.773 866.518C488.185 864.442 488.663 859.787 489.292 858.135Z"/><path fill="#D0EAF8" fill-opacity="0.027450981" transform="scale(0.231164 0.231164)" d="M503.015 852.675C503.083 857.486 504.019 862.966 504.038 867.396C503.973 868.489 504.198 873.18 503.801 873.46C496.301 878.756 499.97 855.54 503.015 852.675Z"/><path fill="#D0EAF8" fill-opacity="0.76862746" transform="scale(0.231164 0.231164)" d="M499.568 875.783C501.257 880.815 502.445 877.155 503.722 878.319C505.878 888.421 498.681 898.441 500.759 886.242C500.455 879.91 496.673 884.762 496.549 880.089L496.513 879.192C500.079 879.373 499.578 879.955 499.565 876.275L499.568 875.783Z"/><path fill="#882D10" fill-opacity="0.98823529" transform="scale(0.231164 0.231164)" d="M512.1 69.4505C513.425 76.3662 513.939 82.6923 515.988 89.4995C517.227 93.616 519.221 98.5485 520.212 102.569C518.055 99.6369 513.815 86.5141 513.434 82.7457C513.207 80.5973 512.865 78.4626 512.409 76.3508C511.385 80.9247 510.288 88.9558 507.862 92.5901C509.464 84.3953 510.922 77.8732 512.1 69.4505Z"/><path fill="#D0EAF8" fill-opacity="0.56470591" transform="scale(0.231164 0.231164)" d="M491.415 879.684C491.813 877.828 492.07 874.559 493.756 873.489C496.791 871.561 496.535 877.859 496.513 879.192L496.549 880.089C496.673 884.762 500.455 879.91 500.759 886.242C497.966 881.666 495.37 884.897 495.192 888.484C494.342 887.413 493.567 884.962 493.173 883.644C499.316 875.724 494.026 872.477 491.722 880.081C491.62 879.949 491.517 879.817 491.415 879.684Z"/><path fill="#F3F7FA" fill-opacity="0.43137255" transform="scale(0.231164 0.231164)" d="M501.708 840.138C501.902 840.77 501.85 840.724 501.845 841.458C501.387 844.143 502.147 848.343 499.826 849.726C496.409 849.546 499.207 840.289 500.474 840.132C500.8 840.363 500.973 840.593 501.252 840.908L501.249 841.043L501.289 841.069C501.5 840.808 501.589 840.465 501.708 840.138Z"/><path fill="#F3F7FA" fill-opacity="0.98823529" transform="scale(0.231164 0.231164)" d="M507.175 914.278C508.143 914.256 507.873 914.189 508.709 913.977C509.544 914.938 509.489 924.133 509.432 925.91C508.675 923.933 506.031 916.916 506.117 915.231L507.175 914.278Z"/><path fill="#D0EAF8" fill-opacity="0.33333334" transform="scale(0.231164 0.231164)" d="M491.722 880.081C494.026 872.477 499.316 875.724 493.173 883.644C492.681 882.287 492.321 881.387 491.722 880.081Z"/><path fill="#792915" transform="scale(0.231164 0.231164)" d="M485.426 869.658C485.769 868.892 486.368 866.793 487.176 866.638L487.773 866.518C487.672 867.368 487.594 868.189 487.513 869.041C487.958 870.234 488.344 871.732 488.712 872.983L488.534 873.56C488.34 874.256 487.994 874.538 487.421 874.948C486.708 873.203 486.043 871.439 485.426 869.658Z"/><path fill="#D0EAF8" fill-opacity="0.57647061" transform="scale(0.231164 0.231164)" d="M487.513 869.041L488.042 868.719C492.59 865.791 489.864 871.435 488.866 873.027L488.712 872.983C488.344 871.732 487.958 870.234 487.513 869.041Z"/></svg>