<?xml version="1.0" encoding="utf-8" ?><svg xmlns="http://www.w3.org/2000/svg" xmlns:xlink="http://www.w3.org/1999/xlink" width="209" height="209" viewBox="0 0 209 209"><path fill="#BA8F65" transform="scale(0.204161 0.204161)" d="M131.506 120.558C139.303 119.781 155.511 120.277 163.809 120.309L226.394 120.641L416.53 120.987C523.434 119.862 630.345 119.699 737.252 120.497L822.103 120.852C844.479 120.966 869.473 121.252 891.821 122.536C921.417 124.238 952.921 128.842 981.422 136.669C988.473 138.605 996.004 140.186 1001.95 144.409C983.611 141.445 976.268 142.296 957.975 143.64C891.194 148.548 825.284 174.728 769.164 210.795C711.41 247.912 655.545 302.173 627.393 365.753C618.619 385.569 615.587 399.423 610.988 419.9C610.901 419.78 610.813 419.661 610.725 419.541L610.299 418.935C603.041 408.796 594.936 385.487 583.959 378.998C583.558 388.511 585.601 399.954 583.49 409.654C583.338 411.182 582.93 413.042 582.572 414.557C580.096 428.281 575.712 437.196 571.96 450.302C563.279 480.625 560.056 505.439 568.286 536.629C570.573 545.295 572.334 552.406 575.721 561.006C578.302 567.56 581.749 572.458 584.381 578.363C575.503 573.706 565.897 570.304 556.61 566.577C530.477 556.088 501.068 555.227 473.785 561.635C458.227 565.289 443.369 570.65 427.487 574.152C424.607 574.729 421.778 575.513 418.878 575.813C404.339 577.772 397.138 577.671 382.607 574.809C389.727 585.48 401.188 593.71 412.763 598.951C417.73 601.2 423.43 603.258 428.082 606.011C413.925 606.029 401.037 610.173 387.727 614.516C337.099 631.036 293.253 664.235 259.216 704.841C211.173 762.158 175.792 833.758 155.726 905.683C149.847 927.111 145.613 949.452 143.916 971.682C142.818 986.071 144.17 992.998 145.411 1006.56C136.191 989.55 130.05 950.739 128.437 931.178C127.689 922.099 127.599 909.169 127.43 899.872C127.089 879.728 126.965 859.581 127.058 839.435L127.02 704.607C126.788 631.643 127.088 558.679 127.919 485.72C128.226 462.658 129.562 440.152 129.923 417.324C130.995 318.405 131.522 219.482 131.506 120.558Z"/><path fill="#080807" transform="scale(0.204161 0.204161)" d="M362.614 354.07C369.807 357.213 381.865 360.007 389.994 359.628C452.824 356.702 522.06 298.56 579.222 351.779C587.688 359.662 591.314 367.077 593.999 378.057C585.342 371.839 580.784 374.139 572.951 379.975C578.55 388.027 580.613 393.956 582.082 403.587C582.721 406.211 582.393 407.054 583.49 409.654C583.338 411.182 582.93 413.042 582.572 414.557C580.096 428.281 575.712 437.196 571.96 450.302C563.279 480.625 560.056 505.439 568.286 536.629C570.573 545.295 572.334 552.406 575.721 561.006C578.302 567.56 581.749 572.458 584.381 578.363C575.503 573.706 565.897 570.304 556.61 566.577C530.477 556.088 501.068 555.227 473.785 561.635C458.227 565.289 443.369 570.65 427.487 574.152C424.607 574.729 421.778 575.513 418.878 575.813C418.586 573.897 413.957 574.634 411.815 574.29C400.198 572.169 394.831 569.76 384.196 564.909C379.528 572.186 380.351 576.43 381.8 584.326C377.198 583.009 372.832 580.974 368.863 578.297C358.222 571.261 349.462 560.009 343.375 548.943C327.164 519.475 333.622 487.028 345.039 457.196C349.285 446.099 355.295 433.793 358.503 422.253C364.538 400.543 367.238 376.191 362.614 354.07Z"/><path fill="#BA8F65" transform="scale(0.204161 0.204161)" d="M408.604 378.473C424.45 376.004 447.418 368.511 462.954 363.565C474.636 359.216 485.288 354.903 497.543 352.211C536.169 343.726 573.454 363.246 581.153 404.398L582.082 403.587C582.721 406.211 582.393 407.054 583.49 409.654C583.338 411.182 582.93 413.042 582.572 414.557C580.096 428.281 575.712 437.196 571.96 450.302C563.279 480.625 560.056 505.439 568.286 536.629C570.573 545.295 572.334 552.406 575.721 561.006C578.302 567.56 581.749 572.458 584.381 578.363C575.503 573.706 565.897 570.304 556.61 566.577C530.477 556.088 501.068 555.227 473.785 561.635C458.227 565.289 443.369 570.65 427.487 574.152C424.607 574.729 421.778 575.513 418.878 575.813C418.586 573.897 413.957 574.634 411.815 574.29L411.99 573.04C406.751 572.48 401.613 570.631 396.67 568.994C379.967 563.459 368.87 549.325 361.577 533.842C347.19 503.299 361.934 472.707 371.035 442.991C375.131 429.619 378.916 411.666 383.771 398.687C386.952 405.497 390.091 412.328 393.186 419.178C383.873 442.113 374.775 482.106 373.288 507.66C372.984 512.871 374.885 519.239 376.763 524.335C382.464 539.802 406.005 558.35 422.521 558.436C428.607 558.467 443.943 551.824 451 549.615C485.166 538.92 522.448 535.892 556.171 550.087C547.086 528.349 542.041 499.567 547.189 476.61C548.535 468.158 551.481 460.538 553.982 452.445C558.294 438.487 568.417 420.845 564.311 406.191C560.395 391.92 551.897 380.504 539.074 373.036C514.16 358.527 490.899 369.844 466.116 377.632C454.079 381.35 442.019 384.989 429.935 388.55C423.592 385.929 414.992 381.508 408.604 378.473Z"/><path fill="#4F321C" transform="scale(0.204161 0.204161)" d="M411.99 573.04C416.705 573.608 422.764 574.229 427.487 574.152C424.607 574.729 421.778 575.513 418.878 575.813C418.586 573.897 413.957 574.634 411.815 574.29L411.99 573.04Z"/><path fill="#4F321C" transform="scale(0.204161 0.204161)" d="M582.082 403.587C582.721 406.211 582.393 407.054 583.49 409.654C583.338 411.182 582.93 413.042 582.572 414.557C581.916 411.63 581.532 407.413 581.153 404.398L582.082 403.587Z"/><path fill="#BA8F65" transform="scale(0.204161 0.204161)" d="M368.341 361.061C375.666 363.75 389.197 371.026 396.901 374.737L443.863 396.84C455.302 402.301 466.803 407.841 478.419 412.905C488.4 417.256 498.553 420.862 508.401 425.546C518.132 406.481 529.821 393.762 544.703 378.985C548.996 382.492 551.94 385.469 555.82 389.372C554.596 390.573 553.409 391.812 552.26 393.086C524.906 422.876 511.082 455.578 515.75 496.036C516.329 501.058 517.733 507.512 517.881 512.392L517.902 513.343C467.467 504.047 434.748 512.061 396.429 546.536C392.134 542.412 386.971 537.939 383.181 533.501C402.35 517.778 411.558 512.058 434.199 502.644C432.934 499.877 431.518 497.318 429.981 494.702C410.706 461.909 398.359 425.449 382.131 391.104C377.602 381.519 372.105 370.908 368.341 361.061Z"/><path fill="#080807" transform="scale(0.204161 0.204161)" d="M402.885 396.63C406.658 397.551 418.092 402.939 422.482 404.724C449.315 415.67 475.869 427.289 502.117 439.571C496.573 459.041 494.49 472.406 497.727 492.867C497.877 493.553 497.83 493.109 497.614 494.204C496.893 494.285 487.048 492.9 485.11 492.761C473.261 491.919 461.353 492.978 449.839 495.897C435.476 471.917 422.854 449.005 413.256 422.555C410.104 413.869 405.838 405.513 402.885 396.63Z"/><path fill="#BA8F65" transform="scale(0.204161 0.204161)" d="M454.861 419.636C460.655 421.996 466.349 424.733 472.142 427.118C470.183 432.691 467.768 441.53 466.605 447.255C465.667 451.74 464.879 456.255 464.244 460.793C456.601 461.243 450.121 462.027 442.609 463.652C439.695 464.418 436.809 465.074 433.864 465.875C431.043 460 429.405 456.032 427.103 449.916C431.52 448.605 435.5 447.567 440.005 446.573L443.744 445.862C445.056 445.6 446.384 445.36 447.682 445.09C449.375 437.683 452.597 427.151 454.861 419.636Z"/><path fill="#BA8F65" transform="scale(0.204161 0.204161)" d="M502.829 368.103C504.559 367.982 503.95 368.856 503.152 369.81C492.367 382.692 485.643 396.56 478.046 411.31C474.371 409.704 470.961 408.18 467.314 406.487L461.553 403.665C463.463 397.512 471.583 381.804 475.313 375.963C484.05 372.83 493.724 369.902 502.829 368.103Z"/><path fill="#BA8F65" transform="scale(0.204161 0.204161)" d="M407.639 456.38C407.838 456.36 408.636 456.241 408.733 456.401C410.674 459.595 414.911 469.21 416.237 472.206C404.23 477.888 393.385 482.976 381.936 489.939C379.809 491.057 377.718 492.242 375.665 493.491C376.914 486.656 379.108 479.257 380.1 472.626L380.256 471.689C387.911 465.453 398.781 461.159 407.639 456.38Z"/><path fill="#080807" transform="scale(0.204161 0.204161)" d="M716.934 140.419C724.615 139.926 810.656 139.753 811.532 140.417C810.357 140.919 810.198 141.068 808.95 141.213C796.745 144.639 782.897 148.219 770.894 152.234C714.417 171.125 659.797 198.24 610.606 231.809C594.827 242.576 580.269 254.226 565.723 266.508C559.037 272.153 551.858 277.105 545.217 282.941C541.26 275.094 536.089 267.948 531.382 260.56C525.018 250.57 517.894 239.411 512.587 228.843C520.491 236.207 525.448 245.393 534.826 251.961C533.79 253.586 532.712 255.196 531.825 256.905L532.469 257.164C539.344 259.983 552.763 269.128 558.486 269.632L559.11 269.058C558.607 268.118 554.634 262.061 553.987 261.435C550.664 258.222 547.709 238.445 545.89 237.334C542.564 237.855 541.561 240.447 539.922 243.154L533.994 237.325C537.893 234.836 543.16 230.96 546.979 229.024C553.796 231.787 558.116 234.063 562.204 240.641C563.673 238.402 565.79 235.895 565.258 233.061C564.294 227.916 555.579 225.618 551.157 224.33C555.628 222.763 559.583 221.465 563.85 219.349C566.57 224.514 568.83 228.878 570.765 234.469C567.393 239.878 563.649 245.409 560.395 250.786C567.905 246.947 576.755 242.096 584.702 239.569C577.684 224.935 564.321 198.686 553.096 187.02C559.085 184.968 565.085 182.949 571.097 180.964C567.649 184.883 565.99 187.27 563.708 191.988C570.047 195.206 606.532 204.823 613.792 205.96C612.126 207.285 610.488 209.211 608.872 209.106C607.68 207.075 607.631 206.125 605.296 205.581C602.864 205.014 600.409 204.495 597.974 203.936C599.603 211.173 601.196 218.668 603.044 225.829C635.503 200.108 671.667 182.666 709.246 165.622C722.865 159.446 738.135 153.867 751.336 147.739C725.467 145.618 697.864 146.916 671.999 148.983C642.537 151.336 609.939 155.611 581.172 163.173C531.745 176.166 483.091 198.993 438.371 223.538C417.818 234.819 393.523 248.192 375.481 262.684C360.855 274.433 349.909 291.877 348.855 310.775C348.346 319.898 348.915 333.554 353.3 341.919L352.082 341.973C341.766 334.598 328.61 334.204 316.373 336.094C293.913 339.565 282.397 353.189 268.86 369.653C262.722 376.97 256.857 384.512 251.278 392.263C244.135 402.304 238.004 412.693 231.407 422.713C195.431 477.352 173.793 535.58 163.51 600.114C160.225 620.727 156.333 641.649 154.431 662.764C152.821 680.632 152.125 697.953 152.354 715.93C152.46 724.248 151.997 733.444 153.394 741.658C153.76 743.852 154.351 746.002 155.158 748.075C171.622 702.6 194.624 637.328 227.691 602.063C222.942 597.354 217.956 592.89 212.752 588.69C214.978 585.951 217.263 583.26 219.604 580.618L211.613 575.251C209.039 577.872 205.692 582.459 203.094 583.953C203.822 587.134 204.749 591.852 205.667 594.861C209.373 597.383 213.01 600.005 216.574 602.723C213.865 605.95 211.66 608.105 208.617 611.055C206.818 604.747 205.147 598.403 203.605 592.027C202.479 587.439 201.214 580.298 199.248 576.362C195.584 574.922 191.34 573.132 187.643 571.947C190.453 568.015 202.978 555.479 196.294 552.095C191.734 552.34 187.321 558.277 184.207 561.741C186.242 552.558 186.955 543.131 189.245 534.233C195.509 542.35 203.65 550.516 209.061 557.815C206.808 559.425 205.869 560.088 203.871 562.07C204.423 567.54 204.919 570.323 206.659 575.584C207.837 573.445 211.912 566.571 212.251 564.524C211.447 562.488 211.154 562.787 211.756 561.315C212.95 561.275 212.688 561.077 213.8 562.219C220.941 569.557 228.048 576.625 235.488 583.668C241.767 578.495 255.686 566.042 260.921 560.081C243.633 566.418 232.21 576.319 218.438 555.888C223.344 545.998 224.095 521.312 212.399 515.511C206.892 512.78 199.576 515.332 194.074 516.967C196.381 510.741 199.177 504.708 202.435 498.923C211.689 505.971 223.231 514.289 231.753 521.84C226.348 530.511 221.125 540.559 223.159 551.145C225.378 562.697 242.712 569 250.305 558.973C250.911 558.178 250.667 558.064 250.493 557.135C246.658 554.74 235.115 555.856 232.798 546.813C231.501 541.752 234.996 534.967 237.823 530.781C238.415 529.909 239.028 529.051 239.66 528.206C243.827 531.373 249.221 535.268 253.164 538.562L250.975 543.324C256.947 545.433 271.282 549.547 277.376 550.294C259.581 572.058 244.083 591.729 228.639 615.435C195.772 666.233 170.521 721.571 153.69 779.686C150.588 790.502 147.052 802.737 144.949 813.759L144.95 815.239L144.29 815.772C143.822 813.694 144.016 797.51 143.996 794.203L143.906 756.645C143.903 749.342 143.66 739.313 144.401 732.24C144.45 720.706 144.606 709.172 144.867 697.641C146.715 631.593 159.252 553.518 181.081 490.872C194.135 453.698 210.811 417.897 230.866 383.984C251.035 349.594 276.199 315.649 305.106 287.997C317.4 276.237 333.045 265.151 346.838 255.18C449.54 180.931 590.221 136.844 716.934 140.419Z"/><path fill="#291E15" transform="scale(0.204161 0.204161)" d="M716.934 140.419C724.615 139.926 810.656 139.753 811.532 140.417C810.357 140.919 810.198 141.068 808.95 141.213C806.411 139.481 727.658 141.45 716.934 140.419Z"/><path fill="#775A41" transform="scale(0.204161 0.204161)" d="M144.949 813.759L144.95 815.239L144.29 815.772C143.822 813.694 144.016 797.51 143.996 794.203L143.906 756.645C143.903 749.342 143.66 739.313 144.401 732.24C144.938 752.132 143.943 772.841 144.397 792.816C144.485 796.649 144.212 810.515 144.949 813.759Z"/><path fill="#BA8F65" transform="scale(0.204161 0.204161)" d="M582.871 200.981C585.494 201.041 589.675 202.217 592.291 202.809C589.794 207.31 588.366 211.455 586.035 215.986C584.007 215.761 582.884 215.555 580.77 215.456C578.608 215.507 576.89 215.538 574.735 215.829C572.716 212.21 571.846 210.404 570.131 206.6C574.418 204.864 578.811 203.182 582.871 200.981Z"/><path fill="#080807" transform="scale(0.204161 0.204161)" d="M557.615 132.665C560.48 132.467 564.001 132.816 566.984 132.736C572.609 132.585 577.18 132.373 582.83 132.779C580.203 133.169 577.581 133.546 574.937 133.793C518.477 143.795 455.408 163.396 403.672 188.344C380.551 199.493 351.822 217.396 329.672 231.254C332.583 232.475 338.355 235.111 341.127 235.99L340.246 236.711C299.607 221.801 252.237 212.327 209.147 207.852C222.078 248.608 231.03 285.902 235.438 328.556C234.887 329.122 234.402 329.519 233.803 330.031C221.185 350.861 208.951 369.577 197.41 391.236C170.076 443.622 150.914 499.878 140.586 558.056C139.855 550.737 140.492 531.322 140.492 522.711C140.444 509.624 140.503 496.537 140.671 483.451C140.757 477.932 140.448 468.731 141.493 463.603C151.319 415.393 167.718 367.313 193.641 325.3C203.048 310.054 214.031 292.969 227.231 280.991C225.593 274.375 223.993 267.532 222.255 260.96C190.203 297.453 164.44 339.022 146.022 383.966C146.963 375.52 146.69 363.338 146.72 354.538C146.792 337.667 146.778 320.795 146.679 303.923C146.589 275.703 146.67 247.483 146.922 219.264C146.772 192.914 146.964 166.563 147.499 140.218L157.806 140.003L157.949 158.713C167.112 167.319 177.108 179.039 185.995 188.368L158.067 188.587L156.611 295.668C156.374 307.75 156.906 327.941 155.812 339.344L157.157 340.063C161.359 334.494 170.195 318.009 174.119 311.588C177.872 305.448 200.906 274.402 201.273 271.75L200.863 270.483C202.278 268.631 200.92 205.896 200.951 197.952C209.382 197.685 281.888 197.827 283.403 196.18C285.122 194.312 284.473 190.242 284.412 187.859C269.855 187.425 253.602 187.683 238.962 187.734L238.965 176.785C243.222 180.336 245.308 182.605 248.601 187.032C252.095 182.197 258.369 176.613 262.813 172.324L251.822 172.52L251.744 164.503C268.1 164.527 289.025 163.534 305.468 162.621C299.329 167.868 293.428 173.01 286.917 177.808C287.027 183.346 286.73 187.797 286.363 193.303C309.128 175.055 330.486 160.55 356.908 147.562C325.566 147.285 293.186 149.526 261.745 149.926C238.212 150.225 214.854 149.707 191.331 149.16L191.307 174.479C180.834 163.525 170.479 151.342 159.874 140.058L397.143 140.018C345.951 162.571 312.46 176.794 269.878 215.781C276.194 217.149 282.405 218.449 288.652 220.114C298.016 212.544 309.461 205.167 319.252 198.329C360.682 169.393 404.267 152.25 453.237 140.323C463.726 137.768 477.421 134.429 487.972 133.112C494.704 132.272 507.324 132.578 514.64 132.553C528.965 132.431 543.291 132.468 557.615 132.665Z"/><path fill="#291E15" transform="scale(0.204161 0.204161)" d="M557.615 132.665C560.48 132.467 564.001 132.816 566.984 132.736C572.609 132.585 577.18 132.373 582.83 132.779C580.203 133.169 577.581 133.546 574.937 133.793C571.904 131.985 559.875 134.076 557.615 132.665Z"/><path fill="#B1865F" transform="scale(0.204161 0.204161)" d="M155.812 339.344L157.157 340.063C157.037 340.312 156.44 342.078 155.883 341.704C155.66 341.189 155.808 339.924 155.812 339.344Z"/><path fill="#BA8F65" transform="scale(0.204161 0.204161)" d="M158.343 166.232C161.438 168.849 166.767 175.249 170.671 178.92C169.357 180.122 168.021 181.299 166.661 182.448C159.504 188.206 157.536 189.882 158.298 180.156C158.623 176.011 158.092 170.704 158.343 166.232Z"/><path fill="#BA8F65" transform="scale(0.204161 0.204161)" d="M264.492 177.11C271.403 177.283 278.166 177.093 285.028 177.247C284.869 179.073 284.642 180.881 284.459 182.706C281.702 182.737 267.561 183.092 264.792 182.119C264.277 181.938 264.467 178.069 264.492 177.11Z"/><path fill="#BA8F65" transform="scale(0.204161 0.204161)" d="M187.451 147.019C188.814 148.161 182.659 159.588 181.718 161.475C180.584 160.071 179.431 158.683 178.259 157.31C177.036 155.671 174.885 153.296 173.456 151.537C179.039 149.912 182.023 149.225 187.451 147.019Z"/><path fill="#080807" transform="scale(0.204161 0.204161)" d="M256.317 411.334C257.952 408.834 259.654 406.295 261.244 403.775C269.872 409.761 278.155 416.231 286.051 423.153C284.574 435.13 284.923 463.077 293.405 471.876C298.095 463.257 301.996 455.004 312.27 452.052C319.09 450.093 322.927 453.85 328.171 457.519C327.101 461.307 326.029 465.384 324.779 469.088C319.6 464.526 313.407 459.413 307.814 455.339C305.669 456.967 303.677 458.404 301.763 460.318C305.984 464.957 316.698 475.061 321.839 478.941C315.599 508.315 314.207 535.905 331.207 562.14C343.682 581.393 359.003 589.405 378.512 599.829C363.646 604.366 346.425 612.707 333.087 620.62C271.933 656.901 225.76 716.199 192.804 778.228C178.489 805.481 166.328 833.812 156.432 862.962C153.409 871.785 151.047 880.422 148.209 889.194L147.197 888.827C150.946 864.624 155.61 838.605 161.55 814.769C181.164 735.195 216.405 660.315 265.224 594.486C279.259 575.364 300.45 548.418 317.787 532.36C316.345 523.747 316.006 518.735 316.007 510.077C308.185 519.076 297.951 528.324 289.297 537.876C286.569 534.298 279.072 526.035 277.841 522.49C275.388 515.423 277.337 514.272 272.872 506.929C270.736 509.236 268.631 511.572 266.557 513.935C259.439 509.659 247.122 498.811 240.502 493.132C242.99 490.035 245.049 487.023 247.312 483.755C245.453 482.666 243.229 481.644 241.272 480.687C238.59 482.614 235.419 485.775 232.933 488.111C228.066 483.127 221.005 478.525 215.16 474.654C216.918 470.861 221.211 464.353 223.599 460.547C229.159 464.939 233.653 469.253 238.746 474.132C236.642 475.466 235.117 476.127 234.488 478.443C236.69 480.414 241.628 479.707 244.799 479.614L244.13 479.038C249.154 483.112 254.621 486.69 259.85 490.644C257.959 492.924 256.127 495.411 254.326 497.774C256.499 499.149 258.687 500.502 260.888 501.833L265.181 496.889C271.807 501.223 296.761 524.084 302.993 520.203C302.134 514.839 277.903 493.909 272.793 489.153C275.012 486.348 277.17 483.494 279.264 480.595C277.476 479.387 275.014 478.166 273.068 477.128L266.566 483.134C262.713 480.242 258.743 476.888 254.985 473.832C259.056 471.165 264.173 468.474 268.482 466.073C279.592 475.114 288.279 483.509 298.608 493.43C296.84 495.288 294.69 497.266 292.825 499.066C296.987 500.564 310.974 504.899 315.414 504.17C316.159 504.048 316.228 503.557 316.68 502.815C316.705 499.144 311.816 493.591 309.318 490.966L314.234 483.494L311.325 480.18C308.682 482.361 307.758 483.048 305.628 485.759C298.235 478.687 287.162 468.075 279.632 461.772C277.529 460.022 275.378 458.33 273.183 456.697C272.657 456.313 272.121 455.944 271.59 455.554C260.657 448.059 251.526 441.772 238.691 437.436C243.03 431.178 248.124 423.416 252.724 417.505C255.812 421.092 256.655 422.072 260.18 425.041C256.783 432.618 256.14 433.381 255.026 441.515C260.133 439.316 264.683 435.717 269.169 432.411C273.882 437.181 278.951 442.126 284.147 446.374L283.253 433.641C279.611 429.861 276.51 427.165 272.912 423.643C273.27 421.854 273.614 420.022 273.995 418.242L268.746 413.661L265.58 417.006L256.317 411.334Z"/><path fill="#BA8F65" transform="scale(0.204161 0.204161)" d="M273.263 455.127C277.033 453.444 280.741 451.626 284.38 449.675C284.902 452.302 285.351 454.944 285.783 457.587C283.292 458.708 282.076 459.258 279.533 460.05L279.632 461.772C277.529 460.022 275.378 458.33 273.183 456.697C272.657 456.313 272.121 455.944 271.59 455.554L273.263 455.127Z"/><path fill="#100806" transform="scale(0.204161 0.204161)" d="M271.59 455.554L273.263 455.127C275.114 456.673 278.22 458.45 279.533 460.05L279.632 461.772C277.529 460.022 275.378 458.33 273.183 456.697C272.657 456.313 272.121 455.944 271.59 455.554Z"/><path fill="#080807" transform="scale(0.204161 0.204161)" d="M886.6 143.255C887.529 142.955 888.522 142.914 889.488 142.802L889.469 143.912C888.936 144.015 888.402 144.118 887.869 144.221C875.759 147.184 855.786 153.846 843.787 158.278C761.261 188.764 683.731 243.559 634.718 317.434C624.247 333.217 616.689 348.522 608.889 365.604C606.538 361.605 604.593 357.095 602.277 353.112C593.996 338.868 575.394 325.463 560.179 319.967C546.898 315.17 520.167 313.623 505.989 316.278C501.359 297.438 488.441 272.903 473.956 259.73C473.441 262.429 472.324 269.122 473.215 271.462C476.772 280.803 485.232 292.178 490.639 300.498C493.909 305.519 497.022 310.641 499.973 315.855C496.605 316.983 492.139 317.964 488.608 318.837L489.643 305.705C486.459 307.142 482.746 309.444 479.668 311.241C476.676 307.336 473.065 302.048 470.172 297.925C464.689 290.111 455.491 280.029 454.314 270.415C451.643 269.668 448.944 269.149 446.229 268.582L442.919 263.514C446.871 259.599 449.542 257.369 454.205 254.407C447.566 254.239 445.921 254.56 439.388 256.221C435.707 251.826 432.887 248.743 428.349 245.242C434.186 241.683 442.168 237.076 448.143 233.978C451.873 241.67 457.326 248.294 461.892 255.69C456.374 272.395 456.845 283.96 474.847 291.837C466.566 276.059 469.929 258.477 482.122 245.872C484.376 249.549 486.616 253.715 488.749 257.498L481.576 263.543L487.474 270.661L493.272 265.693C497.308 271.853 501.061 278.195 504.517 284.699L501.6 287.704C507.947 292.483 514.417 297.096 521.005 301.537C521.099 290.691 521.106 281.961 522.338 271.282C519.125 273.262 515.249 275.302 511.913 277.161C508.819 272.043 505.023 263.832 502.247 258.268L513.378 250.122C523.329 264.028 530.195 273.852 543.094 285.075C530.839 294.138 520.818 304.042 510.04 314.71C519.993 313.812 525.896 313.78 535.85 314.16C544.797 306.546 552.974 297.766 561.719 290.297C576.255 277.883 592.622 264.918 608.202 253.647C676.649 204.956 754.093 170.358 836.031 151.862C852.021 148.317 870.227 144.68 886.6 143.255Z"/><path fill="#100806" transform="scale(0.204161 0.204161)" d="M886.6 143.255C887.529 142.955 888.522 142.914 889.488 142.802L889.469 143.912C888.936 144.015 888.402 144.118 887.869 144.221C887.25 143.621 887.281 143.551 886.6 143.255Z"/><path fill="#080807" transform="scale(0.204161 0.204161)" d="M232.562 225.797C259.796 230.628 295.333 239.248 320.984 250.164C306.669 260.064 296.802 267.912 284.172 280.075C272.791 291.165 263.099 304.275 253.592 316.988C251.505 290.85 240.14 251.355 232.562 225.797Z"/><path fill="#080807" transform="scale(0.204161 0.204161)" d="M322.416 351.679C322.753 351.647 323.089 351.615 323.426 351.583C332.881 350.791 342.257 353.834 349.444 360.028C349.717 364.808 349.911 369.613 350.565 374.354C347.586 368.942 345.058 364.415 339.404 361.203C329.788 355.74 316.821 356.678 306.544 359.488C315.122 361.455 326.974 365.818 334.099 371.081C317.657 365.016 310.078 366.435 292.977 370.431C305.675 382.929 318.356 390.936 332.774 401.226C337.063 404.664 342.07 408.277 346.499 411.615C344.246 418.955 342.194 425.292 339.54 432.499C326.408 415.077 324.604 422.092 319.867 398.509C317.391 401.041 314.704 404.224 312.324 406.914C307.235 402.75 302.299 398.403 297.527 393.88C299.025 391.108 299.508 389.884 300.584 386.968L295.854 384.638L291.53 389.063L278.447 379.15C289.598 366.382 305.151 354.049 322.416 351.679Z"/><path fill="#080807" transform="scale(0.204161 0.204161)" d="M189.341 235.54C189.461 234.826 189.44 234.385 190.007 233.941C190.253 233.901 190.144 233.875 190.338 233.996C190.764 234.918 190.294 245.409 190.074 247.027C189.948 253.815 189.439 263.752 189.691 270.361C189.793 271.087 189.246 271.049 188.597 271.347C183.481 280.134 176.273 290.609 170.638 299.707C171.255 294.698 171.299 284.474 171.434 279.066C171.8 264.318 172.025 248.348 171.177 233.602C175.402 239.558 180.354 245.436 184.958 251.151C186.034 245.279 187.303 241.106 189.341 235.54Z"/><path fill="#4F321C" transform="scale(0.204161 0.204161)" d="M189.341 235.54C189.461 234.826 189.44 234.385 190.007 233.941C190.253 233.901 190.144 233.875 190.338 233.996C190.764 234.918 190.294 245.409 190.074 247.027C189.845 243.733 190.472 237.701 189.341 235.54Z"/><path fill="#BA8F65" transform="scale(0.204161 0.204161)" d="M181.379 257.99C188.539 257.844 186.727 257.259 186.758 264.537C186.78 269.713 186.951 270.738 184.42 275.198C183.882 275.944 183.098 277.476 182.149 277.82C182.091 277.841 181.774 277.837 181.769 277.766C181.347 271.282 181.513 264.537 181.379 257.99Z"/><path fill="#080807" transform="scale(0.204161 0.204161)" d="M676.579 165.252L677.483 165.116L677.451 165.571L676.902 165.553L676.947 165.969C672.763 168.493 665.815 171.931 661.289 174.306C648.95 180.783 638.632 186.656 627.061 194.348L623.454 186.923C620.66 181.484 617.668 176.481 614.567 171.22C633.978 168.119 656.72 166.964 676.579 165.252Z"/><path fill="#BA8F65" transform="scale(0.204161 0.204161)" d="M622.309 174.688C628.401 174.777 634.486 175.134 640.546 175.757C638.214 177.264 636.254 178.35 633.903 179.756C630.719 181.453 627.229 183.474 624.057 185.267C623.048 181.387 622.561 178.704 622.309 174.688Z"/><path fill="#080807" transform="scale(0.204161 0.204161)" d="M388.294 272.963C388.803 275.38 391.73 284.989 391.593 286.736C389.618 311.883 400.828 325.885 423.714 338.592C418.034 339.912 411.659 341.478 405.877 342.311C404.323 342.534 404.449 342.206 403.443 341.215C392.64 327.106 391.737 318.012 389.937 300.892C387.232 306.939 385.988 311.031 384.236 317.332C379.456 303.204 374.424 283.777 388.294 272.963Z"/><path fill="#080807" transform="scale(0.204161 0.204161)" d="M274.484 385.341C276.436 386.499 283.604 394.535 285.565 396.699C284.492 398.667 283.036 400.652 281.755 402.513C283.436 403.655 285.374 404.82 287.108 405.917L290.741 402.038C295.94 406.24 301.602 410.458 306.1 415.32C305.764 417.938 304.659 424.19 308.172 424.674C309.972 423.999 310.983 422.408 312.236 420.89C318.367 424.565 330.849 434.212 336.347 438.855L332.312 447.712L331.233 449.211C330.159 448.956 299.646 420.822 295.538 417.369C295.671 414.158 296.36 410.075 294.26 407.705L293.118 407.782C291.308 409.053 290.951 410.376 289.99 412.435C284.197 408.228 272.2 399.068 266.447 395.923C268.735 392.564 271.957 388.615 274.484 385.341Z"/><path fill="#080807" transform="scale(0.204161 0.204161)" d="M401.036 262.948C404.722 264.928 425.169 291.183 429.244 295.86C431.798 298.791 435.569 303.304 428.505 300.131C426.643 302.245 424.735 304.441 423.039 306.686C422.955 306.732 422.513 306.998 422.459 306.935C415.799 299.246 396.519 277.631 390.541 271.52C393.912 268.51 397.413 265.65 401.036 262.948Z"/><path fill="#080807" transform="scale(0.204161 0.204161)" d="M498.864 208.074C511.375 203.166 524.8 198.161 537.12 193.139C527.089 202.873 521.77 212.076 539.104 217.558C540.922 217.55 542.031 218.236 543.679 217.409L544.227 217.143L543.889 218.781L543.377 218.985C536.998 223.383 533.236 224.576 526.793 230.013C522.505 225.498 518.66 220.933 514.713 216.129C516.458 214.57 518.156 212.959 519.803 211.297C511.535 211.02 506.677 209.673 498.864 208.074Z"/><path fill="#291E15" transform="scale(0.204161 0.204161)" d="M544.227 217.143L543.889 218.781L543.377 218.985C541.51 218.134 539.542 218.73 539.104 217.558C540.922 217.55 542.031 218.236 543.679 217.409L544.227 217.143Z"/><path fill="#100806" transform="scale(0.204161 0.204161)" d="M175.838 615.793C178.553 617.439 181.236 619.138 183.886 620.887C182.86 625.452 182.388 630.124 182.48 634.802L190.495 625.175L195.173 627.484C187.406 641.03 174.913 661.222 169.457 675.754L168.778 675.152C171.445 655.469 173.125 634.955 175.838 615.793Z"/><path fill="#080807" transform="scale(0.204161 0.204161)" d="M309.444 372.207C310.212 372.188 310.981 372.175 311.75 372.168C326.356 372.118 338.876 377.505 349.217 387.793C349.603 394.028 349.161 397.114 348.765 403.261C344.778 400.879 340.652 397.002 334.536 392.412C328.673 388.011 315.278 378.14 309.069 373.031C308.969 372.949 309.374 372.327 309.444 372.207Z"/><path fill="#080807" transform="scale(0.204161 0.204161)" d="M204.1 516.981C206.62 516.981 209.026 517.079 210.624 519.221C218.529 529.812 222.052 538.491 212.539 548.181C208.732 544.371 203.608 538.602 200.951 533.997C196.486 526.26 195.797 521.221 204.1 516.981Z"/><path fill="#080807" transform="scale(0.204161 0.204161)" d="M609.311 172.182C609.878 172.028 611.333 171.567 611.793 172.144C611.857 172.733 607.882 182.306 608.029 184.75C608.099 185.924 607.263 192.053 607.067 193.58C610.293 190.507 612.07 189.708 614.735 186.132C616.802 190.432 618.681 194.871 620.767 199.099C609.593 195.103 598.152 193.417 586.879 190.15C581.577 188.873 578.234 188.174 572.979 186.247C576.144 183.278 578.87 180.276 581.976 177.262C585.154 176.663 588.291 176.254 591.448 175.624L592.378 175.446C592.557 177.473 592.8 179.486 593.112 181.497L593.913 186.505C594.097 187.633 594.194 188.19 594.432 189.29L594.622 190.193C598.375 191.153 602.108 192.131 605.866 193.083L605.05 184.999C604.876 183.186 603.854 175.162 604.223 173.225C604.327 172.677 608.462 172.296 609.311 172.182Z"/><path fill="#080807" transform="scale(0.204161 0.204161)" d="M219.405 163.642C227.88 163.865 236.306 164.387 244.782 164.487C244.66 167.215 244.657 169.781 244.638 172.511C242.16 172.501 231.564 171.599 231 173.484L230.998 187.644C227.019 187.814 223.037 187.913 219.053 187.942C219.069 179.671 219.086 171.904 219.405 163.642Z"/><path fill="#080807" transform="scale(0.204161 0.204161)" d="M181.401 578.609C183.385 579.755 190.863 585.164 191.836 586.675C193.802 589.731 197.201 601.958 197.91 605.508L199.353 612.758C199.87 615.257 202.232 624.611 197.067 621.409C193.562 619.237 195.197 616.836 193.516 614.154C193.182 613.621 189.998 615.016 189.483 615.045C188.268 615.08 186.689 613.12 185.792 612.349C187.016 610.882 194.536 607.108 196.839 605.776C195.834 602.459 194.735 599.213 193.649 595.923C187.332 599.648 182.952 602.78 177.213 607.233C178.216 598.252 179.746 587.494 181.401 578.609Z"/><path fill="#080807" transform="scale(0.204161 0.204161)" d="M235.795 441.212C239.041 442.654 255.236 456.619 259.958 459.956C256.775 461.667 252.955 463.439 249.661 465.013C248.061 465.832 247.328 466.874 245.775 465.991C239.317 462.314 233.202 458.135 226.794 454.386C229.747 450.027 233.063 445.638 235.795 441.212Z"/><path fill="#080807" transform="scale(0.204161 0.204161)" d="M433.586 304.827C435.963 308.2 439.498 315.573 442.547 320.092C443.699 316.261 443.712 315.879 445.525 312.205C447.892 314.501 450.2 316.858 452.445 319.274C453.562 320.495 460.342 327.264 458.363 328.149C454.193 329.662 447.509 331.874 443.291 332.998C437.978 327.162 433.204 322.297 428.773 315.671C430.303 311.811 431.564 308.521 433.586 304.827Z"/><path fill="#080807" transform="scale(0.204161 0.204161)" d="M170.55 197.47C173.333 197.613 175.833 197.732 178.622 197.96L178.692 206.497C177.116 206.555 173.96 206.093 172.77 206.955C172.268 207.446 172.568 211.649 173.021 211.72C177.904 212.481 185.626 212.369 190.513 212.396L190.509 226.591C188.495 227.924 188.146 228.175 186.336 229.792C186.144 227.434 186.689 222.997 185.66 221.012C185.293 220.305 180.829 220.385 180.751 220.811C180.203 223.827 180.496 227.705 180.453 230.905C176.358 228.183 174.318 226.715 170.638 223.399C170.534 214.756 170.505 206.113 170.55 197.47Z"/><path fill="#080807" transform="scale(0.204161 0.204161)" d="M448.407 283.885C450.182 285.86 452.304 288.034 453.759 290.239C460.022 299.742 467.527 308.524 473.415 318.228C473.652 318.618 472.36 319.642 472.323 319.679C469.869 322.128 473.328 321.887 473.365 322.635C473.305 322.705 469.036 324.973 468.135 324.06C462.793 318.36 457.469 312.123 453.383 305.437C456.649 302.827 459.774 301.358 455.416 297.773C454.374 296.915 449.63 298.553 448.342 298.837C446.334 296.65 445.906 296.106 444.257 293.654C445.652 290.034 446.296 287.278 448.407 283.885Z"/><path fill="#080807" transform="scale(0.204161 0.204161)" d="M544.227 217.143L543.734 216.331C542.52 214.362 533.675 211.611 535.154 203.774C535.758 200.577 539.24 196.995 541.506 194.819C552.037 198.868 552.818 202.31 559.33 210.925C554.343 213.92 548.245 216.063 543.889 218.781L544.227 217.143Z"/><path fill="#080807" transform="scale(0.204161 0.204161)" d="M364.065 303.824C364.614 304.502 364.887 304.84 365.007 305.74C365.94 312.724 370.762 321.339 375.157 326.858C379.225 332.008 384.092 336.471 389.574 340.079C391.087 341.092 396.087 343.374 395.695 344.809C383.789 343.459 377.081 343.041 369.332 332.654C362.839 323.952 361.327 314.265 364.065 303.824Z"/><path fill="#080807" transform="scale(0.204161 0.204161)" d="M469.389 222.716C470.493 223.712 477.341 236.053 478.355 237.925C475.783 240.529 473.284 243.251 470.862 245.996C468.676 248.474 468.864 249.316 466.683 246.164C463.13 242.065 459.704 237.858 456.41 233.549C455.789 232.73 455.164 231.915 454.53 231.108C458.659 228.602 465.044 225.094 469.389 222.716Z"/><path fill="#080807" transform="scale(0.204161 0.204161)" d="M399.93 297.286C403.169 299.248 414.257 313.438 416.812 317.013C415.698 318.049 414.604 319.104 413.528 320.179C415.432 324.413 415.649 325.436 418.648 329.14C420.063 326.909 420.969 325.464 422.185 323.098C425.324 326.186 428.454 329.164 431.548 332.314C432.577 333.362 433.593 334.423 434.596 335.497C431.59 336.256 428.594 337.055 425.61 337.896C423.055 335.27 421.385 334.15 418.773 331.962C409.479 324.179 400.966 309.426 399.93 297.286Z"/><path fill="#080807" transform="scale(0.204161 0.204161)" d="M421.183 250.021C424.327 252.826 426.293 257.057 428.993 260.305L429.617 261.073C428.675 262.869 427.723 264.658 426.814 266.471C427.658 266.498 434.678 266.608 434.773 266.656C442.522 270.58 429.705 269.666 427.953 269.664C425.349 269.633 422.744 269.569 420.141 269.474C416.702 265.967 412.178 261.248 408.919 257.586C413.202 254.764 416.962 252.656 421.183 250.021Z"/><path fill="#080807" transform="scale(0.204161 0.204161)" d="M491.863 211.54C492.747 212.558 498.638 224.419 499.283 226.021L498.09 226.413C495.395 227.315 487.005 232.564 486.094 232.007C484.328 229.881 482.599 227.726 480.908 225.54C479.307 223.486 477.731 221.554 476.245 219.405C481.923 216.885 486.599 214.867 491.863 211.54Z"/><path fill="#080807" transform="scale(0.204161 0.204161)" d="M210.318 483.69C212.933 485.056 223.725 493.436 226.522 495.514C225.494 496.93 224.806 497.996 223.906 499.499C225.845 501.067 227.22 502.047 229.232 503.492C230.307 502.33 231.321 501.186 232.375 500.007C234.154 501.213 242.724 507.249 243.292 508.879C241.097 510.387 240.676 510.883 238.899 512.922C235.823 511.039 233.492 509.315 230.682 507.046C223.006 500.848 214.993 494.994 207.118 489.044C208.283 486.969 209.023 485.709 210.318 483.69Z"/><path fill="#080807" transform="scale(0.204161 0.204161)" d="M264.812 529.197C267.757 530.03 272.424 532.836 275.568 534.244C279.772 536.127 283.746 537.568 287.965 539.273L281.377 546.111L277.959 549.761C273.594 544.74 267.251 539.023 262.413 534.092C263.268 532.276 263.846 530.999 264.812 529.197Z"/><path fill="#080807" transform="scale(0.204161 0.204161)" d="M499.983 227.427C500.607 228.006 507.344 240.468 508.299 242.185C504.734 245.182 501.546 247.428 497.807 250.118C496.199 250.6 490.691 239.428 489.773 237.719C493.222 234.338 496.851 231.105 499.983 227.427Z"/><path fill="#080807" transform="scale(0.204161 0.204161)" d="M380.368 280.009C380.286 281.679 378.838 284.367 378.262 286.237C374.543 298.311 374.541 308.675 378.588 320.514C377.012 318.619 375.443 316.865 374.07 314.813C372.12 311.462 365.768 300.738 366.434 297.501C367.589 291.889 375.995 283.491 380.368 280.009Z"/><path fill="#080807" transform="scale(0.204161 0.204161)" d="M201.029 162.499C204.496 162.456 207.963 162.475 211.429 162.557L211.395 172.66C207.44 172.993 204.726 173.025 200.761 173.067C200.78 169.354 200.833 166.203 201.029 162.499Z"/><path fill="#080807" transform="scale(0.204161 0.204161)" d="M296.056 432.265C297.158 432.898 308.302 441.487 308.831 442.214L308.803 442.296C308.381 442.575 307.776 442.522 307.285 442.539C303.917 443.497 299.904 444.621 296.594 445.671C296.028 440.426 295.964 437.544 296.056 432.265Z"/><path fill="#080807" transform="scale(0.204161 0.204161)" d="M250.444 514.919C253.872 517.996 256.894 520.784 260.178 524.037C258.888 525.742 258.152 526.611 256.721 528.189C253.584 525.342 250.429 522.664 247.241 519.743C248.333 517.945 249.205 516.628 250.444 514.919Z"/><path fill="#080807" transform="scale(0.204161 0.204161)" d="M200.962 181.327C204.249 181.267 207.537 181.254 210.824 181.287C210.878 183.531 210.894 185.777 210.873 188.022C207.608 188.105 204.21 188.059 200.939 188.039C200.922 185.802 200.929 183.564 200.962 181.327Z"/><path fill="#080807" transform="scale(0.204161 0.204161)" d="M428.536 279.152L439.354 278.902C438.713 281.064 438.069 283.225 437.431 285.388C436.639 289.818 429.573 280.462 428.536 279.152Z"/><path fill="#080807" transform="scale(0.204161 0.204161)" d="M185.505 198.001C187.696 197.967 190.992 197.052 190.878 199.962C190.812 202.146 190.805 204.331 190.857 206.515C183.502 206.498 185.489 206.276 185.505 198.001Z"/><path fill="#100806" transform="scale(0.204161 0.204161)" d="M233.803 330.031C234.402 329.519 234.887 329.122 235.438 328.556C236.158 337.584 236.552 341.509 236.191 350.683C234.567 343.213 235.084 337.209 233.803 330.031Z"/><path fill="#291E15" transform="scale(0.204161 0.204161)" d="M189.691 270.361C192.458 269.798 198.085 270.029 200.863 270.483L201.273 271.75C197.532 271.291 192.414 271.305 188.597 271.347C189.246 271.049 189.793 271.087 189.691 270.361Z"/><path fill="#4F321C" transform="scale(0.204161 0.204161)" d="M353.3 341.919C353.522 342.182 354.761 343.606 354.741 343.95C354.643 345.641 352.22 342.137 352.082 341.973L353.3 341.919Z"/><path fill="#4F321C" transform="scale(0.204161 0.204161)" d="M341.127 235.99C341.676 236.183 343.495 236.659 343.761 237.233C343.743 237.277 343.726 237.321 343.708 237.364C343.129 237.689 340.819 236.873 340.246 236.711L341.127 235.99Z"/><path fill="#4F321C" transform="scale(0.204161 0.204161)" d="M147.197 888.827L148.209 889.194C148.107 889.759 147.613 891.964 147.195 892.238C146.768 891.644 147.094 889.527 147.197 888.827Z"/><path fill="#4F321C" transform="scale(0.204161 0.204161)" d="M889.488 142.802C893.275 142.136 893.298 143.019 889.469 143.912L889.488 142.802Z"/><path fill="#4F321C" transform="scale(0.204161 0.204161)" d="M169.457 675.754C169.281 676.162 169.176 676.643 168.806 676.879C168.663 676.871 168.726 676.898 168.618 676.793C168.42 676.134 168.582 675.835 168.778 675.152L169.457 675.754Z"/></svg>