<?xml version="1.0" encoding="utf-8" ?><svg xmlns="http://www.w3.org/2000/svg" xmlns:xlink="http://www.w3.org/1999/xlink" width="209" height="209" viewBox="0 0 209 209"><path fill="#B88B6C" transform="scale(0.204161 0.204161)" d="M681.085 265.587C689.916 288.608 691.19 331.49 679.719 353.311C664.865 381.57 641.004 401.112 628.557 431.948C628.16 432.626 627.899 433.301 627.61 434.03C626.175 436.431 626.032 437.13 624.865 439.645L625.738 440.187C627.169 438.821 627.135 438.418 628.049 436.492C628.973 435.108 629.396 434.001 630.288 432.642C631.726 436.493 632.311 441.552 633.332 445.584C636.202 456.919 637.663 470.031 640.434 481.194C643.24 451.346 660.41 419.393 683.841 401.096C697.07 390.765 707.116 385.886 722.395 379.831L722.988 380.07C717.295 384.139 712.917 385.764 705.927 391.19C682.864 408.779 667.375 434.498 662.614 463.109C659.024 484.358 661.838 507.118 668.112 527.569C670.336 532.959 673.866 538.137 676.465 543.364C684.513 559.542 691.61 576.119 694.803 594.003C698.064 610.833 697.043 621.332 695.915 637.929C693.493 673.575 701.838 698.305 721.179 727.646C699.115 707.211 675.574 700.812 646.025 700.167C635.668 700.052 625.333 701.03 614.981 700.339C590.188 698.684 567.104 690.536 545.781 677.962C540.457 674.822 532.133 669.871 526.499 667.705L519.263 665.836C481.515 657.613 447.758 660.3 413.901 681.238C401.515 688.899 387.249 702.115 378.991 713.969L378.066 713.501C379.666 709.42 383.222 703.858 385.552 700.129C400.527 676.154 423.672 658.286 450.047 648.463C458.366 645.365 468.765 643.357 477.547 641.524C471.007 639.79 433.216 632.059 431.069 629C425.771 627.918 393.933 648.364 388.289 653.16C346.755 688.457 311.718 699.034 258.82 680.024C262.144 669.784 267.266 662.387 273.003 653.399C292.938 653.977 315.075 651.11 333.055 642.134C352.386 632.482 368.87 616.132 388.817 607.152C391.875 605.775 397.479 602.943 400.066 601.009C401.312 601.805 402.989 600.301 403.929 599.454L404.307 599.329C406.177 598.727 407.021 598.168 408.767 597.493C410.169 596.796 411.313 596.365 412.752 595.796C414.423 595.035 418.071 594.191 413.951 593.606C412.976 594.008 411.997 594.401 411.015 594.785C409.25 594.891 408.214 595.566 406.79 596.541C404.926 597.391 404.21 597.532 402.564 598.824C401.306 598.645 400.274 599.195 399.054 599.577L397.556 598.952C398.256 597.937 401.828 578.012 402.173 575.48L402.484 575.599C409.687 576.444 419.066 580.721 426.492 582.173C428.202 582.507 436.012 584.404 435.571 586.242L436.055 587.388C445.911 586.157 457.284 582.172 467.501 580.675C481.008 578.812 494.666 578.279 508.277 579.084C547.15 581.268 567.847 591.345 599.662 612.779C600.216 613.146 600.758 613.488 601.32 613.842C602.108 614.68 603.777 615.649 604.819 616.274L605.588 616.993C625.832 632.769 644.243 650.919 652.307 676.047C663.418 679.329 672.504 683.92 682.497 689.549C683.323 690.014 684.26 689.126 684.995 688.685C684.581 686.765 683.433 684.893 682.44 683.19C676.884 673.664 674.587 662.998 671.713 652.512C662.878 648.913 662.807 647.075 655.411 642.206C620.103 618.961 594.595 582.402 582.96 541.869C575.61 516.261 578.6 481.282 585.738 455.334L586.181 453.118C587.21 448.41 588.315 443.718 589.497 439.045C590.012 436.762 590.473 434.815 591.634 432.723C592.11 431.23 592.83 429.392 593.216 427.993C594.676 424.48 597.228 421.113 594.525 418.339C594.915 416.743 594.885 416.514 595.889 415.392C596.702 416.213 596.226 415.94 597.301 416.238C598.879 414.814 599.855 410.64 600.814 408.279C603.218 402.5 605.945 396.86 608.983 391.387C616.72 377.48 624.298 365.749 633.802 353.136C638.63 346.729 646.626 334.101 649.182 326.788L649.275 326.372C650.066 320.972 652.306 314.426 653.155 308.829C654.516 299.863 655.017 290.718 655.616 281.682C659.34 278.503 662.148 276.429 666.142 273.599C668 272.552 668.671 271.788 670.739 270.876C673.348 269.882 678.273 266.96 681.085 265.587ZM645.518 578.759L659.819 539.465C660.18 538.506 660.321 537.821 661.311 537.577C661.901 535.823 661.852 534.291 662.041 532.441C661.782 531.515 661.463 529.81 660.676 529.319C660.303 529.382 660.051 529.609 659.73 529.83C660.108 527.233 659.008 522.332 656.209 525.933C656.118 527.567 656.022 528.735 655.802 530.359C656.063 530.999 656.094 531.312 656.231 531.996C657.153 531.915 658.135 531.763 659.055 531.637C660.779 532.993 660.017 535.334 660.102 537.586C659.135 537.995 659.186 537.939 658.145 537.848C657.282 536.616 656.908 536.192 655.862 535.073C655.138 534.061 654.458 533.166 653.877 532.067C643.321 514.505 627.701 498.37 620.936 478.637C618.958 472.865 620.49 465.917 619.042 460.462C621.138 461.157 621.006 455.11 621.988 452.87L621.349 452.601C620.991 452.448 620.615 451.908 620.194 452.018C618.929 453.554 618.692 458.308 619.042 460.462C615.316 464.095 614.088 494.172 614.15 500.499C614.421 528.247 620.208 557.977 639.351 579.24C643.935 584.332 648.005 583.345 649.321 588.23C650.364 592.103 655.107 594.669 657.879 597.728C660.461 599.084 659.849 597.397 663.001 598.662C666.288 599.981 664.107 598.969 666.875 602.374L667.246 602.967C668.812 605.593 671.229 606.288 674.086 606.88C674.623 603.654 673.997 599.378 674.485 595.144C674.596 584.312 669.95 553.103 665.488 543.097C664.809 544.173 664.479 544.546 663.675 545.571C667.802 564.197 669.957 572.791 670.557 592.373C670.5 594.25 670.484 596.128 670.509 598.006L668.11 596.613C667.52 595.92 666.852 595.602 666.071 595.134C660.293 590.006 651.807 583.8 645.518 578.759ZM488.29 615.451C484.486 615.887 474.527 616.597 471.717 618.475L471.876 619.138C472.6 619.418 473.358 619.73 474.086 619.983C493.16 622.784 514.472 641.071 529.631 652.528C531.069 652.972 531.226 652.963 532.547 653.634L533.203 654.634C537.188 654.959 543.289 653.275 547.351 652.64C557.065 651.121 568.446 648.001 578.067 646.731C581.491 650.583 587.603 659.494 590.466 662.077C591.356 662.542 591.75 662.752 592.582 663.335C592.332 663.607 591.979 663.931 591.808 664.275C592.174 665.11 596.389 669.992 597.314 671.292C596.906 671.548 597.03 671.482 596.515 671.705C595.673 672.265 594.834 672.831 593.998 673.401C595.056 676.928 610.905 677.285 608.75 674.775C605.713 671.239 603.801 667.964 599.468 666.134L598.997 665.932C598.1 664.701 597.309 664.33 596.338 663.003C595.284 661.686 594.723 660.986 593.537 659.797C592.907 659.037 592.423 658.569 592.38 657.545C592.229 653.926 588.631 650.966 586.362 648.227C583.17 644.477 579.61 641.48 575.842 638.32C562.493 627.127 541.904 619.559 524.892 616.423C516.18 614.818 497.151 614.503 488.645 615.538L488.29 615.451ZM503.178 645.324C500.797 643.542 498.164 641.327 495.75 639.448L496.225 640.229C497.784 642.925 500.568 645.488 502.871 647.565C503.911 648.862 506.449 651.234 507.698 652.323C509.387 650.605 509.898 650.817 508.684 648.742C508.201 648.378 503.59 645.469 503.178 645.324ZM426.66 589.081C425.454 589.513 424.272 589.839 423.054 590.26C423.658 592.78 428.503 590.469 429.755 589.745C429.208 589.444 428.607 589.172 428.041 588.899L426.66 589.081ZM552.087 666.631C553.762 667.158 557.933 667.946 558.966 668.455C560.396 668.944 561.273 669.287 562.742 669.601L565.242 670.122C568.087 670.692 570.375 671.309 573.302 671.546L573.92 671.651C578.102 671.439 585.811 672.529 588.661 670.524C584.677 669.574 576.797 668.013 572.855 667.674C570.663 667.216 567.926 666.314 565.86 666.735C562.727 665.349 556.685 663.925 553.265 663.328C552.46 662.888 552.366 662.807 551.502 662.542L548.376 661.601C547.758 661.556 547.262 661.257 546.652 661.165C544.274 662.087 545.171 661.603 542.996 661.485C539.865 661.314 541.438 663.598 544.261 663.227C546.62 662.916 547.717 664.433 548.977 666.121L551.092 666.636L552.087 666.631ZM647.79 501.468C645.977 499.821 645.192 499.342 643.205 497.96C644.546 499.969 645.91 501.974 647.492 503.803L647.79 501.468ZM522.42 655.923C523.908 654.81 524.241 654.767 523.04 653.28C519.286 653.66 519.585 654.007 522.42 655.923ZM622.949 445.676C622.228 446.699 619.498 451.332 622.211 451.524C622.611 450.105 623.035 448.372 623.551 447.03L622.949 445.676Z"/><path fill="#282C41" transform="scale(0.204161 0.204161)" d="M659.819 539.465C660.18 538.506 660.321 537.821 661.311 537.577C661.699 539.274 662.804 544.273 663.675 545.571C667.802 564.197 669.957 572.791 670.557 592.373C670.5 594.25 670.484 596.128 670.509 598.006L668.11 596.613C667.52 595.92 666.852 595.602 666.071 595.134C660.293 590.006 651.807 583.8 645.518 578.759L659.819 539.465Z"/><path fill="#FDFDFD" fill-opacity="0.52549022" transform="scale(0.204161 0.204161)" d="M572.855 667.674C576.797 668.013 584.677 669.574 588.661 670.524C585.811 672.529 578.102 671.439 573.92 671.651L573.302 671.546C572.807 671.125 571.111 669.819 570.905 669.305C571.005 668.835 572.542 667.907 572.855 667.674Z"/><path fill="#FDFDFD" fill-opacity="0.054901961" transform="scale(0.204161 0.204161)" d="M553.265 663.328C556.685 663.925 562.727 665.349 565.86 666.735C562.99 667.901 561.99 667.86 558.966 668.455C557.933 667.946 553.762 667.158 552.087 666.631C554.665 665.439 554.41 665.119 553.265 663.328Z"/><path fill="#FDFDFD" fill-opacity="0.96078432" transform="scale(0.204161 0.204161)" d="M565.86 666.735C567.926 666.314 570.663 667.216 572.855 667.674C572.542 667.907 571.005 668.835 570.905 669.305C571.111 669.819 572.807 671.125 573.302 671.546C570.375 671.309 568.087 670.692 565.242 670.122L562.742 669.601C561.273 669.287 560.396 668.944 558.966 668.455C561.99 667.86 562.99 667.901 565.86 666.735Z"/><path fill="#FDFDFD" fill-opacity="0.38039216" transform="scale(0.204161 0.204161)" d="M596.338 663.003C597.309 664.33 598.1 664.701 598.997 665.932C598.339 667.765 597.744 669.355 597.314 671.292C596.389 669.992 592.174 665.11 591.808 664.275C591.979 663.931 592.332 663.607 592.582 663.335C594.727 665.051 594.918 666.33 595.918 663.776L596.338 663.003Z"/><path fill="#FDFDFD" transform="scale(0.204161 0.204161)" d="M653.877 532.067L654.032 531.947C654.965 531.241 655.085 531.236 655.802 530.359C656.063 530.999 656.094 531.312 656.231 531.996C657.153 531.915 658.135 531.763 659.055 531.637C660.779 532.993 660.017 535.334 660.102 537.586C659.135 537.995 659.186 537.939 658.145 537.848C657.282 536.616 656.908 536.192 655.862 535.073C655.138 534.061 654.458 533.166 653.877 532.067Z"/><path fill="#2E2C32" transform="scale(0.204161 0.204161)" d="M653.877 532.067L654.032 531.947C654.965 531.241 655.085 531.236 655.802 530.359C656.063 530.999 656.094 531.312 656.231 531.996C656.001 533.241 655.948 533.835 655.862 535.073C655.138 534.061 654.458 533.166 653.877 532.067Z"/><path fill="#FDFDFD" fill-opacity="0.25098041" transform="scale(0.204161 0.204161)" d="M666.071 595.134C666.852 595.602 667.52 595.92 668.11 596.613C666.595 598.554 666.638 599.936 666.875 602.374C664.107 598.969 666.288 599.981 663.001 598.662C659.849 597.397 660.461 599.084 657.879 597.728C660.562 596.322 661.472 597.555 663.687 596.32C665.166 595.496 664.357 595.556 666.071 595.134Z"/><path fill="#FDFDFD" fill-opacity="0.11764706" transform="scale(0.204161 0.204161)" d="M670.557 592.373C670.681 592.94 671.107 595.907 671.172 596.023L671.271 596.079C672.494 595.446 673.073 595.265 674.485 595.144C673.997 599.378 674.623 603.654 674.086 606.88C673.811 604.638 673.267 598.978 670.509 598.006C670.484 596.128 670.5 594.25 670.557 592.373Z"/><path fill="#BF9678" fill-opacity="0.90588236" transform="scale(0.204161 0.204161)" d="M503.178 645.324C503.59 645.469 508.201 648.378 508.684 648.742C509.898 650.817 509.387 650.605 507.698 652.323C506.449 651.234 503.911 648.862 502.871 647.565C503.075 646.621 503.215 646.27 503.178 645.324Z"/><path fill="#FDFDFD" fill-opacity="0.28627452" transform="scale(0.204161 0.204161)" d="M551.092 666.636C549.548 665.192 546.115 663.2 548.376 661.601L551.502 662.542C552.366 662.807 552.46 662.888 553.265 663.328C554.41 665.119 554.665 665.439 552.087 666.631L551.092 666.636Z"/><path fill="#FDFDFD" fill-opacity="0.96470588" transform="scale(0.204161 0.204161)" d="M619.042 460.462C618.692 458.308 618.929 453.554 620.194 452.018C620.615 451.908 620.991 452.448 621.349 452.601L621.988 452.87C621.006 455.11 621.138 461.157 619.042 460.462Z"/><path fill="#FDFDFD" fill-opacity="0.67450982" transform="scale(0.204161 0.204161)" d="M546.652 661.165C547.262 661.257 547.758 661.556 548.376 661.601C546.115 663.2 549.548 665.192 551.092 666.636L548.977 666.121C547.717 664.433 546.62 662.916 544.261 663.227C541.438 663.598 539.865 661.314 542.996 661.485C545.171 661.603 544.274 662.087 546.652 661.165Z"/><path fill="#FDFDFD" fill-opacity="0.12941177" transform="scale(0.204161 0.204161)" d="M593.537 659.797C594.723 660.986 595.284 661.686 596.338 663.003L595.918 663.776C594.918 666.33 594.727 665.051 592.582 663.335C591.75 662.752 591.356 662.542 590.466 662.077C593.34 661.61 592.052 662.193 593.537 659.797Z"/><path fill="#A9826B" fill-opacity="0.69411767" transform="scale(0.204161 0.204161)" d="M502.871 647.565C500.568 645.488 497.784 642.925 496.225 640.229L495.75 639.448C498.164 641.327 500.797 643.542 503.178 645.324C503.215 646.27 503.075 646.621 502.871 647.565Z"/><path fill="#FDFDFD" fill-opacity="0.93725491" transform="scale(0.204161 0.204161)" d="M659.73 529.83C660.051 529.609 660.303 529.382 660.676 529.319C661.463 529.81 661.782 531.515 662.041 532.441L661.479 532.956C660.199 534.042 660.455 535.909 660.102 537.586C660.017 535.334 660.779 532.993 659.055 531.637C659.237 530.716 659.285 530.691 659.73 529.83Z"/><path fill="#FDFDFD" fill-opacity="0.48235294" transform="scale(0.204161 0.204161)" d="M662.041 532.441C661.852 534.291 661.901 535.823 661.311 537.577C660.321 537.821 660.18 538.506 659.819 539.465C658.577 539.158 658.589 539.119 658.145 537.848C659.186 537.939 659.135 537.995 660.102 537.586C660.455 535.909 660.199 534.042 661.479 532.956L662.041 532.441Z"/><path fill="#FDFDFD" fill-opacity="0.11372549" transform="scale(0.204161 0.204161)" d="M426.66 589.081L428.041 588.899C428.607 589.172 429.208 589.444 429.755 589.745C428.503 590.469 423.658 592.78 423.054 590.26C424.272 589.839 425.454 589.513 426.66 589.081Z"/><path fill="#FDFDFD" fill-opacity="0.14509805" transform="scale(0.204161 0.204161)" d="M622.949 445.676L623.551 447.03C623.035 448.372 622.611 450.105 622.211 451.524C619.498 451.332 622.228 446.699 622.949 445.676Z"/><path fill="#A9826B" fill-opacity="0.90588236" transform="scale(0.204161 0.204161)" d="M643.205 497.96C645.192 499.342 645.977 499.821 647.79 501.468L647.492 503.803C645.91 501.974 644.546 499.969 643.205 497.96Z"/><path fill="#FDFDFD" fill-opacity="0.52941179" transform="scale(0.204161 0.204161)" d="M523.04 653.28C524.241 654.767 523.908 654.81 522.42 655.923C519.585 654.007 519.286 653.66 523.04 653.28Z"/><path fill="#282C41" transform="scale(0.204161 0.204161)" d="M640.434 481.194C643.24 451.346 660.41 419.393 683.841 401.096C697.07 390.765 707.116 385.886 722.395 379.831L722.988 380.07C717.295 384.139 712.917 385.764 705.927 391.19C682.864 408.779 667.375 434.498 662.614 463.109C659.024 484.358 661.838 507.118 668.112 527.569C661.571 517.01 656.752 510.165 647.79 501.468C645.977 499.821 645.192 499.342 643.205 497.96C644.546 499.969 645.91 501.974 647.492 503.803C651.168 509.312 654.191 513.581 655.378 520.206C655.61 521.504 655.9 525.003 656.209 525.933C656.118 527.567 656.022 528.735 655.802 530.359C655.085 531.236 654.965 531.241 654.032 531.947L653.877 532.067C643.321 514.505 627.701 498.37 620.936 478.637C618.958 472.865 620.49 465.917 619.042 460.462C621.138 461.157 621.006 455.11 621.988 452.87L622.211 451.524C622.611 450.105 623.035 448.372 623.551 447.03L622.949 445.676C622.949 445.677 622.606 445.051 622.623 444.879C622.768 443.39 623.876 440.727 624.865 439.645L625.738 440.187C627.169 438.821 627.135 438.418 628.049 436.492C628.973 435.108 629.396 434.001 630.288 432.642C631.726 436.493 632.311 441.552 633.332 445.584C636.202 456.919 637.663 470.031 640.434 481.194Z"/><path fill="#FDFDFD" transform="scale(0.204161 0.204161)" d="M622.949 445.676C622.949 445.677 622.606 445.051 622.623 444.879C622.768 443.39 623.876 440.727 624.865 439.645L625.738 440.187C626.11 442.039 624.552 444.974 623.726 446.665L623.551 447.03L622.949 445.676Z"/><path fill="#282C41" transform="scale(0.204161 0.204161)" d="M470.762 619.949L474.086 619.983C493.16 622.784 514.472 641.071 529.631 652.528C527.321 652.66 525.223 652.926 522.958 653.075C517.617 653.086 513.554 650.852 508.684 648.742C508.201 648.378 503.59 645.469 503.178 645.324C500.797 643.542 498.164 641.327 495.75 639.448L496.225 640.229C497.784 642.925 500.568 645.488 502.871 647.565C503.911 648.862 506.449 651.234 507.698 652.323C512.428 656.539 515.974 659.439 521.06 663.328C520.189 664.379 519.993 664.683 519.263 665.836C481.515 657.613 447.758 660.3 413.901 681.238C401.515 688.899 387.249 702.115 378.991 713.969L378.066 713.501C379.666 709.42 383.222 703.858 385.552 700.129C400.527 676.154 423.672 658.286 450.047 648.463C458.366 645.365 468.765 643.357 477.547 641.524C471.007 639.79 433.216 632.059 431.069 629L432.422 628.776C444.399 624.791 458.033 619.787 470.762 619.949Z"/><path fill="#161516" transform="scale(0.204161 0.204161)" d="M677.513 301.849L677.529 345.195C670.685 347.23 662.346 349.91 655.444 351.54C657.441 359.64 658.666 368.366 660.546 376.695C651.639 379.775 629.684 394.59 621.557 400.47C622.655 392.532 631.094 361.553 634.176 354.065C640.796 353.245 647.334 351.985 653.899 350.799C653.319 347.596 650.065 328.101 649.182 326.788L649.275 326.372C653.776 325.916 673.548 305.796 677.513 301.849Z"/><path fill="#B88B6C" transform="scale(0.204161 0.204161)" d="M634.388 357.197C636.174 358.052 642.838 363.808 644.966 365.445C644.16 366.81 638.259 375.079 639.174 375.945C640.41 376.162 645.078 367.755 646.023 366.321C649.656 369.779 653.65 372.93 656.96 376.576C653.023 378.744 649.778 380.745 645.959 383.079L623.12 397.754C623.659 395.238 624.241 392.731 624.867 390.235L625.631 387.009C627.991 377.259 631.378 366.785 634.388 357.197Z"/><path fill="#B88B6C" transform="scale(0.204161 0.204161)" d="M675.952 304.886C677.076 310.512 676.32 336.943 675.991 343.097C671.83 339.944 668.371 337.71 664.109 334.836C664.667 333.317 668.592 325.006 667.014 324.453C666.539 324.663 666.55 324.72 666.185 325.154C664.839 328.414 663.959 330.799 662.786 334.095C658.777 331.462 655.566 329.499 651.358 327.263C659.872 320.732 668.384 312.487 675.952 304.886Z"/><path fill="#B88B6C" transform="scale(0.204161 0.204161)" d="M650.996 328.707C654.217 329.955 659.094 333.457 662.3 335.44C661.138 339.279 660.471 341.684 659.536 345.613C661.522 342.243 662.341 339.845 663.606 336.187C666.643 338.629 670.095 340.948 673.274 343.227C673.771 343.518 674.628 343.858 674.509 344.557C673.849 345.252 657.419 349.941 655.285 350.447C653.984 344.48 652.568 338.022 651.55 331.998L650.996 328.707Z"/><path fill="#B88B6C" transform="scale(0.204161 0.204161)" d="M652.947 352.195C655.39 352.045 655.147 357.188 655.634 359.493C656.747 364.757 658.014 369.991 658.933 375.281C656.137 373.096 649.844 367.735 646.928 365.007C646.633 364.73 647.757 363.4 648.035 363.043L648.413 362.549C649.001 361.794 650.9 359.479 650.837 359.201C650.129 356.051 646.325 363.182 645.764 363.991C642.285 361.075 638.856 358.091 635.359 355.213C639.329 354.543 643.283 353.783 647.255 353.125L652.947 352.195Z"/><path fill="#161516" transform="scale(0.204161 0.204161)" d="M489.176 581.955C495.431 588.262 501.072 592.383 508.684 597.071C502.177 603.548 495.1 608.805 488.645 615.538L488.29 615.451C485.207 610.877 480.402 607.147 476.199 603.505C475.738 603.184 475.759 603.253 475.472 602.839C474.409 601.875 473.622 600.836 472.713 599.729C468.311 604.769 463.01 610.497 459.637 616.196C448.176 613.725 439.094 609.268 428.401 605.672C436.474 599.895 447.495 591.249 454.999 584.751C457.579 589.015 466.297 593.566 470.506 597.267L470.333 597.518L471.08 597.828L470.728 597.987C465.495 595.274 460.545 591.415 455.764 587.909C456.452 591.918 457.108 595.933 457.731 599.952C460.163 599.278 462.234 598.49 464.722 598.66C463.278 600.005 459.862 600.426 457.841 600.795C458.599 605.266 459.285 609.749 459.899 614.242C470.275 598.752 478.092 594.73 489.176 581.955Z"/><path fill="#B88B6C" transform="scale(0.204161 0.204161)" d="M472.713 599.729C477.922 594.798 483.031 590.043 488.032 584.863C487.925 588.972 487.615 592.72 487.546 596.858C483.355 597.089 481.956 596.981 478.084 598.536C478.466 600.119 485.801 598.373 487.515 598.149L487.618 611.739C484.094 609.082 475.731 601.204 472.713 599.729Z"/><path fill="#B88B6C" transform="scale(0.204161 0.204161)" d="M453.521 587.437C454.971 588.792 455.834 597.569 456.283 600.119C454.881 600.415 447.898 601.799 447.239 602.613C447.154 602.719 447.117 602.855 447.137 602.989C447.311 604.085 454.477 601.743 455.301 601.519L456.229 601.273C457.011 605.9 457.82 610.356 458.517 615.022C455.505 614.338 453.473 613.635 450.55 612.706C443.811 610 437.509 608.031 430.814 605.54C438.086 599.436 446.001 593.684 453.521 587.437Z"/><path fill="#B88B6C" transform="scale(0.204161 0.204161)" d="M489.937 585.162C491.903 586.251 493.483 587.873 495.234 589.264C498.902 592.177 502.914 594.604 506.667 597.399C502.628 600.978 498.437 604.47 494.353 608.074C492.805 609.496 491.448 610.859 489.836 612.26C489.386 607.16 489.458 603.25 489.484 598.129C497.86 597.236 499.162 596.014 489.443 596.695C489.512 593.053 489.479 588.693 489.937 585.162Z"/><path fill="#161516" transform="scale(0.204161 0.204161)" d="M604.097 432.103C606.445 437.159 614.95 454.848 616.014 459.199C614.063 459.811 613.162 459.905 611.555 461.173C611.038 462.279 609.554 463.416 608.597 464.2C606.04 466.702 600.087 471.754 599.554 474.902C601.313 477.963 610.548 477.618 614.231 478.183C609.269 484.609 604.232 490.977 599.12 497.284C598.791 496.492 598.835 496.571 598.748 495.657L598.189 495.442L597.039 495.438L596.109 495.432L595.043 496.329C591.755 489.565 588.101 481.584 584.262 475.25C589.451 476.119 592.156 476.043 597.46 476.066C595.869 473.239 587.061 456.425 585.738 455.334L586.181 453.118C588.51 452.555 601.689 435.11 604.097 432.103Z"/><path fill="#B88B6C" transform="scale(0.204161 0.204161)" d="M599.683 478.068C603.928 478.573 608.008 478.875 612.285 478.995C609.452 482.717 602.102 492.464 598.748 495.657L598.189 495.442L599.683 478.068Z"/><path fill="#B88B6C" transform="scale(0.204161 0.204161)" d="M587.03 477.507C591.095 477.521 594.07 477.661 598.102 478.03C597.773 483.054 596.972 490.557 597.039 495.438L596.109 495.432C592.941 489.391 590.14 483.515 587.03 477.507Z"/><path fill="#594539" transform="scale(0.204161 0.204161)" d="M608.597 464.2C609.706 462.769 610.05 462.028 611.555 461.173C611.038 462.279 609.554 463.416 608.597 464.2Z"/><path fill="#B88B6C" transform="scale(0.204161 0.204161)" d="M603.8 435.003C606.396 439.166 612.756 453.361 614.502 457.977C610.251 456.967 606.483 456.338 602.159 455.816C602.795 452.376 604.23 448.578 603.663 445.197C601.12 446.673 601.739 450.911 601.213 454.02L600.932 455.624C596.69 455.246 592.428 454.621 588.249 453.803C593.889 447.045 597.483 441.631 603.8 435.003Z"/><path fill="#B88B6C" transform="scale(0.204161 0.204161)" d="M587.834 455.834C592.013 456.097 596.198 456.778 600.4 457.148L600.284 457.614C600.166 458.111 597.968 465.058 599.855 464.525C600.503 463.849 601.665 458.551 601.984 457.35C605.583 457.946 608.997 458.412 612.624 458.814C611.445 460.067 610.601 460.834 609.336 461.97C605.111 466.018 601.601 469.572 597.601 473.82C594.235 467.785 591.086 461.672 587.834 455.834Z"/><path fill="#282C41" transform="scale(0.204161 0.204161)" d="M532.547 653.634L533.203 654.634C537.188 654.959 543.289 653.275 547.351 652.64C557.065 651.121 568.446 648.001 578.067 646.731C581.491 650.583 587.603 659.494 590.466 662.077C591.356 662.542 591.75 662.752 592.582 663.335C592.332 663.607 591.979 663.931 591.808 664.275C592.174 665.11 596.389 669.992 597.314 671.292C596.906 671.548 597.03 671.482 596.515 671.705C595.267 671.456 594.011 671.251 592.748 671.092C591.378 670.92 589.98 670.663 588.661 670.524C584.677 669.574 576.797 668.013 572.855 667.674C570.663 667.216 567.926 666.314 565.86 666.735C562.727 665.349 556.685 663.925 553.265 663.328C552.46 662.888 552.366 662.807 551.502 662.542L548.376 661.601C547.758 661.556 547.262 661.257 546.652 661.165C542.751 659.849 534.722 657.708 531.738 655.333C531.404 655.067 532.572 653.591 532.547 653.634Z"/><path fill="#282C41" transform="scale(0.204161 0.204161)" d="M402.173 575.48L402.484 575.599C409.687 576.444 419.066 580.721 426.492 582.173C428.202 582.507 436.012 584.404 435.571 586.242L436.055 587.388C432.968 589.65 431.419 589.163 428.041 588.899L426.66 589.081C425.454 589.513 424.272 589.839 423.054 590.26L422.333 590.447L421.404 590.781C421.105 590.885 420.806 590.988 420.508 591.092L415.928 592.76C414.858 593.036 414.819 592.97 413.951 593.606C412.976 594.008 411.997 594.401 411.015 594.785C409.25 594.891 408.214 595.566 406.79 596.541C404.926 597.391 404.21 597.532 402.564 598.824C401.306 598.645 400.274 599.195 399.054 599.577L397.556 598.952C398.256 597.937 401.828 578.012 402.173 575.48Z"/><path fill="#BF9678" transform="scale(0.204161 0.204161)" d="M402.173 575.48L402.484 575.599C404.357 577.403 401.075 590.191 400.402 593.24L399.894 595.493C399.596 596.85 399.306 598.211 399.054 599.577L397.556 598.952C398.256 597.937 401.828 578.012 402.173 575.48Z"/><path fill="#FDFDFD" transform="scale(0.204161 0.204161)" d="M426.66 589.081L427.114 588.863C429.443 587.717 433.002 586.669 435.571 586.242L436.055 587.388C432.968 589.65 431.419 589.163 428.041 588.899L426.66 589.081Z"/><path fill="#FDFDFD" transform="scale(0.204161 0.204161)" d="M529.631 652.528C531.069 652.972 531.226 652.963 532.547 653.634C532.572 653.591 531.404 655.067 531.738 655.333C534.722 657.708 542.751 659.849 546.652 661.165C544.274 662.087 545.171 661.603 542.996 661.485C539.865 661.314 541.438 663.598 544.261 663.227C546.62 662.916 547.717 664.433 548.977 666.121C543.392 663.537 526.936 659.388 522.42 655.923C523.908 654.81 524.241 654.767 523.04 653.28L522.958 653.075C525.223 652.926 527.321 652.66 529.631 652.528Z"/><path fill="#FDFDFD" transform="scale(0.204161 0.204161)" d="M432.422 628.776C432.141 627.979 431.947 627.688 432.9 627.317C438.294 625.216 443.906 623.106 449.51 621.631L451.508 621.119C457.243 619.742 463.292 618.644 469.152 618.138C469.382 618.118 470.518 619.701 470.762 619.949C458.033 619.787 444.399 624.791 432.422 628.776Z"/><path fill="#FDFDFD" transform="scale(0.204161 0.204161)" d="M588.661 670.524C589.98 670.663 591.378 670.92 592.748 671.092C594.011 671.251 595.267 671.456 596.515 671.705C595.673 672.265 594.834 672.831 593.998 673.401C592.715 674.092 593.636 674.847 593.163 674.881C590.101 675.099 586.261 673.928 583.241 673.578C580.057 673.208 576.956 672.176 573.92 671.651C578.102 671.439 585.811 672.529 588.661 670.524Z"/><path fill="#FDFDFD" transform="scale(0.204161 0.204161)" d="M662.041 532.441C663.635 536.261 664.533 539.148 665.488 543.097C664.809 544.173 664.479 544.546 663.675 545.571C662.804 544.273 661.699 539.274 661.311 537.577C661.901 535.823 661.852 534.291 662.041 532.441Z"/><path fill="#282C41" transform="scale(0.204161 0.204161)" d="M597.039 495.438L598.189 495.442L598.748 495.657C598.835 496.571 598.791 496.492 599.12 497.284C597.027 501.234 596.342 499.602 595.043 496.329L596.109 495.432L597.039 495.438Z"/><path fill="#2E2C32" transform="scale(0.204161 0.204161)" d="M521.06 663.328C523.165 664.735 524.694 665.929 526.499 667.705L519.263 665.836C519.993 664.683 520.189 664.379 521.06 663.328Z"/><path fill="#FDFDFD" transform="scale(0.204161 0.204161)" d="M422.333 590.447C422.316 590.625 422.299 590.804 422.281 590.982C422.187 591.307 422.674 592.105 422.448 592.275C421.506 592.95 420.321 593.004 419.243 593.415C418.588 593.665 417.706 593.832 417.063 593.413C416.689 593.169 416.314 592.969 415.928 592.76L420.508 591.092C420.806 590.988 421.105 590.885 421.404 590.781L422.333 590.447Z"/><path fill="#161516" transform="scale(0.204161 0.204161)" d="M381.557 613.331C385.74 614.879 400.528 617.566 405.165 618.164C402.903 625.782 400.927 632.631 399.098 640.349L396.26 637.432C390.466 636.445 384.682 635.143 378.931 633.912C376.708 640.815 374.879 649.749 373.808 656.82C367.365 655.983 358.215 653.774 351.789 652.183C350.656 659.832 348.374 668.208 346.776 675.944C342.758 676.008 337.501 675.604 333.252 675.53C324.472 675.349 315.396 675.773 306.511 675.737C314.102 666.858 323.437 657.04 329.727 647.245C336.907 648.516 343.613 649.575 350.698 651.373C352.098 643.443 354.603 636.638 356.007 629.054C360.174 628.967 373.769 631.638 378.032 632.623C378.953 626.352 380.528 619.783 381.557 613.331Z"/><path fill="#B88B6C" transform="scale(0.204161 0.204161)" d="M329.715 649.851C331.482 652.044 333.981 657.188 335.857 660.139C334.681 660.904 328.307 664.838 328.12 665.285C326.237 669.766 335.779 662.162 336.516 661.653C339.171 665.871 341.75 670.373 344.384 674.641L335.619 674.406C333.04 673.733 313.443 674.537 309.121 674.615C316.619 665.872 322.474 658.831 329.715 649.851Z"/><path fill="#B88B6C" transform="scale(0.204161 0.204161)" d="M356.616 629.788C363.3 630.726 371.332 632.292 377.896 633.827C376.763 637.821 375.731 641.621 374.92 645.711C375.161 644.494 374.534 647.471 374.578 647.28C374.062 649.501 373.774 652.283 372.809 654.326C372.533 654.91 370.95 652.111 371.066 652.302C369.287 649.401 367.306 646.452 365.632 643.574C366.472 642.869 371.368 639.311 371.197 638.801C370.166 638.208 365.648 642.244 364.825 642.9C362.814 639.472 358.924 633.065 356.616 629.788Z"/><path fill="#B88B6C" transform="scale(0.204161 0.204161)" d="M330.829 648.582C337.313 649.836 343.95 651.056 350.452 652.267C349.425 657.647 347.589 669.848 345.549 674.334C342.942 670.035 340.171 665.105 337.614 660.708C343.303 656.828 342.42 655.819 336.916 659.465C334.966 655.904 332.688 652.098 330.829 648.582Z"/><path fill="#B88B6C" transform="scale(0.204161 0.204161)" d="M356.694 632.854C358.195 634.518 362.22 641.463 363.832 643.841C362.849 644.668 357.308 649.111 357.17 649.618C356.273 652.91 364.719 644.787 364.707 644.797C365.92 646.92 367.068 648.73 368.335 650.79C369.413 652.508 370.348 653.699 371.561 655.288C365.093 654.046 358.197 652.752 351.829 651.189L353.383 644.742C354.212 641.271 355.511 636.228 356.694 632.854Z"/><path fill="#B88B6C" transform="scale(0.204161 0.204161)" d="M402.098 618.896C402.213 618.94 403.157 619.236 403.136 619.372C402.234 625.319 399.991 631.852 398.568 637.908C397.747 636.789 396.982 635.759 396.129 634.664C394.639 632.431 391.968 628.859 390.843 626.58L390.515 625.945C394.418 623.687 398.279 621.29 402.098 618.896Z"/><path fill="#B88B6C" transform="scale(0.204161 0.204161)" d="M383.34 615.154C383.671 615.219 384.003 615.283 384.334 615.348C387.735 615.986 391.126 616.674 394.507 617.411C396.778 617.875 399.035 618.371 401.293 618.893C399.951 619.61 398.6 620.308 397.239 620.989C394.732 622.404 392.17 623.634 389.631 624.989L389.445 624.706C387.722 622.033 384.64 617.889 383.34 615.154Z"/><path fill="#B88B6C" transform="scale(0.204161 0.204161)" d="M382.552 617.366C384.499 619.853 385.822 622.732 387.967 625.312L388.568 626.059C387.08 627.173 385.538 628.337 384.037 629.424L379.299 632.499C380.296 627.535 381.179 622.232 382.552 617.366Z"/><path fill="#B88B6C" transform="scale(0.204161 0.204161)" d="M388.909 627.344C389.98 628.111 394.285 634.794 395.147 636.226C393.314 635.873 391.117 635.549 389.366 635.158C386.328 634.45 383.609 634.025 380.607 633.072C383.707 631.146 385.974 629.5 388.909 627.344Z"/><path fill="#161516" transform="scale(0.204161 0.204161)" d="M611.601 566.054C621.48 574.143 631.736 581.76 642.334 588.879C642.864 593.195 646.582 607.295 647.814 611.632C652.673 609.784 657.496 607.842 662.28 605.809C664.242 604.729 664.695 604.253 666.742 603.871C667.346 609.267 668.404 613.239 669.343 618.508C670.069 622.584 672.501 626.765 668.53 627.585C664.67 629.151 656.83 632.046 652.907 633.289C651.31 633.958 650.033 634.623 648.485 635.319C648.732 632.311 648.848 630.302 648.932 627.296C648.609 622.106 648.274 618.296 647.556 613.114C639.606 613.11 632.206 612.75 624.256 612.342C624.083 607.898 621.252 598.882 619.97 594.332C617.39 584.845 614.6 575.417 611.601 566.054Z"/><defs><linearGradient id="gradient_0" gradientUnits="userSpaceOnUse" x1="648.10919" y1="618.13605" x2="658.28198" y2="622.02722"><stop offset="0" stop-color="#130F0D"/><stop offset="1" stop-color="#242739"/></linearGradient></defs><path fill="url(#gradient_0)" transform="scale(0.204161 0.204161)" d="M662.28 605.809C664.242 604.729 664.695 604.253 666.742 603.871C667.346 609.267 668.404 613.239 669.343 618.508C670.069 622.584 672.501 626.765 668.53 627.585C664.67 629.151 656.83 632.046 652.907 633.289C651.31 633.958 650.033 634.623 648.485 635.319C648.732 632.311 648.848 630.302 648.932 627.296L650.865 628.186C650.298 625.766 649.11 617.919 649.288 615.457L649.786 614.58C648.255 612.995 646.835 611.949 650.779 611.664C654.056 611.428 659.469 607.962 661.697 607.649C662.063 607.827 662.28 608.259 662.508 608.582C663.002 609.015 663.456 609.387 663.964 609.801L664.315 608.823C662.901 607.748 663.066 607.557 662.28 605.809Z"/><path fill="#B88B6C" transform="scale(0.204161 0.204161)" d="M662.28 605.809C664.242 604.729 664.695 604.253 666.742 603.871C667.346 609.267 668.404 613.239 669.343 618.508C670.069 622.584 672.501 626.765 668.53 627.585C667 626.415 667.355 625.465 667.521 623.452C664.319 622.343 662.145 620.723 659.05 619.604C659.602 618.115 662.63 612.888 663.539 611.255L663.964 609.801L664.315 608.823C662.901 607.748 663.066 607.557 662.28 605.809Z"/><defs><linearGradient id="gradient_1" gradientUnits="userSpaceOnUse" x1="668.85626" y1="617.05774" x2="665.64374" y2="617.94226"><stop offset="0" stop-color="#2D292B"/><stop offset="1" stop-color="#20253E"/></linearGradient></defs><path fill="url(#gradient_1)" transform="scale(0.204161 0.204161)" d="M662.28 605.809C664.242 604.729 664.695 604.253 666.742 603.871C667.346 609.267 668.404 613.239 669.343 618.508C670.069 622.584 672.501 626.765 668.53 627.585C667 626.415 667.355 625.465 667.521 623.452C667.907 618.845 666.305 614.879 665.796 610.247L663.539 611.255L663.964 609.801L664.315 608.823C662.901 607.748 663.066 607.557 662.28 605.809Z"/><path fill="#282C41" transform="scale(0.204161 0.204161)" d="M662.28 605.809C664.242 604.729 664.695 604.253 666.742 603.871C666.443 606.171 667.01 606.876 665.261 608.309L664.315 608.823C662.901 607.748 663.066 607.557 662.28 605.809Z"/><path fill="#A9826B" transform="scale(0.204161 0.204161)" d="M665.261 608.309C665.466 608.986 665.62 609.565 665.796 610.247L663.539 611.255L663.964 609.801L664.315 608.823L665.261 608.309Z"/><path fill="#B88B6C" transform="scale(0.204161 0.204161)" d="M659.05 619.604C662.145 620.723 664.319 622.343 667.521 623.452C667.355 625.465 667 626.415 668.53 627.585C664.67 629.151 656.83 632.046 652.907 633.289C652.37 632.325 652.25 632.325 652.224 631.269C653.279 629.133 656.728 621.888 658.507 620.765L659.05 619.604Z"/><path fill="#282C41" transform="scale(0.204161 0.204161)" d="M659.05 619.604C662.145 620.723 664.319 622.343 667.521 623.452C667.355 625.465 667 626.415 668.53 627.585C664.67 629.151 656.83 632.046 652.907 633.289C652.37 632.325 652.25 632.325 652.224 631.269C653.984 631.035 665.028 626.911 667.437 626.063C664.451 624.495 661.06 622.935 658.507 620.765L659.05 619.604Z"/><path fill="#B88B6C" transform="scale(0.204161 0.204161)" d="M649.786 614.58C648.255 612.995 646.835 611.949 650.779 611.664C654.056 611.428 659.469 607.962 661.697 607.649C662.063 607.827 662.28 608.259 662.508 608.582C660.914 611.043 658.392 615.703 656.935 618.335C655.112 617.326 651.509 614.87 649.786 614.58Z"/><path fill="#B88B6C" transform="scale(0.204161 0.204161)" d="M649.288 615.457C651.407 616.537 653.683 618.308 656.027 619.63C654.793 621.699 652.114 626.477 650.865 628.186C650.298 625.766 649.11 617.919 649.288 615.457Z"/><path fill="#B88B6C" transform="scale(0.204161 0.204161)" d="M614.125 569.789C621.533 574.574 630.279 582.535 638.311 587.848L640.029 588.984C638.031 591.599 636.187 594.269 634.237 596.921C633.335 596.01 629.129 590.822 628.551 591.431L628.8 592.253L628.676 592.095C628.956 592.752 629.478 593.438 629.89 594.032C631.118 595.377 632.294 596.665 633.565 597.972C630.679 601.565 627.991 605.552 625.256 609.316L616.148 576.491L615.887 575.508C615.294 573.338 614.907 571.926 614.125 569.789Z"/><path fill="#B88B6C" transform="scale(0.204161 0.204161)" d="M640.785 590.842C641.89 591.986 645.762 608.504 646.629 611.606C640.021 611.644 633.01 611.689 626.432 611.167C628.081 608.545 629.67 606.337 631.379 603.792C632.541 602.199 633.572 600.765 634.783 599.198C638.656 603.389 641.71 607.392 645.74 611.504C642.728 606.228 639.55 602.756 635.501 598.208C637.486 595.592 639.043 593.671 640.785 590.842Z"/><path fill="#161516" transform="scale(0.204161 0.204161)" d="M530.262 584.401C532.462 584.592 564.763 607.618 570.91 610.765C564.336 611.08 557.399 611.399 550.881 612.215C544.745 612.687 531.862 613.917 526.414 615.779C523.088 609.434 517.779 603.502 513.018 598.172C517.499 593.878 525.181 588.052 530.262 584.401Z"/><path fill="#B88B6C" transform="scale(0.204161 0.204161)" d="M531.029 585.848C542.597 592.896 555.125 602.134 566.737 609.831C560.712 610.138 554.962 610.965 549.102 611.357C544.549 611.75 540.007 612.265 535.481 612.902C532.816 613.295 530.173 613.786 527.519 614.248C527.775 609.806 528.306 605.524 528.702 601.094C530.042 601.275 539.117 602.626 539.573 602.141C539.377 600.287 530.422 600.006 528.832 599.826C529.6 595.205 529.913 590.369 531.029 585.848Z"/><path fill="#B88B6C" transform="scale(0.204161 0.204161)" d="M528.43 586.997C529.292 587.918 527.816 597.778 527.616 599.61C526.749 599.556 521.218 598.932 520.861 599.359C520.93 600.531 526.44 600.851 527.493 601.013C526.901 604.072 526.471 609.198 525.798 612.146C525.786 612.197 525.728 612.186 525.652 612.187C525.527 612.052 525.403 611.918 525.278 611.783C521.538 606.203 518.634 603.087 514.639 597.901C518.813 594.118 524 590.622 528.43 586.997Z"/><path fill="#282C41" transform="scale(0.204161 0.204161)" d="M604.262 636.516C613.427 640.291 622.82 644.672 632.263 648.613C632.816 657.274 632.641 668.388 632.469 677.218C632.453 678.033 628.528 676.115 628.266 676.003C624.887 674.726 600.023 664.109 599.78 663.177C599.69 662.831 599.843 662.396 599.997 662.095C600.458 661.192 600.913 660.502 601.026 659.478C601.062 659.145 601.089 658.812 601.141 658.481C601.246 657.816 601.375 657.181 601.439 656.508C601.569 655.143 601.754 653.85 601.943 652.497C602.106 651.331 602.321 650.164 602.464 648.998C602.739 646.748 603.221 644.498 603.446 642.247C603.638 640.322 603.92 638.421 604.262 636.516Z"/><path fill="#B88B6C" transform="scale(0.204161 0.204161)" d="M606.157 641.74C607.897 641.274 607.229 640.515 608.594 640.696C613.796 643.23 620.981 646.304 626.327 648.611C624.006 649.577 617.964 652.557 615.907 652.261C614.903 652.663 614.986 652.653 614.317 653.485C612.72 654.681 605.455 657.905 603.312 658.89C604.242 653.594 604.627 646.651 606.157 641.74Z"/><path fill="#B88B6C" transform="scale(0.204161 0.204161)" d="M615.907 652.261C614.416 648.104 609.488 644.108 608.594 640.696C613.796 643.23 620.981 646.304 626.327 648.611C624.006 649.577 617.964 652.557 615.907 652.261Z"/><path fill="#2E2C32" transform="scale(0.204161 0.204161)" d="M606.157 641.74C607.897 641.274 607.229 640.515 608.594 640.696C609.488 644.108 614.416 648.104 615.907 652.261C614.903 652.663 614.986 652.653 614.317 653.485C611.759 649.686 608.831 645.441 606.157 641.74Z"/><path fill="#B88B6C" transform="scale(0.204161 0.204161)" d="M615.492 655.962C617.261 657.106 626.774 671.23 628.697 674.008C626.022 672.666 623.476 671.661 620.838 670.374C614.304 667.551 609.471 665.203 602.623 662.521C607.074 660.024 611.23 658.297 615.492 655.962Z"/><path fill="#B88B6C" transform="scale(0.204161 0.204161)" d="M629.14 650.437C629.292 650.478 630.13 650.686 630.161 650.843C630.962 654.873 630.175 667.587 630.257 670.916L630.313 672.573C628.959 670.581 627.995 668.992 626.454 667.068L618.132 655.006C621.47 653.49 625.691 651.656 629.14 650.437Z"/><path fill="#161516" transform="scale(0.204161 0.204161)" d="M606.75 511.456C606.928 511.566 607.062 511.61 607.144 511.77C607.093 513.279 600.489 522.587 599.254 524.389C602.722 527.918 614.364 540.263 617.27 545.039C617.321 545.123 617.253 545.234 617.157 545.317C616.487 545.216 608.143 535.479 606.828 534.042C604.099 531.155 601.431 528.177 598.645 525.252C597.056 527.696 595.556 530.237 593.894 532.607C591.632 531.519 587.925 530.375 587.418 527.497C586.848 524.266 589.215 519.356 592.769 519.005C594.468 518.836 597.463 522.155 598.689 523.248C601.465 519.503 604.109 514.846 606.75 511.456Z"/><path fill="#B88B6C" transform="scale(0.204161 0.204161)" d="M591.697 520.243C594.492 520.351 595.693 522.359 597.917 524.541C596.617 526.543 595.224 528.378 593.899 530.422C592.289 531.362 584.651 527.4 591.018 520.963L591.697 520.243Z"/><path fill="#FDFDFD" transform="scale(0.204161 0.204161)" d="M685.614 688.832C687.015 690.861 688.72 693.106 690.263 695.07C690.48 695.345 691.398 696.212 691.151 696.481L690.943 696.48C690.325 696.106 684.243 691.187 684.013 690.867C684.086 690.576 685.144 689.646 685.614 688.832Z"/><path fill="#FDFDFD" fill-opacity="0.074509807" transform="scale(0.204161 0.204161)" d="M601.326 593.835C601.483 593.725 601.978 593.247 602.304 593.327L602.348 593.404C602.231 593.782 601.954 593.918 601.632 594.182C601.457 594.302 600.987 594.832 600.655 594.675L600.638 594.603C600.767 594.217 600.981 594.125 601.326 593.835Z"/><path fill="#B88B6C" transform="scale(0.204161 0.204161)" d="M619.418 201.64C642.151 208.711 660.249 223.039 671.961 244.044C673.213 246.29 674.001 248.176 674.628 250.69C697.401 248.415 711.297 246.993 734.384 252.703L732.34 253.759C715.538 253.048 695.872 256.2 680.667 263.391C678.053 264.57 671.151 267.676 669.16 269.429C667.54 270.264 666.705 270.599 665.132 271.575C636.972 286.216 611.129 319.339 601.549 349.567C599.507 356 597.941 362.575 596.863 369.238C596.188 368.463 596.265 368.385 595.408 367.967C592.819 370.638 585.409 375.285 582.066 377.772C581.499 378.203 580.94 378.643 580.389 379.092C578.889 379.822 578.694 380.36 578.32 378.655C578.539 377.46 578.755 376.791 578.731 375.579C578.862 374.378 579.054 373.307 579.256 372.117C579.626 371.772 579.608 371.814 579.871 371.396C580.935 367.817 580.07 369.592 580.208 366.969C580.572 364.469 580.913 359.584 581.411 357.578L581.509 357.125C581.521 356.34 581.529 355.627 581.577 354.84C581.646 352.893 581.436 351.875 581.985 350.036C581.709 349.357 581.5 348.792 581.154 348.143C581.205 346.527 581.364 345.757 581.845 344.163C581.935 343.358 582.011 342.552 582.075 341.746C583.434 338.632 585.006 334.755 586.081 331.567C586.349 328.23 591.346 319.925 593.104 316.79C606.662 292.619 626.201 272.567 650.681 259.422C653.423 257.949 655.1 257.323 656.476 254.452C656.46 255.02 656.255 255.866 656.647 256.366C656.991 256.381 665.68 253.062 666.397 252.685C672.393 249.441 665.251 247.438 660.388 251.394C657.544 249.891 657.049 253.524 656.476 254.452C656.336 254.107 656.014 253.663 655.8 253.33L653.827 253.389C652.797 252.546 650.533 242.638 649.829 240.516C643.886 222.632 634.191 211.499 617.739 202.978L619.418 201.64Z"/><path fill="#282C41" transform="scale(0.204161 0.204161)" d="M580.208 366.969C584.334 363.017 588.052 361.365 592.571 358.134C592.911 359.363 593.163 360.296 593.408 361.553C593.631 362.602 593.716 363.051 594.095 364.05C594.561 365.934 594.61 366.223 595.408 367.967C592.819 370.638 585.409 375.285 582.066 377.772C581.499 378.203 580.94 378.643 580.389 379.092C578.889 379.822 578.694 380.36 578.32 378.655C578.539 377.46 578.755 376.791 578.731 375.579C578.862 374.378 579.054 373.307 579.256 372.117C579.626 371.772 579.608 371.814 579.871 371.396C580.935 367.817 580.07 369.592 580.208 366.969Z"/><path fill="#282C41" transform="scale(0.204161 0.204161)" d="M580.208 366.969C584.334 363.017 588.052 361.365 592.571 358.134C592.911 359.363 593.163 360.296 593.408 361.553C592.026 362.817 581.005 371.217 579.871 371.396C580.935 367.817 580.07 369.592 580.208 366.969Z"/><path fill="#9B7669" transform="scale(0.204161 0.204161)" d="M593.408 361.553C593.631 362.602 593.716 363.051 594.095 364.05C589.413 368.56 583.861 371.379 578.731 375.579C578.862 374.378 579.054 373.307 579.256 372.117C579.626 371.772 579.608 371.814 579.871 371.396C581.005 371.217 592.026 362.817 593.408 361.553Z"/><path fill="#282C41" transform="scale(0.204161 0.204161)" d="M581.509 357.125C584.807 356.169 592.138 348.966 591.994 354.812L591.986 355.614C592.167 356.689 592.231 357.107 592.571 358.134C588.052 361.365 584.334 363.017 580.208 366.969C580.572 364.469 580.913 359.584 581.411 357.578L581.509 357.125Z"/><path fill="#9B7669" transform="scale(0.204161 0.204161)" d="M591.986 355.614C592.167 356.689 592.231 357.107 592.571 358.134C588.052 361.365 584.334 363.017 580.208 366.969C580.572 364.469 580.913 359.584 581.411 357.578C581.788 363.159 580.279 363.132 586.153 359.293C588.084 358.031 590.015 356.813 591.986 355.614Z"/><path fill="#282C41" transform="scale(0.204161 0.204161)" d="M587.484 338.529L587.946 339.616C589.619 340.635 589.494 341.534 589.435 343.465C589.588 344.159 589.603 344.482 589.661 345.204C586.344 348.591 586.191 348.579 581.985 350.036C581.709 349.357 581.5 348.792 581.154 348.143C581.205 346.527 581.364 345.757 581.845 344.163C581.935 343.358 582.011 342.552 582.075 341.746C583.896 340.521 585.512 339.51 587.484 338.529Z"/><path fill="#9B7669" transform="scale(0.204161 0.204161)" d="M581.845 344.163C581.908 344.713 581.989 347.158 582.296 347.397C583.479 347.537 587.772 344.203 589.435 343.465C589.588 344.159 589.603 344.482 589.661 345.204C586.344 348.591 586.191 348.579 581.985 350.036C581.709 349.357 581.5 348.792 581.154 348.143C581.205 346.527 581.364 345.757 581.845 344.163Z"/><path fill="#A9826B" transform="scale(0.204161 0.204161)" d="M587.484 338.529L587.946 339.616C585.466 341.462 584.239 341.984 581.845 344.163C581.935 343.358 582.011 342.552 582.075 341.746C583.896 340.521 585.512 339.51 587.484 338.529Z"/><path fill="#282C41" transform="scale(0.204161 0.204161)" d="M589.661 345.204C589.752 345.46 591.271 348.982 590.771 349.219C588.87 350.118 583.245 354.616 581.577 354.84C581.646 352.893 581.436 351.875 581.985 350.036C586.191 348.579 586.344 348.591 589.661 345.204Z"/><path fill="#282C41" transform="scale(0.204161 0.204161)" d="M586.081 331.567C587.648 333.343 589.832 336.577 587.484 338.529C585.512 339.51 583.896 340.521 582.075 341.746C583.434 338.632 585.006 334.755 586.081 331.567Z"/><path fill="#B88B6C" transform="scale(0.204161 0.204161)" d="M392.613 572.527C393.423 572.989 394.167 573.275 395.026 573.643C395.562 573.728 396.047 573.821 396.579 573.925C398.483 574.486 400.251 574.856 402.173 575.48C401.828 578.012 398.256 597.937 397.556 598.952L395.957 599.726C394.805 599.591 394.227 599.46 393.099 599.186C392.691 599.041 392.284 598.895 391.876 598.749C389.477 597.991 389.635 598.045 387.131 597.786L384.577 597.315C359.001 592.628 323.357 607.322 302.383 621.868C272.592 642.618 252.448 674.523 246.523 710.341C245.658 715.324 244.656 724.168 244.598 729.393C244.371 730.524 244.14 731.623 243.961 732.765C232.014 673.215 260.519 620.49 313.371 591.928C321.983 587.274 330.712 584.114 339.821 580.638C341.413 580.165 342.54 579.976 344.121 579.579L346.015 579.351C347.893 579.117 349.192 579.068 351.059 578.69C351.909 578.532 351.859 578.502 352.675 578.553C353.781 578.542 354.886 578.496 355.989 578.417L356.501 578.475C357.379 578.397 358.132 578.322 359.012 578.301C360.955 578.349 361.252 578.273 363.155 577.949C363.798 577.721 364.422 577.501 365.058 577.256L365.572 577.533C366.591 577.447 367.609 577.351 368.627 577.243C369.631 576.817 370.749 576.831 371.822 576.685C373.206 576.505 374.588 576.311 375.968 576.103C375.812 575.586 375.665 575.128 375.539 574.601L377.58 575.875L380.633 574.843L381.083 575.016C381.794 574.906 382.347 574.821 383.053 574.664C384.974 574.252 386.907 573.895 388.823 573.456L390.15 572.919C391.369 572.873 391.422 572.843 392.613 572.527Z"/><path fill="#282C41" transform="scale(0.204161 0.204161)" d="M392.613 572.527C393.423 572.989 394.167 573.275 395.026 573.643C395.562 573.728 396.047 573.821 396.579 573.925C398.483 574.486 400.251 574.856 402.173 575.48C401.828 578.012 398.256 597.937 397.556 598.952L395.957 599.726C394.805 599.591 394.227 599.46 393.099 599.186C392.691 599.041 392.284 598.895 391.876 598.749C389.477 597.991 389.635 598.045 387.131 597.786L384.577 597.315L384.78 597.002C386.309 595.586 386.412 582.598 387.63 579.759C387.938 579.042 388.735 574.361 388.823 573.456L390.15 572.919C391.369 572.873 391.422 572.843 392.613 572.527Z"/><path fill="#282C41" transform="scale(0.204161 0.204161)" d="M392.613 572.527C393.423 572.989 394.167 573.275 395.026 573.643C393.919 581.536 391.853 590.945 391.876 598.749C389.477 597.991 389.635 598.045 387.131 597.786L384.577 597.315L384.78 597.002C386.309 595.586 386.412 582.598 387.63 579.759C387.938 579.042 388.735 574.361 388.823 573.456L390.15 572.919C391.369 572.873 391.422 572.843 392.613 572.527Z"/><path fill="#B88B6C" transform="scale(0.204161 0.204161)" d="M388.823 573.456L390.15 572.919C389.803 576.646 389.363 580.064 388.946 583.748L387.439 595.998C387.366 596.619 387.25 597.176 387.131 597.786L384.577 597.315L384.78 597.002C386.309 595.586 386.412 582.598 387.63 579.759C387.938 579.042 388.735 574.361 388.823 573.456Z"/><path fill="#A9826B" transform="scale(0.204161 0.204161)" d="M395.026 573.643C395.562 573.728 396.047 573.821 396.579 573.925C395.836 582.434 393.944 590.878 393.099 599.186C392.691 599.041 392.284 598.895 391.876 598.749C391.853 590.945 393.919 581.536 395.026 573.643Z"/><path fill="#282C41" transform="scale(0.204161 0.204161)" d="M383.053 574.664C384.974 574.252 386.907 573.895 388.823 573.456C388.735 574.361 387.938 579.042 387.63 579.759C386.412 582.598 386.309 595.586 384.78 597.002C382.583 596.246 381.582 596.657 380.862 594.502C381.922 590.628 382.731 579.255 383.053 574.664Z"/><path fill="#282C41" transform="scale(0.204161 0.204161)" d="M381.083 575.016C381.794 574.906 382.347 574.821 383.053 574.664C382.731 579.255 381.922 590.628 380.862 594.502C380.744 594.768 380.495 595.492 380.236 595.671C379.924 595.644 379.567 595.227 379.35 595.057C378.783 595.055 377.165 595.218 376.652 594.748C376.52 594.627 377.631 577.878 377.58 575.875L380.633 574.843L381.083 575.016Z"/><path fill="#B88B6C" transform="scale(0.204161 0.204161)" d="M381.083 575.016C381.794 574.906 382.347 574.821 383.053 574.664C382.731 579.255 381.922 590.628 380.862 594.502C380.744 594.768 380.495 595.492 380.236 595.671C379.924 595.644 379.567 595.227 379.35 595.057C379.515 591.075 381.433 577.512 381.083 575.016Z"/><path fill="#282C41" transform="scale(0.204161 0.204161)" d="M368.627 577.243C368.999 577.375 369.365 577.458 369.672 577.699C369.659 577.66 368.02 590.865 368.014 592.781C365.868 592.465 365.519 592.668 363.9 591.359C363.13 591.234 363.214 591.232 362.701 590.609C362.248 585.836 362.904 582.703 363.155 577.949C363.798 577.721 364.422 577.501 365.058 577.256L365.572 577.533C366.591 577.447 367.609 577.351 368.627 577.243Z"/><path fill="#B88B6C" transform="scale(0.204161 0.204161)" d="M365.058 577.256L365.572 577.533C364.688 579.24 364.864 587.587 363.9 591.359C363.13 591.234 363.214 591.232 362.701 590.609C362.248 585.836 362.904 582.703 363.155 577.949C363.798 577.721 364.422 577.501 365.058 577.256Z"/><path fill="#282C41" transform="scale(0.204161 0.204161)" d="M375.968 576.103C376.48 581.224 374.515 587.792 374.502 593.019C374.496 595.403 371.284 593.892 369.821 593.358C370.114 591.514 371.672 576.875 371.822 576.685C373.206 576.505 374.588 576.311 375.968 576.103Z"/><path fill="#282C41" transform="scale(0.204161 0.204161)" d="M355.989 578.417L356.501 578.475C356.515 579.871 357.124 589.405 355.558 589.101C355.339 589.059 352.773 588.109 352.102 587.919C351.434 587.394 351.455 587.427 350.633 587.053C350.715 584.275 350.919 581.475 351.059 578.69C351.909 578.532 351.859 578.502 352.675 578.553C353.781 578.542 354.886 578.496 355.989 578.417Z"/><path fill="#B88B6C" transform="scale(0.204161 0.204161)" d="M351.059 578.69C351.909 578.532 351.859 578.502 352.675 578.553C352.659 581.91 352.76 584.643 352.102 587.919C351.434 587.394 351.455 587.427 350.633 587.053C350.715 584.275 350.919 581.475 351.059 578.69Z"/><path fill="#282C41" transform="scale(0.204161 0.204161)" d="M359.012 578.301C360.955 578.349 361.252 578.273 363.155 577.949C362.904 582.703 362.248 585.836 362.701 590.609C361.109 592.369 358.286 589.717 358.285 589.864C358.305 586.148 358.902 582.145 359.012 578.301Z"/><path fill="#282C41" transform="scale(0.204161 0.204161)" d="M346.015 579.351C347.893 579.117 349.192 579.068 351.059 578.69C350.919 581.475 350.715 584.275 350.633 587.053C344.926 586.324 346.234 584.371 346.015 579.351Z"/><path fill="#2E2C32" transform="scale(0.204161 0.204161)" d="M339.821 580.638C341.413 580.165 342.54 579.976 344.121 579.579C344.134 580.317 344.453 583.229 343.845 583.61C342.024 584.753 340.349 581.738 339.821 580.638Z"/><path fill="#B88B6C" transform="scale(0.204161 0.204161)" d="M562.117 349.489C563.381 352.117 563.395 355.78 564.097 358.417C565.52 363.754 570.351 386.758 572.376 390.468C569.091 401.624 564.862 412.055 561.922 423.571C555.152 450.091 555.62 480.236 564.334 506.247C567.784 516.546 571.532 522.742 575.206 531.764C566.701 527.992 558.294 522.6 549.724 518.732C547.566 517.758 547.076 513.95 544.719 513.028C544.737 512.229 544.726 512.293 545.235 511.754C544.963 507.404 543.197 509.79 540.977 510.616L540.497 509.126C541.404 508.877 541.887 508.612 542.749 508.231C544.002 505.626 539.981 495.95 539.191 491.951C536.084 475.778 535.14 459.265 536.383 442.843C537.441 429.068 541.207 412.476 546.977 399.823C555.086 382.038 559.305 368.789 562.117 349.489Z"/><path fill="#B88B6C" transform="scale(0.204161 0.204161)" d="M433.413 535.283C435.853 535.179 444.46 534.117 447.196 534.426C447.704 534.484 447.073 535.354 450.071 535.443C460.245 535.937 469.919 535.409 480.205 536.584C482.673 537.221 486.198 537.755 488.752 537.401C490.662 537.396 492.741 538.955 494.744 539.437C497.54 540.111 500.858 539.153 503.252 540.752C503.916 541.195 503.88 541.873 504.976 542.453C506.043 542.794 506.743 543.162 507.767 543.644L508.177 543.983C509.403 545.03 511.095 546.143 511.574 544.184C512.091 545.576 512.497 545.66 513.537 546.86C514.564 548.152 514.669 548.403 515.435 549.828L515.905 550.68C517.19 553.889 525.766 574.294 525.62 575.615L525.018 575.932C521.236 573.716 519.871 571.111 515.818 569.345C488.399 557.171 457.923 553.632 428.443 559.197C423.852 560.097 391.663 568.83 389.993 570.257L390.563 571.383C389.549 571.164 388.999 571.073 388.348 570.212L388.046 569.827C380.309 565.25 355.287 562.823 350.333 560.108C375.876 557.837 397.163 545.015 422.154 539.379C424.03 538.975 425.318 538.573 427.277 538.236C431.557 537.334 430.051 537.078 433.413 535.283Z"/><path fill="#282C41" transform="scale(0.204161 0.204161)" d="M495.465 495.277C497.514 495.248 498.027 495.284 500.057 495.577C501.325 496.851 502.332 496.734 503.723 498.324C506.744 501.051 516.211 506.295 520.184 508.155C522.639 509.61 527.466 511.643 529.011 512.66C530.928 513.886 532.33 514.561 534.47 515.366C536.774 516.584 539.701 518.071 542.166 518.925C542.629 519.086 542.695 517.488 542.698 517.454C543.547 521.003 549.287 522.413 552.601 524.106C564.341 544.832 576.472 565.889 590.194 585.372C593.908 590.645 598.935 598.267 603.317 602.732L602.577 603.184C598.645 599.381 587.96 592.451 582.965 589.435C563.579 577.727 542.992 567.307 522.787 557.049C521.15 554.364 519.248 550.113 517.831 547.169C517.629 545.703 516.513 543.096 515.714 541.866L515.308 540.567C514.728 539.442 514.205 538.27 513.661 537.122L513.513 535.738C512.189 533.579 509.581 526.816 508.391 524.061C505.55 517.482 502.558 511.236 499.572 504.758C498.404 502.175 496.03 497.823 495.465 495.277Z"/><path fill="#282C41" transform="scale(0.204161 0.204161)" d="M427.474 428.548C444.088 440.276 462.588 453.7 480.96 463.011C483.095 464.093 487.337 464.32 489.494 465.818C495.468 470.415 507.845 478.52 514.967 480.556L515.727 481.071C518.088 482.777 522.435 483.747 524.658 485.449C528.015 487.065 531.676 488.939 535.153 490.175C536.732 496.997 538.759 502.555 540.497 509.126L540.977 510.616C542.67 513.708 541.903 513.91 538.993 512.553C537.955 512.075 536.914 511.605 535.869 511.144C535.419 510.803 534.97 510.557 534.446 510.339L533.678 510C530.776 508.758 523.193 504.757 520.284 503.19C515.611 500.672 509.279 497.866 504.909 495.113C504.191 494.599 504.216 494.632 503.355 494.289C496.871 490.785 490.052 486.536 483.312 482.858C486.135 488.707 489.265 493.771 492.164 499.38C492.54 500.869 493.854 503.665 494.78 504.862C497.971 511.663 501.407 518.732 504.182 525.69C506.016 530.288 509.431 536.523 510.945 541.088L509.655 541.144C508.374 540.696 507.103 540.218 505.846 539.707C505.102 539.416 504.411 539.098 503.623 538.922L502.844 538.724C501.66 538.275 500.459 537.873 499.244 537.519C498.237 537.234 497.409 537.003 496.404 536.68C494.421 536.004 490.778 534.401 488.759 534.573C482.809 519.315 474.302 502.113 466.345 487.809C465.412 486.269 464.639 484.882 463.752 483.324C462.225 479.189 455.904 469.917 453.442 465.764C453.157 465.401 453 465.189 452.674 464.861C444.758 450.906 437.678 441.139 427.474 428.548Z"/><path fill="#282C41" transform="scale(0.204161 0.204161)" d="M459.294 444.049C475.651 449.47 494.795 450.835 510.782 443.272C520.867 438.501 528.53 428.998 534.764 420.016C530.74 432.985 529.018 447.279 528.069 460.818C527.76 465.214 528.777 477.652 527.248 480.647C525.919 479.86 524.956 479.366 524.321 477.9L524.011 477.253C514.555 471.894 502.913 468.151 493.262 463.287C481.899 457.561 470.453 450.295 459.294 444.049Z"/><path fill="#282C41" transform="scale(0.204161 0.204161)" d="M447.654 465.564L448.982 467.862C449.33 468.965 449.482 469.346 450.315 470.172C452.282 473.956 454.996 477.575 456.763 481.442C458.195 484.577 458.896 483.676 460.849 485.752L461.236 486.155C461.286 489.229 462.369 491.911 463.721 494.623C468.476 505.828 473.277 516.14 477.854 527.568C466.296 527.495 460.559 528.029 449.549 528.554C444.715 528.99 436.602 530.074 431.973 531.203C430.081 531.685 428.17 532.058 426.294 532.594C425.436 532.839 425.343 532.809 424.654 533.294L422.477 533.019C428.893 528.303 437.198 518.857 441.075 511.945C448.794 498.373 450.817 482.294 446.702 467.232L447.654 465.564Z"/><path fill="#282C41" transform="scale(0.204161 0.204161)" d="M261.081 535.33C286.057 550.395 321.134 561.208 350.333 560.108C355.287 562.823 380.309 565.25 388.046 569.827L388.348 570.212C388.999 571.073 389.549 571.164 390.563 571.383L391.151 571.538C391.833 571.7 392.16 572.012 392.613 572.527C391.422 572.843 391.369 572.873 390.15 572.919L388.823 573.456C386.907 573.895 384.974 574.252 383.053 574.664C382.347 574.821 381.794 574.906 381.083 575.016L380.633 574.843C378.955 573.249 377.625 573.916 375.539 574.601C375.665 575.128 375.812 575.586 375.968 576.103C374.588 576.311 373.206 576.505 371.822 576.685C370.749 576.831 369.631 576.817 368.627 577.243C367.609 577.351 366.591 577.447 365.572 577.533L365.058 577.256C361.141 576.564 360.052 577.133 356.094 578.081C354.091 578.006 352.974 577.947 350.991 578.155L349.699 576.854C348.909 575.519 348.034 575.921 346.409 575.729C329.889 576.223 298.588 561.669 283.99 552.714C276.057 547.847 268.066 541.925 260.473 536.518L261.081 535.33Z"/><path fill="#FDFDFD" transform="scale(0.204161 0.204161)" d="M388.046 569.827L388.348 570.212C388.999 571.073 389.549 571.164 390.563 571.383L391.151 571.538C391.833 571.7 392.16 572.012 392.613 572.527C391.422 572.843 391.369 572.873 390.15 572.919L388.823 573.456C386.907 573.895 384.974 574.252 383.053 574.664C382.347 574.821 381.794 574.906 381.083 575.016L380.633 574.843C378.955 573.249 377.625 573.916 375.539 574.601C375.665 575.128 375.812 575.586 375.968 576.103C374.588 576.311 373.206 576.505 371.822 576.685C370.749 576.831 369.631 576.817 368.627 577.243C367.609 577.351 366.591 577.447 365.572 577.533L365.058 577.256C361.141 576.564 360.052 577.133 356.094 578.081C354.091 578.006 352.974 577.947 350.991 578.155L349.699 576.854C352.686 574.835 355.919 575.549 359.757 575.055C367.381 574.073 374.732 572.652 382.256 571.112L384.755 570.584C385.985 570.331 386.823 570.143 388.046 569.827Z"/><path fill="#282C41" transform="scale(0.204161 0.204161)" d="M542.165 264.17C554.279 281.125 564.473 299.139 572.277 318.485C577.261 330.839 578.897 341.331 578.395 354.53C577.87 355.793 578.052 356.886 578.048 358.283C577.751 362.265 576.697 367.508 576.722 371.369L576.308 374.156C575.919 375.027 575.993 375.161 575.835 376.242L575.545 378.251C575.455 378.855 575.336 379.464 575.239 380.069C574.338 384.119 573.712 386.56 572.376 390.468C570.351 386.758 565.52 363.754 564.097 358.417C563.395 355.78 563.381 352.117 562.117 349.489C561.962 315.553 555.847 295.402 541.487 264.921L542.165 264.17Z"/><path fill="#282C41" transform="scale(0.204161 0.204161)" d="M595.408 367.967C596.265 368.385 596.188 368.463 596.863 369.238C597.38 372.106 597.856 374.479 598.261 377.415C598.566 378.815 598.763 380.274 599.413 381.566C599.644 382.534 599.859 383.505 600.059 384.48C600.397 385.944 600.402 386.338 601.115 387.615C601.319 388.446 601.533 389.273 601.757 390.098C602.432 392.538 603.279 394.816 603.94 397.339C600.836 403.751 598.584 408.686 595.889 415.392C594.885 416.514 594.915 416.743 594.525 418.339C594.108 419.79 592.468 424.273 591.851 425.761C591.113 426.908 590.839 427.461 590.684 428.895C590.186 430.296 589.516 431.976 589.316 433.429C586.458 440.023 586.977 434.41 585.123 429.247C582.942 423.177 581.481 415.081 578.981 409.171C578.722 408.375 578.511 407.69 578.278 406.876C577.978 404.923 577.86 404.629 577.269 402.709C576.774 401.089 576.611 400.803 576.344 399.112C576.104 396.956 576.029 395.511 575.952 393.358C576.008 391.64 576.024 389.835 576.249 388.135L576.291 385.941C577.266 383.302 577.739 382.145 578.253 379.3C578.275 379.085 578.297 378.87 578.32 378.655C578.694 380.36 578.889 379.822 580.389 379.092C580.94 378.643 581.499 378.203 582.066 377.772C585.409 375.285 592.819 370.638 595.408 367.967Z"/><path fill="#282C41" transform="scale(0.204161 0.204161)" d="M601.757 390.098C602.432 392.538 603.279 394.816 603.94 397.339C600.836 403.751 598.584 408.686 595.889 415.392C594.885 416.514 594.915 416.743 594.525 418.339C594.108 419.79 592.468 424.273 591.851 425.761C591.113 426.908 590.839 427.461 590.684 428.895C590.186 430.296 589.516 431.976 589.316 433.429C586.458 440.023 586.977 434.41 585.123 429.247C582.942 423.177 581.481 415.081 578.981 409.171L579.509 408.777C587.347 403.01 594.548 396.591 601.757 390.098Z"/><path fill="#9B7669" transform="scale(0.204161 0.204161)" d="M595.408 367.967C596.265 368.385 596.188 368.463 596.863 369.238C597.38 372.106 597.856 374.479 598.261 377.415C592.615 381.68 582.053 390.319 575.952 393.358C576.008 391.64 576.024 389.835 576.249 388.135L576.291 385.941C577.266 383.302 577.739 382.145 578.253 379.3C578.275 379.085 578.297 378.87 578.32 378.655C578.694 380.36 578.889 379.822 580.389 379.092C580.94 378.643 581.499 378.203 582.066 377.772C585.409 375.285 592.819 370.638 595.408 367.967Z"/><path fill="#282C41" transform="scale(0.204161 0.204161)" d="M582.077 380.893C582.908 380.245 595.512 371.13 595.624 371.119C596.265 371.449 596.983 374.897 597.191 375.654C594.263 377.58 580.628 387.183 576.859 389.798C576.582 389.99 576.356 388.861 576.249 388.135L576.291 385.941C577.266 383.302 577.739 382.145 578.253 379.3C578.275 379.085 578.297 378.87 578.32 378.655C578.694 380.36 578.889 379.822 580.389 379.092C581.119 380.092 581.101 380.146 582.077 380.893Z"/><path fill="#A9826B" transform="scale(0.204161 0.204161)" d="M578.32 378.655C578.694 380.36 578.889 379.822 580.389 379.092C581.119 380.092 581.101 380.146 582.077 380.893C581.618 381.41 581.827 381.188 581.217 381.71L576.972 385.388C576.745 385.572 576.518 385.757 576.291 385.941C577.266 383.302 577.739 382.145 578.253 379.3C578.275 379.085 578.297 378.87 578.32 378.655Z"/><path fill="#282C41" transform="scale(0.204161 0.204161)" d="M598.261 377.415C598.566 378.815 598.763 380.274 599.413 381.566C592.417 387.304 583.981 394.368 576.344 399.112C576.104 396.956 576.029 395.511 575.952 393.358C582.053 390.319 592.615 381.68 598.261 377.415Z"/><path fill="#A9826B" transform="scale(0.204161 0.204161)" d="M576.344 399.112C583.981 394.368 592.417 387.304 599.413 381.566C599.644 382.534 599.859 383.505 600.059 384.48C594.371 388.762 581.841 398.096 577.269 402.709C576.774 401.089 576.611 400.803 576.344 399.112Z"/><path fill="#A9826B" transform="scale(0.204161 0.204161)" d="M578.278 406.876C584.107 403.051 595.837 392.412 601.115 387.615C601.319 388.446 601.533 389.273 601.757 390.098C594.548 396.591 587.347 403.01 579.509 408.777L578.981 409.171C578.722 408.375 578.511 407.69 578.278 406.876Z"/><path fill="#B88B6C" transform="scale(0.204161 0.204161)" d="M199.079 604.934C200.772 607.222 204.184 615.823 206.496 619.516C214.066 631.612 223.889 638.342 236.829 644.001C240.933 645.796 245.041 646.917 249.286 648.801C247.722 653.195 245.037 657.792 243.203 662.869L241.351 668.065C238.904 666.669 236.538 665.136 234.264 663.474C214.423 649.193 202.941 628.929 199.079 604.934Z"/><path fill="#FDFDFD" fill-opacity="0.22352941" transform="scale(0.204161 0.204161)" d="M601.32 613.842C600.902 611.272 600.092 611.97 601.858 608.718C603.913 604.935 604.221 602.437 609.038 605.393C610.709 606.418 611.147 612.37 609.734 613.981C608.487 615.459 606.523 615.501 604.819 616.274C603.777 615.649 602.108 614.68 601.32 613.842ZM606.709 612.331C608.848 609.096 609.928 605.965 605.008 605.211C602.534 610.206 601.186 611.694 606.709 612.331Z"/><path fill="#FDFDFD" fill-opacity="0.40392157" transform="scale(0.204161 0.204161)" d="M605.008 605.211C609.928 605.965 608.848 609.096 606.709 612.331C601.186 611.694 602.534 610.206 605.008 605.211Z"/><path fill="#FDFDFD" fill-opacity="0.39215687" transform="scale(0.204161 0.204161)" d="M431.973 531.203C436.602 530.074 444.715 528.99 449.549 528.554C447.03 531.136 449.605 532.89 450.071 535.443C447.073 535.354 447.704 534.484 447.196 534.426C444.46 534.117 435.853 535.179 433.413 535.283C435.053 531.795 432.552 533.96 431.973 531.203Z"/><path fill="#FDFDFD" fill-opacity="0.015686275" transform="scale(0.204161 0.204161)" d="M504.909 495.113C509.279 497.866 515.611 500.672 520.284 503.19C520.157 504.979 520.182 506.365 520.184 508.155C516.211 506.295 506.744 501.051 503.723 498.324C504.572 496.871 505.155 496.728 504.909 495.113Z"/><path fill="#FDFDFD" fill-opacity="0.94117647" transform="scale(0.204161 0.204161)" d="M581.154 348.143C581.5 348.792 581.709 349.357 581.985 350.036C581.436 351.875 581.646 352.893 581.577 354.84C581.529 355.627 581.521 356.34 581.509 357.125L581.411 357.578C580.913 359.584 580.572 364.469 580.208 366.969C580.07 369.592 580.935 367.817 579.871 371.396C579.608 371.814 579.626 371.772 579.256 372.117C578.162 370.945 578.387 371.118 576.722 371.369C576.697 367.508 577.751 362.265 578.048 358.283C579.655 358.219 579.984 354.018 580.187 352.747C580.383 351.029 580.786 349.787 581.154 348.143Z"/><path fill="#FDFDFD" transform="scale(0.204161 0.204161)" d="M540.977 510.616C543.197 509.79 544.963 507.404 545.235 511.754C544.726 512.293 544.737 512.229 544.719 513.028C544.107 514.528 543.367 515.978 542.698 517.454C542.695 517.488 542.629 519.086 542.166 518.925C539.701 518.071 536.774 516.584 534.47 515.366C534.544 515.361 538.776 515.181 538.276 515.433C540.642 514.243 536.287 514.612 535.869 511.144C536.914 511.605 537.955 512.075 538.993 512.553C541.903 513.91 542.67 513.708 540.977 510.616Z"/><path fill="#FDFDFD" fill-opacity="0.49019608" transform="scale(0.204161 0.204161)" d="M488.759 534.573C490.778 534.401 494.421 536.004 496.404 536.68C495.804 537.142 495.121 537.521 494.938 538.255C495.131 538.993 502.251 540.291 502.844 538.724L503.623 538.922C504.411 539.098 505.102 539.416 505.846 539.707C504.174 540.509 505.353 540.503 504.976 542.453C503.88 541.873 503.916 541.195 503.252 540.752C500.858 539.153 497.54 540.111 494.744 539.437C492.741 538.955 490.662 537.396 488.752 537.401C486.198 537.755 482.673 537.221 480.205 536.584C481.618 536.647 485.941 536.74 487.257 536.333C487.806 536.16 488.252 535.756 488.48 535.228C488.573 535.01 488.666 534.791 488.759 534.573Z"/><path fill="#FDFDFD" fill-opacity="0.12156863" transform="scale(0.204161 0.204161)" d="M524.011 477.253L524.321 477.9C524.956 479.366 525.919 479.86 527.248 480.647C528.876 481.76 525.671 484.325 524.658 485.449C522.435 483.747 518.088 482.777 515.727 481.071L514.967 480.556C517.729 481.406 517.002 480.672 519.245 480.999C521.98 481.398 519.947 480.564 523.154 479.369C523.589 478.768 522.933 478.553 524.011 477.253Z"/><path fill="#FDFDFD" fill-opacity="0.082352944" transform="scale(0.204161 0.204161)" d="M603.317 602.732C603.424 602.978 603.577 603.451 603.795 603.644C607.185 603.207 606.696 603.562 610.334 604.791C612.715 613.214 615.012 615.615 605.588 616.993L604.819 616.274C606.523 615.501 608.487 615.459 609.734 613.981C611.147 612.37 610.709 606.418 609.038 605.393C604.221 602.437 603.913 604.935 601.858 608.718C600.092 611.97 600.902 611.272 601.32 613.842C600.758 613.488 600.216 613.146 599.662 612.779C600.47 608.646 603.724 605.789 602.577 603.184L603.317 602.732Z"/><path fill="#FDFDFD" fill-opacity="0.42745098" transform="scale(0.204161 0.204161)" d="M492.164 499.38C495.079 498.835 494.065 495.232 495.465 495.277C496.03 497.823 498.404 502.175 499.572 504.758C497.776 504.467 496.012 503.038 494.78 504.862C493.854 503.665 492.54 500.869 492.164 499.38Z"/><path fill="#FDFDFD" fill-opacity="0.6901961" transform="scale(0.204161 0.204161)" d="M669.16 269.429C671.151 267.676 678.053 264.57 680.667 263.391C680.749 264.084 680.939 264.889 681.085 265.587C678.273 266.96 673.348 269.882 670.739 270.876L669.16 269.429Z"/><path fill="#FDFDFD" fill-opacity="0.9137255" transform="scale(0.204161 0.204161)" d="M656.476 254.452C657.049 253.524 657.544 249.891 660.388 251.394C662.399 252.048 664.308 252.24 666.397 252.685C665.68 253.062 656.991 256.381 656.647 256.366C656.255 255.866 656.46 255.02 656.476 254.452Z"/><path fill="#FDFDFD" fill-opacity="0.18431373" transform="scale(0.204161 0.204161)" d="M461.236 486.155C462.525 485.472 462.947 484.525 463.752 483.324C464.639 484.882 465.412 486.269 466.345 487.809C460.957 488.991 463.658 488.825 463.721 494.623C462.369 491.911 461.286 489.229 461.236 486.155Z"/><path fill="#FDFDFD" fill-opacity="0.39215687" transform="scale(0.204161 0.204161)" d="M515.714 541.866C516.513 543.096 517.629 545.703 517.831 547.169C517.59 547.421 516.242 550.109 515.905 550.68L515.435 549.828C514.669 548.403 514.564 548.152 513.537 546.86C514.107 544.759 514.816 543.659 515.714 541.866Z"/><path fill="#FDFDFD" fill-opacity="0.12156863" transform="scale(0.204161 0.204161)" d="M426.294 532.594C427.508 535.609 424.325 532.586 427.277 538.236C425.318 538.573 424.03 538.975 422.154 539.379C421.76 538.596 421.38 537.806 421.015 537.009L421.606 536.792C423.369 536.162 425.148 535.527 424.654 533.294C425.343 532.809 425.436 532.839 426.294 532.594Z"/><path fill="#FDFDFD" fill-opacity="0.33333334" transform="scale(0.204161 0.204161)" d="M660.388 251.394C665.251 247.438 672.393 249.441 666.397 252.685C664.308 252.24 662.399 252.048 660.388 251.394Z"/><path fill="#FDFDFD" fill-opacity="0.45882353" transform="scale(0.204161 0.204161)" d="M533.678 510L534.446 510.339C534.97 510.557 535.419 510.803 535.869 511.144C536.287 514.612 540.642 514.243 538.276 515.433C538.776 515.181 534.544 515.361 534.47 515.366C532.33 514.561 530.928 513.886 529.011 512.66C529.701 512.868 535.244 514.867 535.689 513.673C535.468 512.32 533.923 513.486 533.678 510Z"/><path fill="#FDFDFD" fill-opacity="0.023529412" transform="scale(0.204161 0.204161)" d="M594.525 418.339C597.228 421.113 594.676 424.48 593.216 427.993C592.672 427.004 592.483 426.68 591.851 425.761C592.468 424.273 594.108 419.79 594.525 418.339Z"/><path fill="#FDFDFD" fill-opacity="0.30980393" transform="scale(0.204161 0.204161)" d="M452.674 464.861C453 465.189 453.157 465.401 453.442 465.764C452.872 466.93 452.257 468.032 451.803 469.249C451.355 470.452 451.157 469.449 450.315 470.172C449.482 469.346 449.33 468.965 448.982 467.862C451.356 462.871 451.412 465.976 452.674 464.861Z"/><path fill="#FDFDFD" fill-opacity="0.3137255" transform="scale(0.204161 0.204161)" d="M576.308 374.156C576.438 374.534 576.502 374.933 576.849 375.159C578.171 374.757 577.504 376.648 578.731 375.579C578.755 376.791 578.539 377.46 578.32 378.655C578.297 378.87 578.275 379.085 578.253 379.3C576.8 379.483 576.545 379.422 575.239 380.069C575.336 379.464 575.455 378.855 575.545 378.251L575.835 376.242C575.993 375.161 575.919 375.027 576.308 374.156Z"/><path fill="#FDFDFD" fill-opacity="0.062745102" transform="scale(0.204161 0.204161)" d="M511.703 543.565C514.243 541.624 511.751 540.998 515.308 540.567L515.714 541.866C514.816 543.659 514.107 544.759 513.537 546.86C512.497 545.66 512.091 545.576 511.574 544.184L511.703 543.565Z"/><path fill="#FDFDFD" fill-opacity="0.23529412" transform="scale(0.204161 0.204161)" d="M496.404 536.68C497.409 537.003 498.237 537.234 499.244 537.519C500.459 537.873 501.66 538.275 502.844 538.724C502.251 540.291 495.131 538.993 494.938 538.255C495.121 537.521 495.804 537.142 496.404 536.68Z"/><path fill="#FDFDFD" fill-opacity="0.25098041" transform="scale(0.204161 0.204161)" d="M505.846 539.707C507.103 540.218 508.374 540.696 509.655 541.144C509.281 542.733 509.242 543.046 507.767 543.644C506.743 543.162 506.043 542.794 504.976 542.453C505.353 540.503 504.174 540.509 505.846 539.707Z"/><path fill="#FDFDFD" fill-opacity="0.98823529" transform="scale(0.204161 0.204161)" d="M399.054 599.577C400.274 599.195 401.306 598.645 402.564 598.824L403.929 599.454C402.989 600.301 401.312 601.805 400.066 601.009C398.11 600.113 398.13 600.131 395.957 599.726L397.556 598.952L399.054 599.577Z"/><path fill="#FDFDFD" fill-opacity="0.098039217" transform="scale(0.204161 0.204161)" d="M590.684 428.895C590.982 430.231 591.281 431.4 591.634 432.723C590.473 434.815 590.012 436.762 589.497 439.045C589.451 438.671 589.401 438.298 589.345 437.925C589.067 436.126 589.451 435.203 589.316 433.429C589.516 431.976 590.186 430.296 590.684 428.895Z"/><path fill="#FDFDFD" fill-opacity="0.17254902" transform="scale(0.204161 0.204161)" d="M503.355 494.289C504.216 494.632 504.191 494.599 504.909 495.113C505.155 496.728 504.572 496.871 503.723 498.324C502.332 496.734 501.325 496.851 500.057 495.577C501.291 495.334 502.187 494.8 503.355 494.289Z"/><path fill="#FDFDFD" fill-opacity="0.58039218" transform="scale(0.204161 0.204161)" d="M590.684 428.895C590.839 427.461 591.113 426.908 591.851 425.761C592.483 426.68 592.672 427.004 593.216 427.993C592.83 429.392 592.11 431.23 591.634 432.723C591.281 431.4 590.982 430.231 590.684 428.895Z"/><path fill="#FDFDFD" fill-opacity="0.86274511" transform="scale(0.204161 0.204161)" d="M510.945 541.088C511.375 542.095 511.434 542.453 511.703 543.565L511.574 544.184C511.095 546.143 509.403 545.03 508.177 543.983L507.767 543.644C509.242 543.046 509.281 542.733 509.655 541.144L510.945 541.088Z"/><path fill="#FDFDFD" fill-opacity="0.3019608" transform="scale(0.204161 0.204161)" d="M669.16 269.429L670.739 270.876C668.671 271.788 668 272.552 666.142 273.599L665.132 271.575C666.705 270.599 667.54 270.264 669.16 269.429Z"/><path fill="#FDFDFD" fill-opacity="0.082352944" transform="scale(0.204161 0.204161)" d="M576.722 371.369C578.387 371.118 578.162 370.945 579.256 372.117C579.054 373.307 578.862 374.378 578.731 375.579C577.504 376.648 578.171 374.757 576.849 375.159C576.502 374.933 576.438 374.534 576.308 374.156L576.722 371.369Z"/><path fill="#FDFDFD" fill-opacity="0.88235295" transform="scale(0.204161 0.204161)" d="M422.477 533.019L424.654 533.294C425.148 535.527 423.369 536.162 421.606 536.792L421.015 537.009C420.889 534.746 421.052 534.836 422.477 533.019Z"/><path fill="#FDFDFD" fill-opacity="0.59607846" transform="scale(0.204161 0.204161)" d="M406.79 596.541C408.214 595.566 409.25 594.891 411.015 594.785L412.752 595.796C411.313 596.365 410.169 596.796 408.767 597.493L406.79 596.541Z"/><path fill="#5B5D5E" fill-opacity="0.74117649" transform="scale(0.204161 0.204161)" d="M254.61 531.984C254.548 531.785 254.274 531.155 254.37 530.868C254.801 530.988 260.149 534.72 261.081 535.33L260.473 536.518C258.809 535.245 257.154 533.912 255.488 532.647C255.131 532.33 255.014 532.24 254.61 531.984Z"/><path fill="#FDFDFD" fill-opacity="0.59215689" transform="scale(0.204161 0.204161)" d="M356.094 578.081C360.052 577.133 361.141 576.564 365.058 577.256C364.422 577.501 363.798 577.721 363.155 577.949C361.252 578.273 360.955 578.349 359.012 578.301C358.132 578.322 357.379 578.397 356.501 578.475L355.989 578.417L356.094 578.081Z"/><path fill="#FDFDFD" fill-opacity="0.074509807" transform="scale(0.204161 0.204161)" d="M627.61 434.03L628.049 436.492C627.135 438.418 627.169 438.821 625.738 440.187L624.865 439.645C626.032 437.13 626.175 436.431 627.61 434.03Z"/><path fill="#FDFDFD" fill-opacity="0.10980392" transform="scale(0.204161 0.204161)" d="M346.409 575.729C348.034 575.921 348.909 575.519 349.699 576.854L350.991 578.155C348.156 578.252 346.389 578.989 346.409 575.729Z"/><path fill="#FDFDFD" fill-opacity="0.019607844" transform="scale(0.204161 0.204161)" d="M406.79 596.541L408.767 597.493C407.021 598.168 406.177 598.727 404.307 599.329L403.929 599.454L402.564 598.824C404.21 597.532 404.926 597.391 406.79 596.541Z"/><path fill="#FDFDFD" fill-opacity="0.46666667" transform="scale(0.204161 0.204161)" d="M627.61 434.03C627.899 433.301 628.16 432.626 628.557 431.948C629.135 432.195 629.704 432.413 630.288 432.642C629.396 434.001 628.973 435.108 628.049 436.492L627.61 434.03Z"/><path fill="#5B5D5E" fill-opacity="0.87450981" transform="scale(0.204161 0.204161)" d="M541.487 264.921C539.564 262.187 538.284 260.248 537.116 257.147C538.859 259.448 540.654 261.707 542.165 264.17L541.487 264.921Z"/><path fill="#FDFDFD" fill-opacity="0.054901961" transform="scale(0.204161 0.204161)" d="M247.834 653.027C250.677 653.14 251.622 652.552 251.383 655.549C250.178 655.264 248.361 655.002 247.994 653.577L247.834 653.027Z"/><path fill="#FDFDFD" fill-opacity="0.49411765" transform="scale(0.204161 0.204161)" d="M580.187 352.747C579.984 354.018 579.655 358.219 578.048 358.283C578.052 356.886 577.87 355.793 578.395 354.53L580.187 352.747Z"/><path fill="#FDFDFD" fill-opacity="0.22745098" transform="scale(0.204161 0.204161)" d="M375.539 574.601C377.625 573.916 378.955 573.249 380.633 574.843L377.58 575.875L375.539 574.601Z"/><path fill="#BF9678" fill-opacity="0.94509804" transform="scale(0.204161 0.204161)" d="M734.384 252.703C735.147 252.886 737.854 253.27 738.293 253.788C738.317 254.508 732.927 253.833 732.34 253.759L734.384 252.703Z"/><path fill="#BF9678" fill-opacity="0.98431373" transform="scale(0.204161 0.204161)" d="M615.416 200.73C616.984 201.006 617.879 201.201 619.418 201.64L617.739 202.978C616.641 202.435 615.927 202.101 614.786 201.66L615.416 200.73Z"/><path fill="#FDFDFD" fill-opacity="0.039215688" transform="scale(0.204161 0.204161)" d="M513.513 535.738L513.661 537.122C511.658 539.773 507.839 539.268 513.513 535.738Z"/><path fill="#FDFDFD" fill-opacity="0.16862746" transform="scale(0.204161 0.204161)" d="M413.951 593.606C418.071 594.191 414.423 595.035 412.752 595.796L411.015 594.785C411.997 594.401 412.976 594.008 413.951 593.606Z"/><path fill="#2E2C32" fill-opacity="0.87450981" transform="scale(0.204161 0.204161)" d="M378.066 713.501L378.991 713.969C378.585 714.629 376.723 718.044 376.151 718.111C376.03 718.022 376.086 718.093 376.022 717.85L376.275 717.843C376.103 717.288 376.043 717.427 376.294 716.888C376.829 715.731 377.42 714.601 378.066 713.501Z"/><path fill="#BF9678" fill-opacity="0.90196079" transform="scale(0.204161 0.204161)" d="M244.598 729.393C244.75 730.348 245.444 735.109 244.741 735.67C244.164 735.263 244.039 733.421 243.961 732.765C244.14 731.623 244.371 730.524 244.598 729.393Z"/><path fill="#5B5D5E" fill-opacity="0.94901961" transform="scale(0.204161 0.204161)" d="M446.702 467.232C446.636 466.779 445.965 463.045 446.756 462.861C447.101 463.188 447.5 465.041 447.654 465.564L446.702 467.232Z"/><path fill="#BFAC9E" fill-opacity="0.80000001" transform="scale(0.204161 0.204161)" d="M614.786 201.66C611.531 200.041 612.69 199.936 615.416 200.73L614.786 201.66Z"/></svg>