<?xml version="1.0" encoding="utf-8" ?><svg xmlns="http://www.w3.org/2000/svg" xmlns:xlink="http://www.w3.org/1999/xlink" width="204" height="204" viewBox="0 0 204 204"><path fill="#1A1313" transform="scale(0.199662 0.199662)" d="M184.401 230.908C186.415 225.949 188.539 221.035 190.769 216.168C218.139 156.984 255.478 108.967 310.669 73.3042C330.632 60.4048 348.828 52.4924 370.915 44.3724L371.156 45.2418C357.314 51.0574 344.382 59.6359 331.91 68.0846C265.748 112.905 213.869 183.764 194.839 261.669C181.063 318.061 181.628 382.856 204.59 436.689C216.453 464.338 238.259 493.087 263.87 508.931C264.483 509.659 266.382 510.581 267.422 511.289C269.537 511.366 269.691 511.932 271.063 510.321C269.86 509.223 267.541 507.189 266.192 506.27C234.326 476.982 215.593 439.039 206.615 396.962C206.345 395.698 206.878 394.209 207.526 393.16C209.011 392.173 208.894 392.224 210.682 392.235C214.843 394.098 215.258 401.199 216.314 405.202C226.078 442.233 245.409 477.427 274.096 503.123C279.178 507.675 285.578 511.605 291.338 515.564L292.855 515.173C289.921 512.893 274.536 499.393 277.921 495.263C280.879 495.818 288.39 500.67 291.678 502.163C301.979 506.84 310.794 509.414 321.948 510.27C320.086 508.761 317.841 507.275 315.822 505.981C283.015 484.95 259.338 448.986 246.558 412.446C233.089 372.221 233.885 327.728 243.607 286.731C257.291 229.574 289.001 169.576 339.017 136.452C354.305 126.328 369.922 122.971 387.626 127.161C395.047 116.596 402.882 107.299 413.357 99.531C429.476 87.5773 452.539 88.3686 470.698 94.6754C507.424 73.465 543.304 67.1464 585.441 66.4376C622.091 65.8212 663.339 72.7221 695.564 90.4706C702.582 94.3357 710.052 98.1823 715.85 103.876C715.764 107.298 714.958 114.316 712.887 117.163C712.82 117.468 711.22 118.641 711.105 118.583C691.734 108.897 680.533 106.386 658.367 108.168C607.911 112.223 561.472 142.262 529.73 180.605C539.782 189.739 541.064 188.666 546.14 202.671C561.021 192.336 576.751 183.281 593.161 175.603C650.028 148.916 748.149 130.08 808.638 151.894L808.127 151.99L807.274 152.135C799.255 153.579 793.539 152.672 785.675 153.107C772.397 153.841 756.889 155.85 744.127 159.338C760.514 163.105 774.173 164.813 791.002 169.668C843.725 184.88 894.592 217.838 928.893 260.795L928.531 261.633C928.025 262.841 927.78 263.225 926.827 264.095C884.864 224.96 833.732 197.009 778.136 182.812C710.534 165.28 639.117 169.454 576.857 201.103C565.626 206.813 556.117 213.282 545.381 219.597C544.634 222.849 543.927 226.109 543.261 229.378C552.05 224.252 558.592 219.694 567.951 214.771C602.69 196.475 640.91 185.742 680.096 183.279C681.828 184.005 681.006 184.988 683.249 184.927C683.63 184.916 685.057 185.268 685.494 185.54C685.559 185.721 685.558 185.628 685.487 185.819C684.761 186.379 684.776 185.906 684.511 186.831C628.405 190.412 567.215 214 529.424 256.826C522.785 264.208 517.247 272.51 512.981 281.476C511.226 283.58 509.39 289.375 508.394 292.062C509.488 290.695 513.877 285.641 514.11 284.422C515.384 282.704 519.456 278.724 521.077 277.052C532.653 265.109 545.025 255.312 558.794 246.071L559.877 249.172C537.962 266.142 524.251 280.239 516.978 307.82C515.609 313.439 515.435 317.067 515.096 322.863L516.435 320.4C518.127 317.304 519.91 314.092 521.317 310.86C527.419 301.917 532.478 294.887 540.313 287.082C565.965 261.528 604.782 244.71 640.201 238.131C711.188 224.945 793.047 249.012 852.164 288.546C873.472 302.795 906.726 330.788 911.794 356.748C913.621 366.104 911.082 374.833 908.09 383.649C914.713 386.915 924.576 391.711 929.953 396.61C954.743 419.201 974.273 456.854 984.85 487.874C994.004 515.213 998.402 543.92 997.853 572.746C997.793 576.271 997.694 585.182 997.079 588.321L996.254 588.117C995.485 584.963 995.27 579.132 995.014 575.717C994.607 569.696 993.983 563.693 993.145 557.717C988.699 526.373 975.675 486.969 954.804 462.863C952.853 468.656 949.608 473.447 946.041 478.351C950.579 487.7 955.571 497.569 959.264 507.223C984.92 575.416 985.636 650.484 961.287 719.155C947.182 759.878 927.174 798.07 898.768 830.703C896.941 832.802 888.759 842.427 886.672 843.089L886.498 842.5C889.613 838.14 894.744 832.39 898.263 827.87C905.583 818.572 912.24 808.772 918.186 798.541C950.212 744.034 962.554 678.698 957.799 616.003C957.139 607.309 956.426 598.156 954.997 589.55C954.711 587.84 954.411 586.132 954.096 584.427C951.594 595.097 949.038 607.223 945.401 617.441C930.35 659.721 904.654 703.625 865.929 727.806C863.075 729.559 860.186 731.253 857.263 732.887C854.024 782.841 836.547 837.41 806.3 877.78C801.352 884.384 792.777 895.2 786.561 900.22C785.262 900.525 785.428 900.428 784.372 901.03L784.386 901.046C783.001 901.411 783.227 899.673 783.256 898.869C795.066 879.51 801.454 866.53 808.181 844.953C775.546 893.572 734.858 927.726 683.836 956.104C679.823 958.336 657.064 970.795 654.13 970.191L653.193 969.143C654.422 966.282 666.795 959.25 670.551 956.481C677.362 951.461 685.289 944.637 691.626 938.745C692.929 937.532 698.376 932.002 699.39 931.254L699.026 929.791C694.071 933.537 682.873 940.119 677.377 943.422C647.68 961.267 616.469 974.726 582.9 983.466C547.07 992.599 509.823 994.791 473.169 989.925C468.261 989.304 457.629 988.203 453.698 985.892L453.681 985.198C457.07 983.535 471.452 983.88 476.066 983.695C487.378 983.211 498.662 982.214 509.883 980.709C539.055 976.574 567.889 970.336 596.162 962.043C609.752 958.006 621.066 954.548 634.322 949.476C689.911 928.205 740.859 891.351 776.748 843.559C817.034 789.911 838.877 714.239 829.574 647.31C823.853 606.158 804.796 554.466 770.865 528.546C764.903 523.991 742.865 511.307 736.091 512.296C736.404 514.323 746.322 522.31 749.018 524.848C789.595 562.31 813.116 614.716 814.136 669.933C814.438 680.648 814.819 694.232 813.536 706.053C810.233 736.486 801.133 770.06 785.204 796.487C784.051 798.399 780.969 796.867 779.691 795.401C778.372 790.735 783.859 784.215 785.916 780.022C790.002 771.543 793.59 762.832 796.664 753.936C815.633 698.175 815.612 638.457 789.873 584.411C775.448 554.122 748.331 528.415 716.418 517.424C714.065 516.613 711.054 515.593 708.803 516.731C709.295 517.468 709.086 517.311 709.662 517.738C732.437 534.661 746.381 551.596 759.841 576.522C785.258 623.59 784.946 676.806 770.285 727.013C753.345 785.022 716.518 843.617 662.28 873.009C643.377 883.253 627.792 887.361 607.019 881.167C592.921 895.939 569.639 912.268 549.823 917.727C524.446 924.717 516.229 908.487 500.289 909.98C495.716 910.408 491.01 911.704 486.473 912.507C477.665 914.067 468.594 915.245 459.902 917.333C449.563 919.816 439.456 923.328 429.103 925.858C408.719 930.695 387.966 933.813 367.061 935.18C309.989 938.989 252.516 928.722 201.31 902.792C196.006 900.106 189.369 896.781 184.955 892.912C187.111 893.058 203.194 900.792 206.486 902.197C246.208 919.152 290.577 921.188 333.144 918.158C349.318 917.007 364.745 913.8 380.758 910.535C375.98 908.449 369.545 906.263 364.574 904.27C361.127 902.888 350.063 897.919 347.048 897.511C335.805 895.989 322.802 896.565 311.266 895.821C287.218 894.168 263.411 889.993 240.235 883.364C204.989 873.515 171.837 857.313 142.409 835.556C140.428 834.062 132.908 828.869 132.043 827.31C133.645 827.432 138.781 830.983 140.527 832.028C188.611 860.83 249.042 877.783 304.991 875.669C298.026 872.794 283.909 870.322 275.952 868.224C257.059 863.243 238.765 857.318 220.873 849.551C182.57 832.925 148.519 810.519 116.537 783.815C104.512 773.774 92.5335 764.245 82.0844 752.447C78.7712 748.706 67.1988 735.723 65.661 731.64L66.1199 731.178C71.2907 732.095 82.0151 742.886 90.369 746.759C89.3794 743.088 87.7441 739.804 85.304 736.94C64.3222 712.317 46.7366 685.44 34.6641 655.333C33.1488 651.554 29.426 645.22 29.4283 641.258C30.5625 642.411 37.0979 655.814 38.781 658.829C42.9274 666.125 47.2372 673.326 51.7072 680.427C80.4828 725.729 129.249 778.007 174.034 807.822C228.429 844.036 307.531 863.321 372.562 855.067C407.956 850.574 445.214 832.959 471.3 809.021C469.011 803.535 466.654 796.697 464.709 791.044L464.396 790.38C464.646 789.057 464.314 784.22 464.302 782.373C459.289 784.959 454.241 787.532 449.067 789.782C435.296 795.769 420.101 799.747 405.524 803.254C344.611 817.905 286.364 815.748 227.849 792.644C213.835 787.111 158.377 760.933 153.616 748.845C153.049 747.407 152.908 746.167 153.56 744.722C155.14 743.483 158.031 743.671 159.584 744.667C227.53 788.233 299.526 811.454 382.39 795.407C419.03 788.582 453.432 772.858 482.568 749.616C491.189 742.694 502.097 732.282 508.339 723.026C474.781 747.352 446.316 761.477 405.063 768.161L404.796 767.549C425.537 761.849 444.09 756.291 462.746 744.834C477.211 735.951 501.573 717.737 505.612 701.166C502.541 702.63 499.812 704.399 497.244 706.652C414.905 778.925 275.21 772.482 190.131 708.844C174.736 697.328 153.047 673.436 157.931 652.271C158.929 647.944 161.376 644.683 164.056 641.294C140.133 634.279 121.935 624.415 109.094 601.988C101.648 588.984 101.846 575.3 105.983 561.16C104.976 560.204 103.979 559.238 102.99 558.263C64.8831 520.6 44.5699 454.497 45.5025 402.057C45.5943 396.899 45.9996 370.549 48.4399 368.106L49.4672 368.288C50.2679 370.457 49.7509 375.075 49.6709 377.64C49.184 393.245 49.9632 404.873 57.83 418.746C58.8541 402.317 58.8566 385.068 60.4597 368.606C63.8652 333.635 74.3775 298.342 88.9808 266.459C91.2445 261.517 99.7274 244.3 102.339 240.93L102.782 241.061C98.9394 250.399 94.6323 259.703 91.483 269.279C70.1327 334.196 57.0322 440.864 88.8063 503.374C90.2132 506.644 90.3432 503.75 89.7755 502.09C82.4264 444.492 92.4846 388.062 128.322 341.329C133.29 334.85 140.013 328.424 145.872 322.688C147.64 315.32 148.064 310.926 152.651 304.917C155.127 308.196 156.674 313.922 159.767 315.492C161.761 315.135 160.94 315.558 162.393 314.333C163.009 312.89 160.795 293.827 160.651 290.158C158.083 224.771 182.197 155.154 226.296 106.531C227.438 107.3 228.129 107.597 229.032 108.632C201.816 150.014 192.741 182.823 184.401 230.908ZM131.849 537.583C131.212 537.2 131.098 537.094 130.506 536.611C128.235 535.988 129.08 535.922 126.902 536.44C124.316 539.435 126.808 543.7 128.183 546.924C128.75 547.799 129.286 548.628 129.883 549.483C135.601 556.533 141.444 560.921 149.662 564.737C153.946 566.727 159.298 569.215 161.235 573.757C161.188 574.398 161.296 575.021 160.829 575.363C154.528 579.989 142.27 572.828 134.787 574.145C132.887 574.349 130.039 575.338 129.04 577.232C123.885 587.002 134.071 596.601 140.592 601.556C160.009 616.313 183.757 622.178 206.766 628.693C213.972 630.734 222.007 632.344 228.522 635.92C229.902 636.72 231.07 638.919 231.126 640.555C231.19 642.419 230.899 644.952 229.272 646.282C221.896 652.309 208.288 649.961 199.483 650.131C195.441 650.132 190.83 650.574 187.788 653.493C184.501 656.646 186.795 664.257 190.157 666.471C202.987 674.915 222.829 677.045 237.779 676.134C260.35 674.727 282.888 667.359 302.819 656.809C305.427 655.429 312.402 651.78 312.146 648.602C309.533 647.487 296.72 644.762 292.856 643.74C282.063 640.793 271.48 637.125 261.179 632.76C251.095 628.428 241.085 623.28 231.529 617.855C225.557 614.464 218.833 608.46 212.4 606.237C207.953 604.7 200.607 604.238 195.732 603.746C184.236 602.586 167.956 598.905 158.261 592.488C163.766 594.073 168.713 596.214 174.51 597.694C185.078 600.393 194.816 600.778 205.583 601.136C170.217 569.545 151.689 550.186 130.118 507.388C129.931 509.076 130.102 510.623 129.912 512.222L129.932 512.108L129.903 512.23L129.816 512.218C129.703 512.009 129.555 510.622 128.783 510.082C126.276 508.326 125.868 502.845 125.222 501.496L124.873 500.782C124.231 499.449 123.701 498.796 122.403 498.117C121.837 496.69 122.388 493.068 121.139 490.189C121.234 490.225 117.643 490.095 117.961 489.895C117.103 490.435 114.956 487.551 114.879 487.249C115.09 487.052 115.244 487.102 115.605 487.052C115.131 485.422 114.738 483.263 113.38 482.347C109.55 485.103 111.125 497.989 112.217 502.147C112.471 503.506 112.893 504.805 113.215 506.147C116.872 515.545 118.524 519.216 124.783 527.006C128.515 531.651 139.616 538.272 140.028 541.277L139.53 541.866C137.259 541.375 134.087 538.927 131.849 537.583ZM629.914 853.675C629.744 853.817 629.108 854.225 629.095 854.588C629.092 854.651 629.119 854.711 629.168 854.749C629.496 855.008 630.636 854.69 630.838 854.651L631.061 854.611C631.579 852.854 631.487 852.462 629.914 853.675ZM445.483 642.857C447.865 636.473 445.29 641.447 441.783 641.503C441.068 641.695 438.518 642.023 438.262 642.692L438.274 642.697L438.284 642.847L438.565 642.581L438.987 643.171C440.792 643.568 442.733 643.26 444.527 642.993L445.483 642.857ZM811.1 552.623C831.398 584.199 841.325 613.375 845.822 650.878C846.954 660.313 846.874 675.906 848.267 683.953C852.758 665.973 850.816 633.308 847.325 615.092C845.225 604.132 840.7 590.396 836.729 579.88C833.176 570.472 827.185 560.77 823.44 551.691C829.537 556.426 835.94 566.066 839.832 572.804C862.783 613.007 867.894 653.631 865.143 699.099C879.037 689.415 885.388 672.897 888.338 656.732C894.75 621.6 881.852 574.919 862.783 544.955C862.167 550.417 862.87 563.6 861.989 567.064L861.061 567.157C855.246 561.354 854.368 543.111 854.365 535.416L854.365 534.949C842.489 546.425 827.083 551.21 811.1 552.623ZM201.578 678.636C196.534 675.219 196.174 678.833 201.219 680.061L201.578 678.636ZM221.455 492.635C197.178 456.292 188.921 428.274 177.449 386.27C177.418 385.589 177.466 385.526 177.259 384.915L176.904 384.748L177.169 384.66L176.862 384.46L176.825 384.284C176.194 385.548 176.684 390.083 176.938 391.579C177.064 397.314 178.395 405.318 179.445 411.009C185.321 442.865 198.832 467.7 218.079 493.444C217.053 492.6 216.042 491.738 215.046 490.859C209.922 486.315 205.734 480.386 201.497 474.99C178.931 446.252 166.418 409.284 160.906 373.473C159.302 363.056 159.731 348.165 159.067 337.119C158.156 337.9 156.843 338.925 156.127 339.848C141.015 359.32 136.302 384.621 138.186 408.734C140.665 440.468 159.07 467.023 179.552 490.12C184.332 495.548 191.211 504.424 196.554 508.998C206.177 501.616 209.913 497.309 221.455 492.635ZM401.971 718.992C398.9 721.239 396.31 723.464 393.459 725.602C390.708 727.534 389.608 728.584 387.223 730.859C389.379 730.417 392.45 729.932 394.433 729.352C398.441 728.537 401.649 727.602 405.48 726.315C405.519 722.067 406.62 720.588 402.393 718.968C409.123 717.973 405.329 723.532 407.327 725.685C413.657 725.203 427.441 717.692 433.002 714.589C461.348 698.771 486.114 656.366 494.272 625.036C493.811 622.761 494.728 619.262 494.765 616.556C494.788 615.586 495.397 614.143 494.369 613.904C493.522 614.255 492.493 615.635 491.844 616.373C490.252 616.197 490.553 616.534 489.163 615.909C478.774 622.692 475.012 631.251 468.62 641.499C464.026 648.987 459.184 656.321 454.104 663.489C442.865 679.142 430.112 693.65 416.03 706.804C411.973 710.63 405.213 715.771 401.971 718.992ZM126.529 466.574C127.365 464.557 126.438 462.583 127.555 458.658C126.885 454.763 125.939 450.204 124.92 446.383C124.5 442.994 123.828 439.282 123.259 435.896C121.77 426.613 121.205 416.617 120.055 407.214C116.883 414.832 111.405 431.656 111.48 439.931C110.783 443.053 110.89 445.836 110.976 449.027C110.821 452.071 110.831 455.537 111.486 458.521C111.536 462.422 113.197 467.158 114.3 470.886L114.481 471.783C114.872 473.976 115.77 475.987 116.448 478.095C117.096 479.586 117.796 481.053 118.365 482.572C118.851 481.268 119.364 480.112 119.848 478.854C119.531 477.172 119.372 476.09 118.91 474.422C118.68 473.019 118.353 471.639 118.079 470.245L117.632 467.996C117.385 466.8 116.973 465.656 116.787 464.525C116.074 460.07 114.971 454.67 115.052 450.2L116.751 450.797C116.991 452.652 117.446 454.17 117.688 455.89C118.887 460.278 119.626 465.266 121.059 469.497C121.089 470.948 121.071 471.07 121.678 472.401C123.017 478.49 126.084 486.98 128.405 492.826C129.273 492.455 130.845 492.262 130.728 491.212C130.311 491.091 130.101 491.23 129.694 491.399C127.917 488.726 131.889 486.589 127.715 484.345C125.693 483.258 127.855 482.685 127.688 479.387C127.572 476.839 127.6 475.139 127.332 472.559C127.014 469.286 125.484 471.11 126.529 466.574ZM912.072 626.871C911.975 629.513 911.917 631.838 911.984 634.493C913.073 632.329 914.111 630.278 915.052 628.038C914.066 627.248 913.341 627.022 912.072 626.871ZM153.34 497.815C153.03 499.562 152.734 503.21 153.243 504.84C153.186 504.912 158.118 502.446 157.98 502.412C160.819 503.116 160.523 506.427 163.292 502.212C162.057 500.741 160.964 499.77 159.54 498.497C157.568 497.356 155.244 495.961 153.34 497.815ZM389.79 651.629C389.517 651.475 389.627 651.515 389.447 651.472C389.608 651.585 389.503 651.529 389.79 651.629ZM502.678 653.438C501.1 655.63 499.82 658.183 498.218 660.072C498.101 660.431 497.895 661.124 497.363 660.819C496.163 661.553 484.056 681.041 482.25 683.59C482.972 685.404 483.174 684.88 485.197 684.701C492.745 676.153 499.04 669.539 504.385 659.188C505.069 657.861 505.874 656.123 506.65 654.884C507.258 653.645 507.441 653.228 507.874 651.92C506.936 648.315 508.633 646.197 510.504 642.702C510.828 641.88 511.475 638.981 510.723 638.432C509.85 638.713 509.484 639.767 509.195 640.557C508.499 641.863 504.393 649.82 504.272 650.642C503.731 651.569 503.114 652.456 502.678 653.438ZM269.757 388.64C268.616 386.516 265.971 382.895 264.514 380.839L265.103 383.541C265.617 385.883 265.997 389.295 266.744 391.482C268.705 391.021 269.07 392.836 269.877 391.806C270.273 391.3 269.755 389.565 269.757 388.64ZM133.33 457.163C132.115 461.367 133.205 467.227 135.541 459.439C134.741 458.425 134.291 458.04 133.33 457.163Z"/><path fill="#DBDBDA" transform="scale(0.199662 0.199662)" d="M271.063 510.321C272.008 510.704 272.124 510.889 273.002 511.564C277.679 515.156 282.922 517.703 287.819 520.835C280.84 518.344 273.655 515.375 267.422 511.289C269.537 511.366 269.691 511.932 271.063 510.321Z"/><path fill="#DBDBDA" transform="scale(0.199662 0.199662)" d="M699.026 929.791C699.554 928.212 706.698 923.827 708.48 922.746C706.306 924.963 701.815 929.652 699.39 931.254L699.026 929.791Z"/><path fill="#DBDBDA" transform="scale(0.199662 0.199662)" d="M292.855 515.173C294.807 516.201 296.479 518.247 298.063 519.877C296.238 518.803 292.926 516.891 291.338 515.564L292.855 515.173Z"/><path fill="#FD7331" transform="scale(0.199662 0.199662)" d="M502.991 834.805L502.318 834.612C498.085 833.445 490.26 833.177 488.009 831.066C486.225 823.732 510.42 817.242 515.333 816.158C521.325 814.877 527.385 813.939 533.484 813.345C537.474 812.917 549.945 811.973 553.088 810.725C554.476 810.175 555.64 809.175 556.394 807.886C557.342 806.277 557.266 805.42 556.877 803.738C556.232 803.01 555.449 802.049 554.271 802.189C550.283 802.666 545.486 803.928 541.501 804.627C526.085 807.203 507.616 804.795 495.481 794.234C492.199 791.378 491.166 786.392 491.417 782.271C492.335 767.215 506.844 761.236 516.563 752.435C530.824 739.52 539.131 721.489 540.484 702.368C541.558 686.145 538.161 668.834 536.708 652.442C533.338 614.456 547.001 570.765 576.517 545.366C592.536 531.527 612.741 523.472 633.887 522.494C634.981 548.884 620.339 549.615 600.958 559.097C581.989 568.377 559.343 596.834 553.409 617.036C556.027 613.771 557.922 609.479 560.074 606.021C571.945 586.943 589.958 577.226 609.992 568.804C614.808 566.779 621.223 561.117 625.197 557.726C635.02 548.504 643.584 541.017 649.241 528.592C660.325 546.819 654.887 581.516 634.787 591.662C626.042 596.076 617.263 598.233 608.041 601.393C580.297 611.128 558.063 637.522 555.194 667.446C559.295 661.408 560.341 652.64 565.92 647.808C579.305 636.216 593.95 625.174 611.637 621.554C620.451 619.751 630.664 611.613 637.61 606.378C651.816 594.971 662.43 583.625 665.966 565.106C673.917 587.169 674.385 608.387 664.656 630.262C659.567 641.706 651.763 649.349 640.003 653.659C630.483 657.553 620.806 655.916 610.892 656.591C588.439 658.122 569.446 672.913 559.818 692.866C557.924 696.79 552.129 711.082 553.894 714.826L554.855 714.855C555.744 712.553 556.169 710.122 557.185 708.153C563.293 696.321 576.679 690.809 588.14 685.471C593.645 682.907 599.679 678.999 604.953 676.742C625.38 668.001 634.984 683.055 655.364 665.9C665.287 657.549 669.135 650.698 677.227 642.631C674.434 659.214 666.883 695.378 653.59 705.937C613.661 737.652 555.139 734.899 518.21 771.434C514.327 775.28 510.735 779.674 508.408 784.685C516.151 778.278 519.11 773.681 528.318 767.773C565.332 744.026 611.31 746.525 649.43 726.026C618.325 788.008 541.115 847.118 475.937 868.809C457.733 874.75 438.923 878.647 419.856 880.428C417.97 880.593 410.215 880.837 409.473 882.128C413.15 883.249 423.883 881.76 428.184 881.337C464.585 877.758 494.901 867.461 527.214 850.249C563.972 830.68 596.953 804.723 624.613 773.594C629.688 767.822 634.584 761.895 639.295 755.822C641.884 752.473 645.624 747.133 648.308 744.122C655.471 765.332 649.194 812.425 638.217 831.841C635.7 836.293 625.074 854.334 620.952 856.687C616.269 851.205 631.701 825.092 614.711 823.77C610.884 823.472 606.923 826.211 604.354 828.793C600.824 831.871 588.371 850.353 587.555 854.27L587.824 854.747C590.248 851.684 591.701 848.335 593.829 845.127C597.957 838.903 603.125 832.269 608.612 827.186C606.371 834.187 602.566 845.714 599.001 851.934C589.643 867.597 572.762 879.464 557 888.04C549.979 891.859 539.144 896.34 531.529 893.855C520.926 890.397 527.998 881.529 533.59 877.061C538.133 873.431 557.247 861.425 558.206 856.496L557.598 855.656C554.832 856.101 551.232 861.335 547.124 863.7C541.122 867.156 539.154 868.752 532.493 871.106C524.955 873.769 501.417 874.502 497.939 881.753C500.506 883.756 506.769 880.929 508.477 883.595C504.575 893.688 462.507 900.6 457.239 895.012C456.354 891.532 459.038 889.915 461.519 887.829C460.463 887.342 459.461 886.914 458.391 886.463C451.275 888.106 438.403 893.506 434.191 894.098C415.226 896.762 385.042 887.618 368.018 880.054C383.61 876.013 399.632 872.974 415.787 872.216C420.214 872.009 427.134 876.721 429.211 875.802C427.869 873.132 419.693 871.26 419.775 868.218C429.888 859.52 470.959 861.212 484.619 858.336C488.013 857.621 490.997 852.921 487.969 850.296C481.883 845.021 462.323 855.082 457.989 848.291C457.841 846.343 458.715 844.935 460.013 843.563C471.334 831.596 489.436 836.453 502.991 834.805Z"/><path fill="#2C0407" transform="scale(0.199662 0.199662)" d="M458.391 886.463C459.825 886.171 465.75 885.081 461.519 887.829C460.463 887.342 459.461 886.914 458.391 886.463Z"/><path fill="#FD7331" transform="scale(0.199662 0.199662)" d="M370.428 273.67C375.861 259.798 385.329 243.864 393.931 231.657C426.388 185.798 471.195 146.973 522.738 124.193C537.833 117.522 552.429 111.619 569.031 109.916C572.012 109.61 577.597 108.63 579.965 110.738C580.918 118.641 550.995 123.111 545.581 123.734C540.472 124.322 523.109 128.448 521.778 134.227C525.321 137.415 539.592 132.113 539.346 138.88C539.187 143.243 529.506 149.929 525.924 152.093C517.26 157.327 507.492 160.949 498.06 164.848L497.968 165.476C502.044 165.974 506.37 161.989 510.93 164.313C514.654 169.491 507.883 174.851 504.319 177.606C498.617 182.014 473.563 183.951 470.636 188.248C470.704 190.282 470.424 189.37 471.5 191.089C473.46 192.415 492.595 192.793 498.045 193.778C503.569 194.762 508.884 196.685 513.76 199.463C525.762 206.155 519.797 216.273 512.8 224.154C492.597 246.912 475.777 271.43 484.114 304.247C481.07 311.301 478.962 315.237 475.06 321.968C472.282 324.197 468.666 337.379 465.605 342.497C461.372 349.574 459.554 352.972 453.465 358.926C440.035 372.06 423.514 376.245 408.115 384.566C391.692 393.439 371.274 412.005 362.806 428.591C359.67 434.735 357.579 441.9 355.769 448.652C347.603 432.123 345.397 413.28 349.525 395.312C352.568 382.226 357.816 373.882 365.906 363.902C379.864 345.754 395.288 340.49 417.527 338.957C443.411 337.173 461.09 309.284 466.44 285.854L465.292 282.965C462.969 288.203 455.79 298.085 450.885 301.527C438.062 310.526 421.814 321.77 405.695 322.533C395.555 323.013 386.314 322.675 377.447 327.898C364.072 337.333 352.159 352.606 342.441 365.672C345.631 336.254 353.92 300.507 377.831 281.155C401.185 262.255 428.324 257.493 454.808 246.061C468.134 240.293 480.565 232.645 491.721 223.351C498.102 218.103 505.339 211.626 509.058 204.145L508.46 204.648C497.703 213.765 494.229 220.311 480.042 227.779C467.555 234.353 459.263 236.527 445.805 240.233C418.003 247.891 392.884 254.357 370.428 273.67Z"/><path fill="#110607" transform="scale(0.199662 0.199662)" d="M465.292 282.965C467.574 281.803 466.625 284.446 466.44 285.854L465.292 282.965Z"/><path fill="#FD7331" transform="scale(0.199662 0.199662)" d="M653.294 348.914C669.774 347.835 699.342 349.776 715.128 355.76C720.668 358.295 725.696 363.332 730.256 367.013C748.169 381.475 758.876 400.422 764.072 422.584C770.216 448.784 784.034 467.983 800.989 488.072C803.201 490.694 806.166 495.95 808.254 498.102C808.434 498.025 808.614 497.949 808.794 497.872C809.151 498 809.246 498.545 809.639 498.564C810.359 497.836 810.941 496.963 811.58 496.16C807.391 485.664 800.771 474.592 794.581 465.138C792.283 461.629 786.916 456.325 785.428 452.832C783.128 447.434 780.524 440.241 778.722 434.752C769.124 405.512 767.571 391.735 747.217 367.241C799.644 380.626 845.533 411.119 847.228 470.214C847.703 486.763 848.262 506.893 836.758 520.376C833.017 524.761 825.69 528.714 819.934 528.623C805.632 528.438 799.912 516.683 791.145 508.209C771.774 489.484 753.592 487.449 728.131 487.791C724.596 485.864 703.981 480.474 702.036 477.492C699.514 474.674 694.426 475.212 690.575 474.234C680.125 471.693 670.441 466.672 662.343 459.595C649.017 447.892 647.254 435.792 640.023 420.717C629.289 398.343 605.7 384.67 584.204 374.203C578.023 371.194 568.714 366.719 562.138 364.837C599.456 342.869 648.836 352.091 672.265 389.776C678.897 400.443 679.632 411.335 682.543 423.175C688.046 442.726 701.432 465.486 723.048 469.767C733.534 471.827 751.55 475.762 761.722 474.664C757.216 473.362 752.622 472.675 748.329 471.453C738.635 468.693 723.967 461.663 719.118 452.33C715.294 444.968 714.188 433.894 711.32 425.511C707.921 415.572 701.935 413.03 697.705 405.149C696.133 402.222 693.289 390.629 691.889 386.259C685.827 367.342 669.371 359.02 653.294 348.914Z"/><path fill="#0D0B0B" transform="scale(0.199662 0.199662)" d="M808.254 498.102C808.434 498.025 808.614 497.949 808.794 497.872C809.151 498 809.246 498.545 809.639 498.564C810.359 497.836 810.941 496.963 811.58 496.16C813.82 501.459 816.819 508.715 817.75 514.408C817.833 514.918 816.397 515.373 816.113 514.882C813.165 509.784 810.638 503.58 808.254 498.102Z"/><path fill="#F6E3D0" transform="scale(0.199662 0.199662)" d="M405.872 514.715C412.277 513.821 427.099 514.881 433.161 515.841C463.088 520.579 490.052 534.695 508.185 559.217C490.353 564.399 470.008 555.299 455.024 546.054C435.173 533.805 423.464 533.369 400.234 532.043L399.791 532.837C401.434 534.429 414.187 535.465 417.917 536.227C423.891 537.511 429.79 539.122 435.588 541.054C443.083 543.635 446.581 548.095 451.807 553.672C468.452 571.437 481.801 576.486 505.974 574.296C493.207 587.748 482.945 590.151 464.975 589.415C442.996 588.515 434.524 579.574 420.48 564.843C413.099 557.366 404.066 553.999 395.172 549.375C380.674 541.837 359.915 541.786 344.754 547.607C355.859 548.413 363.164 547.126 374.131 552.142C383.423 556.391 388.127 564.289 395.705 570.952C415.925 588.729 444.471 602.176 471.015 606.181C461.221 612.443 455.748 615.498 444.603 619.607C438.204 621.688 431.597 623.061 424.899 623.701C401.122 626.004 372.796 616.528 364.59 591.921C355.613 565.001 320.58 562.416 296.894 564.897C312.411 568.838 323.374 571.76 334.323 583.673C337.072 586.67 343.909 591.271 346.006 594.387C361.139 616.866 367.538 626.51 393.535 636.701L391.145 636.863C374.259 637.961 350.883 640.111 334.308 636.982C329.333 636.043 318.559 629.604 314.341 626.602C306.04 620.751 298.955 613.341 293.483 604.785C289.142 598.087 282.528 581.018 278.57 576.923C258.702 556.368 237.844 550.665 235.817 518.359C258.75 532.227 281.149 552.707 310.101 542.757C342.556 531.602 370.976 517.346 405.872 514.715Z"/><path fill="#9CA6BD" transform="scale(0.199662 0.199662)" d="M804.899 333.716C835.052 332.133 858.913 341.205 884.944 354.31L885.124 354.721C888.554 362.42 890.23 368.845 881.745 373.414C879.804 373.2 868.974 370.763 867.696 369.811C861.013 364.827 831.531 370.061 837.406 379.938C844.811 392.389 862.277 404.157 877.044 406.981C874.306 405.098 868.521 402.112 865.465 400.524C855.961 395.584 851.027 391.717 843.808 384.027C865.565 386.317 878.594 390.924 897.452 402.446C911.113 410.793 926.812 423.363 930.783 439.636C928.829 445.081 928.335 446.592 922.839 448.722C919.248 440.636 915.251 436.009 907.281 431.779C909.824 436.169 917.492 439.067 918.958 445.538L918.556 446.134C910.796 445.706 898.548 432.906 889.264 438.374C887.326 441.879 891.625 445.161 894.276 447.092C900.129 451.356 923.568 470.402 917.265 478.536C913.482 480.462 911.716 477.53 907.886 477.616L907.646 478.298C909.767 482.328 916.117 485.359 919.56 488.502C921.214 490.012 922.243 491.369 923.599 493.124C925.644 496.61 929.899 506.774 925.144 509.044C921.64 507.857 920.766 504.176 918.057 503.171C917.246 508.724 924.932 511.328 928.017 516.664C930.893 521.308 933.2 526.813 934.527 532.125C935.588 536.372 939.333 552.878 932.92 553.927C930.142 552.319 928.297 545.704 926.156 541.801C926.18 541.977 926.204 542.153 926.227 542.329C930.205 559.024 937.599 572.59 927.857 589.417C926.329 580.613 925.778 570.946 924.509 561.941C921.822 543.561 916.469 525.672 908.619 508.837C877.326 440.242 822.07 385.569 751.443 358.664C747.517 357.169 743.594 355.679 739.657 354.213C750.465 339.626 787.77 334.705 804.899 333.716Z"/><path fill="#FD7331" transform="scale(0.199662 0.199662)" d="M447.963 121.62C449.727 121.614 448.942 121.377 450.406 122.343C453.216 128.215 436.025 146.86 440.068 154.085C440.844 154.669 442.307 155.518 443.176 155.084C457.852 147.767 457.766 118.076 476.822 115.657C479.654 115.298 487.122 114.896 487.49 118.958C486.718 121.1 483.341 122.974 481.186 125.343L481.476 125.852C482.413 125.75 484.037 125.225 484.884 124.794C489.598 122.391 489.613 116.971 491.319 112.564C494.144 105.272 501.269 101.573 508.03 98.4779C517.335 94.2173 527.109 92.432 536.973 96.0905C538.461 96.6423 538.649 97.0582 539.09 98.1701C538.224 100.909 533.48 102.125 530.75 103.955L531.369 104.369L530.681 104.105C536.977 105.897 542.267 98.3893 550.007 94.7168C571.215 84.6535 606.425 83.8959 628.183 92.6096C607.283 93.712 586.553 96.9621 566.319 102.309C549.646 106.654 520.794 117.489 505.74 125.92C460.854 151.06 416.41 190.04 386.887 232.055C380.089 241.825 373.757 251.911 367.911 262.279C363.646 269.983 359.51 278.619 355.111 286.101C342.094 264.694 339.184 233.506 342.083 208.89C343.756 194.688 357.598 147.207 377.104 150.183C383.209 155.622 365.492 175.095 369.841 186.944C379.751 213.943 386.214 181.07 389.894 171.385C396.206 153.763 403.881 137.452 418.404 125.011C423.89 120.306 431.534 113.798 439.223 114.215C442.615 114.399 450.073 116.406 447.453 121.179L447.963 121.62Z"/><path fill="#110607" transform="scale(0.199662 0.199662)" d="M432.418 132.751C435.694 128.726 442.119 121.833 447.453 121.179L447.963 121.62C445.69 123.104 443.981 123.745 441.657 125.672C437.957 128.74 436.651 130.389 432.418 132.751Z"/><path fill="#9CA6BD" transform="scale(0.199662 0.199662)" d="M519.533 393.652C519.922 393.151 520.317 392.654 520.716 392.162C532.186 378.045 560.499 382.239 575.635 387.362C600.135 395.139 605.009 414.023 616.897 433.032C632.118 457.371 673.686 480.16 702.036 477.492C703.981 480.474 724.596 485.864 728.131 487.791C680.689 495.495 627.514 503.252 582.077 482.914C548.019 467.67 526.784 445.043 513.498 410.466C546.681 410.68 560.231 431.079 582.572 450.652C595.346 461.843 610.462 471.248 626.6 476.617C630.327 477.857 646.281 481.809 649.96 481.973L650.409 481.332C649.686 480.62 637.147 477.204 634.768 476.403C628.876 474.429 623.218 471.816 617.895 468.612C593.57 453.908 584.588 430.58 562.052 414.009C547.023 402.957 537.549 397.692 519.533 393.652Z"/><path fill="#9CA6BD" transform="scale(0.199662 0.199662)" d="M484.114 304.247C490.299 329.87 492.348 349.472 490.088 375.929C485.488 429.777 450.227 481.972 395.238 494.896C394.273 495.121 393.298 495.305 392.317 495.446C392.989 486.559 396.442 468.298 403.78 462.813C410.43 457.843 419.759 451.808 427.028 447.125C448.009 433.61 466.357 409.721 470.704 384.579C465.34 394.928 462.954 402.642 454.973 411.725C446.639 421.593 436.152 427.982 424.608 433.451C419.797 435.73 413.229 438.97 409.065 442.317C395.444 453.263 383.534 472.832 378.215 489.187C371.222 481.331 369.358 465.317 370.158 455.548C372.952 421.418 396.883 409.82 425.216 399.981C452.896 390.367 471.145 349.711 475.06 321.968C478.962 315.237 481.07 311.301 484.114 304.247Z"/><path fill="#F6E3D0" fill-opacity="0.98823529" transform="scale(0.199662 0.199662)" d="M112.217 502.147C111.125 497.989 109.55 485.103 113.38 482.347C114.738 483.263 115.131 485.422 115.605 487.052C115.244 487.102 115.09 487.052 114.879 487.249C114.956 487.551 117.103 490.435 117.961 489.895C117.643 490.095 121.234 490.225 121.139 490.189C122.388 493.068 121.837 496.69 122.403 498.117C123.701 498.796 124.231 499.449 124.873 500.782L125.222 501.496C125.868 502.845 126.276 508.326 128.783 510.082C129.555 510.622 129.703 512.009 129.816 512.218L129.903 512.23L129.932 512.108L129.912 512.222C130.102 510.623 129.931 509.076 130.118 507.388C151.689 550.186 170.217 569.545 205.583 601.136C194.816 600.778 185.078 600.393 174.51 597.694C168.713 596.214 163.766 594.073 158.261 592.488C167.956 598.905 184.236 602.586 195.732 603.746C200.607 604.238 207.953 604.7 212.4 606.237C218.833 608.46 225.557 614.464 231.529 617.855C241.085 623.28 251.095 628.428 261.179 632.76C271.48 637.125 282.063 640.793 292.856 643.74C296.72 644.762 309.533 647.487 312.146 648.602C312.402 651.78 305.427 655.429 302.819 656.809C282.888 667.359 260.35 674.727 237.779 676.134C222.829 677.045 202.987 674.915 190.157 666.471C186.795 664.257 184.501 656.646 187.788 653.493C190.83 650.574 195.441 650.132 199.483 650.131C208.288 649.961 221.896 652.309 229.272 646.282C230.899 644.952 231.19 642.419 231.126 640.555C231.07 638.919 229.902 636.72 228.522 635.92C222.007 632.344 213.972 630.734 206.766 628.693C183.757 622.178 160.009 616.313 140.592 601.556C134.071 596.601 123.885 587.002 129.04 577.232C130.039 575.338 132.887 574.349 134.787 574.145C142.27 572.828 154.528 579.989 160.829 575.363C161.296 575.021 161.188 574.398 161.235 573.757C159.298 569.215 153.946 566.727 149.662 564.737C141.444 560.921 135.601 556.533 129.883 549.483C132.094 548.637 133.212 547.022 131.627 543.9C130.734 542.14 128.783 545.43 128.183 546.924C126.808 543.7 124.316 539.435 126.902 536.44C129.08 535.922 128.235 535.988 130.506 536.611C124.267 538.694 127.133 541.024 131.849 537.583C134.087 538.927 137.259 541.375 139.53 541.866L140.028 541.277C139.616 538.272 128.515 531.651 124.783 527.006C118.524 519.216 116.872 515.545 113.215 506.147C117.61 504.57 117.618 498.194 115.655 495.735C115.292 495.592 114.651 495.775 114.326 495.957C113.065 496.662 113.832 495.924 113.271 495.29C112.487 495.964 112.426 500.809 112.217 502.147Z"/><path fill="#F6E3D0" transform="scale(0.199662 0.199662)" d="M127.555 458.658C128.434 461.501 129.186 463.972 130.289 466.741L131.015 466.395L130.875 466.602C132.169 462.761 130.457 459.347 133.33 457.163C132.115 461.367 133.205 467.227 135.541 459.439C137.464 463.366 138.996 472.343 138.952 476.73C139.5 480.223 140.027 483.483 140.357 487.007C141.776 494.233 145.963 520.376 153.747 522.922C157.588 520.398 153.709 508.856 153.243 504.84C153.186 504.912 158.118 502.446 157.98 502.412C160.819 503.116 160.523 506.427 163.292 502.212C175.372 517.33 175.739 534.85 185.576 550.938C187.358 553.852 189.343 557.037 192.741 557.808L193.446 557.24C193.645 552.869 187.614 544.777 191.452 542.1C205.484 541.683 208.564 566.346 215.954 575.084C218.876 578.538 222.778 585.719 227.404 587.216L228.226 586.758C227.907 584.462 223.953 577.135 222.802 574.433C218.032 562.632 212.465 547.152 213.905 534.195C215.22 522.369 222.455 515.775 234.12 517.62C234.599 538.847 239.04 548.826 254.541 563.874C257.183 566.439 263.764 572.468 265.544 575.264C270.23 582.627 272.195 594.171 277.048 601.621C285.18 614.104 296.111 623.967 305.315 635.946C288.237 634.273 271.459 628.896 255.676 622.263C197.987 597.378 152.313 550.926 128.405 492.826C129.273 492.455 130.845 492.262 130.728 491.212C130.311 491.091 130.101 491.23 129.694 491.399C127.917 488.726 131.889 486.589 127.715 484.345C125.693 483.258 127.855 482.685 127.688 479.387C127.572 476.839 127.6 475.139 127.332 472.559C127.014 469.286 125.484 471.11 126.529 466.574C127.365 464.557 126.438 462.583 127.555 458.658Z"/><path fill="#9CA6BD" transform="scale(0.199662 0.199662)" d="M767.739 290.237C777.262 290.31 786.748 291.442 796.021 293.612C828.421 300.991 864.944 322.519 882.831 350.883C845.8 331.028 815.416 324.454 773.617 333.611C757.878 337.303 742.786 345.68 726.897 348.057C720.191 349.061 694.725 340.761 685.747 338.965C674.963 336.9 664.08 335.396 653.14 334.459C673.107 316.418 711.946 299.432 738.376 293.712C748.67 291.484 757.336 290.571 767.739 290.237Z"/><path fill="#9CA6BD" transform="scale(0.199662 0.199662)" d="M684.751 584.193C728.892 627.112 762.904 666.275 742.7 731.923L742.633 732.277C741.334 739.557 741.583 721.855 741.558 722.445C741.394 717.745 740.846 713.066 739.921 708.455C738.473 701.094 730.159 670.937 725.107 666.88C725.29 668.87 728.175 676.352 728.98 678.981C731.074 685.857 732.631 692.885 733.64 700.001C740.342 745.755 721.545 781.931 693.195 816.071C691.97 817.546 690.838 818.846 689.499 820.228C691.949 812.286 696.032 803.925 698.089 796.576C707.989 761.207 710.958 724.031 702.193 688.114C698.119 671.418 692.33 656.157 689.191 639.506C685.611 620.517 687.202 603.622 684.751 584.193Z"/><path fill="#6D6D71" transform="scale(0.199662 0.199662)" d="M741.558 722.445C742.188 726.02 741.496 729.714 742.7 731.923L742.633 732.277C741.334 739.557 741.583 721.855 741.558 722.445Z"/><path fill="#9CA6BD" transform="scale(0.199662 0.199662)" d="M360.756 155.475L361.291 156.035C357.624 161.596 355.107 163.618 351.719 170.01C336.599 198.546 334.168 232.592 340.768 263.846C343.33 275.98 348.009 287.914 347.107 300.551C346.297 311.909 340.82 324.906 337.326 335.891C334.291 345.407 331.822 355.093 329.929 364.9C326.13 360.461 323.131 355.808 320.03 350.899C317.919 347.241 315.904 343.529 313.988 339.766C286.47 286.222 289.411 228.46 328.601 181.804C338.941 169.494 346.362 162.837 360.756 155.475Z"/><path fill="#9CA6BD" transform="scale(0.199662 0.199662)" d="M683.726 660.792C686.745 663.284 690.361 669.743 691.856 673.415C706.441 709.24 707.311 757.314 693.103 793.172C683.462 817.503 664.476 844.355 640.136 854.785C633.762 857.142 629.969 857.699 623.273 858.098C646.943 832.57 653.329 803.286 655.646 769.327C656.734 761.975 654.529 747.323 656.814 740.792C666.331 713.592 676.354 688.814 683.726 660.792ZM631.061 854.611C631.579 852.854 631.487 852.462 629.914 853.675C629.744 853.817 629.108 854.225 629.095 854.588C629.092 854.651 629.119 854.711 629.168 854.749C629.496 855.008 630.636 854.69 630.838 854.651L631.061 854.611Z"/><path fill="#A9ADC0" fill-opacity="0.9137255" transform="scale(0.199662 0.199662)" d="M629.914 853.675C631.487 852.462 631.579 852.854 631.061 854.611L630.838 854.651C630.636 854.69 629.496 855.008 629.168 854.749C629.119 854.711 629.092 854.651 629.095 854.588C629.108 854.225 629.744 853.817 629.914 853.675Z"/><path fill="#F6E3D0" transform="scale(0.199662 0.199662)" d="M205.21 676.775C237.956 685.988 271.399 676.076 301.748 663.522C309.246 660.419 318.899 654.568 326.496 653.28C346.315 649.918 366.083 654.492 386.396 654.858C362.218 682.904 315.626 710.007 278.504 712.686C252.193 714.572 226.206 705.97 206.216 688.76C200.395 684.019 195.474 678.27 191.688 671.787C196.27 673.713 200.369 675.456 205.21 676.775ZM201.578 678.636C196.534 675.219 196.174 678.833 201.219 680.061L201.578 678.636Z"/><path fill="#FBE8D6" fill-opacity="0.80784315" transform="scale(0.199662 0.199662)" d="M201.219 680.061C196.174 678.833 196.534 675.219 201.578 678.636L201.219 680.061Z"/><path fill="#FBE8D6" transform="scale(0.199662 0.199662)" d="M191.688 671.787C196.27 673.713 200.369 675.456 205.21 676.775C204.483 676.955 204.045 677.018 203.313 677.093L203.18 677.509L202.946 677.245L202.906 677.251C203.312 677.85 203.809 678.372 203.822 679.117C203.329 679.584 202.236 678.866 201.578 678.636C196.534 675.219 196.174 678.833 201.219 680.061C201.915 680.521 202.632 681.187 202.733 682.011C202.976 683.974 207.124 686.053 207.379 686.373C207.528 687.532 206.165 686.488 206.219 688.022C206.225 688.268 206.225 688.514 206.216 688.76C200.395 684.019 195.474 678.27 191.688 671.787Z"/><path fill="#9CA6BD" transform="scale(0.199662 0.199662)" d="M291.47 226.304C291.662 227.252 291.865 228.199 292.077 229.143C285.298 262.35 292.389 306.245 306.972 336.61C313.191 349.561 320.88 360.362 325.465 374.629C331.891 394.627 332.13 414.719 336.23 435.226C322.103 426.336 292.276 400.457 283.594 385.74C279.503 378.806 277.833 365.543 277.47 357.591C277.249 352.748 279.193 335.751 278.142 332.985C272.049 331.587 269.502 356.516 269.009 361.027C253.505 314.491 273.016 268.502 291.47 226.304Z"/><path fill="#9CA6BD" transform="scale(0.199662 0.199662)" d="M673.823 270.159C704.562 257.5 728.753 261.655 759.522 271.119C766.452 273.251 773.218 275.514 779.922 278.294C783.417 279.768 786.897 281.277 790.363 282.818C790.4 282.829 792.737 283.597 792.314 283.938C791.668 284.459 788.072 283.79 787.383 283.694C744.191 281.67 708.159 295.543 670.535 315.61C658.106 322.24 648.991 329.915 635.159 334.101C620.237 338.616 609.047 338.558 593.895 338.567C604.299 312.438 632.913 285.201 660.91 281.109C665.8 280.394 694.733 277.752 694.726 273.358C692.308 271.066 689.459 271.227 686.057 270.947C684.069 270.987 673.438 271.332 673.253 270.606C673.356 270.382 673.618 270.27 673.823 270.159Z"/><path fill="#8A8C96" transform="scale(0.199662 0.199662)" d="M686.057 270.947C684.069 270.987 673.438 271.332 673.253 270.606C673.356 270.382 673.618 270.27 673.823 270.159C678.422 270.972 681.392 269.897 686.057 270.947Z"/><path fill="#8A8C96" transform="scale(0.199662 0.199662)" d="M790.363 282.818C790.4 282.829 792.737 283.597 792.314 283.938C791.668 284.459 788.072 283.79 787.383 283.694C788.861 283.408 789.022 283.437 790.363 282.818Z"/><path fill="#F6E3D0" transform="scale(0.199662 0.199662)" d="M435.925 640.668L451.296 636.166C450.406 637.757 446.153 645.504 445.329 646.454C442.409 652.841 436.989 659.924 433.056 665.735C412.52 696.076 382.605 722.372 345.556 728.904C323.712 732.755 293.243 729.394 272.408 720.992C279.562 720.19 288.772 718.916 295.641 716.904C319.083 710.035 341.817 696.922 361.605 682.795C369.643 677.056 377.304 670.499 385.346 664.727C400.217 654.052 418.166 645.228 435.925 640.668ZM445.483 642.857C447.865 636.473 445.29 641.447 441.783 641.503C441.068 641.695 438.518 642.023 438.262 642.692L438.274 642.697L438.284 642.847L438.565 642.581L438.987 643.171C440.792 643.568 442.733 643.26 444.527 642.993L445.483 642.857Z"/><path fill="#F6E3D0" fill-opacity="0.86274511" transform="scale(0.199662 0.199662)" d="M441.783 641.503C445.29 641.447 447.865 636.473 445.483 642.857L444.527 642.993C442.733 643.26 440.792 643.568 438.987 643.171L438.565 642.581L438.284 642.847L438.274 642.697L438.262 642.692C438.518 642.023 441.068 641.695 441.783 641.503Z"/><path fill="#9CA6BD" transform="scale(0.199662 0.199662)" d="M841.571 424.74C849.895 429.693 857.539 438.106 863.921 445.472C889.513 475.006 908.969 511.149 918.965 548.943C925.985 575.487 925.013 602.295 915.052 628.038C914.066 627.248 913.341 627.022 912.072 626.871C912.412 618.037 912.852 609.208 913.393 600.384C913.69 594.982 914.321 587.822 913.823 582.562L913.433 582.239C912.402 584.289 911.628 586.6 909.796 587.517C906.415 584.785 906.573 574.995 907.442 570.869C909.179 562.622 908.684 535.497 897.378 533.98C890.434 536.565 900.251 550.262 895.827 555.752C893.338 555.629 891.389 553.643 889.793 551.797C879.705 540.132 877.571 525.646 878.491 510.725C878.786 505.938 880.013 493.864 873.443 493.149C868.022 495.476 870.726 505.784 866.699 508.571C862.143 508.341 858.907 500.615 857.758 496.729C854.565 485.932 853.349 474.655 850.799 463.695C848.1 450.543 844.259 437.705 841.571 424.74Z"/><path fill="#FD7331" transform="scale(0.199662 0.199662)" d="M655.335 258.23L655.365 258.492C654.291 259.904 643.767 265.33 641.301 266.765C631.184 272.793 621.51 279.535 612.353 286.939C595.11 300.888 579.311 317.685 568.032 336.816C563.961 343.722 562.115 344.976 554.782 347.889C544.813 351.85 536.411 357.369 527.787 363.723C527.353 361.762 529.425 357.111 530.058 355.133C544.96 308.531 583.983 277.008 630.158 264.083C638.308 261.801 646.561 259.317 655.335 258.23Z"/><path fill="#F6E3D0" fill-opacity="0.98823529" transform="scale(0.199662 0.199662)" d="M489.163 615.909C490.553 616.534 490.252 616.197 491.844 616.373C491.297 617.066 489.742 618.231 489.948 618.737C491.403 622.312 494.556 616.893 494.765 616.556C494.728 619.262 493.811 622.761 494.272 625.036C486.114 656.366 461.348 698.771 433.002 714.589C427.441 717.692 413.657 725.203 407.327 725.685C405.329 723.532 409.123 717.973 402.393 718.968L401.971 718.992C405.213 715.771 411.973 710.63 416.03 706.804C430.112 693.65 442.865 679.142 454.104 663.489C459.184 656.321 464.026 648.987 468.62 641.499C475.012 631.251 478.774 622.692 489.163 615.909Z"/><path fill="#9CA6BD" transform="scale(0.199662 0.199662)" d="M668.272 534.23C685.599 538.674 698.519 548.288 711.598 559.982C735.725 581.554 752.769 609.64 754.132 642.715C753.155 641.799 746.302 631.672 744.963 629.73C732.421 611.329 719.459 594.862 703.429 579.269C695.946 571.99 686.289 562.984 678.914 555.921C676.546 553.653 670.286 538.478 668.272 534.23Z"/><path fill="#9CA6BD" transform="scale(0.199662 0.199662)" d="M269.757 388.64C292.325 417.461 313.66 443.267 343.835 464.501C346.951 473.471 350.102 479.796 353.072 487.797C311.403 471.737 274.673 436.901 266.744 391.482C268.705 391.021 269.07 392.836 269.877 391.806C270.273 391.3 269.755 389.565 269.757 388.64Z"/><path fill="#F6E3D0" fill-opacity="0.11764706" transform="scale(0.199662 0.199662)" d="M110.976 449.027C113.878 445.566 112.279 445.262 112.845 441.022C112.962 440.377 113.729 439.645 114.302 439.407C117.101 438.247 116.503 432.943 120.21 433.094C120.79 433.118 121.211 433.802 121.53 434.194C121.599 435.155 121.208 438.534 122.38 438.914C122.605 438.773 122.829 438.632 123.054 438.491C123.257 437.797 123.219 436.668 123.259 435.896C123.828 439.282 124.5 442.994 124.92 446.383C122.724 453.159 122.989 449.568 119.228 453.053C119.325 452.515 119.594 451.769 119.765 451.232C122.07 450.483 124.875 447.708 122.467 446.045C120.323 444.564 119.497 438.29 118.516 438.281C114.606 440.494 117.776 445.932 115.918 449.799C113.055 445.1 115.921 443.109 115.169 441.05L114.963 440.927C113.043 441.477 114.082 448.97 113.875 450.855C113.247 456.556 112.527 453.918 111.632 453.823L111.829 454.048L111.458 454.518C111.437 455.967 111.562 456.868 111.486 458.521C110.831 455.537 110.821 452.071 110.976 449.027Z"/><path fill="#FBE8D6" transform="scale(0.199662 0.199662)" d="M119.848 478.854C121.915 484.126 123.535 491.083 125.801 496.806C127.07 500.011 129.058 504.475 130.118 507.388C129.931 509.076 130.102 510.623 129.912 512.222L129.932 512.108L129.903 512.23L129.816 512.218C129.703 512.009 129.555 510.622 128.783 510.082C126.276 508.326 125.868 502.845 125.222 501.496L124.873 500.782C124.231 499.449 123.701 498.796 122.403 498.117C121.837 496.69 122.388 493.068 121.139 490.189C121.234 490.225 117.643 490.095 117.961 489.895C117.103 490.435 114.956 487.551 114.879 487.249C115.09 487.052 115.244 487.102 115.605 487.052C120.626 489.316 119.526 485.732 118.365 482.572C118.851 481.268 119.364 480.112 119.848 478.854Z"/><path fill="#F7F2EE" transform="scale(0.199662 0.199662)" d="M498.218 660.072C497.19 657.944 506.636 643.923 508.012 639.997C509.015 637.134 513.069 628.406 514.744 625.764C514.192 634.862 512.237 643.814 507.874 651.92C506.936 648.315 508.633 646.197 510.504 642.702C510.828 641.88 511.475 638.981 510.723 638.432C509.85 638.713 509.484 639.767 509.195 640.557C508.499 641.863 504.393 649.82 504.272 650.642C503.731 651.569 503.114 652.456 502.678 653.438C501.1 655.63 499.82 658.183 498.218 660.072Z"/><path fill="#FBE8D6" fill-opacity="0.050980393" transform="scale(0.199662 0.199662)" d="M111.486 458.521C111.562 456.868 111.437 455.967 111.458 454.518L111.829 454.048L111.632 453.823C112.527 453.918 113.247 456.556 113.875 450.855C114.082 448.97 113.043 441.477 114.963 440.927L115.169 441.05C115.921 443.109 113.055 445.1 115.918 449.799L115.052 450.2C114.971 454.67 116.074 460.07 116.787 464.525C116.212 466.226 115.766 470.589 114.3 470.886C113.197 467.158 111.536 462.422 111.486 458.521Z"/><path fill="#F6E3D0" fill-opacity="0.27450982" transform="scale(0.199662 0.199662)" d="M115.918 449.799C117.776 445.932 114.606 440.494 118.516 438.281C119.497 438.29 120.323 444.564 122.467 446.045C124.875 447.708 122.07 450.483 119.765 451.232C119.153 448.099 118.705 448.296 116.751 450.797L115.052 450.2L115.918 449.799Z"/><path fill="#F6E3D0" fill-opacity="0.98431373" transform="scale(0.199662 0.199662)" d="M121.678 472.401C123.184 473.651 123.394 473.622 123.987 475.457C124.846 478.533 124.487 479.918 127.688 479.387C127.855 482.685 125.693 483.258 127.715 484.345C131.889 486.589 127.917 488.726 129.694 491.399C130.101 491.23 130.311 491.091 130.728 491.212C130.845 492.262 129.273 492.455 128.405 492.826C126.084 486.98 123.017 478.49 121.678 472.401Z"/><path fill="#FBE8D6" transform="scale(0.199662 0.199662)" d="M489.163 615.909C491.763 613.727 496.244 610.369 499.064 608.558C497.926 612.812 495.738 621.243 494.272 625.036C493.811 622.761 494.728 619.262 494.765 616.556C494.788 615.586 495.397 614.143 494.369 613.904C493.522 614.255 492.493 615.635 491.844 616.373C490.252 616.197 490.553 616.534 489.163 615.909Z"/><path fill="#F6E3D0" fill-opacity="0.57647061" transform="scale(0.199662 0.199662)" d="M112.217 502.147C112.426 500.809 112.487 495.964 113.271 495.29C113.832 495.924 113.065 496.662 114.326 495.957C114.651 495.775 115.292 495.592 115.655 495.735C117.618 498.194 117.61 504.57 113.215 506.147C112.893 504.805 112.471 503.506 112.217 502.147Z"/><path fill="#F7F2EE" transform="scale(0.199662 0.199662)" d="M471.315 698.395C472.406 696.716 481.153 684.032 482.25 683.59C482.972 685.404 483.174 684.88 485.197 684.701C483.518 687.406 473.961 696.134 471.315 698.395Z"/><path fill="#F6E3D0" fill-opacity="0.75686276" transform="scale(0.199662 0.199662)" d="M153.243 504.84C152.734 503.21 153.03 499.562 153.34 497.815C153.352 498.799 153.111 501.866 153.722 502.68C154.242 503.373 155.628 501.275 155.771 501.074C156.731 499.725 158.131 499.232 159.54 498.497C160.964 499.77 162.057 500.741 163.292 502.212C160.523 506.427 160.819 503.116 157.98 502.412C158.118 502.446 153.186 504.912 153.243 504.84Z"/><path fill="#FBE8D6" fill-opacity="0.20392157" transform="scale(0.199662 0.199662)" d="M509.195 640.557C509.618 641.28 510.054 641.995 510.504 642.702C508.633 646.197 506.936 648.315 507.874 651.92C507.441 653.228 507.258 653.645 506.65 654.884C503.692 653.072 505.696 653.79 504.272 650.642C504.393 649.82 508.499 641.863 509.195 640.557Z"/><path fill="#FBE8D6" fill-opacity="0.95294118" transform="scale(0.199662 0.199662)" d="M116.787 464.525C116.973 465.656 117.385 466.8 117.632 467.996L118.079 470.245C118.353 471.639 118.68 473.019 118.91 474.422C118.034 475.681 117.246 476.783 116.448 478.095C115.77 475.987 114.872 473.976 114.481 471.783L114.3 470.886C115.766 470.589 116.212 466.226 116.787 464.525Z"/><path fill="#F6E3D0" fill-opacity="0.86274511" transform="scale(0.199662 0.199662)" d="M121.059 469.497C122.58 468.897 123.622 468.495 125.008 467.585L126.529 466.574C125.484 471.11 127.014 469.286 127.332 472.559C126.53 472.095 124.301 473.992 123.987 475.457C123.394 473.622 123.184 473.651 121.678 472.401C121.071 471.07 121.089 470.948 121.059 469.497Z"/><path fill="#FBE8D6" fill-opacity="0.062745102" transform="scale(0.199662 0.199662)" d="M111.48 439.931C111.516 440.332 111.584 442.194 111.721 442.448C111.632 443.08 111.674 443.121 111.69 443.947C111.815 444.011 111.743 444.002 111.909 443.949C112.176 439.683 111.607 440.66 114.198 437.794C116.516 435.23 118.871 426.273 121.53 434.194C121.211 433.802 120.79 433.118 120.21 433.094C116.503 432.943 117.101 438.247 114.302 439.407C113.729 439.645 112.962 440.377 112.845 441.022C112.279 445.262 113.878 445.566 110.976 449.027C110.89 445.836 110.783 443.053 111.48 439.931Z"/><path fill="#A9ADC0" fill-opacity="0.9254902" transform="scale(0.199662 0.199662)" d="M264.514 380.839C265.971 382.895 268.616 386.516 269.757 388.64C269.755 389.565 270.273 391.3 269.877 391.806C269.07 392.836 268.705 391.021 266.744 391.482C265.997 389.295 265.617 385.883 265.103 383.541L264.514 380.839Z"/><path fill="#F6E3D0" fill-opacity="0.50588238" transform="scale(0.199662 0.199662)" d="M153.34 497.815C155.244 495.961 157.568 497.356 159.54 498.497C158.131 499.232 156.731 499.725 155.771 501.074C155.628 501.275 154.242 503.373 153.722 502.68C153.111 501.866 153.352 498.799 153.34 497.815Z"/><path fill="#F6E3D0" fill-opacity="0.60784316" transform="scale(0.199662 0.199662)" d="M123.987 475.457C124.301 473.992 126.53 472.095 127.332 472.559C127.6 475.139 127.572 476.839 127.688 479.387C124.487 479.918 124.846 478.533 123.987 475.457Z"/><path fill="#F6E3D0" fill-opacity="0.090196081" transform="scale(0.199662 0.199662)" d="M504.272 650.642C505.696 653.79 503.692 653.072 506.65 654.884C505.874 656.123 505.069 657.861 504.385 659.188C503.141 656.254 503.463 656.829 502.678 653.438C503.114 652.456 503.731 651.569 504.272 650.642Z"/><path fill="#FBE8D6" fill-opacity="0.84313726" transform="scale(0.199662 0.199662)" d="M128.183 546.924C128.783 545.43 130.734 542.14 131.627 543.9C133.212 547.022 132.094 548.637 129.883 549.483C129.286 548.628 128.75 547.799 128.183 546.924Z"/><path fill="#F6E3D0" fill-opacity="0.67450982" transform="scale(0.199662 0.199662)" d="M491.844 616.373C492.493 615.635 493.522 614.255 494.369 613.904C495.397 614.143 494.788 615.586 494.765 616.556C494.556 616.893 491.403 622.312 489.948 618.737C489.742 618.231 491.297 617.066 491.844 616.373Z"/><path fill="#F7F2EE" fill-opacity="0.33725491" transform="scale(0.199662 0.199662)" d="M118.91 474.422C119.372 476.09 119.531 477.172 119.848 478.854C119.364 480.112 118.851 481.268 118.365 482.572C117.796 481.053 117.096 479.586 116.448 478.095C117.246 476.783 118.034 475.681 118.91 474.422Z"/><path fill="#F7F2EE" fill-opacity="0.14509805" transform="scale(0.199662 0.199662)" d="M387.223 730.859C389.608 728.584 390.708 727.534 393.459 725.602C393.379 726.523 393.163 727.626 393.287 728.557L393.257 728.629L393.164 728.613C393.398 729.052 394.01 729.158 394.433 729.352C392.45 729.932 389.379 730.417 387.223 730.859Z"/><path fill="#F6E3D0" fill-opacity="0.73333335" transform="scale(0.199662 0.199662)" d="M116.751 450.797C118.705 448.296 119.153 448.099 119.765 451.232C119.594 451.769 119.325 452.515 119.228 453.053C118.762 454.618 118.431 454.554 117.688 455.89C117.446 454.17 116.991 452.652 116.751 450.797Z"/><path fill="#A9ADC0" fill-opacity="0.72941178" transform="scale(0.199662 0.199662)" d="M912.072 626.871C913.341 627.022 914.066 627.248 915.052 628.038C914.111 630.278 913.073 632.329 911.984 634.493C911.917 631.838 911.975 629.513 912.072 626.871Z"/><path fill="#FBE8D6" fill-opacity="0.32549021" transform="scale(0.199662 0.199662)" d="M133.33 457.163C134.291 458.04 134.741 458.425 135.541 459.439C133.205 467.227 132.115 461.367 133.33 457.163Z"/><path fill="#FBE8D6" fill-opacity="0.60392159" transform="scale(0.199662 0.199662)" d="M130.506 536.611C131.098 537.094 131.212 537.2 131.849 537.583C127.133 541.024 124.267 538.694 130.506 536.611Z"/><path fill="#FBE8D6" fill-opacity="0.39607844" transform="scale(0.199662 0.199662)" d="M509.195 640.557C509.484 639.767 509.85 638.713 510.723 638.432C511.475 638.981 510.828 641.88 510.504 642.702C510.054 641.995 509.618 641.28 509.195 640.557Z"/><path fill="#DBDBDA" fill-opacity="0.074509807" transform="scale(0.199662 0.199662)" d="M176.938 391.579C176.684 390.083 176.194 385.548 176.825 384.284L176.862 384.46L177.169 384.66L176.904 384.748L177.259 384.915C177.466 385.526 177.418 385.589 177.449 386.27C177.21 388.063 177.141 389.773 176.938 391.579Z"/><path fill="#8A8C96" transform="scale(0.199662 0.199662)" d="M291.47 226.304C291.747 225.715 292.065 224.703 292.635 224.339C293.214 224.506 292.206 228.595 292.077 229.143C291.865 228.199 291.662 227.252 291.47 226.304Z"/><path fill="#1A1313" transform="scale(0.199662 0.199662)" d="M516.901 31.2589C526.11 31.0853 567.75 32.5441 573.274 36.5041C571.863 37.9082 562.499 37.4454 559.864 37.6718C510.704 41.8945 460.387 51.5499 413.54 67.2263C369.571 82.3334 329.283 106.546 295.309 138.284C289.467 143.501 283.72 149.537 278.379 155.286C275.369 158.526 272.363 162.782 269.165 165.69C267.635 165.473 268.363 165.731 267.011 164.641C266.825 160.893 281.884 144.83 285.006 141.476C332.15 90.8379 396.717 53.4606 463.926 37.3264C481.292 33.1576 499.203 32.0822 516.901 31.2589Z"/><path fill="#1A1313" transform="scale(0.199662 0.199662)" d="M622.584 919.402C624.198 919.446 624.436 919.745 625.983 920.39C630.06 925.674 614.672 930.182 611.327 931.484C598.748 936.389 585.944 940.698 572.959 944.396C497.24 966.566 405.682 979.181 328.82 956.25C326.586 955.59 325.353 955.348 323.357 954.14C324.665 953.873 341.525 957.751 344.638 958.351C357.262 960.747 370.014 962.41 382.83 963.332C444.363 968.137 511.294 957.83 569.866 939.183C586.168 933.992 607.245 926.939 622.584 919.402Z"/><path fill="#1A1313" transform="scale(0.199662 0.199662)" d="M918.83 290.07C925.193 291.824 946.832 323.149 951.464 330.515C956.076 337.849 978.167 377.083 975.692 383.62C974.967 385.537 973.005 386.19 971.228 386.73C970.497 386.231 968.827 385.131 968.4 384.315C963.053 374.099 959.078 363.165 953.361 353.103C944.272 337.105 934.534 321.195 922.975 306.848C920.413 303.335 915.804 300.501 913.924 296.56C912.023 292.576 915.94 290.786 918.83 290.07Z"/><path fill="#1A1313" transform="scale(0.199662 0.199662)" d="M238.473 200.432C248.554 200.46 241.851 208.516 239.615 212.899C238.619 214.851 237.578 216.833 236.605 218.789C232.182 227.706 228.101 236.789 224.372 246.018C209.028 284.36 202.752 325.73 206.035 366.898C204.629 367.599 204.12 368.042 202.585 367.778C197.342 361.951 201.566 308.674 203.317 299.243C209.411 266.416 221.145 229.132 238.473 200.432Z"/><defs><linearGradient id="gradient_0" gradientUnits="userSpaceOnUse" x1="842.94525" y1="811.98584" x2="872.48322" y2="819.052"><stop offset="0" stop-color="#030102" stop-opacity="0.97647059"/><stop offset="1" stop-color="#211B1A"/></linearGradient></defs><path fill="url(#gradient_0)" transform="scale(0.199662 0.199662)" d="M824.835 887.597C830.553 879.345 836.806 870.727 841.782 862.131C861.102 828.756 874.043 791.701 878.269 753.301C878.846 748.736 879.332 738.588 886.645 742.842C888.333 743.824 888.52 748.875 888.274 750.852C882.982 793.541 866.671 835.694 840.527 869.982C835.668 876.356 830.775 882.177 825.617 888.105L824.835 887.597Z"/><path fill="#1A1313" transform="scale(0.199662 0.199662)" d="M39.6706 519.023C41.9693 519.27 42.5976 519.543 44.6315 519.931C53.6047 544.349 61.0137 562.957 73.9768 585.913C77.9508 592.969 82.2077 599.862 86.7371 606.574C89.9906 611.333 96.7408 619.206 98.0399 625.053C98.2607 626.047 97.4817 626.813 96.8442 627.504C95.8407 627.549 94.8673 627.681 94.0514 626.951C66.1672 602.005 48.4708 552.197 39.6706 519.023Z"/><path fill="#1A1313" transform="scale(0.199662 0.199662)" d="M681.74 202.296C706.601 200.853 737.755 201.825 761.933 210.342C763.654 210.948 764.513 213.092 765.004 214.713C763.971 221.311 739.571 213.238 734.121 212.105C719.326 209.506 706.354 208.699 691.254 208.926C683.02 209.083 674.798 209.654 666.622 210.637C661.325 211.268 650.761 214.855 648.479 208.547L649.123 207.263C653.553 204.039 675.325 202.725 681.74 202.296Z"/><path fill="#0D0B0B" fill-opacity="0.98823529" transform="scale(0.199662 0.199662)" d="M725.901 183.844C738.033 184.275 752.322 187.275 764.27 190.338C818.867 204.335 868.883 233.923 907.714 274.75C909.478 276.605 911.782 279.363 911.755 281.973C910.723 283.038 911.344 282.682 909.705 282.781C906.64 279.945 904.387 276.683 901.501 273.763C852.832 224.532 790.573 193.643 721.674 186.866C722.55 186.604 726.674 186.263 726.636 185.29L726.607 185.296C726.456 185.017 726.331 184.833 726.089 184.622L725.901 183.844Z"/><path fill="#0D0B0B" transform="scale(0.199662 0.199662)" d="M724.044 93.3376C783.873 100.98 847.471 130.614 888.871 175.686C890.283 177.223 890.754 177.627 890.638 179.316C884.428 174.768 876.7 165.309 869.309 159.692C840.934 138.125 808.305 121.763 774.799 109.841C765.506 106.534 756.203 104.222 746.77 101.714C741.385 100.282 728.309 98.4168 723.932 96.5518C723.318 94.9987 723.574 95.3254 724.044 93.3376Z"/><path fill="#1A1313" transform="scale(0.199662 0.199662)" d="M780.948 804.899C782.816 807.294 772.683 821.636 770.604 824.58C754.797 846.961 736.312 868.159 712.976 882.89C712.472 883.208 710.774 883.01 710.241 882.956L708.79 880.962C708.589 876.959 718.486 870.693 721.704 868.287C746.205 849.968 763.824 829.931 780.948 804.899Z"/><path fill="#0D0B0B" transform="scale(0.199662 0.199662)" d="M443.412 802.433C443.835 803.53 444.793 804.147 445.645 805.035C409.563 827.514 350.205 830.62 308.89 827.834C308.402 827.586 307.642 827.446 307.097 827.314L306.278 827.255C306.925 826.78 310.586 827.05 311.728 827.068C315.812 827.885 330.123 827.865 334.271 827.057C371.102 826.232 410.19 818.747 443.412 802.433Z"/><defs><linearGradient id="gradient_1" gradientUnits="userSpaceOnUse" x1="630.45276" y1="150.26338" x2="626.44275" y2="140.8118"><stop offset="0" stop-color="#030000" stop-opacity="0.90980393"/><stop offset="1" stop-color="#1C1919"/></linearGradient></defs><path fill="url(#gradient_1)" transform="scale(0.199662 0.199662)" d="M585.9 159.134C587.546 157.737 591.109 156.21 593.208 155.084C610.825 145.684 629.751 138.977 649.355 135.184C654.521 134.186 659.775 133.212 664.975 132.411C668.123 131.927 670.574 132.242 673.741 131.541L673.994 131.929C670.767 133.247 668.056 133.61 664.725 134.535L645.783 139.748C630.991 143.976 599.87 155.661 586.424 163.244C583.652 161.329 584.004 161.807 585.614 159.545L585.9 159.134Z"/><path fill="#1A1313" transform="scale(0.199662 0.199662)" d="M256.517 763.071C262.311 763.079 278.074 767.308 285.943 768.283C294.28 770.02 302.966 769.47 311.22 771.133C315.023 771.899 315.045 775.31 313.797 778.151C304.196 783.19 272.497 771.487 262.276 766.583C260.184 765.58 258.035 764.873 256.517 763.071Z"/><path fill="#0D0B0B" transform="scale(0.199662 0.199662)" d="M149.214 185.919C149.449 186.105 149.522 186.434 149.657 186.702C147.737 192.595 144.496 199.665 142.139 205.593C138.546 214.845 135.366 224.253 132.607 233.787C131.625 237.31 130.734 240.663 129.971 244.227C129.031 248.622 128.838 258.658 126.783 262.121C125.049 263.459 124.734 263.401 122.503 263.841C116.445 254.227 143.052 196.643 149.214 185.919Z"/><path fill="#1A1313" fill-opacity="0.97647059" transform="scale(0.199662 0.199662)" d="M113.354 701.846C116.259 702.635 116.438 703.776 119.246 704.4C125.822 705.862 125.137 713.439 120.331 716.806C117.212 716.865 114.136 716.409 112.37 713.623C108.606 707.687 108.036 705.632 113.354 701.846ZM118.189 710.468C118.431 710.188 118.617 710.069 118.697 709.756L118.664 709.658C118.283 709.502 117.732 709.907 117.451 710.055C117.18 710.316 116.969 710.432 116.851 710.744L116.868 710.829C117.22 711.027 117.952 710.574 118.189 710.468Z"/><path fill="#1A1313" fill-opacity="0.57647061" transform="scale(0.199662 0.199662)" d="M117.451 710.055C117.732 709.907 118.283 709.502 118.664 709.658L118.697 709.756C118.617 710.069 118.431 710.188 118.189 710.468C117.952 710.574 117.22 711.027 116.868 710.829L116.851 710.744C116.969 710.432 117.18 710.316 117.451 710.055Z"/><path fill="#1A1313" fill-opacity="0.80392158" transform="scale(0.199662 0.199662)" d="M680.096 183.279C683.221 182.513 723.484 182.926 725.901 183.844L726.089 184.622C726.331 184.833 726.456 185.017 726.607 185.296L726.636 185.29C726.674 186.263 722.55 186.604 721.674 186.866C720.073 187.071 716.62 186.416 714.752 186.309C705.778 185.791 693.326 185.813 684.511 186.831C684.776 185.906 684.761 186.379 685.487 185.819C685.558 185.628 685.559 185.721 685.494 185.54C685.057 185.268 683.63 184.916 683.249 184.927C681.006 184.988 681.828 184.005 680.096 183.279Z"/><path fill="#0D0B0B" transform="scale(0.199662 0.199662)" d="M558.794 246.071C570.302 238.733 582.502 231.971 595.186 226.866C598.576 225.502 617.12 217.898 618.856 218.127C617.59 219.79 604.877 224.537 602.141 225.687C586.335 232.334 573.938 239.468 559.877 249.172L558.794 246.071Z"/><path fill="#1A1313" fill-opacity="0.97254902" transform="scale(0.199662 0.199662)" d="M105.536 667.363C113.469 667.787 114.867 676.021 107.565 680.438C98.7059 679.581 99.3096 672.809 104.894 667.94L105.536 667.363ZM106.227 674.47C106.135 674.181 106.156 674.1 105.99 673.935C105.807 673.89 106.101 673.823 105.518 674.064C105.502 674.552 105.481 674.398 105.535 674.61C105.758 674.699 105.86 674.606 106.227 674.47Z"/><path fill="#1A1313" fill-opacity="0.49411765" transform="scale(0.199662 0.199662)" d="M105.518 674.064C106.101 673.823 105.807 673.89 105.99 673.935C106.156 674.1 106.135 674.181 106.227 674.47C105.86 674.606 105.758 674.699 105.535 674.61C105.481 674.398 105.502 674.552 105.518 674.064Z"/><path fill="#1A1313" transform="scale(0.199662 0.199662)" d="M908.366 721.38C916.227 721.299 920.495 727.213 913.559 732.769C905.62 734.479 903.391 725.717 907.618 722.049L908.366 721.38Z"/><path fill="#0D0B0B" transform="scale(0.199662 0.199662)" d="M34.2696 488.499C37.7968 494.581 42.0661 512.322 44.6315 519.931C42.5976 519.543 41.9693 519.27 39.6706 519.023C37.8623 508.822 34.6954 498.907 34.2696 488.499Z"/><path fill="#0D0B0B" fill-opacity="0.93725491" transform="scale(0.199662 0.199662)" d="M581.789 165.478L581.234 165.809C580.067 166.519 578.877 167.181 577.682 167.835C570.655 171.685 563.536 175.499 557.31 180.592C556.873 180.95 555.342 182.522 554.674 181.884C554.357 179.236 576.353 164.539 579.851 162.563C581.131 163.533 581.078 164.004 581.789 165.478Z"/><path fill="#1A1313" transform="scale(0.199662 0.199662)" d="M633.822 210.58C635.494 210.613 636.33 211.284 636.719 212.922C637.547 216.404 633.179 217.109 630.748 217.448C629.131 217.673 627.603 217.969 626.015 218.292C624.606 218.117 621.4 217.276 622.853 214.911C624.266 212.612 631.023 211.247 633.822 210.58Z"/><path fill="#0D0B0B" fill-opacity="0.98039216" transform="scale(0.199662 0.199662)" d="M443.412 802.433C447.647 800.098 451.268 798.232 455.438 795.638C457.442 794.392 462.491 791.098 464.396 790.38L464.709 791.044C459.426 796.215 452.085 801.331 445.645 805.035C444.793 804.147 443.835 803.53 443.412 802.433Z"/><path fill="#0D0B0B" transform="scale(0.199662 0.199662)" d="M649.877 905.895C655.502 905.59 658.014 908.83 653.895 913.336L653.3 914.006C647.404 915.836 646.941 909.933 649.877 905.895Z"/><path fill="#0D0B0B" fill-opacity="0.96470588" transform="scale(0.199662 0.199662)" d="M928.893 260.795C929.356 261.369 941.031 273.544 935.844 273.146C935.192 273.097 928.157 265.644 926.827 264.095C927.78 263.225 928.025 262.841 928.531 261.633L928.893 260.795Z"/><path fill="#0D0B0B" fill-opacity="0.92941177" transform="scale(0.199662 0.199662)" d="M341.921 771.566C343.257 771.359 344.599 771.9 345.418 772.976C346.237 774.051 346.401 775.489 345.847 776.722C345.292 777.954 344.107 778.785 342.759 778.886C340.786 779.033 339.048 777.595 338.822 775.629C338.597 773.662 339.965 771.869 341.921 771.566ZM341.822 776.023C341.692 775.749 341.736 775.549 341.47 775.525C341.475 775.915 341.448 775.792 341.51 775.962C341.625 776.037 341.539 776.002 341.822 776.023Z"/><path fill="#0D0B0B" fill-opacity="0.48627451" transform="scale(0.199662 0.199662)" d="M341.47 775.525C341.736 775.549 341.692 775.749 341.822 776.023C341.539 776.002 341.625 776.037 341.51 775.962C341.448 775.792 341.475 775.915 341.47 775.525Z"/><path fill="#0D0B0B" fill-opacity="0.98431373" transform="scale(0.199662 0.199662)" d="M117.039 291.669C119.027 291.641 120.668 293.214 120.725 295.2C120.782 297.187 119.234 298.851 117.248 298.937C115.938 298.994 114.698 298.341 114.005 297.227C113.311 296.114 113.271 294.713 113.899 293.562C114.528 292.411 115.728 291.687 117.039 291.669Z"/><path fill="#0D0B0B" fill-opacity="0.87058824" transform="scale(0.199662 0.199662)" d="M134.338 726.169C139.489 726.805 136.602 726.86 139.013 729.045C141.86 731.626 141.733 731.571 140.542 735.131C136.765 734.486 132.644 731.039 134.11 726.924L134.338 726.169Z"/><path fill="#0D0B0B" fill-opacity="0.98039216" transform="scale(0.199662 0.199662)" d="M794.852 225.425C796.686 224.81 798.674 225.783 799.313 227.609C799.952 229.435 799.004 231.436 797.187 232.098C795.99 232.534 794.651 232.293 793.682 231.466C792.713 230.639 792.264 229.355 792.506 228.105C792.748 226.854 793.644 225.831 794.852 225.425Z"/><path fill="#0D0B0B" transform="scale(0.199662 0.199662)" d="M985.683 411.142C987.482 410.709 989.306 411.757 989.839 413.529C990.372 415.302 989.427 417.181 987.687 417.812C986.472 418.252 985.113 417.984 984.156 417.116C983.199 416.248 982.8 414.922 983.12 413.669C983.44 412.417 984.427 411.445 985.683 411.142Z"/><path fill="#1A1313" fill-opacity="0.64705884" transform="scale(0.199662 0.199662)" d="M253.408 819.006C258.259 818.875 264.222 817.811 262.488 823.807C259.38 824.26 253.598 822.988 253.408 819.006Z"/><path fill="#F7F2EE" fill-opacity="0.38039216" transform="scale(0.199662 0.199662)" d="M515.096 322.863C515.435 317.067 515.609 313.439 516.978 307.82C517.176 315.947 516.841 313.001 521.317 310.86C519.91 314.092 518.127 317.304 516.435 320.4L515.096 322.863Z"/><path fill="#0D0B0B" fill-opacity="0.98431373" transform="scale(0.199662 0.199662)" d="M226.296 106.531C229.795 103.021 231.433 100.844 235.559 97.9123C234.22 100.879 231.37 106.324 229.032 108.632C228.129 107.597 227.438 107.3 226.296 106.531Z"/><path fill="#F7F2EE" fill-opacity="0.27058825" transform="scale(0.199662 0.199662)" d="M266.192 506.27C267.541 507.189 269.86 509.223 271.063 510.321C269.691 511.932 269.537 511.366 267.422 511.289C266.382 510.581 264.483 509.659 263.87 508.931C265.199 507.946 264.761 507.39 266.192 506.27Z"/><path fill="#0D0B0B" fill-opacity="0.90196079" transform="scale(0.199662 0.199662)" d="M579.851 162.563C581.478 161.266 584.02 159.999 585.9 159.134L585.614 159.545C584.004 161.807 583.652 161.329 586.424 163.244C584.898 163.991 583.328 164.76 581.789 165.478C581.078 164.004 581.131 163.533 579.851 162.563Z"/><path fill="#0D0B0B" fill-opacity="0.97254902" transform="scale(0.199662 0.199662)" d="M783.256 898.869C783.227 899.673 783.001 901.411 784.386 901.046L784.372 901.03C785.428 900.428 785.262 900.525 786.561 900.22C780.114 907.814 776.99 906.779 783.256 898.869Z"/><path fill="#F7F2EE" fill-opacity="0.65098041" transform="scale(0.199662 0.199662)" d="M508.394 292.062C509.39 289.375 511.226 283.58 512.981 281.476C513.356 282.922 513.322 283.23 514.11 284.422C513.877 285.641 509.488 290.695 508.394 292.062Z"/><path fill="#0D0B0B" fill-opacity="0.84705883" transform="scale(0.199662 0.199662)" d="M225.458 806.963C227.301 804.75 231.124 807.07 231.036 810.948C229.128 809.991 226.524 807.139 226.125 807.079L225.458 806.963Z"/><path fill="#0D0B0B" fill-opacity="0.95294118" transform="scale(0.199662 0.199662)" d="M231.036 810.948C228.324 811.392 224.061 810.413 225.458 806.963L226.125 807.079C226.524 807.139 229.128 809.991 231.036 810.948Z"/><path fill="#110607" fill-opacity="0.627451" transform="scale(0.199662 0.199662)" d="M311.728 827.068C318.72 826.863 327.306 826.844 334.271 827.057C330.123 827.865 315.812 827.885 311.728 827.068Z"/><path fill="#110607" fill-opacity="0.84313726" transform="scale(0.199662 0.199662)" d="M399.014 768.681C401.022 768.256 402.753 767.891 404.796 767.549L405.063 768.161C403.702 768.543 402.305 768.881 400.932 769.251L399.014 768.681Z"/><path fill="#0D0B0B" fill-opacity="0.7019608" transform="scale(0.199662 0.199662)" d="M400.932 769.251C400.4 769.349 396.669 770.378 396.72 769.467C397.531 768.826 397.924 768.89 399.014 768.681L400.932 769.251Z"/><path fill="#F7F2EE" fill-opacity="0.015686275" transform="scale(0.199662 0.199662)" d="M89.7755 502.09C90.3432 503.75 90.2132 506.644 88.8063 503.374C89.4005 502.744 89.4634 502.773 89.7755 502.09Z"/><path fill="#110607" fill-opacity="0.7647059" transform="scale(0.199662 0.199662)" d="M370.915 44.3724C371.376 44.2183 373.128 43.4949 373.681 43.7965C373.632 44.389 371.523 45.0947 371.156 45.2418L370.915 44.3724Z"/><path fill="#0D0B0B" fill-opacity="0.86666667" transform="scale(0.199662 0.199662)" d="M824.835 887.597L825.617 888.105C825.417 888.312 824.257 889.829 823.773 889.649C823.51 888.94 824.452 888.09 824.835 887.597Z"/></svg>