<?xml version="1.0" encoding="utf-8" ?><svg xmlns="http://www.w3.org/2000/svg" xmlns:xlink="http://www.w3.org/1999/xlink" width="207" height="207" viewBox="0 0 207 207"><path fill="#031358" transform="scale(0.201897 0.201897)" d="M272.871 913.369C277.755 913.683 284.832 912.45 289.804 911.665C318.642 907.111 348.618 894.332 370.482 874.965C386.808 860.504 398.67 838.457 380.056 820.424C370.487 811.154 357.465 807.751 348.919 797.475C338.1 783.627 336.758 769.308 322.324 757.43C311.038 746.745 297.156 749.01 284.14 744.326C257.244 734.647 239.013 706.651 238.606 678.187C238.267 654.533 250.541 632.886 269.116 618.396C282.155 608.225 299.646 597.591 299.922 578.775C299.982 575.103 298.113 570.894 295.291 568.456C286.172 560.83 273.226 564.695 261.228 562.171C231.152 555.681 208.935 530.169 206.64 499.486C204.091 466.471 223.28 441.452 250.076 426.529C262.104 419.83 274.609 402.099 281.272 390.568C300.769 356.31 296.35 321.697 306.015 285.486C327.394 205.284 390.019 142.632 470.212 121.218C545.217 101.393 620.834 120.541 678.995 171.407C725.63 212.29 754.19 269.968 758.438 331.84C759.286 344.705 759.117 357.248 757.662 370.111C756.538 380.056 754.287 390.165 753.834 400.25C752.399 432.785 763.035 467.383 787.74 489.585C791.363 492.842 795.514 495.835 798.868 499.344C823.29 524.896 824.094 565.975 800.723 592.453C788.587 606.326 771.376 614.728 752.973 615.764C740.47 616.44 727.516 611.725 718.238 622.426C711.533 630.159 709.169 640.262 709.863 650.323C710.606 665.518 718.683 673.325 724.883 685.967C737.844 712.394 734.613 745.492 714.716 767.745C701.533 782.488 682.049 793.198 662.058 794.434C654.551 794.898 647.104 794.88 639.757 796.231C614.854 800.811 594.085 815.453 577.782 834.361C570.163 843.198 562.913 851.526 554.406 859.54C508.075 903.591 447.605 929.756 383.776 933.37C355.055 935.124 324.063 930.844 296.317 923.289C288.14 921.062 277.547 916.396 270.839 914.88C271.478 914.421 272.297 913.865 272.871 913.369ZM718.564 272.824C715.155 265.966 716.379 272.344 716.313 274.477C717.372 276.035 718.524 277.528 719.763 278.948C719.487 275.985 718.954 275.549 718.564 272.824ZM337.235 284.764C336.517 288.169 335.188 292.382 334.342 295.992L333.871 297.992C333.181 301.005 332.589 303.812 332.112 306.872C332.484 308.233 332.43 308.174 333.311 309.279C334.143 307.801 334.929 306.298 335.667 304.772C334.416 302.28 341.458 294.725 342.461 291.978C343.396 289.419 339.559 285.453 337.235 284.764ZM701.675 700.885C701.938 702.255 702.068 703.578 701.238 704.713C699.837 706.628 705.301 707.182 705.499 707.002C706.565 706.035 706.303 703.334 706.943 701.266C706.798 700.512 706.729 700.23 706.519 699.47C705.616 697.243 705.043 696.131 703.792 694.063C703.3 695.868 702.669 697.701 702.121 699.501C701.849 700.158 701.842 700.197 701.675 700.885Z"/><path fill="#074494" transform="scale(0.201897 0.201897)" d="M337.235 284.764C341.778 270.617 347.568 256.901 354.537 243.778C380.108 196.601 423.23 161.392 474.568 145.773C524.367 131.042 577.972 136.612 623.678 161.267C660.122 180.955 689.907 211.012 709.264 247.634C712.006 252.816 717.245 262.775 718.848 268.261C720.803 272.517 723.81 281.917 724.727 286.466C736.244 313.377 734.205 364.019 732.061 393.269C730.877 409.407 723.017 427.615 714.671 441.468C725.768 448.549 727.265 451.412 734.152 462.448C742.665 476.092 749.717 492.696 764.044 500.999C775.226 507.825 787.137 506.089 789.921 520.268C790.873 525.118 790.568 527.799 789.666 532.403C792.467 534.961 793.007 540.184 793.781 543.988C798.417 566.787 774.748 596.973 750.596 588.712C746.906 587.45 740.908 583.33 736.935 581.21C725.759 575.247 712.408 574.552 700.559 579.011C668.033 590.938 654.059 625.102 620.921 637.397C612.341 640.58 606.314 642.8 596.954 643.535C568.992 645.73 546.052 631.812 527.962 611.615C521.496 604.397 511.839 591.739 504.753 586.26C481.071 567.109 455.52 586.413 432.419 595.406C394.233 610.272 361.517 596.883 345.179 559.342C340.221 547.949 334.069 533.085 324.222 525.167C317.652 519.883 308.284 517.021 299.784 518.824C281.722 523.467 263.887 534.917 246.49 520.613C239.22 514.636 233.978 504.129 233.254 494.522C232.173 480.186 236.524 471.416 245.515 460.839C246.22 459.578 247.552 452.427 249.25 450.627C255.176 444.347 266.836 444.974 274.701 441.564C280.856 438.84 289.255 435.001 294.261 430.419C308.446 417.436 316.765 401.51 331.529 388.575C327.216 368.232 326.748 333.925 330.971 313.598C331.317 311.278 331.634 309.17 332.112 306.872C332.484 308.233 332.43 308.174 333.311 309.279C334.143 307.801 334.929 306.298 335.667 304.772C334.416 302.28 341.458 294.725 342.461 291.978C343.396 289.419 339.559 285.453 337.235 284.764ZM719.763 278.948C719.487 275.985 718.954 275.549 718.564 272.824C715.155 265.966 716.379 272.344 716.313 274.477C717.372 276.035 718.524 277.528 719.763 278.948Z"/><path fill="#E7E1DC" fill-opacity="0.89411765" transform="scale(0.201897 0.201897)" d="M716.313 274.477C716.379 272.344 715.155 265.966 718.564 272.824C718.954 275.549 719.487 275.985 719.763 278.948C718.524 277.528 717.372 276.035 716.313 274.477Z"/><path fill="#DFDFD7" transform="scale(0.201897 0.201897)" d="M331.529 388.575C337.929 384.403 344.959 381.602 352.867 383.244C372 387.215 375.424 405.618 381.155 420.73C391.423 447.809 412.891 466.788 440.948 447.061C456.851 436.276 476.895 409.578 499.179 415.729C545.772 428.589 551.16 501.237 605.196 504.112C640.548 505.992 653.85 478.137 669.957 452.933C679.644 437.774 698.337 434.118 714.671 441.468C725.768 448.549 727.265 451.412 734.152 462.448C742.665 476.092 749.717 492.696 764.044 500.999C775.226 507.825 787.137 506.089 789.921 520.268C790.873 525.118 790.568 527.799 789.666 532.403C792.467 534.961 793.007 540.184 793.781 543.988C798.417 566.787 774.748 596.973 750.596 588.712C746.906 587.45 740.908 583.33 736.935 581.21C725.759 575.247 712.408 574.552 700.559 579.011C668.033 590.938 654.059 625.102 620.921 637.397C612.341 640.58 606.314 642.8 596.954 643.535C568.992 645.73 546.052 631.812 527.962 611.615C521.496 604.397 511.839 591.739 504.753 586.26C481.071 567.109 455.52 586.413 432.419 595.406C394.233 610.272 361.517 596.883 345.179 559.342C340.221 547.949 334.069 533.085 324.222 525.167C317.652 519.883 308.284 517.021 299.784 518.824C281.722 523.467 263.887 534.917 246.49 520.613C239.22 514.636 233.978 504.129 233.254 494.522C232.173 480.186 236.524 471.416 245.515 460.839C246.22 459.578 247.552 452.427 249.25 450.627C255.176 444.347 266.836 444.974 274.701 441.564C280.856 438.84 289.255 435.001 294.261 430.419C308.446 417.436 316.765 401.51 331.529 388.575Z"/><path fill="#074494" transform="scale(0.201897 0.201897)" d="M789.666 532.403C792.467 534.961 793.007 540.184 793.781 543.988C798.417 566.787 774.748 596.973 750.596 588.712C746.906 587.45 740.908 583.33 736.935 581.21C725.759 575.247 712.408 574.552 700.559 579.011C668.033 590.938 654.059 625.102 620.921 637.397C612.341 640.58 606.314 642.8 596.954 643.535C568.992 645.73 546.052 631.812 527.962 611.615C521.496 604.397 511.839 591.739 504.753 586.26C481.071 567.109 455.52 586.413 432.419 595.406C394.233 610.272 361.517 596.883 345.179 559.342C340.221 547.949 334.069 533.085 324.222 525.167C317.652 519.883 308.284 517.021 299.784 518.824C281.722 523.467 263.887 534.917 246.49 520.613C239.22 514.636 233.978 504.129 233.254 494.522C232.173 480.186 236.524 471.416 245.515 460.839C245.951 468.25 247.397 475.312 253.158 480.572C258.754 485.68 267.995 487.199 275.349 486.709C301.225 484.983 318.102 446.068 344.517 468.977C365.462 487.141 356.934 519.754 386.978 536.676C394.028 540.706 402.112 542.558 410.212 541.999C443.32 539.667 458.303 498.469 492.608 504.722C499.929 506.122 506.723 510.103 512.33 514.82C521.913 522.881 529.913 535.578 536.647 545.907C566.195 591.228 613.026 609.203 652.231 562.451C666.035 545.989 676.074 519.463 700.07 517.117C709.474 516.105 720.017 522.736 726.482 528.985C737.498 539.635 746.649 552.902 763.886 551.825C777.171 550.994 785.225 544.81 789.666 532.403Z"/><path fill="#DFDFD7" transform="scale(0.201897 0.201897)" d="M337.235 284.764C341.778 270.617 347.568 256.901 354.537 243.778C380.108 196.601 423.23 161.392 474.568 145.773C524.367 131.042 577.972 136.612 623.678 161.267C660.122 180.955 689.907 211.012 709.264 247.634C712.006 252.816 717.245 262.775 718.848 268.261C718.734 270.426 718.922 270.582 718.564 272.824C715.155 265.966 716.379 272.344 716.313 274.477C709.751 266.497 705.604 261.65 697.285 255.539C665.075 231.877 634.857 252.417 619.985 284.186C618.203 287.992 616.631 292.011 615.056 295.924C544.651 172.741 403.617 191.603 335.667 304.772C334.416 302.28 341.458 294.725 342.461 291.978C343.396 289.419 339.559 285.453 337.235 284.764Z"/><path fill="#E7E1DC" transform="scale(0.201897 0.201897)" d="M718.848 268.261C720.803 272.517 723.81 281.917 724.727 286.466C723.487 285.209 720.415 280.427 719.763 278.948C719.487 275.985 718.954 275.549 718.564 272.824C718.922 270.582 718.734 270.426 718.848 268.261Z"/><path fill="#DFDFD7" transform="scale(0.201897 0.201897)" d="M332.112 306.872C332.484 308.233 332.43 308.174 333.311 309.279C332.509 311.031 332.059 312.025 330.971 313.598C331.317 311.278 331.634 309.17 332.112 306.872Z"/><path fill="#4673B1" transform="scale(0.201897 0.201897)" d="M678.255 310.25C686.034 307.444 697.756 315.424 703.514 320.106C710.97 326.167 716.877 334.325 717.623 344.177C719.04 362.88 701.647 380.966 683.399 382.456C682.261 382.507 681.13 382.672 679.991 382.681C671.083 382.666 662.567 379.02 656.408 372.585C648.904 364.9 644.859 354.488 645.205 343.753C645.437 334.427 649.406 325.585 656.219 319.211C661.363 314.391 671.415 309.979 678.255 310.25Z"/><path fill="#DFDFD7" transform="scale(0.201897 0.201897)" d="M700.885 369.842C690.798 377.905 676.774 378.88 665.668 372.291C654.563 365.702 648.698 352.926 650.94 340.209C653.183 327.493 663.064 317.493 675.754 315.1C688.443 312.707 701.288 318.42 708.008 329.447C707.592 329.094 709.057 330.365 708.875 330.181C710.563 331.882 712.808 335.218 713.412 337.425C714.495 341.386 715.965 344.085 713.255 346.998C713.441 346.799 713.075 352.172 712.714 352.753C712.201 354.767 711.441 357.221 710.552 359.119C709.74 360.853 708.371 363.23 707.201 364.747C705.161 367.39 704.111 369.042 700.885 369.842Z"/><path fill="#537DB8" transform="scale(0.201897 0.201897)" d="M708.008 329.447C707.592 329.094 709.057 330.365 708.875 330.181C710.563 331.882 712.808 335.218 713.412 337.425C714.495 341.386 715.965 344.085 713.255 346.998C713.441 346.799 713.075 352.172 712.714 352.753C712.201 354.767 711.441 357.221 710.552 359.119C709.74 360.853 708.371 363.23 707.201 364.747C705.161 367.39 704.111 369.042 700.885 369.842C713.086 360.089 716.138 342.786 708.008 329.447Z"/><path fill="#4673B1" transform="scale(0.201897 0.201897)" d="M545.256 300.317C564.841 300.16 580.913 315.777 581.319 335.359C581.724 354.941 566.312 371.21 546.737 371.864C533.852 372.295 521.731 365.76 515.008 354.759C508.286 343.758 508.001 329.991 514.262 318.721C520.524 307.451 532.363 300.421 545.256 300.317Z"/><path fill="#DFDFD7" transform="scale(0.201897 0.201897)" d="M542.708 304.987C559.678 302.412 575.532 314.052 578.159 331.014C580.786 347.976 569.195 363.866 552.241 366.545C535.214 369.235 519.239 357.583 516.601 340.547C513.963 323.511 525.665 307.572 542.708 304.987Z"/><path fill="#DFDFD7" transform="scale(0.201897 0.201897)" d="M289.448 628.535C294.017 633.356 298.798 637.121 305.777 637.273C324.11 637.672 330.706 613.495 358.093 622.035C364.253 623.956 370.297 627.322 374.886 631.888C378.482 635.466 381.565 639.592 384.959 643.364C394.439 653.899 405.66 661.772 420.3 661.945C446.694 662.256 462.354 634.684 491.731 642.792C500.072 645.094 507.322 649.772 513.391 655.888C519.117 661.657 523.094 668.694 527.737 675.292C536.24 687.376 547.497 694.119 562.407 694.257C576.854 694.39 589.818 687.212 600.812 678.385C605.377 674.72 609.681 670.59 614.539 667.316C631.146 656.121 649.275 654.869 664.164 669.734C671.428 676.988 677.135 685.85 688.69 685.979C694.251 686.042 698.694 683.721 703.259 680.869C703.812 686.34 703.639 688.883 703.792 694.063C703.3 695.868 702.669 697.701 702.121 699.501C701.849 700.158 701.842 700.197 701.675 700.885C701.938 702.255 702.068 703.578 701.238 704.713C699.837 706.628 705.301 707.182 705.499 707.002C706.565 706.035 706.303 703.334 706.943 701.266C711.192 710.652 710.25 725.525 706.445 734.924C701.487 747.168 696.918 751.634 685.956 758.134C685.033 759.878 682.474 762.257 680.914 763.597C668.558 774.214 658.4 767.677 644.727 768.297C610.074 769.866 591.657 789.553 567.954 811.687C560.245 818.886 551.746 826.359 541.987 830.913C518.782 841.741 493.682 837.321 477.34 817.038C467.819 805.221 466.535 789.87 450.292 783.872C436.981 778.957 426.594 785.892 414.74 791.512C394.221 801.24 374.679 791.085 362.954 773.217C352.012 756.543 347.557 736.091 330.146 723.839C316.223 714.04 307.685 721.255 293.7 716.192C290.107 714.891 284.625 711.228 283.017 707.671C279.352 705.616 277.033 704.682 273.81 701.934C259.411 689.65 257.826 668.953 266.262 652.764C269.338 646.861 272.46 643.363 276.76 638.417C276.571 638.69 288.408 629.414 289.448 628.535Z"/><path fill="#074494" transform="scale(0.201897 0.201897)" d="M289.448 628.535C294.017 633.356 298.798 637.121 305.777 637.273C324.11 637.672 330.706 613.495 358.093 622.035C364.253 623.956 370.297 627.322 374.886 631.888C378.482 635.466 381.565 639.592 384.959 643.364C394.439 653.899 405.66 661.772 420.3 661.945C446.694 662.256 462.354 634.684 491.731 642.792C500.072 645.094 507.322 649.772 513.391 655.888C519.117 661.657 523.094 668.694 527.737 675.292C536.24 687.376 547.497 694.119 562.407 694.257C576.854 694.39 589.818 687.212 600.812 678.385C605.377 674.72 609.681 670.59 614.539 667.316C631.146 656.121 649.275 654.869 664.164 669.734C671.428 676.988 677.135 685.85 688.69 685.979C694.251 686.042 698.694 683.721 703.259 680.869C703.812 686.34 703.639 688.883 703.792 694.063C703.3 695.868 702.669 697.701 702.121 699.501C701.849 700.158 701.842 700.197 701.675 700.885C697.532 707.075 693.139 711.591 685.502 713.138C670.543 716.167 663.202 705.414 652.029 697.607C610.812 668.807 595.168 726.263 559.769 732.128C539.912 735.418 523.122 726.551 512.298 709.907C504.944 698.6 502.386 687.623 490.218 679.661C485.453 676.543 480.21 674.132 474.519 673.612C449.627 671.339 440.479 697.097 417.22 701.071C400.804 703.876 385.66 695.227 377.526 681.426C370.83 670.064 370.167 661.025 357.756 652.439C353.695 649.585 348.951 647.858 344.005 647.433C325.465 645.831 319.972 663.881 304.1 666.188C284.495 669.037 278.675 653.928 276.76 638.417C276.571 638.69 288.408 629.414 289.448 628.535Z"/><path fill="#074494" transform="scale(0.201897 0.201897)" d="M283.017 707.671C292.154 710.312 301.649 710.675 310.089 705.744C318.706 700.709 326.964 692.843 338.001 696.32C354.726 701.59 359.663 720.318 365.74 734.671C374.148 754.996 397.245 768.565 418.295 757.808C424.966 754.399 429.557 749.021 434.88 743.868C455.948 722.735 479.276 736.86 490.102 759.894C497.464 775.558 507.203 791.339 524.779 797.037C534.639 800.156 545.34 799.161 554.457 794.28C580.549 780.509 598.203 734.359 633.262 743.504C653.034 748.662 659.765 768.093 685.956 758.134C685.033 759.878 682.474 762.257 680.914 763.597C668.558 774.214 658.4 767.677 644.727 768.297C610.074 769.866 591.657 789.553 567.954 811.687C560.245 818.886 551.746 826.359 541.987 830.913C518.782 841.741 493.682 837.321 477.34 817.038C467.819 805.221 466.535 789.87 450.292 783.872C436.981 778.957 426.594 785.892 414.74 791.512C394.221 801.24 374.679 791.085 362.954 773.217C352.012 756.543 347.557 736.091 330.146 723.839C316.223 714.04 307.685 721.255 293.7 716.192C290.107 714.891 284.625 711.228 283.017 707.671Z"/><path fill="#E7E1DC" fill-opacity="0.96470588" transform="scale(0.201897 0.201897)" d="M332.112 306.872C332.589 303.812 333.181 301.005 333.871 297.992L334.342 295.992C335.188 292.382 336.517 288.169 337.235 284.764C339.559 285.453 343.396 289.419 342.461 291.978C341.458 294.725 334.416 302.28 335.667 304.772C334.929 306.298 334.143 307.801 333.311 309.279C332.43 308.174 332.484 308.233 332.112 306.872Z"/><path fill="#DFDFD7" fill-opacity="0.05882353" transform="scale(0.201897 0.201897)" d="M706.519 699.47C706.729 700.23 706.798 700.512 706.943 701.266C706.303 703.334 706.565 706.035 705.499 707.002C705.301 707.182 699.837 706.628 701.238 704.713C702.068 703.578 701.938 702.255 701.675 700.885C701.842 700.197 701.849 700.158 702.121 699.501C703.276 701.781 704.544 700.482 706.519 699.47Z"/><path fill="#074494" fill-opacity="0.9137255" transform="scale(0.201897 0.201897)" d="M270.839 914.88C268.052 913.079 271.091 913.48 272.871 913.369C272.297 913.865 271.478 914.421 270.839 914.88Z"/></svg>