<?xml version="1.0" encoding="utf-8" ?><svg xmlns="http://www.w3.org/2000/svg" xmlns:xlink="http://www.w3.org/1999/xlink" width="252" height="252" viewBox="0 0 252 252"><path fill="#1C0708" transform="scale(0.245694 0.245694)" d="M635.942 230.238C643.68 224.527 665.009 215.073 674.949 217.288C683.718 219.243 688.179 223.249 693.137 230.308C695.695 233.95 709.315 262.425 709.721 264.534C711.804 267.94 715.719 274.873 718.619 277.054C731.761 286.932 747.283 293.02 742.54 313.344C741.072 319.631 737.157 327.635 733.804 333.574C733.728 334.766 733.536 334.811 733.076 336.008C727.504 350.493 726.159 359.321 730.683 374.105C720.608 368.352 716.892 363.904 716.41 352.019C715.941 343.309 716.744 331.987 713.413 324.454C708.881 316.869 707.291 315.02 701.016 308.757C700.498 308.354 699.989 307.94 699.491 307.514C699.206 307.268 698.922 307.022 698.638 306.776C699.557 306.269 700.113 306.209 701.146 305.937C698.676 305.876 685.425 305.868 684.185 307.478C678.232 308.097 673.726 308.188 668.667 311.689C667.812 324.496 670.372 336.01 665.823 348.148C662.77 356.295 655.14 362.486 653.611 370.236L654.114 373.569C654.563 376.45 654.93 377.162 656.055 379.783L656.162 380.038C658.91 384.614 662.332 388.387 665.391 392.759C671.245 401.123 671.583 412.759 669.634 422.458C668.579 427.498 666.322 432.472 663.403 436.705C660.513 440.896 654.417 445.222 653.508 449.981C652.495 455.285 658.091 465.461 660.342 470.063C668.56 486.866 673.084 505.757 677.548 523.896C683.436 523.873 688.595 525.395 690.247 531.699C692.963 543.434 683.582 553.718 680.897 565.269C685.593 575.98 707.21 585.357 693.826 599.497C700.744 603.849 706.18 606.603 713.604 610.173C716.153 611.023 718.713 612.056 721.201 613.08C732.176 617.6 744.844 619.813 756.511 621.673C759.997 621.891 765.11 622.38 768.493 621.798C778.412 620.089 787.473 616.499 797.735 617.187C817.147 618.489 816.732 639.391 807.176 651.454C791.13 678.233 723.179 705.244 693.867 712.151C641.202 724.56 578.753 725.641 524.965 719.599C511.204 718.894 495.361 716.412 481.372 715.106C482.033 745.318 477.245 781.254 462.193 807.836C461.204 798.044 455.222 777.577 451.229 768.366C439.099 776.26 423.406 783.338 409.874 788.908L416.568 777.423C428.174 756.671 431.281 739.13 433.441 716.084C433.634 712.364 433.692 709.769 433.554 706.054C414.214 702.33 395.016 698.538 376.262 692.369C371.799 690.901 367.394 689.23 362.837 688.089C363.091 694.058 364.221 700.922 364.797 707.006C365.367 713.035 365.766 719.802 366.69 725.71C373.993 726.993 398.821 730.016 402.972 733.722C404.876 738.213 393.48 743.662 389.854 745.927C383.451 749.881 377.111 753.937 370.837 758.094C371.513 763.932 376.224 798.709 375.351 801.744C374.981 803.03 374.58 803.369 373.446 804C366.377 803.855 347.783 776.502 341.893 772.321C339.017 770.28 308.982 785.748 303.748 786.442C302.393 786.621 302.005 786.314 301.104 785.636C300.314 785.041 299.595 783.361 299.863 782.624C302.687 774.851 315.784 756.481 317.903 749.941C319.567 744.806 296.612 722.801 296.397 715.459C298.759 710.51 310.887 714.282 315.487 715.13L334.976 718.578C336.269 716.947 340.109 710.582 340.755 708.877C342.255 704.917 354.075 688.517 353.069 685.567C350.334 683.608 345.481 681.947 342.175 680.614C333.461 677.695 302.403 665.255 295.099 660.243L290.736 658.046C274.14 675.252 269.193 688.79 269.56 712.523C269.732 714.511 269.923 716.236 270.144 718.214C272.245 725.802 274.063 729.119 278.395 735.583C268.541 729.11 262.38 723.381 255.813 713.478C252.305 719.858 249.473 733.359 248.675 740.577C242.307 733.006 239.763 726.971 238.962 717.075C236.673 688.818 251.064 666.7 266.292 644.665C250.737 635.998 226.654 616.86 217.074 601.914C213.207 595.905 209.527 586.491 211.746 579.349C218.759 556.778 244.445 570.614 258.961 575.706C265.28 577.923 270.919 579.647 277.158 581.316C282.199 582.319 283.904 582.722 289.15 582.074L289.873 581.973C292.663 581.389 295.518 580.614 298.288 579.91C288.658 571.306 282.563 562.92 287.664 549.313C290.075 543.84 296.067 537.742 299.831 532.838C303.561 527.979 304.547 526.276 307.135 520.668C302.845 502.943 299.05 495.433 299.699 475.764C300.075 461.154 306.868 444.523 323.322 442.919L324.343 442.991C327.972 443.212 328.13 443.325 331.642 443.917C332.608 444.136 333.568 444.383 334.519 444.659C355.224 450.733 373.837 473.927 383.157 492.633C384.902 496.136 386.656 499.506 388.539 502.951L389.182 502.716L389.848 501.132C391.993 500.024 392.964 501.117 394.174 498.932C395.992 495.653 397.548 492.341 399.409 489.062C405.788 477.748 412.311 466.516 418.974 455.367C421.56 451.074 425.108 444.661 428.3 440.901C431.086 434.082 465.711 385.644 471.584 379.433C479.859 364.945 497.406 354.575 498.019 333.675C498.689 332.46 499.01 331.802 499.553 330.523C499.381 324.726 500.391 320.156 503.008 315.002C503.842 313.361 504.032 312.873 504.334 311.04C507.822 303.778 517.998 298.996 525.411 297.035C531.252 295.426 534.531 296.562 539.097 295.704C539.974 294.754 551.091 286.456 552.704 285.227C569.662 272.13 587.206 259.81 605.282 248.305C614.276 242.491 626.254 234.753 635.942 230.238ZM360.177 680.786C360.182 680.779 360.839 680.211 360.537 680.051C360.352 679.953 360.056 680.09 359.881 680.135C359.538 680.592 358.516 681.576 360.177 680.786Z"/><path fill="#04509F" transform="scale(0.245694 0.245694)" d="M635.942 230.238C643.68 224.527 665.009 215.073 674.949 217.288C683.718 219.243 688.179 223.249 693.137 230.308C695.695 233.95 709.315 262.425 709.721 264.534C711.804 267.94 715.719 274.873 718.619 277.054C731.761 286.932 747.283 293.02 742.54 313.344C741.072 319.631 737.157 327.635 733.804 333.574C733.728 334.766 733.536 334.811 733.076 336.008C727.504 350.493 726.159 359.321 730.683 374.105C720.608 368.352 716.892 363.904 716.41 352.019C715.941 343.309 716.744 331.987 713.413 324.454C708.881 316.869 707.291 315.02 701.016 308.757C700.498 308.354 699.989 307.94 699.491 307.514C699.206 307.268 698.922 307.022 698.638 306.776C699.557 306.269 700.113 306.209 701.146 305.937C698.676 305.876 685.425 305.868 684.185 307.478C678.232 308.097 673.726 308.188 668.667 311.689C667.812 324.496 670.372 336.01 665.823 348.148C662.77 356.295 655.14 362.486 653.611 370.236L654.114 373.569C654.563 376.45 654.93 377.162 656.055 379.783L656.162 380.038C658.91 384.614 662.332 388.387 665.391 392.759C671.245 401.123 671.583 412.759 669.634 422.458C668.579 427.498 666.322 432.472 663.403 436.705C660.513 440.896 654.417 445.222 653.508 449.981C652.495 455.285 658.091 465.461 660.342 470.063C668.56 486.866 673.084 505.757 677.548 523.896C683.436 523.873 688.595 525.395 690.247 531.699L689.765 531.939C685.991 524.11 680.729 523.875 673.201 525.907C651.336 533.31 628.396 536.469 605.48 538.622C599.34 539.199 586.878 540.209 580.756 539.904C572.796 539.034 561.57 539.56 553.002 539.202C554.387 536.804 555.533 534.596 556.792 532.136C559.164 526.579 561.643 519.201 561.836 513.194C562.519 491.949 534.116 478.016 516.056 478.099C486.956 478.231 456.018 502.716 436.244 521.952C422.359 519.205 404.471 511.054 393.73 501.78C400.952 486.78 409.51 473.255 417.863 458.899C420.001 455.226 427.203 444.134 428.3 440.901C431.086 434.082 465.711 385.644 471.584 379.433C479.859 364.945 497.406 354.575 498.019 333.675C498.689 332.46 499.01 331.802 499.553 330.523C499.381 324.726 500.391 320.156 503.008 315.002C503.842 313.361 504.032 312.873 504.334 311.04C507.822 303.778 517.998 298.996 525.411 297.035C531.252 295.426 534.531 296.562 539.097 295.704C539.974 294.754 551.091 286.456 552.704 285.227C569.662 272.13 587.206 259.81 605.282 248.305C614.276 242.491 626.254 234.753 635.942 230.238Z"/><path fill="#1A1B56" transform="scale(0.245694 0.245694)" d="M680.245 262.925C683.584 262.255 680.689 253.969 681.931 251.348C682.19 250.8 682.156 250.865 682.249 250.233C682.431 251.37 683.286 251.401 684.238 251.642C687.777 259.653 686.394 270.778 683.614 278.87C691.155 272.628 692.979 269.774 698.096 261.323C697.33 271.575 697.085 278.812 689.556 286.733C687.465 288.934 684.22 292.514 682.734 295.073C690.757 307.35 705.828 301.965 717.685 299.111C715.641 303.045 705.142 306.166 701.146 305.937C698.676 305.876 685.425 305.868 684.185 307.478C678.232 308.097 673.726 308.188 668.667 311.689C667.812 324.496 670.372 336.01 665.823 348.148C662.77 356.295 655.14 362.486 653.611 370.236L654.114 373.569C654.563 376.45 654.93 377.162 656.055 379.783L656.162 380.038C658.91 384.614 662.332 388.387 665.391 392.759C671.245 401.123 671.583 412.759 669.634 422.458C668.579 427.498 666.322 432.472 663.403 436.705C660.513 440.896 654.417 445.222 653.508 449.981C652.495 455.285 658.091 465.461 660.342 470.063C668.56 486.866 673.084 505.757 677.548 523.896C683.436 523.873 688.595 525.395 690.247 531.699L689.765 531.939C685.991 524.11 680.729 523.875 673.201 525.907C651.336 533.31 628.396 536.469 605.48 538.622C599.34 539.199 586.878 540.209 580.756 539.904C572.796 539.034 561.57 539.56 553.002 539.202C554.387 536.804 555.533 534.596 556.792 532.136C580.747 533.456 584.345 525.395 604.555 515.668C617.106 509.627 634.446 517.652 646.287 523.005C625.264 503.563 612.224 490.17 600.964 462.613C605.965 468.864 623.34 487.741 632.445 483.135C635.303 479.824 632.727 473.664 630.883 470.333C621.691 454.64 610.838 440.281 600.895 424.971C590.967 409.683 583.392 393.068 574.051 377.8C591.44 392.954 621.709 421.767 644.035 428.112C649.692 423.417 651.999 416.175 652.776 409.039C654.701 391.366 647.173 385.591 635.755 374.167C617.981 356.385 604.557 326.521 601.073 301.794C611.005 316.14 617.992 323.759 631.853 334.42C645.165 344.657 654.894 347.533 655.205 325.843C655.479 306.767 647.919 284.714 640.55 267.173C651.734 280.115 661.33 299.368 667.041 315.583C669.241 301.444 673.532 291.049 677.8 277.605C678.656 274.909 679.54 266.445 680.245 262.925Z"/><path fill="#1A1B56" transform="scale(0.245694 0.245694)" d="M499.553 330.523C505.767 351.105 515.391 373.223 509.626 394.674C505.597 384.188 500.584 370.003 490.23 364.118C483.762 360.442 476.422 376.548 471.584 379.433C479.859 364.945 497.406 354.575 498.019 333.675C498.689 332.46 499.01 331.802 499.553 330.523Z"/><path fill="#1A1B56" transform="scale(0.245694 0.245694)" d="M723.912 297.925C725.006 297.355 730.528 295.813 732.144 295.256C729.369 297.652 724.767 301.98 722.044 304.587C726.152 305.584 726.885 305.684 730.6 307.89C718.106 309.559 713.914 310.724 714.561 324.009L713.413 324.454C708.881 316.869 707.291 315.02 701.016 308.757C700.498 308.354 699.989 307.94 699.491 307.514C699.206 307.268 698.922 307.022 698.638 306.776C699.557 306.269 700.113 306.209 701.146 305.937C705.142 306.166 715.641 303.045 717.685 299.111C719.615 298.657 721.952 298.203 723.912 297.925Z"/><path fill="#1C0708" transform="scale(0.245694 0.245694)" d="M723.912 297.925C724.13 298.148 724.099 298.059 724.113 298.195C723.143 298.844 721.391 299.634 720.294 299.963C718.713 300.434 717.682 301.743 716.29 302.564C712.022 305.08 707.156 306.608 702.221 307.042C701.024 307.147 701.002 307.672 701.016 308.757C700.498 308.354 699.989 307.94 699.491 307.514C699.206 307.268 698.922 307.022 698.638 306.776C699.557 306.269 700.113 306.209 701.146 305.937C705.142 306.166 715.641 303.045 717.685 299.111C719.615 298.657 721.952 298.203 723.912 297.925Z"/><path fill="#1A1B56" transform="scale(0.245694 0.245694)" d="M635.942 230.238C643.68 224.527 665.009 215.073 674.949 217.288C683.718 219.243 688.179 223.249 693.137 230.308C695.695 233.95 709.315 262.425 709.721 264.534C704.877 261.898 695.665 225.463 681.299 220.385C659.957 212.841 653.633 225.08 635.942 230.238Z"/><path fill="#1C0708" transform="scale(0.245694 0.245694)" d="M727.531 353.477C727.628 350.151 731.461 335.15 733.804 333.574C733.728 334.766 733.536 334.811 733.076 336.008C727.504 350.493 726.159 359.321 730.683 374.105C720.608 368.352 716.892 363.904 716.41 352.019L717.533 352.999C717.518 362.119 721.104 367.475 729.001 371.721C728.497 369.278 727.641 366.485 727.541 364.035C727.723 361.559 727.731 355.923 727.531 353.477Z"/><path fill="#11123E" transform="scale(0.245694 0.245694)" d="M679.708 242.762C681.605 246.05 682.906 248.081 684.238 251.642C683.286 251.401 682.431 251.37 682.249 250.233C682.156 250.865 682.19 250.8 681.931 251.348C680.689 253.969 683.584 262.255 680.245 262.925C680.593 254.963 680.013 250.542 679.708 242.762Z"/><path fill="#1A1B56" transform="scale(0.245694 0.245694)" d="M713.413 324.454L714.561 324.009C716.908 332.031 717.325 344.4 717.533 352.999L716.41 352.019C715.941 343.309 716.744 331.987 713.413 324.454Z"/><path fill="#06438A" transform="scale(0.245694 0.245694)" d="M525.411 297.035C531.252 295.426 534.531 296.562 539.097 295.704C537.22 298.023 528.301 297.299 525.411 297.035Z"/><path fill="#06438A" transform="scale(0.245694 0.245694)" d="M727.531 353.477C727.731 355.923 727.723 361.559 727.541 364.035C726.58 360.453 726.751 357.099 727.531 353.477Z"/><path fill="#04509F" transform="scale(0.245694 0.245694)" d="M647.91 616.943C652.352 614.28 666.085 611.477 671.881 609.586C680.603 606.74 685.22 604.692 693.196 600.32C698.309 603.61 707.814 609.338 713.604 610.173C716.153 611.023 718.713 612.056 721.201 613.08C732.176 617.6 744.844 619.813 756.511 621.673C759.997 621.891 765.11 622.38 768.493 621.798C778.412 620.089 787.473 616.499 797.735 617.187C817.147 618.489 816.732 639.391 807.176 651.454C791.13 678.233 723.179 705.244 693.867 712.151C641.202 724.56 578.753 725.641 524.965 719.599C523.142 718.942 516.673 717.673 514.634 718.053C513.401 718.283 514.784 718.545 512.696 717.795L512.496 717.102L514.015 716.979C516.822 714.668 524.869 715.232 528.551 715.272L525.74 715.03C515.344 715.604 491.933 715.173 481.553 713.891C480.605 707.777 480.156 702.081 479.015 695.752C475.978 678.909 469.923 667.214 462.169 652.336C464.646 652.397 474.307 656.263 478.039 656.929C494.801 659.921 519.018 662.444 534.085 652.655C543.074 646.815 546.833 633.862 548.511 624.054C569.399 624.042 586.797 624.013 607.687 622.069C621.805 620.755 634.133 618.588 647.91 616.943Z"/><path fill="#1A1B56" transform="scale(0.245694 0.245694)" d="M525.74 715.03C529.419 714.247 549.082 713.568 555.369 712.896C581.851 710.067 608.8 705.037 634.286 696.989C653.205 691.014 672.527 683.335 690.883 675.088C723.983 660.255 755.426 638.903 791.285 631.351C799.216 629.68 807.862 632.537 809.122 641.495L809.678 645.606C808.844 647.377 807.71 649.597 807.176 651.454C791.13 678.233 723.179 705.244 693.867 712.151C641.202 724.56 578.753 725.641 524.965 719.599C523.142 718.942 516.673 717.673 514.634 718.053C513.401 718.283 514.784 718.545 512.696 717.795L512.496 717.102L514.015 716.979C516.822 714.668 524.869 715.232 528.551 715.272L525.74 715.03Z"/><path fill="#1A1B56" transform="scale(0.245694 0.245694)" d="M647.91 616.943C652.352 614.28 666.085 611.477 671.881 609.586C680.603 606.74 685.22 604.692 693.196 600.32C698.309 603.61 707.814 609.338 713.604 610.173C716.153 611.023 718.713 612.056 721.201 613.08C732.176 617.6 744.844 619.813 756.511 621.673L757.003 622.214L757.437 622.292C759.105 622.608 759.25 622.605 760.769 623.513L760.665 624.073C754.492 626.764 720.153 638.754 718.097 643.69C714.505 646.071 707.296 649.192 703.193 651.05C679.315 661.863 659.024 665.992 633.748 671.239L634.307 670.726C645.038 660.944 664.414 657.131 678.166 652.996C691.774 648.904 701.32 632.298 680.25 636.566C661.293 640.406 642.311 644.296 623.001 646.135C611.652 647.44 600.707 646.876 589.54 647.603L589.672 646.908C611.792 642.215 641.885 636.908 660.772 624.807C664.207 622.606 666.919 619.316 669.295 616.043C662.38 615.84 655.221 617.17 647.91 616.943Z"/><path fill="#1C0708" transform="scale(0.245694 0.245694)" d="M756.511 621.673C759.997 621.891 765.11 622.38 768.493 621.798C778.412 620.089 787.473 616.499 797.735 617.187C817.147 618.489 816.732 639.391 807.176 651.454C807.71 649.597 808.844 647.377 809.678 645.606C817.655 627.947 809.912 617.112 790.792 618.144C790.349 618.133 790.391 618.139 789.976 618.345C784.904 618.729 779.931 620.184 774.966 621.241C755.159 625.46 736.377 635.003 718.097 643.69C720.153 638.754 754.492 626.764 760.665 624.073L760.769 623.513C759.25 622.605 759.105 622.608 757.437 622.292L757.003 622.214L756.511 621.673Z"/><path fill="#06438A" transform="scale(0.245694 0.245694)" d="M589.54 647.603C586.278 648.269 586.575 646.967 588.854 646.937L589.672 646.908L589.54 647.603Z"/><path fill="#FD6E3D" transform="scale(0.245694 0.245694)" d="M673.201 525.907C680.729 523.875 685.991 524.11 689.765 531.939C690.972 545.063 683.708 552.516 679.819 564.487C679.014 566.967 677.56 568.389 677.136 571.21L677.554 571.514C678.811 569.757 679.14 568.967 680.074 566.982L680.483 567.572C686.499 576.071 706.947 588.195 691.032 599.923C683.897 605.181 659.284 613.403 649.999 614.186C624.601 622.073 576.527 623.39 549.785 622.996C550.911 609.444 549.455 595.524 547.835 582.125C559.937 569.188 567.703 557.779 571.226 540.12L580.756 539.904C586.878 540.209 599.34 539.199 605.48 538.622C628.396 536.469 651.336 533.31 673.201 525.907Z"/><path fill="#EA401D" transform="scale(0.245694 0.245694)" d="M673.201 525.907C680.729 523.875 685.991 524.11 689.765 531.939C690.972 545.063 683.708 552.516 679.819 564.487C679.014 566.967 677.56 568.389 677.136 571.21L677.554 571.514C678.811 569.757 679.14 568.967 680.074 566.982L680.483 567.572C686.499 576.071 706.947 588.195 691.032 599.923C683.897 605.181 659.284 613.403 649.999 614.186C653.9 610.239 668.833 607.524 667.27 599.507C666.973 599.303 666.675 599.098 666.378 598.893C659.661 599.541 650.209 602.076 643.682 602.63C625.916 604.139 587.734 602.77 571.177 596.888C581.424 595.045 592.132 594.553 602.316 592.817C620.029 589.797 638.883 588.059 655.801 581.967C659.543 580.619 665.027 577.478 666.56 573.769C667.744 572.935 665.613 568.832 664.577 568.897C652.929 569.621 638.002 569.924 627.246 566.723C636.987 554.058 682.893 550.999 679.374 530.349C677.256 527.809 675.776 530.599 673.201 525.907Z"/><path fill="#1C0708" transform="scale(0.245694 0.245694)" d="M287.664 549.313L288.072 550.037C281.836 569.883 297.948 581.06 314.531 585.885C331.049 590.691 347.605 589.475 363.906 584.395C368.693 582.927 374.588 579.59 378.178 578.477L378.71 579.163C377.765 579.53 377.123 579.807 376.196 580.253L377.148 582.511C363.744 596.806 344.141 609.54 329.1 622.498C298.873 648.54 268.263 666.946 268.446 711.057L269.56 712.523C269.732 714.511 269.923 716.236 270.144 718.214C272.245 725.802 274.063 729.119 278.395 735.583C268.541 729.11 262.38 723.381 255.813 713.478C252.305 719.858 249.473 733.359 248.675 740.577C242.307 733.006 239.763 726.971 238.962 717.075C236.673 688.818 251.064 666.7 266.292 644.665C250.737 635.998 226.654 616.86 217.074 601.914C213.207 595.905 209.527 586.491 211.746 579.349C218.759 556.778 244.445 570.614 258.961 575.706C265.28 577.923 270.919 579.647 277.158 581.316C282.199 582.319 283.904 582.722 289.15 582.074L289.873 581.973C292.663 581.389 295.518 580.614 298.288 579.91C288.658 571.306 282.563 562.92 287.664 549.313Z"/><path fill="#FD6E3D" transform="scale(0.245694 0.245694)" d="M247.568 738.048C237.297 723.318 237.807 705.382 243.087 688.79C254.43 653.145 281.277 626.981 311.835 607.06C321.004 601.083 330.735 595.472 340.59 590.647C343.033 589.443 351.116 588.656 354.241 588.075C362.747 586.495 368.608 584.214 376.196 580.253L377.148 582.511C363.744 596.806 344.141 609.54 329.1 622.498C298.873 648.54 268.263 666.946 268.446 711.057L269.56 712.523C269.732 714.511 269.923 716.236 270.144 718.214L269.636 719.477C270.738 724.455 272.281 727.51 274.491 732.089C266.187 726.212 261.603 719.995 255.837 711.94C251 719.691 249.747 729.198 247.568 738.048Z"/><path fill="#5A1812" transform="scale(0.245694 0.245694)" d="M268.446 711.057L269.56 712.523C269.732 714.511 269.923 716.236 270.144 718.214L269.636 719.477C269.058 717.194 268.599 713.408 268.446 711.057Z"/><path fill="#04509F" transform="scale(0.245694 0.245694)" d="M266.703 643.27C262.547 642.169 257.387 637.739 253.523 634.983C238.577 624.32 207.76 601.051 212.319 579.914C216.983 558.288 246.047 571.632 258.523 576.477C263.935 578.579 270.918 580.513 277.031 582.25C279.126 582.663 280.959 582.869 282.847 583.841C289.112 591.397 305.086 593.867 314.219 596.812C316.23 597.461 320.69 598.33 322.371 599.202C310.06 605.779 289.339 622.006 278.767 631.332C266.873 621.652 256.419 608.439 246.183 596.864C241.679 591.77 230.002 572.131 221.289 577.543C220.282 578.169 219.462 578.614 219.215 579.758C220.858 579.462 221.465 578.626 222.907 577.497C223.655 580.765 222.254 584.592 223.222 587.561C229.76 607.628 245.699 621.8 260.502 635.916C262.809 638.116 265.379 640.299 266.703 643.27Z"/><path fill="#1A1B56" transform="scale(0.245694 0.245694)" d="M222.907 577.497C227.832 577.699 229.171 578.167 232.425 581.866C236.505 586.502 240.134 591.646 244.127 596.344C254.702 608.783 265.746 621.506 278.036 632.275C276.607 633.64 267.815 642.766 266.703 643.27C265.379 640.299 262.809 638.116 260.502 635.916C245.699 621.8 229.76 607.628 223.222 587.561C222.254 584.592 223.655 580.765 222.907 577.497Z"/><path fill="#1A1B56" transform="scale(0.245694 0.245694)" d="M296.239 581.578C299.899 580.377 299.242 580.448 302.764 582.458C313.174 588.399 326.159 590.101 338.103 589.981C335.354 591.668 324.895 598.235 322.371 599.202C320.69 598.33 316.23 597.461 314.219 596.812C305.086 593.867 289.112 591.397 282.847 583.841C280.959 582.869 279.126 582.663 277.031 582.25L277.158 581.316C282.199 582.319 283.904 582.722 289.15 582.074L289.873 581.973L295.419 581.866C295.813 581.593 295.773 581.583 296.239 581.578Z"/><path fill="#FD6E3D" transform="scale(0.245694 0.245694)" d="M315.817 445.566C309.355 474.95 346.375 500.154 366.01 516.37C371.918 521.249 377.957 528.41 383.146 534.093C380.826 538.592 378.899 542.29 377.227 547.119C376.294 550.513 375.595 552.894 375.451 556.476C375.724 560.282 375.688 563.256 375.429 567.047C375.789 569.531 376.016 570.866 376.692 573.274C377.354 574.897 378.386 576.839 378.178 578.477C374.588 579.59 368.693 582.927 363.906 584.395C347.605 589.475 331.049 590.691 314.531 585.885C297.948 581.06 281.836 569.883 288.072 550.037L287.664 549.313C290.075 543.84 296.067 537.742 299.831 532.838C303.561 527.979 304.547 526.276 307.135 520.668C302.845 502.943 299.05 495.433 299.699 475.764L300.467 475.934C300.671 463.931 305.234 451.998 315.817 445.566Z"/><path fill="#EA401D" transform="scale(0.245694 0.245694)" d="M315.509 552.267C328.493 557.322 341.789 559.258 355.659 559.534C358.016 559.581 365.806 558.882 365.547 555.445C364.468 541.136 343.949 543.185 337.307 533.525C336.71 532.658 336.404 530.872 336.88 529.768C346.651 518.562 372.426 542.943 377.227 547.119C376.294 550.513 375.595 552.894 375.451 556.476C375.724 560.282 375.688 563.256 375.429 567.047C375.789 569.531 376.016 570.866 376.692 573.274C373.44 574.834 370.597 576.488 367.231 577.797C353.728 583.048 338.285 581.673 326.96 572.207C320.535 566.838 318.258 559.855 315.509 552.267Z"/><path fill="#5A1812" transform="scale(0.245694 0.245694)" d="M375.451 556.476C375.724 560.282 375.688 563.256 375.429 567.047C374.803 563.816 374.823 559.692 375.451 556.476Z"/><path fill="#5A1812" transform="scale(0.245694 0.245694)" d="M299.699 475.764L300.467 475.934C300.372 488.656 301.5 494.862 304.405 507.275C305.46 511.783 311.881 531.776 311.297 534.246C309.995 532.755 308.308 525.241 307.438 522.657C301.188 534.221 292.915 540.67 288.072 550.037L287.664 549.313C290.075 543.84 296.067 537.742 299.831 532.838C303.561 527.979 304.547 526.276 307.135 520.668C302.845 502.943 299.05 495.433 299.699 475.764Z"/><path fill="#FD6E3D" transform="scale(0.245694 0.245694)" d="M435.204 612.74C459.509 649.13 479.642 675.249 480.532 720.675C480.762 735.349 479.41 750.005 476.499 764.389C475.304 770.363 469.491 792.358 466.286 796.918C462.682 800.611 465.037 801.255 461.567 798.325L455.6 777.565C454.316 773.987 453.198 770.482 452.005 766.878C445.025 771.137 440.64 774.36 432.709 777.518L431.927 777.835C425.391 781.387 418.628 783.603 412.272 786.816C413.873 783.941 415.844 780.597 417.258 777.684L416.568 777.423C428.174 756.671 431.281 739.13 433.441 716.084L434.535 714.875C435.297 675.678 428.608 656.566 416.458 620.301C423.022 613.506 426 613.986 435.204 612.74Z"/><path fill="#EA401D" transform="scale(0.245694 0.245694)" d="M458.872 740.908C459.285 749.519 460.065 758.433 457.85 766.993C456.976 770.371 457.13 774.671 455.6 777.565C454.316 773.987 453.198 770.482 452.005 766.878C445.025 771.137 440.64 774.36 432.709 777.518L431.927 777.835C433.322 775.043 437.235 771.339 439.562 769.057C448.283 760.507 452.927 751.332 458.872 740.908Z"/><path fill="#5A1812" transform="scale(0.245694 0.245694)" d="M434.535 714.875C432.744 733.908 430.051 751.465 421.891 769.124C421.062 770.918 418.409 776.239 417.258 777.684L416.568 777.423C428.174 756.671 431.281 739.13 433.441 716.084L434.535 714.875Z"/><path fill="#EA401D" transform="scale(0.245694 0.245694)" d="M315.93 456.428C324.372 451.415 329.91 450.185 339.583 453.15C361.445 459.851 377.169 487.628 383.95 507.952C385.002 511.107 387.578 526.665 388.568 527.854L383.678 532.832C377.921 526.264 371.317 519.245 364.536 513.773C344.943 497.964 322.65 482.096 315.93 456.428Z"/><path fill="#1A1B56" transform="scale(0.245694 0.245694)" d="M520.227 621.865C527.971 623.545 540.599 624.054 548.511 624.054C546.833 633.862 543.074 646.815 534.085 652.655C519.018 662.444 494.801 659.921 478.039 656.929C474.307 656.263 464.646 652.397 462.169 652.336C456.813 643.198 448.504 630.587 442.556 621.604C447.558 623.777 452.244 626.928 457.169 629.232C472.101 636.218 491.87 643.687 507.626 634.95C513.595 631.64 516.645 627.433 520.227 621.865Z"/><path fill="#EA401D" transform="scale(0.245694 0.245694)" d="M552.265 540.019C558.585 540.125 564.906 540.159 571.226 540.12C567.703 557.779 559.937 569.188 547.835 582.125C549.455 595.524 550.911 609.444 549.785 622.996C541.675 622.856 528.253 622.142 520.338 620.785C527.922 603.014 524.66 589.537 520.849 571.421C523.992 567.823 532.276 561.462 536.256 557.823C543.141 551.526 546.555 547.212 552.265 540.019Z"/><path fill="#FD6E3D" transform="scale(0.245694 0.245694)" d="M323.322 442.919L324.343 442.991C327.972 443.212 328.13 443.325 331.642 443.917L331.966 444.905C366.896 455.552 384.17 492.563 395.02 524.485C391.92 525.721 391.37 526.021 388.568 527.854C387.578 526.665 385.002 511.107 383.95 507.952C377.169 487.628 361.445 459.851 339.583 453.15C329.91 450.185 324.372 451.415 315.93 456.428C315.933 451.295 314.596 444.498 321.137 443.944C321.92 443.597 322.558 443.312 323.322 442.919Z"/><path fill="#84391C" transform="scale(0.245694 0.245694)" d="M323.322 442.919L324.343 442.991C327.972 443.212 328.13 443.325 331.642 443.917L331.966 444.905C327.473 443.94 325.709 444.097 321.137 443.944C321.92 443.597 322.558 443.312 323.322 442.919Z"/><path fill="#EA401D" transform="scale(0.245694 0.245694)" d="M403.864 589.05C417.735 588.769 418.341 583.26 424.801 596.181C427.304 601.188 432.475 607.53 435.204 612.74C426 613.986 423.022 613.506 416.458 620.301C412.204 611.016 407.794 598.753 403.864 589.05Z"/><path fill="#1A1B56" transform="scale(0.245694 0.245694)" d="M295.099 660.243C294.011 659.078 293.193 658.268 292.027 657.177C293.339 655.082 298.346 650.533 300.321 648.861C312.638 658.822 324.295 666.918 338.218 674.542C340.974 676.051 346.539 678.199 347.193 680.516L346.601 681.108C345.127 680.929 343.652 680.765 342.175 680.614C333.461 677.695 302.403 665.255 295.099 660.243Z"/><path fill="#FD6E3D" transform="scale(0.245694 0.245694)" d="M461.567 798.325C465.037 801.255 462.682 800.611 466.286 796.918C465.255 799.813 464.434 801.7 462.891 804.419C462.455 801.968 462.126 800.718 461.567 798.325Z"/><path fill="#EA401D" transform="scale(0.245694 0.245694)" d="M378.71 579.163C379.909 580.21 378.092 581.423 377.148 582.511L376.196 580.253C377.123 579.807 377.765 579.53 378.71 579.163Z"/><path fill="#FD6E3D" transform="scale(0.245694 0.245694)" d="M426.227 534.031C442.165 513.552 481.893 482.855 508.046 479.495C522.564 477.743 537.181 481.85 548.663 490.905C578.791 514.456 545.617 550.44 524.725 566.199C522.923 567.558 521.309 569.217 519.825 570.912C522.551 589.115 528.32 609.039 516.123 625.703C498.504 649.775 461.595 632.149 442.165 619.705C440.99 618.949 439.866 617.666 439 616.616C433.614 607.181 426.732 597.38 421.016 587.566C424.428 587.627 427.839 587.739 431.247 587.9C454.444 589.083 481.671 595.739 497.79 613.522C498.098 613.676 498.085 613.787 498.268 614.106C501.471 618.814 503.127 623.2 497.53 626.803C493.736 629.245 490.311 629.061 486.422 630.526C490.079 631.399 497.141 629.393 499.627 626.965C508.484 618.009 492.098 605.568 485.228 601.548C465.112 589.776 443.679 586.783 420.781 586.523L414.433 586.277C410.642 579.65 409.212 572.649 410.804 565.112C412.717 554.239 419.507 543.467 425.787 534.632C425.943 534.286 425.922 534.173 426.227 534.031Z"/><path fill="#EA401D" transform="scale(0.245694 0.245694)" d="M421.016 587.566C424.428 587.627 427.839 587.739 431.247 587.9C454.444 589.083 481.671 595.739 497.79 613.522C498.098 613.676 498.085 613.787 498.268 614.106C501.471 618.814 503.127 623.2 497.53 626.803C493.736 629.245 490.311 629.061 486.422 630.526C476.135 630.614 464.644 625.93 455.057 622.508C451.223 621.139 442.044 616.361 439 616.616C433.614 607.181 426.732 597.38 421.016 587.566Z"/><path fill="#EA401D" transform="scale(0.245694 0.245694)" d="M410.804 565.112C414.236 563.188 417.093 559.206 419.914 557.719C435.193 549.666 453.552 549.879 467.565 560.072C454.585 558.71 423.479 557.298 419.955 575.777C419.539 577.96 420.472 583.992 420.781 586.523L414.433 586.277C410.642 579.65 409.212 572.649 410.804 565.112Z"/><path fill="#EA401D" transform="scale(0.245694 0.245694)" d="M490.76 505.1C492.299 504.988 493.337 504.783 494.311 505.989C491.845 518.906 453.877 531.795 441.968 538.065C440.813 538.687 440.457 538.78 439.197 539.191L438.528 538.731C438.706 535.9 446.175 529.852 448.451 527.801C460.602 516.849 474.594 508.465 490.76 505.1Z"/><path fill="#04509F" transform="scale(0.245694 0.245694)" d="M380.677 580.609C384.135 584.216 388.069 585.037 389.808 587.517C390.508 587.171 390.975 586.902 391.714 586.651L392.733 587.094C393.473 589.058 392.629 590.743 391.847 592.687C393.519 591.004 393.975 589.853 394.987 587.638C397.261 588.062 399.768 588.494 402.003 589.025C404.298 593.291 406.333 597.691 408.098 602.202C410.335 608.152 412.684 614.059 415.145 619.92C416.475 623.086 419.669 631.994 420.032 634.946C428.449 650.044 433.67 687.794 433.554 705.09C409.922 701.216 386.671 695.298 364.062 687.403C367.165 682.427 367.979 679.746 363.238 675.369C361.651 674.815 361.094 674.744 359.851 673.577C354.331 675.235 353.573 675.679 351.612 681.213C349.095 679.364 346.114 677.644 343.362 676.163C330.691 669.346 319.289 661.535 307.586 653.184C305.45 651.444 303.403 649.607 301.335 647.786C314.036 636.334 327.139 625.336 340.621 614.814C355.594 602.934 367.221 594.44 380.677 580.609Z"/><path fill="#04509F" transform="scale(0.245694 0.245694)" d="M380.677 580.609C384.135 584.216 388.069 585.037 389.808 587.517C387.293 594.408 382.399 611.391 379.9 616.476C375.138 629.07 371.089 642.214 366.595 654.918C364.47 660.924 362.418 667.782 359.851 673.577C354.331 675.235 353.573 675.679 351.612 681.213C349.095 679.364 346.114 677.644 343.362 676.163C330.691 669.346 319.289 661.535 307.586 653.184C305.45 651.444 303.403 649.607 301.335 647.786C314.036 636.334 327.139 625.336 340.621 614.814C355.594 602.934 367.221 594.44 380.677 580.609Z"/><path fill="#1A1B56" transform="scale(0.245694 0.245694)" d="M380.677 580.609C384.135 584.216 388.069 585.037 389.808 587.517C387.293 594.408 382.399 611.391 379.9 616.476C356.738 615.881 337.006 624.697 320.297 640.562C316.031 644.612 311.858 649.302 307.586 653.184C305.45 651.444 303.403 649.607 301.335 647.786C314.036 636.334 327.139 625.336 340.621 614.814C355.594 602.934 367.221 594.44 380.677 580.609Z"/><path fill="#1A1B56" transform="scale(0.245694 0.245694)" d="M391.847 592.687C393.519 591.004 393.975 589.853 394.987 587.638C397.261 588.062 399.768 588.494 402.003 589.025C404.298 593.291 406.333 597.691 408.098 602.202C410.335 608.152 412.684 614.059 415.145 619.92C416.475 623.086 419.669 631.994 420.032 634.946C417.059 633.864 412.318 630.364 409.491 628.437C404.098 624.762 389.235 617.768 382.9 616.887C384.155 612.793 389.98 595.88 391.847 592.687Z"/><path fill="#FD6E3D" transform="scale(0.245694 0.245694)" d="M389.808 587.517C390.508 587.171 390.975 586.902 391.714 586.651L392.733 587.094C393.473 589.058 392.629 590.743 391.847 592.687C389.98 595.88 384.155 612.793 382.9 616.887L369.964 654.35C368.182 659.486 364.089 670.416 363.238 675.369C361.651 674.815 361.094 674.744 359.851 673.577C362.418 667.782 364.47 660.924 366.595 654.918C371.089 642.214 375.138 629.07 379.9 616.476C382.399 611.391 387.293 594.408 389.808 587.517Z"/><path fill="#FBA345" transform="scale(0.245694 0.245694)" d="M356.888 675.039C363.168 674.983 367.512 678.302 364.592 685.09C364.001 686.464 362.849 686.368 361.607 686.545C361.446 687.871 362.832 698.228 363.087 700.452L365.824 726.479C371.609 727.388 399.071 730.599 401.517 734.299C401.97 734.984 401.708 735.478 401.608 736.24C399.259 739.794 375.653 753.874 369.852 757.567C371.061 764.462 371.465 772.344 372.337 779.39C372.869 783.689 376.329 800.815 373.335 803.131C366.866 802.823 347.974 774.644 341.409 770.522C334.572 772.936 306.687 785.359 302.324 785.327C298.089 782.862 308.185 769.177 310.372 765.557C313.671 759.971 316.848 754.315 319.901 748.591C315.894 743.155 298.517 720.974 297.639 716.46C297.842 715.745 297.824 715.149 298.461 714.685C302.059 712.065 329.443 718.347 335.38 719.496C342.039 709.219 349.042 696.294 355.651 685.468C350.138 682.002 352.627 678.095 356.888 675.039ZM360.177 680.786C360.182 680.779 360.839 680.211 360.537 680.051C360.352 679.953 360.056 680.09 359.881 680.135C359.538 680.592 358.516 681.576 360.177 680.786Z"/><path fill="#FDBA6E" transform="scale(0.245694 0.245694)" d="M357.247 696.309C358.888 700.533 359.982 725.956 361.206 733.518C372.51 734.252 380.933 736.568 391.602 737.519C386.33 740.217 367.169 750.941 363.398 754.489C363.413 761.809 365.91 784.21 367.352 790.999C365.662 789.5 360.401 782.353 358.53 780.069C354.38 775.002 346.347 767.396 343.212 762.158L338.455 764.603C330.811 768.121 319.528 772.133 311.467 775.258C314.081 771.391 316.386 766.628 318.81 762.551C321.802 757.519 324.932 752.69 328.107 747.772C321.582 737.184 314.002 729.005 305.593 719.839C314.956 722.254 329.352 724.358 339.19 725.916C344.007 716.913 350.416 703.411 357.247 696.309Z"/><path fill="#1C0708" transform="scale(0.245694 0.245694)" d="M358.335 678.339C358.654 678.344 358.973 678.343 359.293 678.337C362.906 678.253 362.466 681.775 360.646 683.991L360.199 684.556C355.729 683.234 355.51 681.82 358.335 678.339ZM360.177 680.786C360.182 680.779 360.839 680.211 360.537 680.051C360.352 679.953 360.056 680.09 359.881 680.135C359.538 680.592 358.516 681.576 360.177 680.786Z"/><path fill="#71746F" fill-opacity="0.98823529" transform="scale(0.245694 0.245694)" d="M359.881 680.135C360.056 680.09 360.352 679.953 360.537 680.051C360.839 680.211 360.182 680.779 360.177 680.786C358.516 681.576 359.538 680.592 359.881 680.135Z"/><path fill="#FD6E3D" transform="scale(0.245694 0.245694)" d="M397.335 525.099C409.454 524.47 418.519 525.438 430.387 527.267C419.799 540.016 407.468 557.555 409.44 575.162C409.912 579.375 411.531 583.23 413.049 587.161C405.079 588.309 393.569 587.776 386.621 583.534C367.315 571.747 377.104 530.646 397.335 525.099Z"/><path fill="#FD6E3D" transform="scale(0.245694 0.245694)" d="M390.77 501.141C392.976 502.041 396.561 505.616 398.979 507.25C409.012 514.09 420.566 518.772 432.271 521.852C435.137 522.606 435.372 522.659 433.1 524.984L432.608 525.529C430.488 526.455 428.836 525.933 426.494 525.55C414.632 523.611 407.713 523.429 395.931 524.099C394.086 518.477 391.187 510.564 389.519 504.751C389.4 504.337 390.54 501.744 390.77 501.141Z"/><path fill="#11123E" fill-opacity="0.98823529" transform="scale(0.245694 0.245694)" d="M504.334 311.04C504.032 312.873 503.842 313.361 503.008 315.002C500.391 320.156 499.381 324.726 499.553 330.523C499.01 331.802 498.689 332.46 498.019 333.675C498.371 326.283 499.674 317.083 504.334 311.04Z"/><path fill="#1A1B56" fill-opacity="0.98823529" transform="scale(0.245694 0.245694)" d="M684.185 307.478C685.425 305.868 698.676 305.876 701.146 305.937C700.113 306.209 699.557 306.269 698.638 306.776C695.171 307.44 687.729 307.842 684.185 307.478Z"/></svg>