<?xml version="1.0" encoding="utf-8" ?><svg xmlns="http://www.w3.org/2000/svg" xmlns:xlink="http://www.w3.org/1999/xlink" width="188" height="188" viewBox="0 0 188 188"><path fill="#05076A" transform="scale(0.183246 0.183246)" d="M538.494 171.783C545.515 168.091 552.668 165.308 559.847 162.327C590.067 149.779 624.781 142.342 655.8 156.631C662.608 159.767 667.738 163.98 674.124 167.757C660.761 212.859 634.321 250.371 592.358 272.951C586.838 275.921 556.891 289.149 552.044 287.625C552.132 291.241 554.353 292.954 555.621 296.03C560.567 308.031 555.449 316.772 548.138 325.091C591.305 336.55 628.627 361.548 651.292 400.692C668.1 430.164 672.477 465.117 663.456 497.824C659.993 510.788 654.657 523.873 648.515 535.844C645.863 541.014 641.831 546.108 638.98 551.741C619.407 590.412 615.513 642.104 629.469 683.445C632.718 696.749 641.454 715.695 648.069 727.66C660.722 748.815 670.514 762.239 687.327 780.64C711.856 805.215 734.181 821.605 768.51 830.507L768.318 832.998C745.496 844.054 717.933 853.853 692.036 846.197C688.008 845.006 682.964 842.346 678.683 840.966C666.864 837.155 654.901 836.728 643.527 842.144C633.023 847.146 628.354 855.163 620.82 863.335C607.402 877.889 589.839 881.734 571.227 875.494C560.833 872.01 547.182 863.652 537.456 857.797C534.953 855.905 530.707 853.371 527.944 851.616C526.354 850.43 524.412 849.23 522.702 848.234L515.301 842.901C506.752 849.27 493.211 860.078 484.293 865.137L479.597 867.758C476.272 870.251 472.71 872.413 468.964 874.214C450.308 883.356 432.789 882.395 418.037 866.624C410.5 857.062 407.764 851.087 395.747 846.997C369.44 838.045 359.911 858.496 340.774 869.182C316.147 882.933 292.687 851.084 283.03 831.433C274.677 816.546 267.911 787.19 265.568 770.292C263.846 760.588 262.882 743.571 262.543 733.515C262.521 711.045 265.251 691.557 269.207 669.578C270.66 660.832 277.697 635.537 281.314 627.672C292.225 594.233 315.928 559.123 339.154 533.118C349.366 521.685 361.009 511.025 372.03 500.338C385.145 487.667 397.896 474.626 410.269 461.23C428.125 441.552 442.197 421.395 456.228 399C456.902 397.382 458.78 394.235 459.747 392.629C469.966 375.645 476.084 358.404 481.277 339.325L487.432 340.635C489.777 341.029 492.145 341.278 494.52 341.381C495.61 341.433 495.837 341.518 496.054 342.444C496.425 343.751 496.859 345.019 497.318 346.298C498.691 351.363 499.796 359.506 500.429 364.819C500.182 370.905 500.773 376.766 499.593 383.004C499.459 383.717 499.487 384.246 499.496 384.963C498.976 387.161 498.531 389.376 498.163 391.605C497.291 394.979 496.127 398.344 495.29 401.644C490.767 413.645 482.775 425.332 473.968 434.461C473.931 435.081 475.498 436.385 476.016 436.048C478.038 434.736 479.301 432.391 480.875 430.616C486.833 423.898 491.64 416.369 495.407 408.219C496.519 405.812 497.315 403.319 498.334 400.896C501.894 393.699 504.621 372.391 503.062 364.553C502.847 356.924 501.889 352.411 499.882 345.184C499.907 343.994 499.755 342.857 499.603 341.677C500.027 341.375 499.998 341.38 500.39 341.181C499.858 341.063 499.241 341.047 498.826 340.661C498.653 340.109 499.497 338.958 499.78 338.437C498.668 338.465 497.556 338.51 496.445 338.572C495.264 338.546 494.329 338.53 493.141 338.58C487.689 337.882 481.073 336.299 476.108 334.019C474.09 331.016 470.168 323.338 470.832 319.788L472.066 319.873L473.064 317.647C472.041 317.214 471.353 316.801 470.387 316.257C468.333 313.016 469.166 310.269 469.533 306.324C472.252 308.428 473.971 309.007 477.468 308.948C485.195 309.179 486.212 309.356 493.938 306.603C496.895 305.125 498.115 304.627 500.988 302.732C502.031 302.223 502.718 301.63 503.626 300.902C504.138 300.508 509.758 297.027 506.49 295.111C506.216 294.951 502.287 298.489 501.169 299.41C500.265 299.924 499.4 300.502 498.579 301.14C495.227 303.142 494.5 303.482 490.902 304.982C490.516 305.074 488.487 305.55 488.268 305.641C485.289 306.872 478.28 306.263 476.049 307.273C475.259 305.837 474.301 306.101 473.007 305.399C470.913 304.262 471.492 305.187 469.959 305.443C469.846 301.22 470.99 297.604 474.944 295.566L477.565 294.241L477.803 294.109C480.718 293.028 482.834 291.901 485.583 290.774C487.841 289.85 491.161 288.575 493.459 287.907C492.218 286.785 492.228 286.776 490.766 285.997C489.55 286.354 488.537 286.705 487.355 287.153C485.095 288.043 482.72 288.846 480.541 289.858L480.058 290.078L479.742 290.264C478.483 291.095 477.818 291.759 476.702 292.784C477.358 291.484 477.314 291.431 477.748 290.041C476.217 288.868 455.806 287.342 452.231 286.62C440.481 284.158 429.203 279.824 418.828 273.785C386.082 255.16 365.287 222.033 354.37 186.863C352.283 180.14 350.693 173.256 348.838 166.433C361.148 157.717 391.542 155.469 406.692 157.308C421.072 159.269 432.706 162.109 446.262 167.801C458.638 172.998 471.172 179.665 484.017 183.382C503.638 187.157 521.812 182.639 538.494 171.783ZM470.541 246.449C471.734 249.145 472.109 250.388 473.727 252.968C474.044 254.005 474.716 255.478 475.614 256.103C476.486 257.635 477.271 258.756 478.327 260.185C479.507 261.935 480.359 263.028 481.832 264.493C482.887 266.183 483.963 267.112 485.397 268.46C486.91 267.69 486.648 267.675 487.198 266.059C484.36 263.082 482.756 261.182 480.165 257.975C479.868 257.378 479.805 257.265 479.431 256.702C478.747 255.617 475.954 251.066 475.352 250.448C473.452 247.222 471.379 247.915 471.886 245.243C472.114 242.969 470.677 239.654 469.966 237.415C467.043 228.215 467.329 218.717 468.442 209.233C468.63 207.629 467.317 207 465.848 207.837C462.81 217.477 464.389 238.355 470.541 246.449ZM538.525 318.749C537.773 320.371 536.952 321.809 535.87 323.234C535.034 323.945 534.492 324.604 533.91 325.548C532.974 326.629 531.653 327.909 530.846 328.909C531.658 330.948 530.096 330.188 530.603 332.882C532.356 331.56 533.145 330.809 534.644 329.101C535.682 328.065 537.258 326.341 537.812 324.996C538.932 323.195 539.685 321.874 540.665 320.027L540.884 319.62C542.916 317.656 544.874 308.302 544.873 305.389C543.578 303.08 544.634 301.141 543.963 297.812C543.202 296.025 543.366 295.668 541.658 294.945L541.8 295.878C542.573 300.551 542.104 304.61 541.45 309.207C540.599 313.617 539.642 314.976 538.525 318.749ZM544.975 261.944C545.409 263.39 545.416 263.478 546.145 264.768C550.237 261.569 555.742 257.383 558.988 253.363C560.775 251.603 562.428 249.882 564.009 247.932C565.02 246.7 565.619 246.331 566.214 244.907C568.495 241.624 570.603 239.026 572.399 235.402C572.893 234.471 573.486 233.705 574.056 232.694C574.812 231.13 575.58 229.572 576.362 228.02C577.238 226.927 578.051 224.817 578.403 223.455C578.86 222.438 579.301 221.414 579.726 220.383C580.333 217.865 581.285 214.732 582.1 212.272C582.791 210.284 583.064 208.162 583.529 206.113C583.986 203.524 584.387 200.922 584.572 198.299C584.821 196.517 585.737 189.434 584.992 189.011C581.564 187.065 581.941 192.107 581.959 192.746C582.026 195.196 581.963 197.648 581.768 200.091C581.405 201.245 581.361 202.856 581.207 204.109C580.559 206.539 579.703 210.104 579.336 212.576C578.789 214.353 578.276 216.188 577.704 217.942L576.868 219.696C576.047 221.977 574.643 224.567 574.184 226.714C573.584 228.166 572.951 229.193 572.285 230.596C571.543 231.475 571.173 232.536 570.732 233.585C568.552 237.095 566.783 239.771 564.103 242.918C563.571 243.331 563.762 243.177 563.281 243.767L560.274 247.461C558.936 248.835 557.551 250.503 556.153 251.735L554.683 253.31C551.436 256.103 548.276 259.096 544.975 261.944ZM542.183 373.451C542.694 375.694 543.574 375.949 543.954 377.602C544.765 379.246 545.636 380.988 546.379 382.66C546.608 385.706 549.37 393.332 549.815 397.012C550.21 400.279 550.466 415.802 551.595 416.671C558.454 417.354 550.41 386.877 549.186 382.998L549.088 382.697C547.68 380.078 547.148 377.381 545.535 374.404C544.947 373.011 544.702 372.284 543.823 371.011C542.19 368.613 539.839 365.04 538.391 362.613C537.672 361.193 536.371 359.641 535.36 358.397C534.052 357.752 531.808 355.984 531.513 358.129C532.172 359.053 535.403 363.533 536.144 364.079C538.757 367.245 540.14 369.938 542.183 373.451ZM524.377 274.902L525.161 275.324C526.643 276.158 529.095 277.338 530.646 278.018C531.969 278.289 531.986 278.389 533.145 279.133C534.186 279.3 534.143 278.711 534.972 277.874C535.261 278.038 528.894 274.429 529.536 275.255C529.711 274.97 530.332 274.524 530.517 274.374C529.974 273.688 529.604 273.314 528.804 272.922L528.084 272.552C526.842 273.41 525.664 274.118 524.377 274.902ZM490.435 272.854C490.523 269.957 489.052 268.947 486.152 269.152C487.605 270.582 488.805 271.614 490.435 272.854ZM536.34 282.906L537.684 284.306L539.976 282.708L539.179 281.422C537.815 281.993 537.638 282.096 536.34 282.906ZM509.172 316.003C510.364 315.275 511.565 314.587 512.706 313.78C511.747 313.201 510.907 312.723 509.913 312.205C508.816 312.927 507.887 313.436 506.791 314.205C507.809 315.401 507.731 315.32 509.172 316.003ZM530.768 357.39C531.211 355.09 530.813 352.831 527.938 354.087C528.996 355.458 529.57 356.15 530.768 357.39ZM547.972 281.383C551.348 281.131 557.209 277.915 560.395 276.432C562.339 275.382 565.972 273.541 567.677 272.302C568.764 271.532 569.831 270.923 570.966 270.225C572.892 269.033 574.857 267.751 576.541 266.233C577.747 265.696 578.701 264.715 579.736 263.913C580.865 262.911 583.418 260.944 584.163 259.821C586.211 257.554 588.824 255.578 591.082 253.068C598.512 244.809 605.361 235.9 610.014 225.745C610.88 223.855 609.69 223.791 607.948 223.436C607.119 223.267 605.147 228.336 604.633 229.265C598.887 239.644 590.049 251.149 581.095 258.926C579.599 259.601 578.269 260.978 577.04 262.103C575.982 262.705 575.176 263.444 574.18 264.187L572.997 265.078C571.44 266.215 569.599 267.357 568.135 268.513C566.869 269.4 565.784 270.055 564.468 270.855C562.066 272.161 559.741 273.293 557.37 274.709C553.64 276.289 550.688 277.809 546.789 279.158C546.457 279.275 546.126 279.396 545.796 279.52C542.552 282.777 542.232 283.886 546.754 285.461C547.989 285.891 548.872 286.489 550.155 286.02C551.793 283.915 545.49 283.642 547.972 281.383ZM523.649 350.125C524.819 351.293 525.624 351.991 526.9 353.049C526.682 350.332 526.353 349.787 523.649 350.125ZM518.035 338.825C516.848 338.589 511.181 338.165 509.966 339.412C509.492 339.899 512.501 340.249 512.243 339.965C513.189 339.965 514.083 340.025 515.007 340.093C516.027 339.695 517.036 339.272 518.035 338.825Z"/><path fill="#FFFEFE" fill-opacity="0.98431373" transform="scale(0.183246 0.183246)" d="M543.963 297.812C544.634 301.141 543.578 303.08 544.873 305.389C544.874 308.302 542.916 317.656 540.884 319.62C540.1 319.322 539.314 319.032 538.525 318.749C539.642 314.976 540.599 313.617 541.45 309.207C544.977 307.163 543.254 302.147 543.963 297.812Z"/><path fill="#FFFEFE" fill-opacity="0.60392159" transform="scale(0.183246 0.183246)" d="M554.683 253.31L554.731 254.127C554.689 257.493 558.055 253.813 558.763 253L558.988 253.363C555.742 257.383 550.237 261.569 546.145 264.768C545.416 263.478 545.409 263.39 544.975 261.944C548.276 259.096 551.436 256.103 554.683 253.31Z"/><path fill="#FFFEFE" fill-opacity="0.023529412" transform="scale(0.183246 0.183246)" d="M581.768 200.091C581.963 197.648 582.026 195.196 581.959 192.746C581.941 192.107 581.564 187.065 584.992 189.011C585.737 189.434 584.821 196.517 584.572 198.299C584.253 199.123 583.647 200.934 583.117 201.606C582.494 201.772 581.984 200.46 581.768 200.091Z"/><path fill="#FFFEFE" fill-opacity="0.043137256" transform="scale(0.183246 0.183246)" d="M536.144 364.079C536.262 362.192 536.621 361.985 538.391 362.613C539.839 365.04 542.19 368.613 543.823 371.011C543.07 371.994 542.808 372.412 542.183 373.451C540.14 369.938 538.757 367.245 536.144 364.079Z"/><path fill="#FFFEFE" fill-opacity="0.050980393" transform="scale(0.183246 0.183246)" d="M528.084 272.552L528.804 272.922C529.604 273.314 529.974 273.688 530.517 274.374C530.332 274.524 529.711 274.97 529.536 275.255C528.894 274.429 535.261 278.038 534.972 277.874C534.143 278.711 534.186 279.3 533.145 279.133C531.986 278.389 531.969 278.289 530.646 278.018C529.095 277.338 526.643 276.158 525.161 275.324L524.377 274.902C525.664 274.118 526.842 273.41 528.084 272.552Z"/><path fill="#FFFEFE" fill-opacity="0.98823529" transform="scale(0.183246 0.183246)" d="M480.165 257.975C482.756 261.182 484.36 263.082 487.198 266.059C486.648 267.675 486.91 267.69 485.397 268.46C483.963 267.112 482.887 266.183 481.832 264.493C482.519 260.274 479.693 262.43 480.165 257.975Z"/><path fill="#FFFEFE" fill-opacity="0.98431373" transform="scale(0.183246 0.183246)" d="M579.336 212.576C579.703 210.104 580.559 206.539 581.207 204.109C581.968 204.803 582.75 205.431 583.529 206.113C583.064 208.162 582.791 210.284 582.1 212.272L579.336 212.576Z"/><path fill="#FFFEFE" fill-opacity="0.4509804" transform="scale(0.183246 0.183246)" d="M556.153 251.735C557.551 250.503 558.936 248.835 560.274 247.461C561.589 247.662 562.686 247.802 564.009 247.932C562.428 249.882 560.775 251.603 558.988 253.363L558.763 253C557.552 252.281 557.43 252.219 556.153 251.735Z"/><path fill="#FFFEFE" fill-opacity="0.78431374" transform="scale(0.183246 0.183246)" d="M541.658 294.945C543.366 295.668 543.202 296.025 543.963 297.812C543.254 302.147 544.977 307.163 541.45 309.207C542.104 304.61 542.573 300.551 541.8 295.878L541.658 294.945Z"/><path fill="#FFFEFE" fill-opacity="0.42352942" transform="scale(0.183246 0.183246)" d="M531.513 358.129C531.808 355.984 534.052 357.752 535.36 358.397C536.371 359.641 537.672 361.193 538.391 362.613C536.621 361.985 536.262 362.192 536.144 364.079C535.403 363.533 532.172 359.053 531.513 358.129Z"/><path fill="#FFFEFE" fill-opacity="0.16078432" transform="scale(0.183246 0.183246)" d="M545.535 374.404C547.148 377.381 547.68 380.078 549.088 382.697C547.748 383.263 547.572 383.479 546.379 382.66C545.636 380.988 544.765 379.246 543.954 377.602C544.345 376.726 544.313 376.766 544.631 376.153L545.085 375.294L545.535 374.404Z"/><path fill="#FFFEFE" fill-opacity="0.69411767" transform="scale(0.183246 0.183246)" d="M475.352 250.448C475.954 251.066 478.747 255.617 479.431 256.702C479.322 257.585 479.203 258.466 479.075 259.346C478.301 257.361 478.233 255.171 475.614 256.103C474.716 255.478 474.044 254.005 473.727 252.968C474.95 252.632 474.435 252.203 475.003 251.111L475.352 250.448Z"/><path fill="#FFFEFE" fill-opacity="0.65098041" transform="scale(0.183246 0.183246)" d="M576.868 219.696C577.182 221.412 576.698 223.036 578.403 223.455C578.051 224.817 577.238 226.927 576.362 228.02C575.63 227.503 575.004 226.764 574.184 226.714C574.643 224.567 576.047 221.977 576.868 219.696Z"/><path fill="#FFFEFE" fill-opacity="0.16862746" transform="scale(0.183246 0.183246)" d="M579.336 212.576L582.1 212.272C581.285 214.732 580.333 217.865 579.726 220.383C578.915 219.345 578.664 218.864 577.704 217.942C578.276 216.188 578.789 214.353 579.336 212.576Z"/><path fill="#FFFEFE" fill-opacity="0.55686277" transform="scale(0.183246 0.183246)" d="M560.274 247.461L563.281 243.767C563.762 243.177 563.571 243.331 564.103 242.918C564.379 244.611 564.493 245.051 566.214 244.907C565.619 246.331 565.02 246.7 564.009 247.932C562.686 247.802 561.589 247.662 560.274 247.461Z"/><path fill="#FFFEFE" fill-opacity="0.086274512" transform="scale(0.183246 0.183246)" d="M470.541 246.449L471.886 245.243C471.379 247.915 473.452 247.222 475.352 250.448L475.003 251.111C474.435 252.203 474.95 252.632 473.727 252.968C472.109 250.388 471.734 249.145 470.541 246.449Z"/><path fill="#FFFEFE" fill-opacity="0.96078432" transform="scale(0.183246 0.183246)" d="M533.91 325.548C533.986 327.362 533.822 327.564 534.644 329.101C533.145 330.809 532.356 331.56 530.603 332.882C530.096 330.188 531.658 330.948 530.846 328.909C531.653 327.909 532.974 326.629 533.91 325.548Z"/><path fill="#FFFEFE" fill-opacity="0.49411765" transform="scale(0.183246 0.183246)" d="M533.91 325.548C534.492 324.604 535.034 323.945 535.87 323.234C536.61 323.855 537.127 324.331 537.812 324.996C537.258 326.341 535.682 328.065 534.644 329.101C533.822 327.564 533.986 327.362 533.91 325.548Z"/><path fill="#FFFEFE" fill-opacity="0.38431373" transform="scale(0.183246 0.183246)" d="M543.823 371.011C544.702 372.284 544.947 373.011 545.535 374.404L545.085 375.294L544.631 376.153C544.313 376.766 544.345 376.726 543.954 377.602C543.574 375.949 542.694 375.694 542.183 373.451C542.808 372.412 543.07 371.994 543.823 371.011Z"/><path fill="#FFFEFE" fill-opacity="0.32941177" transform="scale(0.183246 0.183246)" d="M581.768 200.091C581.984 200.46 582.494 201.772 583.117 201.606C583.647 200.934 584.253 199.123 584.572 198.299C584.387 200.922 583.986 203.524 583.529 206.113C582.75 205.431 581.968 204.803 581.207 204.109C581.361 202.856 581.405 201.245 581.768 200.091Z"/><path fill="#FFFEFE" fill-opacity="0.090196081" transform="scale(0.183246 0.183246)" d="M574.184 226.714C575.004 226.764 575.63 227.503 576.362 228.02C575.58 229.572 574.812 231.13 574.056 232.694C573.339 231.907 572.895 231.454 572.285 230.596C572.951 229.193 573.584 228.166 574.184 226.714Z"/><path fill="#FFFEFE" fill-opacity="0.87843138" transform="scale(0.183246 0.183246)" d="M479.431 256.702C479.805 257.265 479.868 257.378 480.165 257.975C479.693 262.43 482.519 260.274 481.832 264.493C480.359 263.028 479.507 261.935 478.327 260.185L479.075 259.346C479.203 258.466 479.322 257.585 479.431 256.702Z"/><path fill="#FFFEFE" fill-opacity="0.21960784" transform="scale(0.183246 0.183246)" d="M572.285 230.596C572.895 231.454 573.339 231.907 574.056 232.694C573.486 233.705 572.893 234.471 572.399 235.402C571.708 234.476 571.621 234.418 570.732 233.585C571.173 232.536 571.543 231.475 572.285 230.596Z"/><path fill="#FFFEFE" fill-opacity="0.3019608" transform="scale(0.183246 0.183246)" d="M576.868 219.696L577.704 217.942C578.664 218.864 578.915 219.345 579.726 220.383C579.301 221.414 578.86 222.438 578.403 223.455C576.698 223.036 577.182 221.412 576.868 219.696Z"/><path fill="#FFFEFE" fill-opacity="0.24313726" transform="scale(0.183246 0.183246)" d="M556.153 251.735C557.43 252.219 557.552 252.281 558.763 253C558.055 253.813 554.689 257.493 554.731 254.127L554.683 253.31L556.153 251.735Z"/><path fill="#FFFEFE" fill-opacity="0.15294118" transform="scale(0.183246 0.183246)" d="M515.007 340.093C514.083 340.025 513.189 339.965 512.243 339.965C512.501 340.249 509.492 339.899 509.966 339.412C511.181 338.165 516.848 338.589 518.035 338.825C517.036 339.272 516.027 339.695 515.007 340.093Z"/><path fill="#FFFEFE" fill-opacity="0.36078432" transform="scale(0.183246 0.183246)" d="M475.614 256.103C478.233 255.171 478.301 257.361 479.075 259.346L478.327 260.185C477.271 258.756 476.486 257.635 475.614 256.103Z"/><path fill="#FFFEFE" fill-opacity="0.59215689" transform="scale(0.183246 0.183246)" d="M486.152 269.152C489.052 268.947 490.523 269.957 490.435 272.854C488.805 271.614 487.605 270.582 486.152 269.152Z"/><path fill="#FFFEFE" fill-opacity="0.49411765" transform="scale(0.183246 0.183246)" d="M527.938 354.087C530.813 352.831 531.211 355.09 530.768 357.39C529.57 356.15 528.996 355.458 527.938 354.087Z"/><path fill="#FFFEFE" fill-opacity="0.79215688" transform="scale(0.183246 0.183246)" d="M539.179 281.422L539.976 282.708L537.684 284.306L536.34 282.906C537.638 282.096 537.815 281.993 539.179 281.422Z"/><path fill="#FFFEFE" fill-opacity="0.84705883" transform="scale(0.183246 0.183246)" d="M523.649 350.125C526.353 349.787 526.682 350.332 526.9 353.049C525.624 351.991 524.819 351.293 523.649 350.125Z"/><path fill="#3A46E8" transform="scale(0.183246 0.183246)" d="M548.138 325.091C591.305 336.55 628.627 361.548 651.292 400.692C668.1 430.164 672.477 465.117 663.456 497.824C659.993 510.788 654.657 523.873 648.515 535.844C645.863 541.014 641.831 546.108 638.98 551.741C619.407 590.412 615.513 642.104 629.469 683.445C611.843 703.163 596.395 721.282 569.21 728.485C551.951 732.977 533.619 730.521 518.151 721.644C497.905 709.857 485.835 691.458 480.112 668.985C466.889 617.062 498.259 563.79 536.165 530.393C573.699 497.324 616.614 458.399 600.261 402.541C590.266 368.397 563.448 347.412 534.008 330.473C539.45 328.842 543.133 327.78 548.138 325.091Z"/><path fill="#05076A" transform="scale(0.183246 0.183246)" d="M262.543 733.515C278.996 718.664 304.89 705.342 327.251 707.93C376.248 713.602 401.639 765.179 422.462 803.504C436.306 828.984 458.623 848.873 479.597 867.758C476.272 870.251 472.71 872.413 468.964 874.214C450.308 883.356 432.789 882.395 418.037 866.624C410.5 857.062 407.764 851.087 395.747 846.997C369.44 838.045 359.911 858.496 340.774 869.182C316.147 882.933 292.687 851.084 283.03 831.433C274.677 816.546 267.911 787.19 265.568 770.292C263.846 760.588 262.882 743.571 262.543 733.515Z"/><path fill="#7CB8C0" transform="scale(0.183246 0.183246)" d="M265.568 770.292C274.474 760.801 283.617 754.445 295.592 749.318C338.399 730.991 379.622 768.187 394.449 806.076C374.992 794.028 360.191 789.964 336.768 794.534C319.247 797.952 292.747 816.929 283.03 831.433C274.677 816.546 267.911 787.19 265.568 770.292Z"/><path fill="#3A46E8" transform="scale(0.183246 0.183246)" d="M456.228 399C458.896 402.986 461.455 411.361 462.942 416.195C472.463 446.885 474.328 479.439 468.375 511.016C461.208 547.088 443.963 587.519 412.781 609.468C403.248 616.178 390.053 620.669 378.425 618.074C369.206 616.017 363.048 610.854 354.394 608.24C334.985 602.377 314.974 608.298 297.832 617.87C293.208 620.452 285.537 625.66 281.314 627.672C292.225 594.233 315.928 559.123 339.154 533.118C349.366 521.685 361.009 511.025 372.03 500.338C385.145 487.667 397.896 474.626 410.269 461.23C428.125 441.552 442.197 421.395 456.228 399Z"/><path fill="#9197EC" transform="scale(0.183246 0.183246)" d="M269.207 669.578C290.187 653.43 313.652 640.848 340.818 644.911C390.008 652.27 411.061 702.137 428.282 742.09C446.707 784.836 477.733 816.675 515.301 842.901C506.752 849.27 493.211 860.078 484.293 865.137L479.597 867.758C458.623 848.873 436.306 828.984 422.462 803.504C401.639 765.179 376.248 713.602 327.251 707.93C304.89 705.342 278.996 718.664 262.543 733.515C262.521 711.045 265.251 691.557 269.207 669.578Z"/><path fill="#7CB8C0" transform="scale(0.183246 0.183246)" d="M438.713 625.988L439.759 628.026C431.276 691.526 479.233 761.148 543.989 768.863C576.275 772.709 606.465 763.071 631.942 743.032C637.99 738.327 643.238 733.589 648.069 727.66C660.722 748.815 670.514 762.239 687.327 780.64C675.161 789.272 668.407 794.491 654.759 801.821C621.01 819.944 582.179 825.033 545.332 813.593C505.034 801.28 471.314 773.399 451.649 736.132C434.492 703.006 427.227 662.014 438.713 625.988Z"/><path fill="#3A46E8" transform="scale(0.183246 0.183246)" d="M348.838 166.433C361.148 157.717 391.542 155.469 406.692 157.308C402.329 168.707 401.259 185.968 402.352 197.651C406.349 240.39 440.198 273.415 480.263 284.945C482.454 285.575 485.246 286.367 487.355 287.153C485.095 288.043 482.72 288.846 480.541 289.858L480.058 290.078L479.742 290.264C478.483 291.095 477.818 291.759 476.702 292.784C477.358 291.484 477.314 291.431 477.748 290.041C476.217 288.868 455.806 287.342 452.231 286.62C440.481 284.158 429.203 279.824 418.828 273.785C386.082 255.16 365.287 222.033 354.37 186.863C352.283 180.14 350.693 173.256 348.838 166.433Z"/><path fill="#05076A" transform="scale(0.183246 0.183246)" d="M493.459 287.907C499.106 285.767 524.22 276.942 528.907 277.746C529.198 277.795 529.487 277.858 529.779 277.899L530.646 278.018C531.969 278.289 531.986 278.389 533.145 279.133C533.325 280.314 535.476 281.196 536.34 282.906L537.684 284.306C539.525 288.632 540.604 290.019 541.658 294.945L541.8 295.878C542.573 300.551 542.104 304.61 541.45 309.207C540.599 313.617 539.642 314.976 538.525 318.749C537.773 320.371 536.952 321.809 535.87 323.234C535.034 323.945 534.492 324.604 533.91 325.548C532.974 326.629 531.653 327.909 530.846 328.909L530.498 329.172C520.205 337.075 512.377 337.665 499.78 338.437C498.668 338.465 497.556 338.51 496.445 338.572C495.264 338.546 494.329 338.53 493.141 338.58C487.689 337.882 481.073 336.299 476.108 334.019C474.09 331.016 470.168 323.338 470.832 319.788L472.066 319.873L473.064 317.647C472.041 317.214 471.353 316.801 470.387 316.257C468.333 313.016 469.166 310.269 469.533 306.324C472.252 308.428 473.971 309.007 477.468 308.948C485.195 309.179 486.212 309.356 493.938 306.603C496.895 305.125 498.115 304.627 500.988 302.732C502.031 302.223 502.718 301.63 503.626 300.902C504.138 300.508 509.758 297.027 506.49 295.111C506.216 294.951 502.287 298.489 501.169 299.41C500.265 299.924 499.4 300.502 498.579 301.14C495.227 303.142 494.5 303.482 490.902 304.982C490.516 305.074 488.487 305.55 488.268 305.641C485.289 306.872 478.28 306.263 476.049 307.273C475.259 305.837 474.301 306.101 473.007 305.399C470.913 304.262 471.492 305.187 469.959 305.443C469.846 301.22 470.99 297.604 474.944 295.566L477.565 294.241L477.803 294.109C480.718 293.028 482.834 291.901 485.583 290.774C487.841 289.85 491.161 288.575 493.459 287.907ZM509.172 316.003C510.364 315.275 511.565 314.587 512.706 313.78C511.747 313.201 510.907 312.723 509.913 312.205C508.816 312.927 507.887 313.436 506.791 314.205C507.809 315.401 507.731 315.32 509.172 316.003Z"/><path fill="#FFFEFE" fill-opacity="0.29411766" transform="scale(0.183246 0.183246)" d="M506.791 314.205C507.887 313.436 508.816 312.927 509.913 312.205C510.907 312.723 511.747 313.201 512.706 313.78C511.565 314.587 510.364 315.275 509.172 316.003C507.731 315.32 507.809 315.401 506.791 314.205Z"/><path fill="#FFFEFE" transform="scale(0.183246 0.183246)" d="M473.064 317.647C484.968 320.878 495.101 319.969 506.208 314.393C506.402 314.33 506.597 314.268 506.791 314.205C507.809 315.401 507.731 315.32 509.172 316.003C500.416 322.04 481.736 325.09 472.066 319.873L473.064 317.647Z"/><path fill="#FFFEFE" transform="scale(0.183246 0.183246)" d="M509.913 312.205C515.493 307.988 516.624 311.593 512.706 313.78C511.747 313.201 510.907 312.723 509.913 312.205Z"/><path fill="#FFFEFE" transform="scale(0.183246 0.183246)" d="M487.198 266.059C494.137 272.982 499.057 275.156 505.744 280.835C510.609 279.19 515.527 277.708 520.491 276.391C521.893 276.032 523.092 275.546 524.377 274.902L525.161 275.324C526.643 276.158 529.095 277.338 530.646 278.018L529.779 277.899C529.487 277.858 529.198 277.795 528.907 277.746C524.22 276.942 499.106 285.767 493.459 287.907C492.218 286.785 492.228 286.776 490.766 285.997C494.638 284.652 498.471 283.197 502.26 281.634C497.972 278.626 494.534 275.865 490.435 272.854C490.523 269.957 489.052 268.947 486.152 269.152L485.397 268.46C486.91 267.69 486.648 267.675 487.198 266.059Z"/><path fill="#FFFEFE" transform="scale(0.183246 0.183246)" d="M530.846 328.909C531.658 330.948 530.096 330.188 530.603 332.882C528.867 334.999 520.843 338.703 518.035 338.825C516.848 338.589 511.181 338.165 509.966 339.412C509.492 339.899 512.501 340.249 512.243 339.965C513.189 339.965 514.083 340.025 515.007 340.093C523.632 346.299 528.433 349.704 535.36 358.397C534.052 357.752 531.808 355.984 531.513 358.129C531.142 357.818 531.085 357.755 530.768 357.39C531.211 355.09 530.813 352.831 527.938 354.087C527.341 353.66 527.322 353.651 526.9 353.049C526.682 350.332 526.353 349.787 523.649 350.125C522.647 349.449 521.374 348.145 520.369 347.288C516.873 344.308 514.074 342.634 510.169 340.385C506.175 340.918 504.449 341.005 500.39 341.181C499.858 341.063 499.241 341.047 498.826 340.661C498.653 340.109 499.497 338.958 499.78 338.437C512.377 337.665 520.205 337.075 530.498 329.172L530.846 328.909Z"/><path fill="#FFFEFE" transform="scale(0.183246 0.183246)" d="M544.975 261.944C545.409 263.39 545.416 263.478 546.145 264.768C541.51 267.381 535.531 272.846 530.517 274.374C529.974 273.688 529.604 273.314 528.804 272.922L528.084 272.552C533.866 269.561 539.882 265.983 544.975 261.944Z"/><path fill="#FFFEFE" transform="scale(0.183246 0.183246)" d="M537.684 284.306L539.976 282.708C544.072 289.308 545.549 297.716 544.873 305.389C543.578 303.08 544.634 301.141 543.963 297.812C543.202 296.025 543.366 295.668 541.658 294.945C540.604 290.019 539.525 288.632 537.684 284.306Z"/><path fill="#FFFEFE" transform="scale(0.183246 0.183246)" d="M534.972 277.874C536.748 278.823 537.727 280.041 539.179 281.422C537.815 281.993 537.638 282.096 536.34 282.906C535.476 281.196 533.325 280.314 533.145 279.133C534.186 279.3 534.143 278.711 534.972 277.874Z"/><path fill="#3A46E8" transform="scale(0.183246 0.183246)" d="M441.243 618.308C441.385 619.333 440.047 626.689 439.759 628.026L438.713 625.988C439.034 623.806 440.412 620.411 441.243 618.308Z"/><path fill="#FFFEFE" fill-opacity="0.98823529" transform="scale(0.183246 0.183246)" d="M557.37 274.709C558.59 275.497 559.07 275.851 560.395 276.432C557.209 277.915 551.348 281.131 547.972 281.383C547.092 280.35 546.947 280.301 545.796 279.52C546.126 279.396 546.457 279.275 546.789 279.158C550.688 277.809 553.64 276.289 557.37 274.709Z"/><path fill="#FFFEFE" fill-opacity="0.43137255" transform="scale(0.183246 0.183246)" d="M557.37 274.709C559.741 273.293 562.066 272.161 564.468 270.855L565.017 271.244C565.812 271.854 566.73 272.035 567.677 272.302C565.972 273.541 562.339 275.382 560.395 276.432C559.07 275.851 558.59 275.497 557.37 274.709Z"/><path fill="#FFFEFE" fill-opacity="0.44313726" transform="scale(0.183246 0.183246)" d="M568.135 268.513C569.599 267.357 571.44 266.215 572.997 265.078C574.884 265.577 574.971 265.191 576.541 266.233C574.857 267.751 572.892 269.033 570.966 270.225C570.285 269.673 569.648 269.163 568.831 268.826L568.135 268.513Z"/><path fill="#FFFEFE" fill-opacity="0.3882353" transform="scale(0.183246 0.183246)" d="M577.04 262.103C578.269 260.978 579.599 259.601 581.095 258.926C582.57 260.024 582.34 259.706 584.163 259.821C583.418 260.944 580.865 262.911 579.736 263.913C577.932 263.805 577.63 263.916 577.04 262.103Z"/><path fill="#FFFEFE" fill-opacity="0.74117649" transform="scale(0.183246 0.183246)" d="M572.997 265.078L574.18 264.187C575.176 263.444 575.982 262.705 577.04 262.103C577.63 263.916 577.932 263.805 579.736 263.913C578.701 264.715 577.747 265.696 576.541 266.233C574.971 265.191 574.884 265.577 572.997 265.078Z"/><path fill="#FFFEFE" fill-opacity="0.28235295" transform="scale(0.183246 0.183246)" d="M564.468 270.855C565.784 270.055 566.869 269.4 568.135 268.513L568.831 268.826C569.648 269.163 570.285 269.673 570.966 270.225C569.831 270.923 568.764 271.532 567.677 272.302C566.73 272.035 565.812 271.854 565.017 271.244L564.468 270.855Z"/><path fill="#F09C53" transform="scale(0.183246 0.183246)" d="M453.728 72.9537C454.949 66.7957 457.924 62.0873 463.136 58.4168C481.711 45.677 508.763 43.5893 530.519 46.4676C544.418 48.3065 572.07 57.4118 568.562 75.7086C566.778 85.0102 557.995 85.9406 551.198 90.5148C537.068 100.023 548.728 104.64 548.056 116.108C547.791 120.171 541.995 123.346 538.573 125.367L538.494 171.783C521.812 182.639 503.638 187.157 484.017 183.382L483.968 123.903C467.491 119.93 482.759 105.689 479.679 97.7035C474.415 84.0546 458.75 88.8861 453.728 72.9537Z"/><path fill="#86572F" transform="scale(0.183246 0.183246)" d="M506.692 107.178C514.64 106.626 534.233 108.585 538.915 115.497C538.914 117.116 539.158 116.427 538.283 117.671C534.523 118.983 527.576 114.524 523.407 113.426C520.026 112.536 519 112.399 515.453 111.993C508.162 111.92 501.109 112.12 494.308 115.129C491.761 116.257 485.262 120.356 483.126 119.165C481.565 114.506 486.904 112.999 490.276 111.588C496.071 109.165 500.487 107.863 506.692 107.178Z"/><path fill="#86572F" transform="scale(0.183246 0.183246)" d="M509.415 90.7082C512.474 90.4655 542.911 92.953 535.21 100.496C534.467 101.224 529.472 98.8049 528.041 98.3264C523.533 96.8184 519.913 96.1177 515.123 95.8003C508.422 94.9717 498.993 96.7259 492.635 98.905C485.952 101.196 485.196 95.3195 492.769 93.6215C499.052 92.2128 502.934 91.3443 509.415 90.7082Z"/><path fill="#86572F" transform="scale(0.183246 0.183246)" d="M528.767 125.828C529.386 125.836 533.587 125.844 533.371 127.115C531.93 135.583 534.94 162.382 532.612 168.926C532.333 168.981 532.054 169.033 531.776 169.093C531.17 169.224 530.607 169.405 529.984 169.255C529.417 169.119 528.898 168.682 528.609 168.18C527.456 166.175 527.391 129.668 528.385 126.842C528.433 126.705 528.492 126.572 528.544 126.436L528.767 125.828Z"/><path fill="#86572F" transform="scale(0.183246 0.183246)" d="M516.586 62.4874C528.636 62.1298 540.619 64.3829 551.716 69.0921C555.883 70.9052 556.311 72.0062 554.457 75.6856C550.733 75.334 550.49 73.9299 547.253 72.5116C537.699 68.3263 527.767 67.2906 517.49 67.0404C515.518 66.9923 516.289 63.6981 516.586 62.4874Z"/><path fill="#86572F" transform="scale(0.183246 0.183246)" d="M491.768 131.129C496.233 132.032 496.08 132.88 495.975 137.092C495.897 140.196 495.963 143.627 495.991 146.744C499.559 148.889 500.89 149.794 503.898 152.625C504.001 156.13 503.987 159.96 503.69 163.445C497.411 163.517 499.609 161.686 499.589 154.598C496.784 152.785 494.28 151.408 491.432 149.732C491.323 144.663 491.052 135.925 491.768 131.129Z"/><path fill="#86572F" transform="scale(0.183246 0.183246)" d="M492.185 65.6248C495.557 65.0874 496.467 66.1951 495.741 69.6473C495.611 70.2658 489.395 71.2898 488.741 71.4257C484.573 72.2908 480.838 73.5924 477.021 75.4786C475.496 75.9487 474.548 76.4771 473.621 74.5424C471.03 69.1313 488.308 66.31 492.185 65.6248Z"/><path fill="#86572F" transform="scale(0.183246 0.183246)" d="M513.645 121.482C519.468 121.417 517.843 121.148 518.107 127.384C518.248 130.714 518.141 134.184 518.025 137.516L517.471 138.265C516.344 139.81 516.056 140.25 514.476 141.401L512.907 142.527L512.127 142.503C509.735 142.415 508.801 139.095 510.667 137.806C511.676 137.11 512.556 136.413 513.481 135.624C513.714 131.048 513.253 125.462 513.645 121.482Z"/><path fill="#86572F" transform="scale(0.183246 0.183246)" d="M488.459 157.354L489.332 157.452C493.199 157.852 493.081 159.049 492.851 162.997C492.61 167.122 493.713 173.972 492.443 177.682C491.997 177.683 488.151 177.797 488.143 176.847C488.109 172.408 487.187 161.071 488.459 157.354Z"/><path fill="#F09C53" transform="scale(0.183246 0.183246)" d="M515.301 842.901L522.702 848.234C524.412 849.23 526.354 850.43 527.944 851.616C530.707 853.371 534.953 855.905 537.456 857.797L537.456 905.428C550.11 911.399 540.5 916.658 544.432 928.142C552.491 936.064 567.246 937.767 568.22 951.194C568.468 954.616 566.551 958.106 564.233 960.488C552.675 971.618 532.462 974.295 516.873 974.066C498.98 973.804 472.322 970.08 457.817 958.73C451.79 954.014 452.182 945.173 457.635 940.256C462.731 935.661 469.163 933.117 474.217 928.505C475.778 926.986 476.843 925.151 477.955 923.303L478.518 921.751C477.508 912.817 476.194 910.19 484.081 905.31C484.005 896.195 483.268 873.478 484.293 865.137C493.211 860.078 506.752 849.27 515.301 842.901Z"/><path fill="#86572F" transform="scale(0.183246 0.183246)" d="M478.518 921.751C479.95 921.269 480.595 920.728 481.967 921.6C494.741 929.718 509.285 932.971 524.238 929.887C527.829 929.147 534.537 926.306 537.571 929.368C536.236 935.32 513.31 936.162 508.01 935.65C499.87 934.863 482.736 930.319 477.955 923.303L478.518 921.751Z"/><path fill="#86572F" transform="scale(0.183246 0.183246)" d="M522.702 848.234C524.412 849.23 526.354 850.43 527.944 851.616C526.465 855.105 527.236 859.351 526.861 863.003C526.511 866.426 522.113 868.493 519.499 870.955C519.415 877.048 520.272 887.976 518.516 893.547C518.27 894.325 514.932 894.171 514.835 893.291C514.122 886.832 514.539 873.968 515.048 867.947C517.294 865.709 519.782 864.217 521.831 862.159C522.079 858.736 522.301 851.033 522.702 848.234Z"/><path fill="#86572F" transform="scale(0.183246 0.183246)" d="M485.814 905.668C488.625 906.034 490.831 907.88 493.5 909.077C502.906 913.294 513.925 913.308 523.842 911.127C527.526 910.317 534.401 903.949 537.121 907.287C537.32 909.501 537.521 908.453 536.286 910.496C522.284 918.992 508.619 919.761 493.232 914.436C489.953 913.301 487.068 912.263 485.129 909.2C484.78 907.574 485.126 907.186 485.814 905.668Z"/><path fill="#86572F" transform="scale(0.183246 0.183246)" d="M471.032 949.859C474.882 950.085 478.603 951.962 482.76 952.931L484.76 953.411C492.216 955.131 499.284 955.868 506.794 956.855C509.377 957.195 508.417 960.047 507.824 961.459C501.781 961.54 494.955 960.645 488.995 959.552C485.804 958.947 482.639 958.209 479.509 957.34C476.858 956.62 468.055 954.953 470.426 951.182C470.63 950.857 470.778 950.414 471.032 949.859Z"/><path fill="#86572F" transform="scale(0.183246 0.183246)" d="M529.32 874.283C530.139 874.376 533.182 874.448 533.274 875.942C533.653 882.114 533.201 888.54 533.378 894.752C533.505 899.198 533.971 899.362 532.309 903.178C526.529 902.992 528.52 897.009 528.449 892.181C528.396 888.571 528.002 878.082 529.021 875.195L529.32 874.283Z"/><path fill="#86572F" transform="scale(0.183246 0.183246)" d="M549.735 950.482C551.058 950.595 551.973 951.257 552.526 952.512C554.105 956.096 547.518 956.886 545.243 957.442L542.994 957.927L540.744 958.39C539.875 958.561 538.859 958.768 537.995 958.92C536.188 959.234 534.375 959.508 532.557 959.743C528.806 958.649 527.865 954.921 532.496 954.52C538.365 954.012 544.281 952.742 549.735 950.482Z"/><path fill="#05076A" transform="scale(0.183246 0.183246)" d="M295.469 173.144L351.294 179.902C349.249 193.013 348.898 206.584 347.558 219.796C346.903 226.262 346.3 232.797 346.037 239.289L344.009 240.747C332.649 216.604 311.678 193.672 295.469 173.144Z"/><path fill="#05076A" transform="scale(0.183246 0.183246)" d="M728.725 172.263C728.933 173.363 720.426 181.652 719.036 183.17C701.551 202.257 687.554 222.249 673.397 243.693C672.856 240.276 673.281 231.171 673.369 227.432C673.744 211.569 675.157 195.75 676.031 179.915C690.294 176.943 713.892 173.913 728.725 172.263Z"/><path fill="#FFFEFE" fill-opacity="0.45490196" transform="scale(0.183246 0.183246)" d="M500.429 364.819C501.307 364.737 502.185 364.649 503.062 364.553C504.621 372.391 501.894 393.699 498.334 400.896C497.291 399.82 496.914 400.839 495.29 401.644C496.127 398.344 497.291 394.979 498.163 391.605C498.354 391.875 498.445 392.155 498.739 392.256C500.643 391.876 499.877 386.365 499.496 384.963C499.487 384.246 499.459 383.717 499.593 383.004C500.773 376.766 500.182 370.905 500.429 364.819Z"/><defs><linearGradient id="gradient_0" gradientUnits="userSpaceOnUse" x1="491.77567" y1="288.43417" x2="485.65994" y2="287.47754"><stop offset="0" stop-color="#FFFCFF" stop-opacity="0.95686275"/><stop offset="1" stop-color="#FFFCFE"/></linearGradient></defs><path fill="url(#gradient_0)" transform="scale(0.183246 0.183246)" d="M487.355 287.153C488.537 286.705 489.55 286.354 490.766 285.997C492.228 286.776 492.218 286.785 493.459 287.907C491.161 288.575 487.841 289.85 485.583 290.774C483.113 290.488 482.532 290.704 480.058 290.078L480.541 289.858C482.72 288.846 485.095 288.043 487.355 287.153Z"/><path fill="#FFFEFE" fill-opacity="0.74509805" transform="scale(0.183246 0.183246)" d="M496.445 338.572C497.556 338.51 498.668 338.465 499.78 338.437C499.497 338.958 498.653 340.109 498.826 340.661C499.241 341.047 499.858 341.063 500.39 341.181C499.998 341.38 500.027 341.375 499.603 341.677C498.029 341.915 497.475 341.781 496.054 342.444C495.837 341.518 495.61 341.433 494.52 341.381C492.145 341.278 489.777 341.029 487.432 340.635C488.245 340.599 489.059 340.57 489.872 340.548C491.699 340.096 494.84 339.382 496.445 338.572Z"/><path fill="#FFFEFE" fill-opacity="0.078431375" transform="scale(0.183246 0.183246)" d="M498.579 301.14C499.913 301.803 499.866 301.795 500.988 302.732C498.115 304.627 496.895 305.125 493.938 306.603C492.881 306.069 491.932 305.57 490.902 304.982C494.5 303.482 495.227 303.142 498.579 301.14Z"/><path fill="#FFFEFE" fill-opacity="0.98823529" transform="scale(0.183246 0.183246)" d="M469.959 305.443C471.492 305.187 470.913 304.262 473.007 305.399C474.301 306.101 475.259 305.837 476.049 307.273L477.468 308.948C473.971 309.007 472.252 308.428 469.533 306.324L469.959 305.443Z"/><path fill="#FFFEFE" fill-opacity="0.98823529" transform="scale(0.183246 0.183246)" d="M496.054 342.444C497.475 341.781 498.029 341.915 499.603 341.677C499.755 342.857 499.907 343.994 499.882 345.184C498.955 345.625 498.261 345.926 497.318 346.298C496.859 345.019 496.425 343.751 496.054 342.444Z"/><path fill="#FFFEFE" fill-opacity="0.3882353" transform="scale(0.183246 0.183246)" d="M480.058 290.078C482.532 290.704 483.113 290.488 485.583 290.774C482.834 291.901 480.718 293.028 477.803 294.109C478.789 291.729 480.832 292.08 479.742 290.264L480.058 290.078Z"/><path fill="#FFFEFE" fill-opacity="0.2" transform="scale(0.183246 0.183246)" d="M501.169 299.41C502.174 299.825 502.733 300.318 503.626 300.902C502.718 301.63 502.031 302.223 500.988 302.732C499.866 301.795 499.913 301.803 498.579 301.14C499.4 300.502 500.265 299.924 501.169 299.41Z"/><path fill="#FFFEFE" fill-opacity="0.27058825" transform="scale(0.183246 0.183246)" d="M499.496 384.963C499.877 386.365 500.643 391.876 498.739 392.256C498.445 392.155 498.354 391.875 498.163 391.605C498.531 389.376 498.976 387.161 499.496 384.963Z"/><path fill="#FFFEFE" fill-opacity="0.27058825" transform="scale(0.183246 0.183246)" d="M479.742 290.264C480.832 292.08 478.789 291.729 477.803 294.109L477.565 294.241C477.526 294.089 477.36 293.335 477.237 293.119C476.956 293.304 475.938 294.711 475.789 293.487C476.041 293.072 476.223 293.047 476.702 292.784C477.818 291.759 478.483 291.095 479.742 290.264Z"/><path fill="#FFFEFE" fill-opacity="0.24313726" transform="scale(0.183246 0.183246)" d="M493.141 338.58C494.329 338.53 495.264 338.546 496.445 338.572C494.84 339.382 491.699 340.096 489.872 340.548C491.312 339.454 491.504 339.362 493.141 338.58Z"/><path fill="#10115F" fill-opacity="0.98823529" transform="scale(0.183246 0.183246)" d="M344.009 240.747L346.037 239.289C345.641 242.698 345.744 244.283 344.009 240.747Z"/><path fill="#10115F" fill-opacity="0.98823529" transform="scale(0.183246 0.183246)" d="M768.51 830.507C771.46 831.574 771.778 831.152 768.318 832.998L768.51 830.507Z"/></svg>