<svg width="64" height="64" viewBox="0 0 64 64" fill="none" xmlns="http://www.w3.org/2000/svg">
  <rect width="64" height="64" rx="18" fill="#0F1016"/>
  <rect x="3" y="3" width="58" height="58" rx="15" fill="url(#bg)"/>
  <rect x="3" y="3" width="58" height="58" rx="15" stroke="white" stroke-opacity="0.08"/>
  <circle cx="48" cy="16" r="13" fill="url(#glow)" opacity="0.95"/>
  <path d="M20 14H31.5C41.165 14 49 21.835 49 31.5V32.5C49 42.165 41.165 50 31.5 50H20V14ZM28 22V42H31.5C36.747 42 41 37.747 41 32.5V31.5C41 26.253 36.747 22 31.5 22H28Z" fill="white"/>
  <circle cx="44" cy="20" r="6" fill="#4F46E5"/>
  <circle cx="44" cy="20" r="2.2" fill="#F8FAFC"/>
  <defs>
    <linearGradient id="bg" x1="10" y1="8" x2="56" y2="60" gradientUnits="userSpaceOnUse">
      <stop stop-color="#1A1D29"/>
      <stop offset="1" stop-color="#12131A"/>
    </linearGradient>
    <radialGradient id="glow" cx="0" cy="0" r="1" gradientUnits="userSpaceOnUse" gradientTransform="translate(48 16) rotate(90) scale(13)">
      <stop stop-color="#6D63FF"/>
      <stop offset="1" stop-color="#6D63FF" stop-opacity="0"/>
    </radialGradient>
  </defs>
</svg>
