<?xml version="1.0" encoding="utf-8" ?><svg xmlns="http://www.w3.org/2000/svg" xmlns:xlink="http://www.w3.org/1999/xlink" width="178" height="178" viewBox="0 0 178 178"><path fill="#0F0749" transform="scale(0.173584 0.173584)" d="M532.861 200.751C549.736 199.893 566.652 201.254 583.173 204.798C648.932 219.272 689.949 258.284 725.069 313.342C743.041 314.74 764.041 321.031 780.304 328.849C824.935 350.856 859 389.686 875.009 436.801C890.095 480.269 889.467 528.46 870.29 570.409C867.481 576.553 864.318 582.397 861.379 588.462C876.436 607.62 878.878 641.764 873.252 664.668C866.004 693.246 847.839 717.842 822.658 733.176C804.541 744.132 774.665 751.539 753.916 746.43C747.332 753.745 741.45 759.991 734.088 766.519C680.915 813.664 613.827 822.135 552.264 785.722C532.94 799.22 517.057 807.648 494.793 815.15C418.807 837.065 344.777 809.799 301.14 743.389C297.537 737.905 293.355 731.334 290.935 725.279C244.429 729.713 204.234 715.972 171.968 681.511C126.857 633.333 128.209 550.473 178.687 506.698C140.652 420.507 168.051 324.864 250.626 277.2C284.11 257.783 323.264 250.5 361.491 256.575C373.444 258.532 382.291 261.468 393.789 264.566C431.778 226.357 478.939 203.967 532.861 200.751ZM375.549 282.022C376.018 281.867 378.681 279.38 379.224 278.897C362.03 273.575 338.405 272.119 320.661 274.074C316.086 274.578 310.457 275.779 305.715 276.478C300.635 277.986 296.074 279.116 290.995 280.858C288.359 281.762 283.205 284.046 280.996 284.644C271.104 289.308 262.354 293.869 253.697 300.734C252.039 302.048 249.842 303.818 248.025 304.869C231.126 319.55 219.997 332.195 208.037 351.355C204.905 356.374 202.343 362.318 199.629 366.774C197.195 367.057 194.202 367.489 191.801 367.592C173.358 411.079 176.503 454.954 193.47 498.21C193.761 498.953 193.662 498.721 194.147 499.415C201.007 512.865 208.928 525.747 217.834 537.939C220.798 541.943 227.634 548.84 229.661 551.971C232.225 555.179 233.312 556.411 234.685 560.39C224.416 580.149 217.642 561.643 209.514 555.906C201.267 546.963 193.485 532.879 186.358 523.235C184.39 525.556 182.454 527.904 180.552 530.279C173.727 538.884 168.208 548.448 164.171 558.662C164.023 559.009 163.875 559.356 163.726 559.702C160.733 571.355 158.147 579.884 157.465 592.115C157.427 608.263 157.976 619.512 163.818 635.214C165.237 639.029 169.562 646.767 170.37 649.633C172.228 654.89 176.584 659.659 180.037 663.881C190.68 676.891 205.599 689.36 220.962 696.547C242.188 706.477 260.738 708.885 283.684 707.882C278.42 694.521 275.297 683.945 271.795 670.131C269.688 660.95 260.345 616.278 280.436 623.933C290.05 627.596 284.443 648.368 288.057 657.887C289.178 667.421 290.843 677.278 294.514 686.19C294.843 686.988 294.741 686.691 294.877 687.594C295.497 690.783 297.643 696.706 298.83 699.937C310.026 730.425 330.973 758.644 357.668 777.232C368.165 784.542 386.464 794.62 398.534 798.356C420.713 804.938 444.917 808.079 467.749 803.485C488.782 799.254 508.487 791.9 527.136 781.352C529.925 779.774 535.541 777.081 536.957 774.394C540.021 772.83 546.272 768.028 549.182 765.876C561.677 756.635 573.501 747.113 584.357 735.951C589.622 730.803 594.206 725.008 599.488 719.883C602.867 716.605 608.195 716.21 611.532 719.67C613.35 721.565 614.306 724.125 614.174 726.748C613.778 734.131 589.032 757.053 583.07 762.634C581.442 763.509 571.408 772.874 569.46 774.762C575.484 778.323 581.245 781.181 587.883 783.491C619.652 794.678 654.579 792.67 684.857 777.918C716.861 762.619 739.954 739.298 757.678 708.949C760.309 704.444 766.86 693.41 768.465 688.865C771.4 681.037 773.246 673.215 776.008 665.419C777.359 661.608 782.509 659.995 786.378 661.385C788.594 662.177 790.407 663.811 791.423 665.933C793.694 670.752 789.242 684.465 787.246 689.438C786.319 691.135 785.366 693.692 784.613 695.528C779.531 707.928 772.828 719.044 765.249 730.069C781.393 730.129 790.24 728.372 805.206 721.959C820.901 715.233 841.627 697.757 847.546 681.476C854.84 669.591 857.436 653.698 858.223 639.997C857.979 625.754 855.786 616.608 850.758 603.567C843.295 612.299 835.542 620.874 826.766 628.362C823.797 630.895 820.507 633.255 816.436 632.24C813.913 631.616 811.778 629.94 810.572 627.638C806.223 619.37 818.653 612.793 823.663 607.644C838.359 592.538 853.149 572.078 858.942 551.407C861.475 544.891 862.987 537.616 864.403 530.781C870.245 502.58 867.933 479.881 861.274 452.357C852.079 415.546 827.356 382.303 797.541 359.331C794.035 356.629 787.603 352.034 783.474 350.682L783.047 350.504C768.388 344.252 762.48 340.03 745.491 335.09C742.211 334.133 738.902 333.278 735.569 332.527C738.44 338.455 748.531 359.897 749.89 365.947C752.38 378.192 758.512 390.883 759.818 403.899C761.353 419.204 745.181 422.252 742.44 406.913C741.246 401.627 735.124 374.272 732.626 370.714C731.731 368.648 730.849 366.119 730.073 363.976C725.291 350.767 719.118 338.522 712.222 326.282C711.698 323.633 704.38 313.919 702.565 311.021C686.731 285.746 665.012 264.278 640.396 247.558C633.424 242.823 626 237.854 618.102 234.837C614.638 233.367 603.689 228.5 600.612 228.336C595.453 225.825 586.787 223.757 580.997 222.47C548.342 215.33 514.353 217.282 482.729 228.113C437.032 243.979 391.41 284.459 364.961 325.867C364.802 326.116 364.456 327.079 364.392 327.246C364.362 326.989 364.342 326.509 364.22 326.239L364.115 326.184L364.251 326.266C362.087 328.241 355.196 340.7 353.662 343.856C350.342 346.26 344.32 367.021 335.751 362.115C324.19 355.497 334.443 341.329 339.065 333.523C341.15 330.823 346.439 321.182 348.772 317.624C356.309 306.128 366.106 291.835 375.549 282.022Z"/><path fill="#020485" transform="scale(0.173584 0.173584)" d="M446.793 260.566C479.934 239.474 524.566 223.83 564.245 224.507C569.964 224.657 575.668 225.152 581.327 225.991C586.07 226.713 596.213 228.774 600.612 228.336C603.689 228.5 614.638 233.367 618.102 234.837C626 237.854 633.424 242.823 640.396 247.558C665.012 264.278 686.731 285.746 702.565 311.021C704.38 313.919 711.698 323.633 712.222 326.282C719.118 338.522 725.291 350.767 730.073 363.976C730.849 366.119 731.731 368.648 732.626 370.714C735.124 374.272 741.246 401.627 742.44 406.913C745.181 422.252 761.353 419.204 759.818 403.899C758.512 390.883 752.38 378.192 749.89 365.947C748.531 359.897 738.44 338.455 735.569 332.527C738.902 333.278 742.211 334.133 745.491 335.09C762.48 340.03 768.388 344.252 783.047 350.504L783.474 350.682C787.603 352.034 794.035 356.629 797.541 359.331C827.356 382.303 852.079 415.546 861.274 452.357C867.933 479.881 870.245 502.58 864.403 530.781C862.987 537.616 861.475 544.891 858.942 551.407C853.149 572.078 838.359 592.538 823.663 607.644C818.653 612.793 806.223 619.37 810.572 627.638C811.778 629.94 813.913 631.616 816.436 632.24C820.507 633.255 823.797 630.895 826.766 628.362C835.542 620.874 843.295 612.299 850.758 603.567C855.786 616.608 857.979 625.754 858.223 639.997C857.436 653.698 854.84 669.591 847.546 681.476C841.627 697.757 820.901 715.233 805.206 721.959C790.24 728.372 781.393 730.129 765.249 730.069C772.828 719.044 779.531 707.928 784.613 695.528C785.366 693.692 786.319 691.135 787.246 689.438C789.242 684.465 793.694 670.752 791.423 665.933C790.407 663.811 788.594 662.177 786.378 661.385C782.509 659.995 777.359 661.608 776.008 665.419C773.246 673.215 771.4 681.037 768.465 688.865C766.86 693.41 760.309 704.444 757.678 708.949C739.954 739.298 716.861 762.619 684.857 777.918C654.579 792.67 619.652 794.678 587.883 783.491C581.245 781.181 575.484 778.323 569.46 774.762C571.408 772.874 581.442 763.509 583.07 762.634C589.032 757.053 613.778 734.131 614.174 726.748C614.306 724.125 613.35 721.565 611.532 719.67C608.195 716.21 602.867 716.605 599.488 719.883C594.206 725.008 589.622 730.803 584.357 735.951C573.501 747.113 561.677 756.635 549.182 765.876C546.272 768.028 540.021 772.83 536.957 774.394C535.541 777.081 529.925 779.774 527.136 781.352C508.487 791.9 488.782 799.254 467.749 803.485C444.917 808.079 420.713 804.938 398.534 798.356C386.464 794.62 368.165 784.542 357.668 777.232C330.973 758.644 310.026 730.425 298.83 699.937C297.643 696.706 295.497 690.783 294.877 687.594C299.972 688.87 310.064 701.713 315.589 706.024C325.606 713.838 332.542 717.98 344.001 723.218C340.07 718.328 332.832 712.517 328.027 707.858C319.934 700.012 313.113 692.479 305.631 684.062C301.799 679.546 290.494 658.49 289.215 657.549L288.057 657.887C284.443 648.368 290.05 627.596 280.436 623.933C260.345 616.278 269.688 660.95 271.795 670.131C275.297 683.945 278.42 694.521 283.684 707.882C260.738 708.885 242.188 706.477 220.962 696.547C205.599 689.36 190.68 676.891 180.037 663.881C176.584 659.659 172.228 654.89 170.37 649.633C169.562 646.767 165.237 639.029 163.818 635.214C157.976 619.512 157.427 608.263 157.465 592.115C158.147 579.884 160.733 571.355 163.726 559.702C163.875 559.356 164.023 559.009 164.171 558.662C168.208 548.448 173.727 538.884 180.552 530.279C182.454 527.904 184.39 525.556 186.358 523.235C193.485 532.879 201.267 546.963 209.514 555.906C217.642 561.643 224.416 580.149 234.685 560.39C233.312 556.411 232.225 555.179 229.661 551.971C227.634 548.84 220.798 541.943 217.834 537.939C208.928 525.747 201.007 512.865 194.147 499.415C193.662 498.721 193.761 498.953 193.47 498.21C176.503 454.954 173.358 411.079 191.801 367.592C194.202 367.489 197.195 367.057 199.629 366.774C197.487 371.195 195.56 375.717 193.855 380.324C181.448 413.489 181.355 455.747 196.072 488.162C191.341 444.87 198.174 400.631 220.749 362.817C230.832 344.131 253.319 319.783 270.621 307.59C301.28 285.468 338.328 277.776 375.549 282.022C366.106 291.835 356.309 306.128 348.772 317.624C346.439 321.182 341.15 330.823 339.065 333.523C334.443 341.329 324.19 355.497 335.751 362.115C344.32 367.021 350.342 346.26 353.662 343.856C355.591 342.554 355.674 342.345 357.136 340.314C358.768 337.962 366.128 329.251 366.669 327.886C368.202 325.905 375.179 319.363 377.476 317.026C394.141 300.072 412.375 284.25 431.946 270.731C436.36 267.682 442.237 263.168 446.793 260.566ZM162.051 591.959C162.744 607.778 166.948 622.358 177.713 634.288C180.07 637.85 182.022 637.833 178.165 633.291C171.24 620.904 170.184 605.929 169.779 592.119C169.937 586.865 170.16 582.075 170.798 576.836C171.143 574.007 173.189 565.123 172.404 563.016C164.786 570.438 162.3 581.69 162.051 591.959ZM422.887 615.512C458.398 610.762 448.354 576.925 426.599 562.377C418.585 557.018 407.023 552.146 397.157 552.7C389.824 553.314 381.574 555.423 377.106 561.407C366.048 576.218 379.164 594.959 391.273 603.948C401.17 611.296 410.945 615.336 422.887 615.512ZM548.782 631.634C550.322 627.162 552.197 619.403 546.383 617.058C541.108 617.052 538.59 621.967 538.087 626.237C535.789 645.763 489.497 646.081 487.542 625.758C487.148 621.668 485.12 618.043 480.831 617.378C479.218 618.045 476.636 619.03 476.128 620.876C474.886 625.392 477.659 632.819 479.82 636.756C489.829 654.986 518.916 656.606 535.457 647.435C541.701 643.972 546.002 638.087 548.782 631.634ZM649.692 578.09C650.58 573.056 650.063 569.153 648.193 564.434C647.015 562.531 646.726 562.069 645.296 560.437C642.092 557.219 639.017 555.402 634.652 554.224C611.522 546.734 580.204 567.885 576.935 591.713C575.499 602.18 582.68 611.71 592.711 614.388C613.758 620.28 643.085 601.275 648.946 581.044C649.23 580.069 649.479 579.083 649.692 578.09Z"/><path fill="#8DC8F6" fill-opacity="0.98431373" transform="scale(0.173584 0.173584)" d="M178.165 633.291C182.022 637.833 180.07 637.85 177.713 634.288L178.165 633.291Z"/><path fill="#2099F0" transform="scale(0.173584 0.173584)" d="M380.489 751.375C394.15 756.031 413.976 756.891 428.383 755.827C473.56 752.489 510.046 729.402 545.29 702.924C551.545 698.225 557.707 692.83 563.942 687.962C574.925 679.358 586.33 671.306 598.114 663.835C619.995 650.038 646.775 638.361 671.986 632.406C703.563 624.962 736.236 623.365 768.388 627.694C789.941 630.607 811.021 635.858 832.649 638.259C841.196 639.208 849.632 639.596 858.223 639.997C857.436 653.698 854.84 669.591 847.546 681.476C841.627 697.757 820.901 715.233 805.206 721.959C790.24 728.372 781.393 730.129 765.249 730.069C772.828 719.044 779.531 707.928 784.613 695.528C785.366 693.692 786.319 691.135 787.246 689.438C789.242 684.465 793.694 670.752 791.423 665.933C790.407 663.811 788.594 662.177 786.378 661.385C782.509 659.995 777.359 661.608 776.008 665.419C773.246 673.215 771.4 681.037 768.465 688.865C766.86 693.41 760.309 704.444 757.678 708.949C739.954 739.298 716.861 762.619 684.857 777.918C654.579 792.67 619.652 794.678 587.883 783.491C581.245 781.181 575.484 778.323 569.46 774.762C571.408 772.874 581.442 763.509 583.07 762.634C589.032 757.053 613.778 734.131 614.174 726.748C614.306 724.125 613.35 721.565 611.532 719.67C608.195 716.21 602.867 716.605 599.488 719.883C594.206 725.008 589.622 730.803 584.357 735.951C573.501 747.113 561.677 756.635 549.182 765.876C546.272 768.028 540.021 772.83 536.957 774.394C532.642 775.461 528.32 776.5 523.992 777.511C469.98 789.892 425.507 781.659 378.736 752.255L380.489 751.375Z"/><path fill="#020485" transform="scale(0.173584 0.173584)" d="M768.465 688.865C766.86 693.41 760.309 704.444 757.678 708.949C739.954 739.298 716.861 762.619 684.857 777.918C654.579 792.67 619.652 794.678 587.883 783.491C581.245 781.181 575.484 778.323 569.46 774.762C571.408 772.874 581.442 763.509 583.07 762.634C589.966 760.844 612.132 747.01 618.481 742.882C670.827 708.854 703.145 686.312 768.465 688.865Z"/><path fill="#020485" transform="scale(0.173584 0.173584)" d="M787.246 689.438C807.623 689.683 827.93 687.002 847.546 681.476C841.627 697.757 820.901 715.233 805.206 721.959C790.24 728.372 781.393 730.129 765.249 730.069C772.828 719.044 779.531 707.928 784.613 695.528C785.366 693.692 786.319 691.135 787.246 689.438Z"/><path fill="#2099F0" transform="scale(0.173584 0.173584)" d="M194.147 499.415C203.5 497.171 213.222 495.89 222.743 493.567C277.705 480.159 327.028 451.79 377.484 427.378C423.218 405.252 472.406 387.736 523.397 384.321C577.796 380.308 623.447 394.334 672.862 415.91C711.764 432.896 747.168 456.312 791.71 455.197C803.087 454.912 811.332 453.453 822.401 451.477C761.255 486.266 691.775 454.565 629.114 441.563C596.776 434.852 568.638 431.408 535.563 434.724C486.591 439.634 439.844 458.257 396.088 479.939C358.742 498.444 323 520.103 284.019 534.917C267.596 541.157 247.015 549.355 229.661 551.971C227.634 548.84 220.798 541.943 217.834 537.939C208.928 525.747 201.007 512.865 194.147 499.415Z"/><path fill="#2099F0" transform="scale(0.173584 0.173584)" d="M157.465 592.115L162.051 591.959C162.744 607.778 166.948 622.358 177.713 634.288C180.07 637.85 182.022 637.833 178.165 633.291C171.24 620.904 170.184 605.929 169.779 592.119C177.182 591.718 188.479 593.216 195.862 594.297C220.467 597.898 243.872 604.513 267.808 610.896C295.923 618.392 324.613 625.567 352.025 635.363C380.361 645.568 408.062 657.455 434.981 670.961C443.624 675.213 458.184 682.159 466.071 687.59C454.77 684.19 443.24 681.451 432.014 678.505C382.218 665.438 353.326 666.231 305.631 684.062C301.799 679.546 290.494 658.49 289.215 657.549L288.057 657.887C284.443 648.368 290.05 627.596 280.436 623.933C260.345 616.278 269.688 660.95 271.795 670.131C275.297 683.945 278.42 694.521 283.684 707.882C260.738 708.885 242.188 706.477 220.962 696.547C205.599 689.36 190.68 676.891 180.037 663.881C176.584 659.659 172.228 654.89 170.37 649.633C169.562 646.767 165.237 639.029 163.818 635.214C157.976 619.512 157.427 608.263 157.465 592.115Z"/><path fill="#020485" transform="scale(0.173584 0.173584)" d="M170.37 649.633C199.784 648.877 219.731 651.02 247.877 660.921C252.347 662.493 268.918 669.505 271.795 670.131C275.297 683.945 278.42 694.521 283.684 707.882C260.738 708.885 242.188 706.477 220.962 696.547C205.599 689.36 190.68 676.891 180.037 663.881C176.584 659.659 172.228 654.89 170.37 649.633Z"/><path fill="#2099F0" transform="scale(0.173584 0.173584)" d="M482.944 494.316C526.464 471.278 577.205 476.093 622.365 491.089C633.852 494.903 644.467 499.812 655.613 503.746C687.245 514.912 721.614 526.287 755.545 521.036C796.17 515.167 837.164 484.78 861.274 452.357C867.933 479.881 870.245 502.58 864.403 530.781C862.987 537.616 861.475 544.891 858.942 551.407C837.743 558.655 818.919 564.7 796.564 566.207C722.033 571.234 656.351 533.481 589.813 506.237C559.458 493.809 516.942 488.744 484.499 495.418L482.944 494.316Z"/><path fill="#2099F0" transform="scale(0.173584 0.173584)" d="M270.621 307.59C301.28 285.468 338.328 277.776 375.549 282.022C366.106 291.835 356.309 306.128 348.772 317.624C346.439 321.182 341.15 330.823 339.065 333.523C334.443 341.329 324.19 355.497 335.751 362.115C344.32 367.021 350.342 346.26 353.662 343.856C355.591 342.554 355.674 342.345 357.136 340.314C368.306 344.272 378.293 348.07 390.022 350.395C417.372 355.816 453.245 353.473 479.486 344.057C471.267 349.365 464.549 353.552 455.464 357.586C425.213 371.017 389.245 371.634 356.829 367.595C339.366 365.42 320.657 361.33 302.99 359.651C277.715 357.249 245.498 357.592 220.749 362.817C230.832 344.131 253.319 319.783 270.621 307.59Z"/><path fill="#020485" transform="scale(0.173584 0.173584)" d="M270.621 307.59C301.28 285.468 338.328 277.776 375.549 282.022C366.106 291.835 356.309 306.128 348.772 317.624C346.439 321.182 341.15 330.823 339.065 333.523C326.662 325.058 305.903 318.881 291.654 313.955C284.856 311.606 277.416 310.056 270.621 307.59Z"/><path fill="#2099F0" transform="scale(0.173584 0.173584)" d="M533.687 316.709C545.715 320.555 558.514 325.705 570.923 329.688C621.596 345.951 662.732 345.483 712.222 326.282C719.118 338.522 725.291 350.767 730.073 363.976C730.849 366.119 731.731 368.648 732.626 370.714C726.751 372.452 720.759 373.767 714.696 374.648C648.308 384.466 585.77 355.518 533.687 316.709Z"/><path fill="#2099F0" transform="scale(0.173584 0.173584)" d="M446.793 260.566C479.934 239.474 524.566 223.83 564.245 224.507C569.964 224.657 575.668 225.152 581.327 225.991C586.07 226.713 596.213 228.774 600.612 228.336C603.689 228.5 614.638 233.367 618.102 234.837C613.454 238.488 604.137 243.331 598.506 246.001C561.287 263.643 516.222 270.904 475.336 266.733C466.299 265.811 455.617 262.913 446.793 260.566Z"/><path fill="#2099F0" transform="scale(0.173584 0.173584)" d="M163.726 559.702C163.875 559.356 164.023 559.009 164.171 558.662C168.208 548.448 173.727 538.884 180.552 530.279C182.454 527.904 184.39 525.556 186.358 523.235C193.485 532.879 201.267 546.963 209.514 555.906C205.252 558.339 178.074 559.472 171.808 559.509L163.726 559.702Z"/><path fill="#2099F0" transform="scale(0.173584 0.173584)" d="M735.569 332.527C738.902 333.278 742.211 334.133 745.491 335.09C762.48 340.03 768.388 344.252 783.047 350.504L783.474 350.682C775.289 356.111 759.458 363.13 749.89 365.947C748.531 359.897 738.44 338.455 735.569 332.527Z"/><path fill="#2D6DDA" transform="scale(0.173584 0.173584)" d="M482.944 494.316L484.499 495.418C483.518 495.659 479.564 496.976 478.96 496.681C479.039 495.954 482.252 494.65 482.944 494.316Z"/><path fill="#2D6DDA" transform="scale(0.173584 0.173584)" d="M378.736 752.255C378.164 751.852 376.589 750.946 376.403 750.352L376.434 750.293C377.022 750.079 379.697 751.13 380.489 751.375L378.736 752.255Z"/><defs><linearGradient id="gradient_0" gradientUnits="userSpaceOnUse" x1="590.56238" y1="606.51062" x2="636.49969" y2="558.21912"><stop offset="0" stop-color="white" stop-opacity="0.10196079"/><stop offset="1" stop-color="#FFFFFE" stop-opacity="0.51764709"/></linearGradient></defs><path fill="url(#gradient_0)" transform="scale(0.173584 0.173584)" d="M595.081 573.378C597.236 572.621 601.937 566.482 604.597 565.176C607.847 562.909 612.586 563.836 615.887 562.81C620.361 561.419 628.356 557.392 633.09 557.927C638.65 558.555 633.231 562.202 643.245 561.755C643.35 565.656 643.434 566.51 642.441 570.262L642.771 570.817C644.484 570.122 645.005 569.504 646.302 569.971C647.597 575.223 636.364 585.354 635.532 592.582C633.236 596.701 626.927 600.332 622.92 603.569C621.085 603.829 618.916 603.944 617.042 604.095C610.847 609.138 609.065 608.015 601.058 607.887C596.811 607.819 587.46 607.572 586.24 602.33C585.43 598.845 583.849 596.198 582.575 592.897C580.871 588.736 584.445 586.572 586.073 583.283C585.873 582.124 585.701 581.983 585.89 580.909C588.901 579.406 594.498 577.067 595.081 573.378Z"/><path fill="#FEFEFD" fill-opacity="0.25882354" transform="scale(0.173584 0.173584)" d="M634.652 554.224C639.017 555.402 642.092 557.219 645.296 560.437C645.224 562.966 644.956 566.312 646.959 568.255C646.938 568.261 648.051 564.857 648.193 564.434C650.063 569.153 650.58 573.056 649.692 578.09C642.002 582.821 642.544 588.091 635.532 592.582C636.364 585.354 647.597 575.223 646.302 569.971C645.005 569.504 644.484 570.122 642.771 570.817L642.441 570.262C643.434 566.51 643.35 565.656 643.245 561.755C633.231 562.202 638.65 558.555 633.09 557.927C628.356 557.392 620.361 561.419 615.887 562.81C612.586 563.836 607.847 562.909 604.597 565.176C601.937 566.482 597.236 572.621 595.081 573.378C598.605 563.327 604.763 561.874 613.578 558.485C621.649 555.383 625.848 555.571 633.835 554.355L634.652 554.224Z"/><path fill="#FEFEFD" fill-opacity="0.23529412" transform="scale(0.173584 0.173584)" d="M645.296 560.437C646.726 562.069 647.015 562.531 648.193 564.434C648.051 564.857 646.938 568.261 646.959 568.255C644.956 566.312 645.224 562.966 645.296 560.437Z"/><path fill="#2099F0" transform="scale(0.173584 0.173584)" d="M242.118 303.681C244.805 304.471 245.397 304.431 248.025 304.869C231.126 319.55 219.997 332.195 208.037 351.355C204.905 356.374 202.343 362.318 199.629 366.774C197.195 367.057 194.202 367.489 191.801 367.592C206.705 337.235 216.431 325.593 242.118 303.681Z"/><path fill="#020485" transform="scale(0.173584 0.173584)" d="M274.388 284.639C277.243 284.119 278.798 282.922 280.996 284.644C271.104 289.308 262.354 293.869 253.697 300.734C252.039 302.048 249.842 303.818 248.025 304.869C245.397 304.431 244.805 304.471 242.118 303.681C243.413 303.579 266.01 286.507 274.388 284.639Z"/><path fill="#0A0860" transform="scale(0.173584 0.173584)" d="M274.388 284.639C279.654 281.224 299.769 274.227 305.715 276.478C300.635 277.986 296.074 279.116 290.995 280.858C288.359 281.762 283.205 284.046 280.996 284.644C278.798 282.922 277.243 284.119 274.388 284.639Z"/><path fill="#FEFEFD" fill-opacity="0.98823529" transform="scale(0.173584 0.173584)" d="M353.662 343.856C355.196 340.7 362.087 328.241 364.251 326.266L364.115 326.184L364.22 326.239C364.342 326.509 364.362 326.989 364.392 327.246L364.977 327.581C365.623 327.986 365.905 327.999 366.669 327.886C366.128 329.251 358.768 337.962 357.136 340.314C355.674 342.345 355.591 342.554 353.662 343.856Z"/></svg>